<svg width="49" height="49" viewBox="0 0 49 49" fill="none" xmlns="http://www.w3.org/2000/svg">
<g clip-path="url(#clip0_157_1048)">
<path d="M24.5 49C38.031 49 49 38.031 49 24.5C49 10.969 38.031 0 24.5 0C10.969 0 0 10.969 0 24.5C0 38.031 10.969 49 24.5 49Z" fill="#EF5350"/>
<mask id="mask0_157_1048" style="mask-type:luminance" maskUnits="userSpaceOnUse" x="9" y="7" width="31" height="31">
<path d="M9 7H40V38H9V7Z" fill="white"/>
</mask>
<g mask="url(#mask0_157_1048)">
<path d="M16.9685 24.4497C16.2824 23.8947 15.8438 23.046 15.8438 22.0948C15.8438 20.4229 17.1992 19.0675 18.8711 19.0675C20.543 19.0675 21.8984 20.4229 21.8984 22.0948C21.8984 23.046 21.4597 23.8947 20.7737 24.4497" stroke="white" stroke-width="0.908203" stroke-miterlimit="10" stroke-linecap="round" stroke-linejoin="round"/>
<path d="M16.9469 24.432C16.2732 23.8768 15.8438 23.0359 15.8438 22.0948C15.8438 20.4229 17.1992 19.0675 18.8711 19.0675C20.5431 19.0675 21.8984 20.4229 21.8984 22.0948C21.8984 23.046 21.4597 23.8947 20.7737 24.4497" stroke="white" stroke-width="0.908203" stroke-miterlimit="10" stroke-linecap="round" stroke-linejoin="round"/>
<path d="M17.1993 26.4063C17.4752 28.1299 17.3416 29.9013 16.7999 31.5745L16.375 32.8872" stroke="white" stroke-width="0.908203" stroke-miterlimit="10" stroke-linecap="round" stroke-linejoin="round"/>
<path d="M21.3676 32.8872L20.9426 31.5746C20.4009 29.9013 20.2674 28.13 20.5433 26.4063" stroke="white" stroke-width="0.908203" stroke-miterlimit="10" stroke-linecap="round" stroke-linejoin="round"/>
<path d="M15.0703 34.7417V33.8125C15.0703 33.3017 15.4845 32.8875 15.9952 32.8875H21.7471" stroke="white" stroke-width="0.908203" stroke-miterlimit="10" stroke-linecap="round" stroke-linejoin="round"/>
<path d="M20.3732 34.7415H14.1751C13.675 34.7415 13.2695 35.147 13.2695 35.6471V36.8118C13.2695 37.2172 13.5982 37.5459 14.0036 37.5459H20.4168" stroke="white" stroke-width="0.908203" stroke-miterlimit="10" stroke-linecap="round" stroke-linejoin="round"/>
<path d="M21.7106 26.4067H16.0318C15.4913 26.4067 15.0532 25.9686 15.0532 25.4282C15.0532 24.8877 15.4913 24.4496 16.0318 24.4496H21.7106C22.251 24.4496 22.6892 24.8877 22.6892 25.4282C22.6892 25.9686 22.251 26.4067 21.7106 26.4067Z" stroke="white" stroke-width="0.908203" stroke-miterlimit="10" stroke-linecap="round" stroke-linejoin="round"/>
<path d="M31.6451 19.9546L32.6641 17.8651C33.2135 16.7383 32.8281 15.3786 31.7691 14.7078L31.119 14.296H26.4481L25.7981 14.7078C24.739 15.3786 24.3536 16.7383 24.9031 17.8651L25.922 19.9546" stroke="white" stroke-width="0.908203" stroke-miterlimit="10" stroke-linecap="round" stroke-linejoin="round"/>
<path d="M31.1191 14.2964V13.1365C31.1191 12.6654 30.7372 12.2834 30.2661 12.2834H30.235C29.9129 12.2834 29.6517 12.0222 29.6517 11.7001V11.0407C29.6517 10.7665 29.8694 10.5318 30.1437 10.5335C30.4898 10.5358 30.7712 10.2558 30.7712 9.91013V9.42109C30.7712 9.08052 30.4979 8.7911 30.1574 8.79758C29.879 8.80291 29.6517 8.57882 29.6517 8.30158V8.0778C29.6517 7.73347 29.3725 7.45435 29.0282 7.45435H28.5393C28.1949 7.45435 27.9158 7.73347 27.9158 8.0778V8.29056C27.9158 8.56478 27.6981 8.79946 27.4238 8.7977C27.0776 8.79546 26.7963 9.07543 26.7963 9.42109V9.91007C26.7963 10.2506 27.0695 10.5401 27.41 10.5336C27.6884 10.5283 27.9158 10.7524 27.9158 11.0296V11.7001C27.9158 12.0222 27.6546 12.2834 27.3324 12.2834H27.3013C26.8302 12.2834 26.4482 12.6654 26.4482 13.1365V14.2964" stroke="white" stroke-width="0.908203" stroke-miterlimit="10" stroke-linecap="round" stroke-linejoin="round"/>
<path d="M30.5958 19.9545H32.6528C33.1932 19.9545 33.6314 20.3926 33.6314 20.9331C33.6314 21.4735 33.1932 21.9116 32.6528 21.9116H24.9141C24.3737 21.9116 23.9355 21.4735 23.9355 20.9331C23.9355 20.3926 24.3737 19.9545 24.9141 19.9545H28.8739" stroke="white" stroke-width="0.908203" stroke-miterlimit="10" stroke-linecap="round" stroke-linejoin="round"/>
<path d="M26.2918 21.9119L26.3283 22.0367C27.1055 24.688 27.066 27.512 26.215 30.1406L25.688 31.7686" stroke="white" stroke-width="0.908203" stroke-miterlimit="10" stroke-linecap="round" stroke-linejoin="round"/>
<path d="M31.8791 31.7686L31.3521 30.1406C30.5012 27.512 30.4617 24.688 31.2388 22.0366L31.2753 21.9119" stroke="white" stroke-width="0.908203" stroke-miterlimit="10" stroke-linecap="round" stroke-linejoin="round"/>
<path d="M24.0698 34.0679V32.8782C24.0698 32.2653 24.5667 31.7684 25.1797 31.7684H32.3875C33.0004 31.7684 33.4973 32.2653 33.4973 32.8782V34.0679" stroke="white" stroke-width="0.908203" stroke-miterlimit="10" stroke-linecap="round" stroke-linejoin="round"/>
<path d="M25.6878 34.068H22.9463C22.3333 34.068 21.8364 34.5649 21.8364 35.1779V36.6075C21.8364 37.1258 22.2566 37.5459 22.7748 37.5459H34.792C35.3103 37.5459 35.7304 37.1258 35.7304 36.6075V35.1779C35.7304 34.5649 35.2335 34.068 34.6205 34.068H27.3444" stroke="white" stroke-width="0.908203" stroke-miterlimit="10" stroke-linecap="round" stroke-linejoin="round"/>
</g>
</g>
<defs>
<clipPath id="clip0_157_1048">
<rect width="49" height="49" fill="white"/>
</clipPath>
</defs>
</svg>
