<svg width="48" height="48" viewBox="0 0 48 48" fill="none" xmlns="http://www.w3.org/2000/svg">
<g clip-path="url(#clip0_157_1008)">
<path d="M24 48C37.2548 48 48 37.2548 48 24C48 10.7452 37.2548 0 24 0C10.7452 0 0 10.7452 0 24C0 37.2548 10.7452 48 24 48Z" fill="#739E16"/>
<path fill-rule="evenodd" clip-rule="evenodd" d="M22.0561 7.01592V8.94387C22.0561 9.26857 22.32 9.53255 22.6447 9.53255C22.9694 9.53255 23.2334 9.26857 23.2334 8.94387V7.01592C23.2334 6.69122 22.9694 6.42725 22.6447 6.42725C22.32 6.42725 22.0561 6.69122 22.0561 7.01592Z" fill="white"/>
<path fill-rule="evenodd" clip-rule="evenodd" d="M31.7903 10.61L30.4265 11.9737C30.1969 12.2034 30.1969 12.5769 30.4265 12.8066C30.6562 13.0362 31.0297 13.0362 31.2594 12.8066L32.6231 11.4428C32.8528 11.2131 32.8528 10.8396 32.6231 10.61C32.3935 10.3803 32.02 10.3803 31.7903 10.61Z" fill="white"/>
<path fill-rule="evenodd" clip-rule="evenodd" d="M12.607 11.4685L13.9708 12.8322C14.2005 13.0619 14.5739 13.0619 14.8036 12.8322C15.0333 12.6026 15.0333 12.2291 14.8036 11.9994L13.4398 10.6356C13.2102 10.406 12.8367 10.406 12.607 10.6356C12.3773 10.8653 12.3773 11.2388 12.607 11.4685Z" fill="white"/>
<path fill-rule="evenodd" clip-rule="evenodd" d="M9.0125 21.2027H10.9405C11.2652 21.2027 11.5291 20.9388 11.5291 20.6141C11.5291 20.2894 11.2652 20.0254 10.9405 20.0254H9.0125C8.6878 20.0254 8.42383 20.2894 8.42383 20.6141C8.42383 20.9388 8.6878 21.2027 9.0125 21.2027Z" fill="white"/>
<path fill-rule="evenodd" clip-rule="evenodd" d="M17.5189 29.7179L14.4532 32.7843C14.4479 32.789 14.4432 32.7937 14.4384 32.799L14.2389 32.9979C14.0287 33.2087 13.8698 33.4653 13.7762 33.7473C13.3541 35.0129 11.7312 39.8811 11.7312 39.8811C11.7106 39.9435 11.7006 40.0077 11.7012 40.0718C11.7012 40.3968 11.9649 40.6611 12.2899 40.6611H35.3887C35.7131 40.6611 35.9774 40.3973 35.9774 40.0724C35.9774 39.7481 35.7131 39.4837 35.3887 39.4837H25.2627C25.4834 39.1288 25.6082 38.7191 25.6206 38.2959H25.7524C26.9297 38.2959 27.8839 37.3416 27.8839 36.1649V36.1631C27.8839 35.5186 27.5973 34.9411 27.1452 34.5502C27.1587 34.5373 27.1723 34.5243 27.1852 34.5108C27.6326 34.064 27.8839 33.4571 27.8839 32.8249V29.5937L37.5738 19.9033C38.9872 18.4899 38.9872 16.1977 37.5738 14.7837H37.5732C36.1599 13.3698 33.8676 13.3698 32.4537 14.7837L30.464 16.7734C28.8682 14.1668 25.9949 12.4268 22.7179 12.4268C17.7084 12.4268 13.6414 16.4938 13.6414 21.5033C13.6414 24.35 14.9547 26.8924 17.0079 28.5565L17.0185 28.5654C17.3087 28.7896 17.4783 29.1358 17.4783 29.5031C17.4783 29.579 17.493 29.6514 17.5189 29.7179ZM19.2083 38.2541C19.0306 38.3977 18.8275 38.5083 18.6097 38.5813L15.9013 39.4837H20.1731C19.9524 39.1288 19.8276 38.7191 19.8152 38.2959H19.631C19.4862 38.2959 19.3449 38.2811 19.2083 38.2541ZM24.4421 38.2959C24.425 38.5908 24.3002 38.8698 24.0906 39.0799C23.864 39.306 23.5573 39.4331 23.2371 39.4331H22.1987C21.8785 39.4331 21.5718 39.306 21.3451 39.0799C21.1356 38.8698 21.0108 38.5908 20.9937 38.2959H24.4421ZM15.0036 33.9086L17.4153 34.9417L18.449 37.3534C18.3848 37.4017 18.3136 37.4388 18.2376 37.4647L13.2205 39.1364L14.8929 34.1199C14.9182 34.0434 14.9559 33.9722 15.0036 33.9086ZM25.7524 35.2095H22.2676L20.3586 37.1185H25.7524C26.2793 37.1185 26.7066 36.6912 26.7066 36.1643V36.1631C26.7066 35.6363 26.2793 35.2095 25.7524 35.2095ZM19.3484 36.464L33.7523 22.0601L30.2974 18.6047L15.8936 33.0091L18.0952 33.9527C18.2341 34.0122 18.3448 34.1229 18.4048 34.2618L19.3484 36.464ZM26.7066 30.771L23.4449 34.0322H25.4993C25.8195 34.0322 26.1262 33.9051 26.3528 33.6784C26.5795 33.4524 26.7066 33.1451 26.7066 32.8249V30.771ZM29.604 17.6328C28.2489 15.2294 25.6718 13.6041 22.7179 13.6041C18.3583 13.6041 14.8187 17.1437 14.8187 21.5033C14.8187 23.9791 15.9607 26.1901 17.742 27.6365C18.104 27.9173 18.3718 28.294 18.5208 28.7161L21.4858 25.751C20.0101 25.2489 18.9464 23.8502 18.9464 22.2049C18.9464 21.88 19.2107 21.6163 19.535 21.6163C19.86 21.6163 20.1237 21.88 20.1237 22.2049C20.1237 23.5041 21.0903 24.579 22.3429 24.7491C22.3835 24.755 22.4224 24.7644 22.4601 24.7773L29.604 17.6328ZM31.1298 17.7724L34.5846 21.2272L35.4676 20.3448L32.0122 16.8899L31.1298 17.7724ZM36.3 19.5124L32.8446 16.0576L33.286 15.6161C34.2403 14.6619 35.7866 14.6619 36.7409 15.6161H36.7415C37.6951 16.5703 37.6951 18.1173 36.7415 19.0709L36.3 19.5124Z" fill="white"/>
</g>
<defs>
<clipPath id="clip0_157_1008">
<rect width="48" height="48" fill="white"/>
</clipPath>
</defs>
</svg>
