<svg width="169" height="156" viewBox="0 0 169 156" fill="none" xmlns="http://www.w3.org/2000/svg">
<rect width="168.059" height="155.701" rx="5.43719" fill="#F3EEFF"/>
<mask id="mask0_287_15" style="mask-type:alpha" maskUnits="userSpaceOnUse" x="0" y="0" width="169" height="156">
<rect width="168.059" height="155.701" rx="5.43719" fill="#F8E6D6"/>
</mask>
<g mask="url(#mask0_287_15)">
<ellipse cx="84.3369" cy="171.29" rx="97.4128" ry="89.5675" fill="#E1D5FF"/>
<path d="M56.8511 93.0131C56.8511 90.3949 59.1167 88.2725 61.9145 88.2725H97.8723C100.667 88.2725 102.936 90.3949 102.936 93.0131V143.348C102.936 145.966 100.67 148.089 97.8723 148.089H61.9145C59.1197 148.089 56.8511 145.966 56.8511 143.348V93.0131Z" stroke="#32B777" stroke-width="3.07766" stroke-miterlimit="2.61313"/>
<path d="M62.7205 102.389H97.1851M62.7205 107.862H97.1851" stroke="#FFD529" stroke-width="0.615532" stroke-miterlimit="2.61313" stroke-linecap="round"/>
<path d="M62.7205 113.697H97.1851M62.7205 119.169H86.3436" stroke="#FFD529" stroke-width="0.615532" stroke-miterlimit="2.61313" stroke-linecap="round"/>
<path d="M104.861 110.956C105.414 110.255 106.47 110.107 107.221 110.625L110.302 112.759C111.05 113.278 111.208 114.269 110.654 114.97L91.389 139.38L86.7179 140.727C86.1766 140.881 85.6292 140.505 85.6261 139.978L85.5957 135.368L104.861 110.959V110.956Z" fill="#FFD529"/>
</g>
<path d="M22.1842 21.8162C22.1842 20.6751 22.439 19.6559 22.9486 18.7585C23.4692 17.8501 24.1727 17.1466 25.059 16.6481C25.9563 16.1385 26.9589 15.8837 28.0668 15.8837C29.363 15.8837 30.4985 16.216 31.4734 16.8807C32.4483 17.5454 33.1296 18.465 33.5173 19.6393H30.8419C30.576 19.0853 30.1994 18.6699 29.7119 18.3929C29.2356 18.116 28.6816 17.9775 28.0502 17.9775C27.3744 17.9775 26.7706 18.1381 26.2388 18.4594C25.7182 18.7696 25.3083 19.2127 25.0091 19.7888C24.7211 20.3649 24.5771 21.0407 24.5771 21.8162C24.5771 22.5806 24.7211 23.2564 25.0091 23.8435C25.3083 24.4196 25.7182 24.8683 26.2388 25.1895C26.7706 25.4997 27.3744 25.6548 28.0502 25.6548C28.6816 25.6548 29.2356 25.5164 29.7119 25.2394C30.1994 24.9514 30.576 24.5304 30.8419 23.9765H33.5173C33.1296 25.1618 32.4483 26.0869 31.4734 26.7516C30.5096 27.4052 29.374 27.732 28.0668 27.732C26.9589 27.732 25.9563 27.4828 25.059 26.9842C24.1727 26.4746 23.4692 25.7712 22.9486 24.8738C22.439 23.9765 22.1842 22.9572 22.1842 21.8162ZM37.8309 19.8553C38.13 19.3678 38.5178 18.9856 38.9941 18.7087C39.4816 18.4317 40.0355 18.2932 40.6559 18.2932V20.736H40.041C39.3099 20.736 38.756 20.9077 38.3793 21.2512C38.0137 21.5946 37.8309 22.1928 37.8309 23.0459V27.6323H35.5044V18.4262H37.8309V19.8553ZM50.7809 22.8298C50.7809 23.1622 50.7588 23.4613 50.7145 23.7272H43.9844C44.0397 24.3919 44.2724 24.9126 44.6823 25.2892C45.0922 25.6659 45.5963 25.8542 46.1945 25.8542C47.0586 25.8542 47.6735 25.4831 48.039 24.7409H50.5483C50.2824 25.6271 49.7728 26.3583 49.0195 26.9344C48.2661 27.4994 47.3411 27.7819 46.2443 27.7819C45.3581 27.7819 44.5604 27.588 43.8514 27.2003C43.1535 26.8014 42.6051 26.242 42.2063 25.5219C41.8185 24.8018 41.6247 23.9709 41.6247 23.0293C41.6247 22.0765 41.8185 21.2401 42.2063 20.52C42.594 19.7999 43.1369 19.246 43.8348 18.8582C44.5327 18.4705 45.3359 18.2766 46.2443 18.2766C47.1195 18.2766 47.9006 18.465 48.5874 18.8416C49.2854 19.2183 49.8227 19.7556 50.1993 20.4535C50.5871 21.1404 50.7809 21.9325 50.7809 22.8298ZM48.3714 22.1651C48.3603 21.5669 48.1443 21.0905 47.7233 20.736C47.3023 20.3704 46.7872 20.1876 46.1779 20.1876C45.6018 20.1876 45.1143 20.3649 44.7155 20.7194C44.3278 21.0628 44.0896 21.5447 44.001 22.1651H48.3714ZM51.8808 22.996C51.8808 22.0654 52.0636 21.2401 52.4292 20.52C52.8059 19.7999 53.3099 19.246 53.9414 18.8582C54.5839 18.4705 55.2985 18.2766 56.0851 18.2766C56.7719 18.2766 57.3702 18.4151 57.8798 18.6921C58.4005 18.969 58.8159 19.318 59.1261 19.739V18.4262H61.4692V27.6323H59.1261V26.2863C58.827 26.7184 58.4115 27.0784 57.8798 27.3664C57.3591 27.6434 56.7553 27.7819 56.0685 27.7819C55.293 27.7819 54.5839 27.5825 53.9414 27.1836C53.3099 26.7848 52.8059 26.2254 52.4292 25.5053C52.0636 24.7741 51.8808 23.9377 51.8808 22.996ZM59.1261 23.0293C59.1261 22.4643 59.0153 21.9823 58.7937 21.5835C58.5722 21.1736 58.2731 20.8634 57.8964 20.6529C57.5197 20.4314 57.1154 20.3206 56.6833 20.3206C56.2512 20.3206 55.8524 20.4258 55.4868 20.6363C55.1212 20.8468 54.8221 21.157 54.5895 21.5669C54.3679 21.9657 54.2571 22.4421 54.2571 22.996C54.2571 23.5499 54.3679 24.0374 54.5895 24.4584C54.8221 24.8683 55.1212 25.184 55.4868 25.4056C55.8635 25.6271 56.2623 25.7379 56.6833 25.7379C57.1154 25.7379 57.5197 25.6327 57.8964 25.4222C58.2731 25.2006 58.5722 24.8904 58.7937 24.4916C59.0153 24.0817 59.1261 23.5943 59.1261 23.0293ZM66.45 20.3372V24.7907C66.45 25.1009 66.522 25.328 66.6661 25.472C66.8212 25.605 67.076 25.6714 67.4305 25.6714H68.5106V27.6323H67.0483C65.0874 27.6323 64.1069 26.6796 64.1069 24.7741V20.3372H63.0102V18.4262H64.1069V16.1496H66.45V18.4262H68.5106V20.3372H66.45ZM71.3638 17.3294C70.9539 17.3294 70.6104 17.202 70.3335 16.9472C70.0676 16.6813 69.9347 16.3545 69.9347 15.9668C69.9347 15.579 70.0676 15.2578 70.3335 15.003C70.6104 14.7371 70.9539 14.6041 71.3638 14.6041C71.7737 14.6041 72.1116 14.7371 72.3774 15.003C72.6544 15.2578 72.7929 15.579 72.7929 15.9668C72.7929 16.3545 72.6544 16.6813 72.3774 16.9472C72.1116 17.202 71.7737 17.3294 71.3638 17.3294ZM72.5104 18.4262V27.6323H70.1839V18.4262H72.5104ZM78.6476 25.4887L80.9741 18.4262H83.4501L80.0435 27.6323H77.2185L73.8285 18.4262H76.3211L78.6476 25.4887ZM93.3148 22.8298C93.3148 23.1622 93.2927 23.4613 93.2484 23.7272H86.5182C86.5736 24.3919 86.8063 24.9126 87.2162 25.2892C87.6261 25.6659 88.1301 25.8542 88.7284 25.8542C89.5925 25.8542 90.2073 25.4831 90.5729 24.7409H93.0822C92.8163 25.6271 92.3067 26.3583 91.5534 26.9344C90.8 27.4994 89.875 27.7819 88.7782 27.7819C87.892 27.7819 87.0943 27.588 86.3853 27.2003C85.6874 26.8014 85.139 26.242 84.7401 25.5219C84.3524 24.8018 84.1585 23.9709 84.1585 23.0293C84.1585 22.0765 84.3524 21.2401 84.7401 20.52C85.1279 19.7999 85.6707 19.246 86.3687 18.8582C87.0666 18.4705 87.8698 18.2766 88.7782 18.2766C89.6534 18.2766 90.4344 18.465 91.1213 18.8416C91.8192 19.2183 92.3565 19.7556 92.7332 20.4535C93.121 21.1404 93.3148 21.9325 93.3148 22.8298ZM90.9053 22.1651C90.8942 21.5669 90.6782 21.0905 90.2572 20.736C89.8362 20.3704 89.3211 20.1876 88.7118 20.1876C88.1357 20.1876 87.6482 20.3649 87.2494 20.7194C86.8617 21.0628 86.6235 21.5447 86.5348 22.1651H90.9053ZM38.2534 37.0332L35.0129 48.6323H32.271L30.0941 40.3734L27.8175 48.6323L25.0922 48.6489L21.9681 37.0332H24.4608L26.5047 46.04L28.8644 37.0332H31.4568L33.6835 45.9901L35.7441 37.0332H38.2534ZM42.0989 40.8553C42.398 40.3678 42.7858 39.9856 43.2621 39.7087C43.7496 39.4317 44.3035 39.2932 44.9239 39.2932V41.736H44.309C43.5779 41.736 43.0239 41.9077 42.6473 42.2512C42.2817 42.5946 42.0989 43.1928 42.0989 44.0459V48.6323H39.7724V39.4262H42.0989V40.8553ZM47.6707 38.3294C47.2608 38.3294 46.9174 38.202 46.6404 37.9472C46.3746 37.6813 46.2416 37.3545 46.2416 36.9668C46.2416 36.579 46.3746 36.2578 46.6404 36.003C46.9174 35.7371 47.2608 35.6041 47.6707 35.6041C48.0806 35.6041 48.4185 35.7371 48.6844 36.003C48.9614 36.2578 49.0998 36.579 49.0998 36.9668C49.0998 37.3545 48.9614 37.6813 48.6844 37.9472C48.4185 38.202 48.0806 38.3294 47.6707 38.3294ZM48.8173 39.4262V48.6323H46.4909V39.4262H48.8173ZM53.8246 41.3372V45.7907C53.8246 46.1009 53.8966 46.328 54.0406 46.472C54.1957 46.605 54.4505 46.6714 54.805 46.6714H55.8851V48.6323H54.4228C52.4619 48.6323 51.4815 47.6796 51.4815 45.7741V41.3372H50.3847V39.4262H51.4815V37.1496H53.8246V39.4262H55.8851V41.3372H53.8246ZM58.7383 38.3294C58.3284 38.3294 57.985 38.202 57.708 37.9472C57.4421 37.6813 57.3092 37.3545 57.3092 36.9668C57.3092 36.579 57.4421 36.2578 57.708 36.003C57.985 35.7371 58.3284 35.6041 58.7383 35.6041C59.1482 35.6041 59.4861 35.7371 59.752 36.003C60.0289 36.2578 60.1674 36.579 60.1674 36.9668C60.1674 37.3545 60.0289 37.6813 59.752 37.9472C59.4861 38.202 59.1482 38.3294 58.7383 38.3294ZM59.8849 39.4262V48.6323H57.5585V39.4262H59.8849ZM67.2851 39.2932C68.3818 39.2932 69.2681 39.6422 69.9439 40.3401C70.6197 41.027 70.9575 41.9908 70.9575 43.2316V48.6323H68.6311V43.5473C68.6311 42.8162 68.4483 42.2567 68.0827 41.869C67.7171 41.4701 67.2186 41.2707 66.5871 41.2707C65.9446 41.2707 65.435 41.4701 65.0583 41.869C64.6927 42.2567 64.5099 42.8162 64.5099 43.5473V48.6323H62.1835V39.4262H64.5099V40.5728C64.8201 40.174 65.2134 39.8638 65.6898 39.6422C66.1772 39.4096 66.709 39.2932 67.2851 39.2932ZM76.7759 39.2766C77.4628 39.2766 78.0665 39.4151 78.5872 39.6921C79.1079 39.9579 79.5178 40.3069 79.8169 40.739V39.4262H82.16V48.6988C82.16 49.5518 81.9883 50.3107 81.6449 50.9754C81.3014 51.6512 80.7863 52.1829 80.0994 52.5707C79.4126 52.9695 78.5817 53.1689 77.6068 53.1689C76.2995 53.1689 75.2249 52.8643 74.383 52.255C73.5521 51.6456 73.0813 50.8148 72.9705 49.7623H75.2803C75.4022 50.1833 75.6625 50.5157 76.0614 50.7594C76.4713 51.0142 76.9642 51.1416 77.5403 51.1416C78.2161 51.1416 78.7645 50.9366 79.1855 50.5267C79.6064 50.1279 79.8169 49.5186 79.8169 48.6988V47.2697C79.5178 47.7017 79.1024 48.0618 78.5706 48.3498C78.0499 48.6379 77.4517 48.7819 76.7759 48.7819C76.0004 48.7819 75.2914 48.5825 74.6489 48.1836C74.0063 47.7848 73.4967 47.2254 73.12 46.5053C72.7545 45.7741 72.5717 44.9377 72.5717 43.996C72.5717 43.0654 72.7545 42.2401 73.12 41.52C73.4967 40.7999 74.0008 40.246 74.6322 39.8582C75.2748 39.4705 75.9893 39.2766 76.7759 39.2766ZM79.8169 44.0293C79.8169 43.4643 79.7061 42.9823 79.4846 42.5835C79.263 42.1736 78.9639 41.8634 78.5872 41.6529C78.2106 41.4314 77.8062 41.3206 77.3741 41.3206C76.9421 41.3206 76.5433 41.4258 76.1777 41.6363C75.8121 41.8468 75.513 42.157 75.2803 42.5669C75.0588 42.9657 74.948 43.4421 74.948 43.996C74.948 44.5499 75.0588 45.0374 75.2803 45.4584C75.513 45.8683 75.8121 46.184 76.1777 46.4056C76.5543 46.6271 76.9532 46.7379 77.3741 46.7379C77.8062 46.7379 78.2106 46.6327 78.5872 46.4222C78.9639 46.2006 79.263 45.8904 79.4846 45.4916C79.7061 45.0817 79.8169 44.5943 79.8169 44.0293Z" fill="black"/>
<path d="M32.4024 63.7015L30.2894 70.9924H29.2224L27.5278 65.1241L25.7705 70.9924L24.714 71.0029L22.6742 63.7015H23.6888L25.2788 69.8836L27.0362 63.7015H28.1032L29.7768 69.8627L31.3773 63.7015H32.4024ZM34.396 66.1911C34.5634 65.8633 34.8005 65.6088 35.1073 65.4275C35.4211 65.2462 35.8012 65.1555 36.2475 65.1555V66.1388H35.9965C34.9295 66.1388 34.396 66.7176 34.396 67.8752V70.9924H33.4441V65.2601H34.396V66.1911ZM37.838 64.3291C37.6567 64.3291 37.5032 64.2664 37.3777 64.1408C37.2522 64.0153 37.1894 63.8619 37.1894 63.6806C37.1894 63.4993 37.2522 63.3458 37.3777 63.2203C37.5032 63.0948 37.6567 63.032 37.838 63.032C38.0123 63.032 38.1588 63.0948 38.2773 63.2203C38.4028 63.3458 38.4656 63.4993 38.4656 63.6806C38.4656 63.8619 38.4028 64.0153 38.2773 64.1408C38.1588 64.2664 38.0123 64.3291 37.838 64.3291ZM38.2982 65.2601V70.9924H37.3463V65.2601H38.2982ZM41.0817 66.0446V69.4234C41.0817 69.7023 41.141 69.9011 41.2595 70.0196C41.3781 70.1312 41.5838 70.187 41.8767 70.187H42.5775V70.9924H41.7198C41.1898 70.9924 40.7923 70.8704 40.5273 70.6263C40.2623 70.3822 40.1298 69.9813 40.1298 69.4234V66.0446H39.3871V65.2601H40.1298V63.8166H41.0817V65.2601H42.5775V66.0446H41.0817ZM48.9611 67.9066C48.9611 68.0879 48.9507 68.2797 48.9297 68.4819H44.3481C44.3829 69.0468 44.5747 69.4896 44.9234 69.8104C45.279 70.1242 45.7079 70.2811 46.21 70.2811C46.6215 70.2811 46.9632 70.187 47.2351 69.9987C47.5141 69.8034 47.7093 69.5454 47.8209 69.2246H48.846C48.6926 69.7755 48.3858 70.2253 47.9255 70.574C47.4653 70.9157 46.8934 71.0866 46.21 71.0866C45.6661 71.0866 45.1779 70.9645 44.7456 70.7205C44.3202 70.4764 43.9854 70.1312 43.7414 69.6849C43.4973 69.2316 43.3752 68.7086 43.3752 68.1158C43.3752 67.5231 43.4938 67.0035 43.7309 66.5572C43.968 66.1109 44.2992 65.7692 44.7246 65.5321C45.157 65.288 45.6521 65.166 46.21 65.166C46.754 65.166 47.2351 65.2845 47.6536 65.5216C48.072 65.7587 48.3928 66.0865 48.6159 66.5049C48.846 66.9163 48.9611 67.3836 48.9611 67.9066ZM47.9778 67.7079C47.9778 67.3452 47.8976 67.0349 47.7372 66.7769C47.5768 66.5119 47.3572 66.3131 47.0782 66.1806C46.8063 66.0412 46.5029 65.9714 46.1682 65.9714C45.687 65.9714 45.2755 66.1248 44.9338 66.4317C44.5991 66.7385 44.4073 67.1639 44.3585 67.7079H47.9778ZM57.1278 63.7015V64.4756H53.9583V66.9338H56.5315V67.7079H53.9583V70.9924H53.0064V63.7015H57.1278ZM59.2293 66.1911C59.3967 65.8633 59.6338 65.6088 59.9407 65.4275C60.2545 65.2462 60.6345 65.1555 61.0808 65.1555V66.1388H60.8298C59.7628 66.1388 59.2293 66.7176 59.2293 67.8752V70.9924H58.2774V65.2601H59.2293V66.1911ZM67.4099 67.9066C67.4099 68.0879 67.3994 68.2797 67.3785 68.4819H62.7968C62.8317 69.0468 63.0235 69.4896 63.3722 69.8104C63.7278 70.1242 64.1567 70.2811 64.6588 70.2811C65.0702 70.2811 65.412 70.187 65.6839 69.9987C65.9629 69.8034 66.1581 69.5454 66.2697 69.2246H67.2948C67.1414 69.7755 66.8346 70.2253 66.3743 70.574C65.9141 70.9157 65.3422 71.0866 64.6588 71.0866C64.1149 71.0866 63.6267 70.9645 63.1943 70.7205C62.7689 70.4764 62.4342 70.1312 62.1901 69.6849C61.9461 69.2316 61.824 68.7086 61.824 68.1158C61.824 67.5231 61.9426 67.0035 62.1797 66.5572C62.4168 66.1109 62.748 65.7692 63.1734 65.5321C63.6058 65.288 64.1009 65.166 64.6588 65.166C65.2027 65.166 65.6839 65.2845 66.1023 65.5216C66.5208 65.7587 66.8415 66.0865 67.0647 66.5049C67.2948 66.9163 67.4099 67.3836 67.4099 67.9066ZM66.4266 67.7079C66.4266 67.3452 66.3464 67.0349 66.186 66.7769C66.0256 66.5119 65.806 66.3131 65.527 66.1806C65.255 66.0412 64.9517 65.9714 64.617 65.9714C64.1358 65.9714 63.7243 66.1248 63.3826 66.4317C63.0479 66.7385 62.8561 67.1639 62.8073 67.7079H66.4266ZM73.8966 67.9066C73.8966 68.0879 73.8861 68.2797 73.8652 68.4819H69.2835C69.3184 69.0468 69.5102 69.4896 69.8589 69.8104C70.2145 70.1242 70.6434 70.2811 71.1455 70.2811C71.5569 70.2811 71.8987 70.187 72.1706 69.9987C72.4496 69.8034 72.6448 69.5454 72.7564 69.2246H73.7815C73.6281 69.7755 73.3213 70.2253 72.861 70.574C72.4008 70.9157 71.8289 71.0866 71.1455 71.0866C70.6016 71.0866 70.1134 70.9645 69.681 70.7205C69.2556 70.4764 68.9209 70.1312 68.6768 69.6849C68.4328 69.2316 68.3107 68.7086 68.3107 68.1158C68.3107 67.5231 68.4293 67.0035 68.6664 66.5572C68.9035 66.1109 69.2347 65.7692 69.6601 65.5321C70.0925 65.288 70.5876 65.166 71.1455 65.166C71.6894 65.166 72.1706 65.2845 72.589 65.5216C73.0075 65.7587 73.3282 66.0865 73.5514 66.5049C73.7815 66.9163 73.8966 67.3836 73.8966 67.9066ZM72.9133 67.7079C72.9133 67.3452 72.8331 67.0349 72.6727 66.7769C72.5123 66.5119 72.2927 66.3131 72.0137 66.1806C71.7417 66.0412 71.4384 65.9714 71.1037 65.9714C70.6225 65.9714 70.211 66.1248 69.8693 66.4317C69.5346 66.7385 69.3428 67.1639 69.294 67.7079H72.9133ZM76.105 63.2517V70.9924H75.1531V63.2517H76.105ZM82.6647 65.2601L79.2127 73.6912H78.2294L79.3592 70.9297L77.0474 65.2601H78.1039L79.9031 69.9045L81.6814 65.2601H82.6647ZM84.8559 63.7015L84.7408 68.9317H83.9458L83.8307 63.7015H84.8559ZM84.3852 71.0552C84.2038 71.0552 84.0504 70.9924 83.9249 70.8669C83.7994 70.7414 83.7366 70.588 83.7366 70.4066C83.7366 70.2253 83.7994 70.0719 83.9249 69.9464C84.0504 69.8209 84.2038 69.7581 84.3852 69.7581C84.5595 69.7581 84.7059 69.8209 84.8245 69.9464C84.95 70.0719 85.0128 70.2253 85.0128 70.4066C85.0128 70.588 84.95 70.7414 84.8245 70.8669C84.7059 70.9924 84.5595 71.0552 84.3852 71.0552Z" fill="black"/>
</svg>
