<svg width="168" height="156" viewBox="0 0 168 156" fill="none" xmlns="http://www.w3.org/2000/svg">
<rect width="167.807" height="155.468" rx="5.42906" fill="#F4FBFF"/>
<path d="M24.6915 20.1326V23.0363H28.5908V24.8781H24.6915V27.9478H29.0886V29.8394H22.3685V18.241H29.0886V20.1326H24.6915ZM36.2936 20.5142C37.3887 20.5142 38.2737 20.8627 38.9484 21.5596C39.6232 22.2454 39.9606 23.2078 39.9606 24.4467V29.8394H37.6376V24.762C37.6376 24.0319 37.4551 23.4733 37.09 23.0861C36.725 22.6879 36.2272 22.4888 35.5967 22.4888C34.9551 22.4888 34.4463 22.6879 34.0702 23.0861C33.7051 23.4733 33.5226 24.0319 33.5226 24.762V29.8394H31.1996V20.647H33.5226V21.7919C33.8323 21.3937 34.225 21.0839 34.7007 20.8627C35.1874 20.6304 35.7184 20.5142 36.2936 20.5142ZM45.7702 20.4977C46.4561 20.4977 47.0589 20.6359 47.5788 20.9125C48.0987 21.178 48.508 21.5264 48.8067 21.9578V20.647H51.1463V29.9057C51.1463 30.7575 50.9748 31.5152 50.6319 32.1789C50.289 32.8537 49.7746 33.3847 49.0888 33.7718C48.4029 34.1701 47.5733 34.3692 46.5999 34.3692C45.2946 34.3692 44.2216 34.065 43.3809 33.4566C42.5512 32.8482 42.0811 32.0185 41.9705 30.9677H44.2769C44.3986 31.388 44.6585 31.7199 45.0567 31.9632C45.466 32.2176 45.9583 32.3449 46.5335 32.3449C47.2083 32.3449 47.7558 32.1402 48.1762 31.7309C48.5965 31.3327 48.8067 30.7243 48.8067 29.9057V28.4788C48.508 28.9102 48.0932 29.2697 47.5622 29.5573C47.0423 29.8449 46.445 29.9887 45.7702 29.9887C44.9959 29.9887 44.288 29.7896 43.6464 29.3914C43.0048 28.9931 42.4959 28.4345 42.1198 27.7155C41.7548 26.9854 41.5723 26.1502 41.5723 25.21C41.5723 24.2808 41.7548 23.4567 42.1198 22.7377C42.4959 22.0187 42.9992 21.4656 43.6298 21.0784C44.2714 20.6912 44.9848 20.4977 45.7702 20.4977ZM48.8067 25.2432C48.8067 24.679 48.6961 24.1978 48.4748 23.7996C48.2536 23.3903 47.9549 23.0806 47.5788 22.8704C47.2027 22.6492 46.799 22.5386 46.3676 22.5386C45.9362 22.5386 45.5379 22.6436 45.1729 22.8538C44.8079 23.064 44.5092 23.3737 44.2769 23.783C44.0557 24.1812 43.945 24.6569 43.945 25.21C43.945 25.7631 44.0557 26.2498 44.2769 26.6701C44.5092 27.0794 44.8079 27.3947 45.1729 27.6159C45.549 27.8372 45.9472 27.9478 46.3676 27.9478C46.799 27.9478 47.2027 27.8427 47.5788 27.6325C47.9549 27.4113 48.2536 27.1016 48.4748 26.7033C48.6961 26.294 48.8067 25.8073 48.8067 25.2432ZM55.7381 17.5607V29.8394H53.4151V17.5607H55.7381ZM59.2112 19.5519C58.802 19.5519 58.459 19.4247 58.1825 19.1702C57.917 18.9047 57.7843 18.5784 57.7843 18.1913C57.7843 17.8041 57.917 17.4833 58.1825 17.2289C58.459 16.9634 58.802 16.8307 59.2112 16.8307C59.6205 16.8307 59.9579 16.9634 60.2234 17.2289C60.5 17.4833 60.6382 17.8041 60.6382 18.1913C60.6382 18.5784 60.5 18.9047 60.2234 19.1702C59.9579 19.4247 59.6205 19.5519 59.2112 19.5519ZM60.3561 20.647V29.8394H58.0332V20.647H60.3561ZM66.1689 29.9887C65.4167 29.9887 64.7419 29.8559 64.1446 29.5905C63.5473 29.3139 63.0716 28.9433 62.7176 28.4788C62.3747 28.0142 62.1867 27.4998 62.1535 26.9356H64.493C64.5373 27.2896 64.7088 27.5827 65.0074 27.815C65.3172 28.0473 65.6988 28.1635 66.1523 28.1635C66.5948 28.1635 66.9377 28.075 67.1811 27.898C67.4355 27.721 67.5627 27.4943 67.5627 27.2177C67.5627 26.919 67.4078 26.6978 67.0981 26.554C66.7994 26.3991 66.3182 26.2332 65.6545 26.0562C64.9687 25.8903 64.4046 25.7188 63.9621 25.5418C63.5307 25.3649 63.1546 25.0938 62.8338 24.7288C62.524 24.3638 62.3692 23.8715 62.3692 23.252C62.3692 22.7432 62.513 22.2786 62.8006 21.8583C63.0993 21.4379 63.5196 21.1061 64.0616 20.8627C64.6147 20.6193 65.2618 20.4977 66.003 20.4977C67.0981 20.4977 67.972 20.7742 68.6246 21.3273C69.2773 21.8693 69.6368 22.6049 69.7032 23.5341H67.4797C67.4466 23.1691 67.2917 22.8815 67.0151 22.6713C66.7497 22.4501 66.3902 22.3394 65.9366 22.3394C65.5163 22.3394 65.1899 22.4169 64.9576 22.5717C64.7364 22.7266 64.6258 22.9423 64.6258 23.2189C64.6258 23.5286 64.7807 23.7664 65.0904 23.9323C65.4001 24.0872 65.8813 24.2476 66.534 24.4135C67.1977 24.5795 67.7452 24.7509 68.1766 24.9279C68.608 25.1049 68.9786 25.3814 69.2883 25.7575C69.6091 26.1226 69.7751 26.6093 69.7861 27.2177C69.7861 27.7487 69.6368 28.2243 69.3381 28.6447C69.0505 29.065 68.6302 29.3969 68.0771 29.6402C67.535 29.8725 66.899 29.9887 66.1689 29.9887ZM76.8699 20.5142C77.5668 20.5142 78.1863 20.6691 78.7283 20.9788C79.2703 21.2775 79.6907 21.7255 79.9894 22.3229C80.2991 22.9091 80.454 23.6171 80.454 24.4467V29.8394H78.131V24.762C78.131 24.0319 77.9485 23.4733 77.5834 23.0861C77.2184 22.6879 76.7206 22.4888 76.0901 22.4888C75.4485 22.4888 74.9396 22.6879 74.5635 23.0861C74.1985 23.4733 74.016 24.0319 74.016 24.762V29.8394H71.693V17.5607H74.016V21.7919C74.3146 21.3937 74.7129 21.0839 75.2107 20.8627C75.7084 20.6304 76.2615 20.5142 76.8699 20.5142Z" fill="black"/>
<path d="M27.1543 42.8831V50.1631H26.2038V46.8625H22.4959V50.1631H21.5455V42.8831H22.4959V46.0792H26.2038V42.8831H27.1543ZM33.9996 47.0819C33.9996 47.2629 33.9892 47.4544 33.9683 47.6563H29.3935C29.4283 48.2204 29.6198 48.6625 29.968 48.9828C30.3231 49.2962 30.7513 49.4528 31.2527 49.4528C31.6635 49.4528 32.0047 49.3588 32.2763 49.1708C32.5548 48.9759 32.7498 48.7182 32.8612 48.3979H33.8848C33.7316 48.948 33.4252 49.3971 32.9656 49.7453C32.506 50.0865 31.9351 50.2571 31.2527 50.2571C30.7095 50.2571 30.2221 50.1352 29.7904 49.8915C29.3656 49.6478 29.0314 49.3031 28.7877 48.8575C28.544 48.4049 28.4221 47.8826 28.4221 47.2908C28.4221 46.6989 28.5405 46.1801 28.7773 45.7345C29.014 45.2889 29.3448 44.9477 29.7695 44.7109C30.2012 44.4672 30.6956 44.3453 31.2527 44.3453C31.7958 44.3453 32.2763 44.4637 32.694 44.7005C33.1118 44.9372 33.4321 45.2645 33.655 45.6823C33.8848 46.0931 33.9996 46.5596 33.9996 47.0819ZM33.0178 46.8834C33.0178 46.5213 32.9378 46.2115 32.7776 45.9538C32.6175 45.6892 32.3981 45.4908 32.1196 45.3585C31.848 45.2192 31.5451 45.1496 31.2109 45.1496C30.7304 45.1496 30.3196 45.3028 29.9784 45.6092C29.6442 45.9155 29.4527 46.3403 29.4039 46.8834H33.0178ZM36.2047 42.4339V50.1631H35.2542V42.4339H36.2047ZM38.7751 42.4339V50.1631H37.8246V42.4339H38.7751ZM42.8913 50.2571C42.3552 50.2571 41.8678 50.1352 41.4291 49.8915C40.9974 49.6478 40.6562 49.3031 40.4055 48.8575C40.1618 48.4049 40.0399 47.8826 40.0399 47.2908C40.0399 46.7059 40.1653 46.1906 40.4159 45.7449C40.6736 45.2923 41.0217 44.9477 41.4604 44.7109C41.8991 44.4672 42.39 44.3453 42.9331 44.3453C43.4763 44.3453 43.9672 44.4672 44.4058 44.7109C44.8445 44.9477 45.1892 45.2889 45.4399 45.7345C45.6975 46.1801 45.8263 46.6989 45.8263 47.2908C45.8263 47.8826 45.694 48.4049 45.4294 48.8575C45.1718 49.3031 44.8202 49.6478 44.3745 49.8915C43.9289 50.1352 43.4345 50.2571 42.8913 50.2571ZM42.8913 49.4215C43.2325 49.4215 43.5529 49.3414 43.8523 49.1813C44.1517 49.0211 44.3919 48.7809 44.573 48.4606C44.761 48.1403 44.855 47.7503 44.855 47.2908C44.855 46.8312 44.7644 46.4413 44.5834 46.121C44.4024 45.8006 44.1656 45.5639 43.8732 45.4107C43.5807 45.2506 43.2639 45.1705 42.9227 45.1705C42.5745 45.1705 42.2542 45.2506 41.9618 45.4107C41.6763 45.5639 41.4465 45.8006 41.2724 46.121C41.0983 46.4413 41.0113 46.8312 41.0113 47.2908C41.0113 47.7573 41.0948 48.1507 41.262 48.471C41.436 48.7913 41.6658 49.0316 41.9513 49.1917C42.2368 49.3449 42.5502 49.4215 42.8913 49.4215ZM55.3755 44.9929C55.1735 44.5682 54.8811 44.2409 54.4981 44.0111C54.1151 43.7744 53.6695 43.656 53.1612 43.656C52.6529 43.656 52.1933 43.7744 51.7825 44.0111C51.3786 44.2409 51.0583 44.5751 50.8216 45.0138C50.5918 45.4455 50.4769 45.9469 50.4769 46.5179C50.4769 47.0888 50.5918 47.5902 50.8216 48.0219C51.0583 48.4536 51.3786 48.7879 51.7825 49.0246C52.1933 49.2544 52.6529 49.3693 53.1612 49.3693C53.8714 49.3693 54.4563 49.1569 54.9159 48.7321C55.3755 48.3074 55.6436 47.7329 55.7202 47.0088H52.8165V46.2358H56.7333V46.967C56.6776 47.5658 56.4896 48.1159 56.1693 48.6173C55.849 49.1116 55.4277 49.5051 54.9055 49.7975C54.3832 50.083 53.8018 50.2258 53.1612 50.2258C52.4858 50.2258 51.8695 50.0691 51.3125 49.7557C50.7554 49.4354 50.3132 48.9933 49.986 48.4293C49.6657 47.8652 49.5055 47.2281 49.5055 46.5179C49.5055 45.8076 49.6657 45.1705 49.986 44.6065C50.3132 44.0355 50.7554 43.5933 51.3125 43.28C51.8695 42.9597 52.4858 42.7995 53.1612 42.7995C53.9341 42.7995 54.6165 42.991 55.2084 43.374C55.8072 43.7569 56.2424 44.2966 56.514 44.9929H55.3755ZM63.2124 47.0819C63.2124 47.2629 63.202 47.4544 63.1811 47.6563H58.6063C58.6411 48.2204 58.8326 48.6625 59.1807 48.9828C59.5359 49.2962 59.9641 49.4528 60.4654 49.4528C60.8763 49.4528 61.2175 49.3588 61.489 49.1708C61.7676 48.9759 61.9625 48.7182 62.0739 48.3979H63.0975C62.9443 48.948 62.638 49.3971 62.1784 49.7453C61.7188 50.0865 61.1478 50.2571 60.4654 50.2571C59.9223 50.2571 59.4349 50.1352 59.0032 49.8915C58.5784 49.6478 58.2442 49.3031 58.0005 48.8575C57.7568 48.4049 57.6349 47.8826 57.6349 47.2908C57.6349 46.6989 57.7533 46.1801 57.99 45.7345C58.2268 45.2889 58.5575 44.9477 58.9823 44.7109C59.414 44.4672 59.9084 44.3453 60.4654 44.3453C61.0086 44.3453 61.489 44.4637 61.9068 44.7005C62.3246 44.9372 62.6449 45.2645 62.8677 45.6823C63.0975 46.0931 63.2124 46.5596 63.2124 47.0819ZM62.2306 46.8834C62.2306 46.5213 62.1505 46.2115 61.9904 45.9538C61.8302 45.6892 61.6109 45.4908 61.3324 45.3585C61.0608 45.2192 60.7579 45.1496 60.4237 45.1496C59.9432 45.1496 59.5324 45.3028 59.1912 45.6092C58.8569 45.9155 58.6655 46.3403 58.6167 46.8834H62.2306ZM67.2558 44.3349C67.9521 44.3349 68.5161 44.5473 68.9478 44.972C69.3796 45.3898 69.5954 45.9956 69.5954 46.7894V50.1631H68.6554V46.9252C68.6554 46.3542 68.5126 45.919 68.2271 45.6196C67.9417 45.3132 67.5517 45.16 67.0573 45.16C66.556 45.16 66.1556 45.3167 65.8562 45.63C65.5637 45.9434 65.4175 46.3995 65.4175 46.9983V50.1631H64.467V44.4393H65.4175V45.254C65.6055 44.9616 65.8597 44.7353 66.18 44.5751C66.5072 44.415 66.8658 44.3349 67.2558 44.3349ZM71.6389 43.5098C71.4579 43.5098 71.3047 43.4471 71.1793 43.3217C71.054 43.1964 70.9913 43.0432 70.9913 42.8622C70.9913 42.6811 71.054 42.5279 71.1793 42.4026C71.3047 42.2773 71.4579 42.2146 71.6389 42.2146C71.813 42.2146 71.9592 42.2773 72.0776 42.4026C72.2029 42.5279 72.2656 42.6811 72.2656 42.8622C72.2656 43.0432 72.2029 43.1964 72.0776 43.3217C71.9592 43.4471 71.813 43.5098 71.6389 43.5098ZM72.0985 44.4393V50.1631H71.148V44.4393H72.0985ZM78.7946 44.4393V50.1631H77.8441V49.3171C77.6631 49.6095 77.4089 49.8393 77.0816 50.0064C76.7613 50.1666 76.4062 50.2466 76.0163 50.2466C75.5706 50.2466 75.1702 50.1561 74.8151 49.9751C74.46 49.7871 74.178 49.5085 73.9691 49.1395C73.7672 48.7704 73.6662 48.3213 73.6662 47.7921V44.4393H74.6062V47.6668C74.6062 48.2308 74.749 48.666 75.0345 48.9724C75.3199 49.2718 75.7099 49.4215 76.2043 49.4215C76.7126 49.4215 77.113 49.2648 77.4054 48.9515C77.6979 48.6381 77.8441 48.1821 77.8441 47.5832V44.4393H78.7946ZM82.4257 50.2571C81.987 50.2571 81.5936 50.184 81.2454 50.0377C80.8973 49.8846 80.6222 49.6757 80.4203 49.4111C80.2184 49.1395 80.1069 48.8296 80.0861 48.4815H81.0679C81.0957 48.767 81.228 49.0002 81.4648 49.1813C81.7085 49.3623 82.0253 49.4528 82.4152 49.4528C82.7773 49.4528 83.0628 49.3728 83.2717 49.2126C83.4806 49.0525 83.5851 48.8505 83.5851 48.6068C83.5851 48.3561 83.4737 48.1716 83.2508 48.0532C83.028 47.9279 82.6833 47.806 82.2168 47.6877C81.792 47.5763 81.4439 47.4648 81.1723 47.3534C80.9077 47.2351 80.6779 47.0645 80.483 46.8416C80.295 46.6119 80.201 46.3124 80.201 45.9434C80.201 45.6509 80.288 45.3829 80.4621 45.1391C80.6362 44.8954 80.8833 44.7039 81.2037 44.5647C81.524 44.4185 81.8895 44.3453 82.3004 44.3453C82.934 44.3453 83.4458 44.5055 83.8357 44.8258C84.2257 45.1461 84.4346 45.5848 84.4624 46.1418H83.512C83.4911 45.8424 83.3692 45.6022 83.1464 45.4212C82.9305 45.2401 82.6381 45.1496 82.269 45.1496C81.9278 45.1496 81.6563 45.2227 81.4543 45.3689C81.2524 45.5152 81.1514 45.7066 81.1514 45.9434C81.1514 46.1314 81.2106 46.2881 81.329 46.4134C81.4543 46.5318 81.6075 46.6293 81.7886 46.7059C81.9766 46.7755 82.2342 46.8556 82.5615 46.9461C82.9723 47.0575 83.3065 47.1689 83.5642 47.2803C83.8218 47.3848 84.0412 47.5449 84.2222 47.7608C84.4102 47.9766 84.5077 48.2587 84.5147 48.6068C84.5147 48.9202 84.4276 49.2022 84.2535 49.4528C84.0795 49.7035 83.8323 49.902 83.512 50.0482C83.1986 50.1875 82.8365 50.2571 82.4257 50.2571ZM87.0889 42.8831L86.974 48.1055H86.1802L86.0653 42.8831H87.0889ZM86.6189 50.2258C86.4378 50.2258 86.2846 50.1631 86.1593 50.0377C86.034 49.9124 85.9713 49.7592 85.9713 49.5782C85.9713 49.3971 86.034 49.2439 86.1593 49.1186C86.2846 48.9933 86.4378 48.9306 86.6189 48.9306C86.7929 48.9306 86.9392 48.9933 87.0575 49.1186C87.1829 49.2439 87.2456 49.3971 87.2456 49.5782C87.2456 49.7592 87.1829 49.9124 87.0575 50.0377C86.9392 50.1631 86.7929 50.2258 86.6189 50.2258Z" fill="black"/>
<g clip-path="url(#clip0_287_2)">
<ellipse cx="84.2671" cy="165.559" rx="97.2671" ry="89.4335" fill="#D5EFFF"/>
<path fill-rule="evenodd" clip-rule="evenodd" d="M64.1854 98.7417C64.1854 98.9999 64.3511 99.2862 64.5635 99.4557C64.5738 99.4637 64.6101 99.492 64.6204 99.5C65.5372 100.194 67.5365 99.4678 67.5365 99.98V104.837C67.5365 105.066 67.0807 105.022 66.7699 105.022C66.0914 105.018 62.5538 104.949 62.1757 105.066C61.8235 105.175 61.5076 105.321 61.2849 105.563C61.2175 105.635 61 106.059 61 106.168V135.266C61 135.702 61.259 136.129 61.6889 136.379C61.8857 136.492 61.808 136.44 62.0825 136.488C63.4602 136.73 65.3663 136.557 66.7699 136.549C67.7955 136.545 67.5313 136.678 67.5313 138.521V148.787C67.5313 149.158 67.4899 149.723 67.6142 150.005C67.6763 150.146 67.6763 150.102 67.7696 150.203C67.8058 150.243 67.8058 150.251 67.8421 150.287C68.3393 150.824 69.3752 150.618 70.121 150.618C70.4732 150.618 70.5457 150.662 70.8824 150.666L74.3578 150.618C75.3109 150.618 76.0567 150.662 77.0045 150.662C77.9213 150.662 78.6257 150.618 79.5373 150.618C80.4696 150.618 81.1947 150.662 82.127 150.662C83.0645 150.662 83.7896 150.618 84.7168 150.618C85.6491 150.618 86.3742 150.662 87.3065 150.662C88.2233 150.662 88.9225 150.618 89.8341 150.618C90.7664 150.618 91.4915 150.662 92.4238 150.662C93.3768 150.662 94.1227 150.618 95.0705 150.618C96.2514 150.618 97.4064 150.695 98.6029 150.666C98.9085 150.658 99.0017 150.618 99.3643 150.618C99.8045 150.618 100.623 150.687 100.928 150.553C101.27 150.404 101.586 150.13 101.648 149.831C101.721 149.477 101.679 138.489 101.659 137.009C101.648 136.488 101.876 136.553 102.721 136.553C103.865 136.553 104.844 136.597 106.015 136.597C106.553 136.597 107.289 136.371 107.522 135.984C107.584 135.879 107.719 135.645 107.719 135.544V106.034C107.719 105.865 107.631 105.825 107.553 105.704L107.517 105.639C107.092 104.966 106.056 105.026 105.243 105.026C104.616 105.026 103.99 105.026 103.358 105.026C102.948 105.026 101.654 105.147 101.654 104.845V99.9881C101.654 99.5 103.28 100.174 104.171 99.4758C104.803 98.9837 104.57 98.1488 103.813 97.8019C103.674 97.7373 103.855 97.7857 103.601 97.7373C102.84 97.5881 101.809 97.701 101.001 97.701C100.566 97.1968 100.198 96.6442 99.9029 96.0795L98.0798 93.2358C98.0021 93.1269 97.9762 93.0583 97.9037 92.9575L96.267 90.4284C96.1944 90.3155 96.1478 90.2671 96.0753 90.1662C95.8526 89.8516 95.2259 88.9602 95.2259 88.6738V80.058C95.2259 79.582 95.7749 79.4207 95.2466 78.7148C95.0498 78.4486 94.1382 77.7831 93.7964 77.4644L92.2114 75.9962C91.8282 75.6412 90.6939 74.3504 90.3727 73.8987L90.0153 73.3985C89.9428 73.2977 89.9895 73.3662 89.9221 73.2896C89.7201 73.0516 89.5388 72.7572 89.3783 72.4789C89.2695 72.2893 89.2073 72.2449 89.0986 72.0553C88.6324 71.2163 88.5547 71.2284 88.0886 70.2725C87.9487 69.982 87.7571 69.6997 87.6431 69.381L87.2184 68.4291C87.1356 68.2678 87.1511 68.0943 87.0579 67.9128L86.8818 67.4086C86.83 67.1868 86.7471 67.0738 86.7057 66.9044C86.6539 66.7068 86.6383 66.5172 86.5865 66.3558L85.9443 62.4795C85.9391 61.8785 86.0945 61.4227 85.7216 60.9831C85.6853 60.9387 85.6594 60.9024 85.6335 60.8701C85.012 60.1199 83.3442 60.495 83.2302 61.3783C83.1785 61.7736 83.2613 62.2536 83.2199 62.653C83.1836 62.9958 83.0645 63.4194 83.049 63.7541C83.0127 64.3592 82.8314 65.4765 82.645 66.0049C82.5362 66.3034 82.3187 67.3521 82.2047 67.5861L82.0286 68.0903C81.9716 68.2758 81.8836 68.3726 81.8163 68.5662C81.6505 69.0745 80.9979 70.4741 80.7078 70.9098L79.8066 72.4062C79.7341 72.5273 79.7186 72.491 79.6461 72.5999L77.9317 74.8829C76.9786 75.9881 75.8961 77.0086 74.7515 77.9928C74.4096 78.2832 74.0108 78.4768 73.7674 78.8318C73.612 79.0617 73.7 80.3928 73.7 80.7034C73.7 81.2439 73.7777 88.6577 73.6638 88.9199L72.457 90.8197C72.0478 91.5377 71.4055 92.4533 70.9342 93.1632C70.8721 93.26 70.8617 93.2399 70.7892 93.3689C70.2402 94.3168 69.5772 95.1841 69.0333 96.1239C68.8469 96.4466 68.2771 97.4066 68.0492 97.6002C67.5986 97.9794 65.5527 97.4106 64.7551 97.9229C64.4858 98.0963 64.175 98.3908 64.175 98.7538L64.1854 98.7417Z" fill="#F41B83"/>
<path fill-rule="evenodd" clip-rule="evenodd" d="M70.2444 136.823C70.2444 136.674 70.4568 136.593 70.6588 136.593H72.482C73.0776 136.593 73.435 136.641 74.0099 136.637C75.1028 136.637 75.9885 136.593 77.071 136.593C78.0085 136.593 78.7336 136.637 79.6607 136.637C80.5775 136.637 81.3078 136.593 82.2504 136.593C83.1672 136.593 83.8768 136.637 84.778 136.637C85.6792 136.637 86.3888 136.593 87.3056 136.593C88.2638 136.593 89.0096 136.637 89.9523 136.637C90.8691 136.637 91.5994 136.593 92.542 136.593C93.5986 136.593 94.4688 136.637 95.5409 136.637C96.09 136.637 96.437 136.593 97.0119 136.593C97.5195 136.593 98.0323 136.593 98.5398 136.593C98.7263 136.593 98.9542 136.613 98.9542 136.774V148.367C98.9542 148.649 97.2139 148.549 96.9549 148.549C96.6183 148.549 96.3334 148.561 96.2609 148.403C96.1884 148.246 96.2557 140.723 96.2505 139.84C96.2505 139.582 96.1573 139.429 95.9294 139.267C95.7585 139.146 95.5409 139.158 95.3079 139.158C94.3082 139.158 94.6035 140.921 94.6035 141.268V147.867C94.6035 148.742 94.7226 148.423 93.7955 148.524C93.003 148.609 93.1325 148.383 93.1325 147.778V141.179C93.1325 140.417 93.3293 139.586 92.8165 139.271C92.4902 139.07 91.9723 139.162 91.7237 139.396L91.6045 139.626C91.444 140.3 91.5424 146.165 91.5424 147.415C91.5424 147.806 91.6615 148.516 91.3663 148.516C89.7607 148.516 90.0714 148.641 90.0714 147.415C90.0714 145.007 90.1336 142.196 90.0766 139.852C90.0507 138.916 88.4451 138.932 88.4244 139.896C88.3622 142.381 88.4295 144.999 88.4295 147.504C88.4295 147.718 88.4295 147.931 88.4347 148.149C88.4451 148.682 88.1913 148.561 87.6681 148.561C87.3315 148.561 87.0466 148.573 86.9741 148.415C86.8964 148.254 86.9741 140.796 86.9637 139.9C86.9586 139.437 86.6478 139.17 86.0211 139.17C85.0784 139.17 85.3167 140.505 85.3115 140.913C85.3115 141.256 85.3737 141.486 85.3737 141.873C85.3737 142.567 85.3167 143.127 85.3167 143.841C85.3167 144.676 85.3737 145.35 85.3737 146.177C85.3737 146.616 85.3167 146.875 85.3167 147.322C85.3167 147.705 85.3167 148.085 85.3167 148.468C85.1872 148.492 85.182 148.512 85.0214 148.512C83.8716 148.512 83.6541 148.69 83.6644 148.056V146.177C83.6644 145.152 83.7318 140.522 83.6644 139.852C83.6126 139.348 83.2915 139.162 82.7218 139.162C82.209 139.162 81.9552 139.662 82.0381 140.102C82.1002 140.421 82.0174 142.2 82.0174 142.736L82.0795 144.386C82.0795 144.68 82.0277 144.785 82.0174 145.027L82.0692 148.367C81.9604 148.665 81.0488 148.512 80.6085 148.512C80.448 147.968 80.5516 146.709 80.5516 146.04L80.5567 139.852C80.5567 139.566 80.5257 139.533 80.334 139.384C79.7487 138.92 78.9045 139.223 78.8993 139.945L78.9045 146.544C78.9045 148.758 79.179 148.472 78.1276 148.557C77.9515 148.569 77.8013 148.549 77.7029 148.532C77.3248 148.472 77.4335 148.464 77.4335 147.782C77.4335 147.338 77.4335 146.895 77.4335 146.455C77.4335 144.257 77.4957 142.054 77.4335 139.856C77.4284 139.622 77.4025 139.493 77.2367 139.368C76.8897 139.118 76.3407 139.078 76.0144 139.396C75.9108 139.497 75.8693 139.719 75.8486 139.864C75.7709 140.445 75.8434 147.693 75.8434 148.472C75.7139 148.496 75.7088 148.516 75.5482 148.516C74.6107 148.516 74.3569 148.694 74.3673 148.06V143.66C74.3673 142.603 74.4294 140.856 74.3725 139.856C74.331 139.162 73.2796 138.904 72.829 139.485C72.7047 139.646 72.7202 139.88 72.7202 140.134V144.579C72.7202 145.556 72.7824 147.403 72.7254 148.298C72.7099 148.553 72.6322 148.553 72.1298 148.569C71.7672 148.581 71.5082 148.553 71.2389 148.528C70.9696 148.504 70.5863 148.52 70.3066 148.52C70.2755 148.415 70.2496 148.415 70.2496 148.29V136.835L70.2444 136.823ZM63.8892 107.406C63.8892 107.301 63.9307 107.269 64.0653 107.269H67.1264C67.3543 107.269 67.3077 107.414 67.3077 107.587C67.3077 107.724 67.3025 107.865 67.3025 108.003V134.35C67.116 134.362 67.0953 134.395 66.8933 134.395H64.0705C63.9359 134.395 63.8944 134.362 63.8944 134.257V107.406H63.8892ZM70.2444 131.874C70.2444 131.765 70.3428 131.692 70.4775 131.692H98.545C98.6797 131.692 98.7211 131.724 98.7211 131.829V134.213C98.7211 134.322 98.6227 134.395 98.488 134.395H70.4827C70.3428 134.395 70.2496 134.318 70.2496 134.213V131.878L70.2444 131.874ZM94.013 129.582C93.7955 129.582 93.9612 129.591 93.899 129.542C93.8265 129.478 93.8214 129.542 93.9716 129.425C94.2979 129.171 94.7122 128.973 95.08 128.764C95.3441 128.614 95.4995 128.469 95.7378 128.312C95.8931 128.211 95.9398 128.199 96.09 128.082L97.5609 126.844C97.6749 126.743 97.7474 126.67 97.8562 126.569L98.3534 126.041C98.4881 125.904 98.4414 125.876 98.6072 125.779C98.6797 125.863 98.7263 125.859 98.7263 125.96V129.397C98.7263 129.506 98.6279 129.578 98.4932 129.578H94.0234L94.013 129.582ZM70.0062 126.101C70.0062 125.944 70.0476 125.924 70.0632 125.783C70.3066 125.835 70.5086 126.138 70.6433 126.295C70.809 126.485 71.0058 126.65 71.1871 126.832C71.3891 127.033 71.5807 127.154 71.7672 127.34L72.3266 127.82C72.4146 127.884 72.4146 127.876 72.513 127.953L72.9792 128.276C73.2174 128.421 73.3521 128.554 73.6007 128.707L74.9474 129.538C74.3466 129.647 71.1094 129.582 70.2393 129.582C70.0321 129.582 70.0062 129.381 70.0062 129.215V126.101ZM85.1872 127.888C85.1872 127.695 85.2442 127.65 85.4254 127.614L85.9175 127.537C86.2386 127.493 86.6582 127.497 86.9016 127.433C87.1191 127.38 87.0673 127.364 87.347 127.32C88.1913 127.195 87.7355 127.227 88.212 127.122C89.1547 126.912 89.5017 126.606 89.7917 126.86C89.9212 126.973 89.8332 126.908 89.9057 127.001C89.9109 127.009 89.9212 127.021 89.9264 127.029C89.9316 127.037 89.9419 127.049 89.9471 127.057L90.3304 127.537C90.3718 127.594 90.3666 127.602 90.4029 127.662C90.4858 127.783 90.5324 127.816 90.636 127.941C90.895 128.251 90.9623 128.344 90.579 128.461L88.1913 129.171C87.9634 129.228 87.663 129.236 87.4195 129.3C87.1243 129.377 87 129.381 86.6323 129.417C84.8453 129.611 85.1872 129.615 85.1872 127.876V127.888ZM78.0654 128.393C78.081 128.268 78.0758 128.292 78.1224 128.207L78.3399 127.965C79.3706 126.658 79.0754 126.739 79.728 126.916L80.94 127.255C81.2404 127.328 81.2301 127.267 81.8309 127.433C82.2867 127.558 83.5401 127.465 83.5401 127.796C83.5401 129.474 83.7525 129.582 82.8616 129.474C82.0018 129.369 81.5564 129.393 80.5775 129.191L78.0706 128.397L78.0654 128.393ZM91.128 126.101C91.128 125.936 91.6045 125.734 91.7651 125.638C92.2779 125.339 93.1532 124.653 93.5365 124.27C94.4791 123.326 94.215 123.617 95.4529 124.06C95.6704 124.137 96.3023 124.355 96.3023 124.544C96.3023 124.71 95.4063 125.525 95.2457 125.69L94.8003 126.077C94.6863 126.182 94.6863 126.17 94.5672 126.263L94.0544 126.642C93.9301 126.727 93.8835 126.751 93.7747 126.836C93.5002 127.053 93.2464 127.162 92.9512 127.34C92.7751 127.445 92.6094 127.566 92.4229 127.662C92.2572 127.485 92.252 127.606 92.05 127.312L91.2679 126.315C91.185 126.21 91.128 126.202 91.128 126.101ZM72.4198 124.544C72.6995 124.315 72.7824 124.323 73.0569 124.214L73.2796 124.109C73.5127 124.008 74.2533 123.669 74.4243 123.669C74.7402 123.669 74.647 123.681 74.7713 123.81L75.7813 124.766C76.0869 125.024 76.5116 125.351 76.8845 125.557C77.9774 126.17 77.8272 126.11 77.4594 126.626L77.1746 127.001C76.5945 127.864 76.5841 127.84 75.8434 127.372C75.6518 127.251 75.4809 127.154 75.2892 127.021C74.849 126.715 74.3621 126.428 73.9736 126.073C73.7509 125.868 73.4194 125.662 73.2433 125.448C72.9222 125.057 72.7047 124.956 72.4146 124.532L72.4198 124.544ZM71.0058 122.439C70.9229 122.217 70.8297 122.185 70.7624 121.939C70.7365 121.838 70.7365 121.794 70.6847 121.681C70.2703 120.769 70.3325 120.64 70.1667 119.793C70.1305 119.607 70.0632 119.482 70.0632 119.228C70.0632 119.087 70.2341 119.047 70.4154 119.047C72.7565 119.047 72.4405 118.93 72.57 119.43C72.6115 119.591 72.6736 119.749 72.6943 119.882C72.8342 120.729 72.8601 120.446 72.9481 120.83C73.1294 121.624 73.6214 122.173 73.7095 122.479C73.2744 122.657 71.9122 123.326 71.5341 123.351L71.0058 122.435V122.439ZM95.0696 122.483C95.1576 122.193 95.3804 121.923 95.484 121.66C95.5927 121.378 95.9501 120.62 95.9967 120.366L96.1884 119.414C96.2091 119.244 96.2039 119.047 96.4266 119.047C99.1199 119.047 98.8403 118.817 98.545 120.144C98.5036 120.341 98.4932 120.616 98.4311 120.789C98.3482 121.019 98.3016 121.023 98.2343 121.326C98.1721 121.608 97.8976 122.084 97.7733 122.386C97.2139 123.714 97.1414 123.294 96.3282 122.975L95.0748 122.483H95.0696ZM74.1808 117.49C74.1808 117.062 74.4502 116.413 74.6159 115.993C74.8075 115.509 75.0354 114.969 75.4239 114.561C75.7398 114.227 75.8279 113.948 76.2215 113.577C76.7498 113.077 77.2574 112.605 77.9256 112.202C78.0551 112.121 78.1276 112.073 78.2519 112C78.9667 111.584 78.977 111.742 79.4276 111.54C79.6244 111.455 79.6037 111.451 79.7591 111.342C80.0284 111.153 80.2097 111.129 80.5101 111.012C80.9141 110.854 81.3855 110.758 81.8413 110.677C82.4058 110.576 83.1776 110.439 83.8302 110.439C84.1358 110.439 84.1254 110.491 84.4154 110.487C84.6744 110.483 84.69 110.439 85.0059 110.439C85.933 110.439 87.2124 110.681 88.0721 110.939C88.2741 111 88.2379 111.02 88.4761 111.08L89.626 111.609C89.8124 111.685 89.8953 111.665 90.0766 111.762L91.1125 112.375C91.3248 112.532 91.5165 112.661 91.7081 112.827L92.8269 113.88C93.003 114.089 93.0703 114.331 93.2464 114.513C93.3345 114.606 93.4225 114.662 93.5106 114.767L94.0493 115.767C94.1891 116.223 94.505 116.796 94.5309 117.268L94.5931 118.502C94.5931 119.051 94.4532 120.164 94.215 120.636C94.1425 120.785 94.1114 120.813 94.0648 120.979C93.9767 121.293 93.7074 121.729 93.5054 122.011C93.3397 122.245 93.1532 122.358 93.0444 122.616C92.9823 122.758 92.9512 122.782 92.8373 122.911C92.6611 123.113 92.4954 123.27 92.3038 123.455L91.8842 123.818C91.8376 123.859 91.8169 123.891 91.7496 123.943C91.5217 124.137 91.3611 124.234 91.1021 124.403C90.8691 124.553 90.693 124.714 90.4288 124.843C90.2423 124.936 90.1957 124.988 90.0455 125.049L89.4602 125.283C88.8801 125.573 88.2845 125.843 87.5956 125.984C87.4454 126.017 87.3159 126.033 87.1347 126.085C86.7566 126.194 86.5028 126.182 86.1143 126.251C84.4983 126.537 84.9438 126.202 84.3481 126.202C83.9959 126.202 84.0529 126.44 83.3796 126.36C82.8409 126.295 82.2867 126.255 81.7843 126.134L79.9715 125.621C79.8161 125.557 79.9404 125.63 79.8005 125.525L79.6866 125.428C79.3292 125.145 78.8941 125.226 78.4124 124.912C78.2985 124.835 78.2104 124.782 78.081 124.714L76.5427 123.576C76.5323 123.568 76.5219 123.56 76.5116 123.552C76.4132 123.472 76.3355 123.399 76.2423 123.306L75.8175 122.814C75.8124 122.806 75.802 122.794 75.7916 122.786C75.6622 122.629 75.6673 122.528 75.543 122.382C75.1442 121.919 74.9526 121.652 74.6988 121.116L74.4139 120.378C74.3776 120.192 74.388 120.152 74.331 119.986C73.9426 118.914 74.331 118.663 74.3207 118.425C74.3155 118.309 74.1653 118.192 74.1653 117.502L74.1808 117.49ZM70.0632 117.72C70.0632 117.167 70.1823 116.953 70.2496 116.445L70.5707 115.275L71.3218 113.755C71.6222 113.331 71.4771 113.174 72.5027 113.714C72.5907 113.763 72.6425 113.783 72.7202 113.823C72.886 113.908 72.7876 113.863 72.9844 113.94C73.2019 114.025 73.6577 114.202 73.6577 114.331C73.6577 114.602 73.6422 114.452 73.5438 114.61L73.0517 115.602L72.5493 117.409C72.5182 117.587 72.5389 117.768 72.3059 117.768C71.6947 117.768 70.6122 117.82 70.0683 117.724L70.0632 117.72ZM95.0696 114.376C95.3545 114.122 96.6649 113.561 97.131 113.367C97.5713 113.88 97.6127 114.146 97.8924 114.61L98.4362 116.021C98.488 116.207 98.4984 116.469 98.545 116.671C98.5968 116.901 98.892 117.768 98.488 117.768C95.9864 117.768 96.3023 117.901 96.1936 117.357C96.1003 116.897 96.0019 116.437 95.831 115.989C95.7792 115.856 95.7636 115.699 95.6963 115.545L95.2871 114.763C95.2405 114.662 95.2405 114.65 95.1887 114.565C95.1162 114.448 95.1266 114.529 95.0748 114.38L95.0696 114.376ZM92.1277 109.197C92.3607 109.193 92.2675 109.209 92.4229 109.152L94.0544 110.173C94.2357 110.31 94.3652 110.366 94.5568 110.516L95.4632 111.322C96.4059 112.218 96.4525 112.206 95.7792 112.5C95.3907 112.67 94.5724 113.113 94.1891 113.186C94.0803 113.057 93.9457 112.944 93.8421 112.815L93.609 112.585C93.5986 112.577 93.5883 112.569 93.5779 112.561C93.5365 112.528 93.5313 112.52 93.495 112.488C92.5835 111.714 92.8683 111.96 91.9308 111.278C91.5786 111.02 91.128 110.891 91.128 110.713C91.128 110.427 92.0137 109.592 92.1277 109.201V109.197ZM101.425 107.317C101.497 107.297 101.627 107.273 101.72 107.273C105.154 107.273 104.848 107.095 104.838 107.728L104.895 109.471C104.895 110.29 104.838 110.947 104.838 111.762C104.838 112.492 104.895 113.057 104.895 113.779C104.895 114.485 104.838 115.033 104.838 115.747C104.838 116.477 104.895 117.042 104.895 117.764C104.895 118.486 104.838 119.051 104.838 119.781C104.838 120.511 104.895 121.076 104.895 121.798C104.895 122.52 104.838 123.084 104.838 123.814C104.838 124.54 104.895 125.105 104.895 125.831C104.895 126.537 104.838 127.086 104.838 127.8C104.838 128.558 104.895 129.151 104.895 129.909C104.895 130.647 104.838 131.256 104.838 132.019L104.9 133.301C104.895 133.781 105.025 134.403 104.662 134.403H102.015C101.679 134.403 101.658 134.306 101.658 134.04L101.663 130.829C101.668 129.913 101.43 130.151 101.43 129.728V121.16C101.43 119.958 101.482 118.91 101.492 117.724C101.492 117.397 101.43 117.248 101.43 116.901V107.325L101.425 107.317ZM72.4768 112.129C72.6011 111.984 72.7668 111.859 72.9119 111.689C73.2641 111.29 73.2589 111.334 73.6059 111.04L73.7768 110.895C73.7872 110.887 73.7975 110.879 73.8027 110.871C73.8131 110.862 73.8234 110.854 73.8286 110.846C73.9944 110.701 74.129 110.584 74.3103 110.443L75.0976 109.866C75.2012 109.798 75.2633 109.765 75.3617 109.705L75.9418 109.378C76.061 109.305 76.1179 109.257 76.2371 109.197C76.3407 109.144 76.4287 109.112 76.5271 109.055C76.8483 109.189 76.7602 109.14 76.9259 109.386L77.822 110.612C77.6148 110.854 76.9467 111.133 76.4857 111.496L75.6466 112.125C75.512 112.246 75.3825 112.335 75.253 112.46L74.59 113.178L73.4712 112.678C73.1035 112.516 72.7047 112.391 72.4716 112.125L72.4768 112.129ZM85.1872 107.454C85.1872 107.208 85.5756 107.273 85.9537 107.273C86.2852 107.273 88.3467 107.607 88.6315 107.708C89.1909 107.906 90.5013 108.156 90.838 108.511C90.724 108.648 90.7137 108.628 90.6101 108.789C90.5324 108.914 90.5842 108.83 90.5013 108.934L90.0766 109.519C89.885 109.765 89.7503 110.072 89.4602 110.032C89.4136 110.023 87.9116 109.491 86.9637 109.37C86.6374 109.33 86.3888 109.269 86.0314 109.225C85.0163 109.092 85.1872 109.608 85.1872 107.45V107.454ZM79.2981 107.954C79.9559 107.716 80.909 107.523 81.6341 107.434C82.1106 107.377 82.3229 107.269 82.8927 107.269C83.3537 107.269 83.5401 107.22 83.5401 107.406C83.5401 109.176 83.7318 109.184 83.074 109.193L81.3751 109.431L79.8834 109.826C79.2567 110.064 79.324 110.052 79.0133 109.644L78.1276 108.503C78.1587 108.398 78.1742 108.398 78.1846 108.273L79.2981 107.95V107.954ZM94.2564 107.539C94.0441 107.422 94.0182 107.507 93.956 107.317C94.2875 107.216 97.9028 107.273 98.545 107.273C98.6797 107.273 98.7211 107.305 98.7211 107.41C98.7211 108.075 98.804 110.516 98.6641 110.983C98.4621 110.943 98.5088 110.931 98.4155 110.81L98.3741 110.75C98.3171 110.677 98.2032 110.58 98.1151 110.491L97.3278 109.729C96.7529 109.209 96.5147 109.035 95.8672 108.575L95.5617 108.354C95.4373 108.273 95.3804 108.208 95.2612 108.128C95.0489 107.978 94.8158 107.878 94.5827 107.74C94.4584 107.668 94.36 107.595 94.2564 107.539ZM70.0062 107.498C70.0062 107.373 70.0321 107.373 70.0632 107.269C70.8038 107.269 74.4191 107.184 74.7713 107.313C74.7195 107.466 74.4812 107.563 74.3207 107.648L71.7206 109.471C71.7102 109.479 71.6999 109.487 71.6947 109.495L71.4098 109.733C71.0421 110.019 70.4982 110.685 70.1201 111.02C70.0735 110.858 70.001 110.867 70.001 110.701V107.494L70.0062 107.498ZM86.9534 102.505C86.9534 102.36 87.088 102.206 87.1813 102.134C87.7666 101.71 88.4244 102.134 88.4244 102.46C88.4244 103.021 88.4969 104.582 88.3674 105.026C87.7614 105.026 86.9534 105.123 86.9534 104.844V102.509V102.505ZM74.3621 102.598C74.3621 101.791 75.3721 101.863 75.6673 102.178C75.9574 102.489 75.8331 104.272 75.8331 104.844C75.8331 104.985 75.6622 105.026 75.4809 105.026C74.8956 105.026 74.3621 105.111 74.3621 104.844V102.598ZM93.1325 102.779C93.1325 102.565 93.2154 102.348 93.2982 102.218C93.4122 102.045 93.3086 102.146 93.5002 102.057C93.8472 101.892 94.1891 101.908 94.4688 102.15C94.7278 102.376 94.6035 104.3 94.6035 104.84C94.6035 104.949 94.505 105.022 94.3704 105.022C93.9457 105.022 93.1325 105.107 93.1325 104.792V102.775V102.779ZM80.5412 102.549C80.5412 102.339 80.6085 102.227 80.7639 102.126C80.8779 102.049 81.0592 101.952 81.2456 101.952C82.152 101.952 82.0692 102.787 82.0692 103.279C82.0692 103.703 82.2142 105.022 81.7739 105.022C81.1317 105.022 80.536 105.115 80.536 104.84V102.549H80.5412ZM70.2444 99.9838C70.2444 99.8749 70.3428 99.8023 70.4775 99.8023H98.7211C98.861 99.8023 98.9542 99.8789 98.9542 99.9838V104.84C98.9542 104.949 98.8558 105.022 98.7211 105.022C95.9087 105.022 96.2453 105.191 96.2505 104.38C96.2505 104.122 96.2505 103.86 96.2505 103.602C96.2505 102.694 96.4888 101.815 95.3907 101.113C94.5724 100.589 93.262 100.577 92.4281 101.081C92.2261 101.202 92.0085 101.388 91.8842 101.573C91.8532 101.621 91.8532 101.625 91.8273 101.666C91.8221 101.674 91.8117 101.686 91.8065 101.694C91.4595 102.186 91.5476 102.936 91.5476 103.691C91.5476 104.542 91.7185 105.018 91.1954 105.018C89.9264 105.018 90.0766 105.119 90.0766 104.376C90.0818 103.586 90.2061 102.469 89.8487 101.759C89.6674 101.4 89.0252 100.916 88.5435 100.807C87.6992 100.613 87.0984 100.722 86.4199 100.98C86.1765 101.073 86.1091 101.166 85.8916 101.347C85.1458 101.98 85.3063 103.537 85.3115 104.421C85.3115 104.679 85.3944 105.018 85.0784 105.018C83.5194 105.018 83.6592 105.107 83.6644 104.469C83.6696 103.82 83.7059 102.634 83.5608 102.122C83.3951 101.541 82.9134 100.976 82.1313 100.807C81.6496 100.702 80.8364 100.67 80.391 100.823C80.2356 100.875 80.2201 100.899 80.0492 100.968C80.0336 100.976 79.987 100.992 79.9715 100.996L79.8057 101.097C78.226 102.206 79.2515 103.646 78.8423 105.022C77.8323 105.022 77.4491 105.143 77.4232 104.752C77.3714 103.925 77.6252 102.343 77.2212 101.747C77.0917 101.553 76.9829 101.375 76.7809 101.222C76.6825 101.145 76.5893 101.081 76.4494 101.02C75.9936 100.815 75.7347 100.714 75.1339 100.714C74.2171 100.714 73.6163 100.972 73.088 101.549C72.5389 102.15 72.715 103.477 72.7202 104.425C72.7254 105.175 72.9999 105.022 70.4827 105.022C70.3428 105.022 70.2496 104.945 70.2496 104.84V99.9838H70.2444ZM71.5963 97.5999C71.1767 97.5999 71.2285 97.4225 71.3684 97.245L75.4861 90.8235C75.5534 90.7226 75.5845 90.7065 75.6518 90.5855C75.7243 90.4484 75.8538 90.2265 76.0713 90.2265H92.8994C93.2464 90.2265 93.754 91.2107 93.9198 91.4931L95.8413 94.486C95.888 94.5626 95.9398 94.6191 95.9864 94.6917L97.5713 97.2127C97.5713 97.2127 98.0271 97.5999 97.3693 97.5999H71.5963ZM86.9534 80.5095C86.9534 80.1828 88.1965 80.3321 88.4244 80.3724V87.2457C88.4244 87.5159 88.5435 88.0241 88.1913 88.0241C87.8391 88.0241 86.9534 88.0887 86.9534 87.8426V80.5095ZM76.4235 80.5095C76.4235 80.3684 76.5945 80.328 76.7757 80.328H78.6611C78.8009 80.328 78.8941 80.4047 78.8941 80.5095V87.8426C78.8941 88.0403 78.6507 87.9717 78.3814 87.9959C78.1172 88.0201 76.4235 88.129 76.4235 87.8426V80.5095ZM90.0714 80.5095C90.0714 80.3684 90.2423 80.328 90.4236 80.328H92.1277C92.3297 80.328 92.3556 80.3603 92.542 80.3724V87.9314C92.0655 88.1089 90.8691 87.9757 90.1284 87.9757C89.9782 87.4715 90.0714 81.5341 90.0714 80.5055V80.5095ZM83.6592 81.0137C83.6592 80.6305 83.5194 80.328 84.0114 80.328C84.8764 80.328 85.2597 80.2312 85.3063 80.5539C85.4617 81.5502 85.3063 82.6836 85.3063 83.7162C85.3063 84.4947 85.3633 85.1361 85.3633 85.9146C85.3633 86.3502 85.3011 86.6124 85.3063 87.0157C85.3115 87.4514 85.4151 87.9798 85.1302 87.9798C84.5812 87.9798 84.115 88.0161 83.6592 87.9354V81.0178V81.0137ZM80.5412 80.5095C80.5412 80.1828 81.7843 80.3321 82.0122 80.3724V82.252C82.0122 82.7199 82.0692 83.0144 82.0692 83.4904C82.0692 84.3657 82.0122 85.0836 82.0122 85.963C82.0122 86.4551 82.0743 86.7899 82.0692 87.2457C82.0692 87.8265 82.2245 88.0241 81.4217 88.0241C81.1472 88.0241 80.5412 88.0605 80.5412 87.8426V80.5095ZM78.3658 77.9885C78.4435 77.8957 78.5212 77.8393 78.6248 77.7344L79.3396 77.0084C79.7591 76.5324 80.0854 76.2621 80.5101 75.7176L81.2456 74.7778C81.2922 74.7213 81.3026 74.6931 81.3492 74.6285L82.2401 73.3942C82.2608 73.3579 82.2919 73.2894 82.3022 73.2611L82.6907 72.6924C82.7373 72.6157 82.7425 72.5794 82.7684 72.523C82.8409 72.3536 82.7787 72.4665 82.8564 72.3616C82.9497 72.2366 82.8771 72.3697 82.9652 72.2164C82.9911 72.172 83.0014 72.1317 83.0273 72.0793L84.4258 69.2759C84.5398 69.0944 84.5346 69.0863 84.6641 69.05L85.1147 70.0746C85.2908 70.3731 85.1716 70.3166 85.4099 70.7159C85.4876 70.845 85.4824 70.9136 85.5394 71.0265C85.788 71.5388 86.1298 72.0349 86.4199 72.5431L87.9686 74.8181C88.0825 75.0278 88.4399 75.3868 88.6108 75.6006L89.8332 76.9882C89.8435 77.0003 89.8694 77.0326 89.8798 77.0447C89.9523 77.1253 89.8953 77.0729 89.9782 77.1536C90.1543 77.327 90.2993 77.4682 90.4754 77.6376C90.9623 78.0974 90.7914 77.8635 90.781 78.1781C90.2527 78.1781 89.7192 78.1781 89.1909 78.1781C88.6419 78.1781 88.2949 78.1337 87.7199 78.1337C86.6426 78.1337 85.7776 78.1781 84.721 78.1781C83.6385 78.1781 82.7166 78.1337 81.603 78.1337C81.0281 78.1337 80.6655 78.1781 80.0751 78.1781C79.5467 78.1781 79.0184 78.1781 78.485 78.1781C78.4746 78.166 78.4332 78.0813 78.4332 78.0813C78.371 77.9805 78.4073 78.041 78.3658 77.9966V77.9885ZM64.1845 98.7455C64.1845 99.0036 64.3502 99.29 64.5626 99.4594C64.5729 99.4675 64.6092 99.4957 64.6195 99.5038C65.5363 100.198 67.5356 99.4715 67.5356 99.9838V104.84C67.5356 105.07 67.0798 105.026 66.769 105.026C66.0905 105.022 62.5529 104.953 62.18 105.07C61.8278 105.179 61.5119 105.324 61.2891 105.566C61.2218 105.639 61.0043 106.062 61.0043 106.171V135.27C61.0043 135.705 61.2632 136.133 61.6931 136.383C61.89 136.496 61.8123 136.444 62.0868 136.492C63.4645 136.734 65.3706 136.561 66.7742 136.553C67.7997 136.549 67.5356 136.682 67.5356 138.525V148.791C67.5356 149.162 67.4941 149.726 67.6184 150.009C67.6858 150.154 67.6806 150.105 67.7738 150.206C67.8101 150.247 67.8101 150.255 67.8463 150.291C68.3436 150.828 69.3795 150.622 70.1253 150.622C70.4775 150.622 70.55 150.666 70.8867 150.67L74.3621 150.622C75.3151 150.622 76.061 150.666 77.0088 150.666C77.9256 150.666 78.6248 150.622 79.5364 150.622C80.4687 150.622 81.1938 150.666 82.1261 150.666C83.0636 150.666 83.7887 150.622 84.7159 150.622C85.6482 150.622 86.3733 150.666 87.3056 150.666C88.2224 150.666 88.9268 150.622 89.8332 150.622C90.7655 150.622 91.4906 150.666 92.4229 150.666C93.3759 150.666 94.1218 150.622 95.0696 150.622C96.2505 150.622 97.4055 150.698 98.602 150.67C98.9076 150.662 99.0008 150.622 99.3634 150.622C99.8036 150.622 100.622 150.69 100.928 150.557C101.269 150.408 101.585 150.134 101.648 149.835C101.72 149.48 101.679 138.489 101.658 137.012C101.648 136.492 101.875 136.557 102.72 136.557C103.864 136.561 104.843 136.601 106.014 136.601C106.552 136.601 107.288 136.375 107.521 135.988C107.583 135.883 107.718 135.649 107.718 135.548V106.038C107.718 105.869 107.63 105.829 107.552 105.708L107.516 105.643C107.091 104.969 106.055 105.03 105.242 105.03C104.615 105.03 103.989 105.03 103.357 105.03C102.948 105.03 101.653 105.151 101.653 104.848V99.9919C101.653 99.5038 103.279 100.177 104.17 99.4796C104.802 98.9875 104.564 98.1525 103.813 97.8057C103.673 97.7411 103.854 97.7895 103.6 97.7411C102.839 97.5919 101.808 97.7048 101 97.7048C100.565 97.2006 100.197 96.648 99.902 96.0833L98.0789 93.2396C98.0012 93.1307 97.9753 93.0621 97.9028 92.9613L96.2661 90.4322C96.1936 90.3193 96.1469 90.2709 96.0744 90.17C95.8517 89.8554 95.225 88.964 95.225 88.6776V80.0618C95.225 79.5858 95.774 79.4245 95.2457 78.7186C95.0489 78.4524 94.1373 77.7868 93.7955 77.4682L92.2105 75.9999C91.8273 75.645 90.693 74.3542 90.377 73.9025L90.0196 73.4023C89.9471 73.3015 89.9937 73.37 89.9264 73.2934C89.7244 73.0554 89.5431 72.761 89.3826 72.4826C89.2738 72.2931 89.2116 72.2487 89.1029 72.0591C88.6367 71.2201 88.559 71.2322 88.0929 70.2762C87.953 69.9858 87.7614 69.7035 87.6474 69.3848L87.2227 68.4329C87.1398 68.2715 87.1554 68.0981 87.0622 67.9166L86.8861 67.4124C86.8343 67.1905 86.7514 67.0776 86.7099 66.9082C86.6582 66.7105 86.6426 66.521 86.5908 66.3596L85.9486 62.4833C85.9434 61.8823 86.0988 61.4265 85.7259 60.9868C85.6896 60.9425 85.6637 60.9062 85.6378 60.8739C85.0163 60.1236 83.3485 60.4988 83.2345 61.3821C83.1827 61.7774 83.2656 62.2574 83.2242 62.6568C83.1879 62.9996 83.0688 63.4231 83.0532 63.7579C83.017 64.363 82.8357 65.4803 82.6492 66.0087C82.5405 66.3072 82.3229 67.3559 82.209 67.5899L82.0277 68.0941C81.9707 68.2796 81.8827 68.3764 81.8154 68.57C81.6496 69.0783 80.997 70.4779 80.707 70.9136L79.8057 72.41C79.7332 72.531 79.7177 72.4947 79.6452 72.6036L77.9308 74.8867C76.9777 75.9919 75.8952 77.0124 74.7506 77.9966C74.4087 78.287 74.0099 78.4806 73.7665 78.8356C73.6111 79.0655 73.6991 80.3966 73.6991 80.7072C73.6991 81.2477 73.7768 88.6615 73.6629 88.9236L72.4561 90.8235C72.0469 91.5415 71.4046 92.4571 70.9333 93.167C70.8712 93.2598 70.8608 93.2436 70.7883 93.3727C70.2393 94.3206 69.5763 95.1878 69.0324 96.1277C68.846 96.4504 68.2762 97.4104 68.0432 97.604C67.5926 97.9831 65.5467 97.4144 64.749 97.9267C64.4797 98.1001 64.1689 98.3905 64.1689 98.7576L64.1845 98.7455Z" fill="#178EB9"/>
<path fill-rule="evenodd" clip-rule="evenodd" d="M79.0707 115.332C78.2679 115.332 77.9675 116.272 78.76 116.582L82.7844 118.397C82.8725 118.438 82.8621 118.446 82.9605 118.49C84.1259 118.998 84.2398 119.277 84.8976 118.906C84.9753 118.861 85.1928 118.68 85.1928 118.587V112.125C85.1928 111.839 84.7163 111.415 84.0275 111.629C83.4215 111.819 83.5458 112.44 83.5458 112.855L83.551 116.893C83.5406 117.401 83.3386 117.179 81.7796 116.477C81.5672 116.381 81.3497 116.296 81.1373 116.199L80.811 116.038C80.666 115.969 80.6349 115.941 80.4847 115.88C80.1429 115.735 79.3919 115.332 79.0707 115.332Z" fill="white"/>
</g>
<defs>
<clipPath id="clip0_287_2">
<rect width="168" height="108" fill="white" transform="translate(0 47.4683)"/>
</clipPath>
</defs>
</svg>
