<svg width="48" height="48" viewBox="0 0 48 48" fill="none" xmlns="http://www.w3.org/2000/svg">
<g clip-path="url(#clip0_157_185)">
<path d="M24 48C37.2548 48 48 37.2548 48 24C48 10.7452 37.2548 0 24 0C10.7452 0 0 10.7452 0 24C0 37.2548 10.7452 48 24 48Z" fill="#2F80ED"/>
<path d="M34.6005 38H13.6005C11.6005 38 10.0005 36.4 10.0005 34.4V13.6C10.0005 11.6 11.6005 10 13.6005 10H34.6005C36.6005 10 38.2005 11.6 38.2005 13.6V34.6C38.0005 36.4 36.4005 38 34.6005 38ZM13.6005 12.8C13.2005 12.8 13.0005 13 13.0005 13.4V34.4C13.0005 34.8 13.2005 35.2 13.6005 35.2H34.6005C35.0005 35.2 35.4005 35 35.4005 34.4V13.6C35.4005 13.2 35.2005 13 34.6005 13H13.6005V12.8Z" fill="white"/>
<path d="M16.2008 30.2001C15.4008 30.2001 14.8008 29.6 14.8008 28.8V19.2001C14.8008 18.4001 15.4008 17.8 16.2008 17.8H21.8008C22.6008 17.8 23.2008 18.4001 23.2008 19.2001C23.2008 20.0001 22.6008 20.6001 21.8008 20.6001H17.8008V29.0001C17.8008 29.8001 17.2008 30.2001 16.2008 30.2001Z" fill="white"/>
<path d="M21.6008 25.4001H16.2008C15.4008 25.4001 14.8008 24.8001 14.8008 24.0001C14.8008 23.2001 15.4008 22.6001 16.2008 22.6001H21.6008C22.4008 22.6001 23.0008 23.2001 23.0008 24.0001C23.0008 24.8001 22.4008 25.4001 21.6008 25.4001Z" fill="white"/>
<path d="M21.6008 30.2001H16.2008C15.4008 30.2001 14.8008 29.6001 14.8008 28.8001C14.8008 28.0001 15.4008 27.4001 16.2008 27.4001H21.6008C22.4008 27.4001 23.0008 28.0001 23.0008 28.8001C23.0008 29.6001 22.4008 30.2001 21.6008 30.2001Z" fill="white"/>
<path d="M25.4002 30.2C24.6002 30.2 24.0002 29.6 24.0002 28.8V20.4C24.0002 19.6 24.6002 19 25.4002 19C26.2002 19 26.8002 19.6 26.8002 20.4V28.8C26.8002 29.8 26.2002 30.2 25.4002 30.2Z" fill="white"/>
<path d="M31.8002 30.2001C31.0002 30.2001 30.4002 29.6 30.4002 28.8V24.2001C30.4002 23.2001 29.6002 22.4 28.6002 22.4C27.6002 22.4 27.0002 23.4 27.0002 24.4V29.0001C27.0002 29.8001 26.4002 30.4001 25.6002 30.4001C24.8002 30.4001 24.0002 29.8001 24.0002 29.0001V24.4C24.0002 21.8 26.2002 19.8 28.6002 19.8C31.0002 19.8 33.2002 22 33.2002 24.4V29.0001C33.0002 29.8001 32.6002 30.2001 31.8002 30.2001Z" fill="white"/>
</g>
<defs>
<clipPath id="clip0_157_185">
<rect width="48" height="48" fill="white"/>
</clipPath>
</defs>
</svg>
