<svg width="170" height="160" viewBox="0 0 170 160" fill="none" xmlns="http://www.w3.org/2000/svg">
<rect width="168.525" height="156.134" rx="5.45228" fill="#FFF7E1"/>
<mask id="mask0_287_13" style="mask-type:alpha" maskUnits="userSpaceOnUse" x="0" y="3" width="170" height="157">
<rect x="0.554688" y="3.86646" width="168.525" height="156.134" rx="5.45228" fill="#F8E6D6"/>
</mask>
<g mask="url(#mask0_287_13)">
<ellipse cx="85.1273" cy="175.632" rx="97.6832" ry="89.8161" fill="#FFEEBF"/>
<path fill-rule="evenodd" clip-rule="evenodd" d="M55.1458 142.035C57.8428 141.57 58.4424 145.53 55.8625 145.969C53.0573 146.434 52.4723 142.5 55.1458 142.035ZM62.0958 146.806C64.0088 146.765 66.1763 146.978 68.1303 147.045L86.0084 147.818C90.2088 148.005 93.2801 148.362 96.7083 146.528C99.3789 145.106 101.944 143.483 104.562 141.968L116.312 135.097C117.576 134.365 119.211 133.649 119.264 131.8C119.316 130.045 117.842 128.623 115.982 128.93C113.428 129.343 105.972 133.637 103.635 135.205C102.427 136.03 101.163 136.893 99.5544 137.425C98.1182 137.905 95.9536 138.223 94.3712 138.434C92.2856 138.712 81.9308 139.698 79.8306 139.431C78.8214 139.3 78.7805 138.036 79.6843 137.785C80.9216 137.425 95.0351 136.656 96.4977 135.977C98.8231 134.915 99.2765 131.698 96.9218 130.168C96.0326 129.583 95.4476 129.703 94.2893 129.688C90.1941 129.647 86.1137 129.594 82.0478 129.556C77.3706 129.515 76.0134 128.161 71.2279 127.921C69.274 127.828 67.32 127.974 65.5006 128.413C63.4267 128.904 61.4991 129.861 60.8497 130.007C60.253 129.396 60.0512 128.957 59.0011 128.638C58.1645 128.386 57.0998 128.544 56.1842 128.612C53.1948 128.825 50.0825 128.48 48.8745 130.779C48.383 131.709 48.462 132.388 48.5293 133.532C48.6492 135.486 48.7809 137.466 48.9271 139.446C49.0734 141.374 49.2196 143.354 49.3395 145.32C49.6584 150.383 54.0314 149.093 57.8194 148.856C58.7759 148.789 59.7733 148.789 60.5455 148.406C61.543 147.9 61.4494 147.569 62.087 146.849L62.1017 146.809L62.0958 146.806Z" stroke="#1A52F3" stroke-width="1.63219" stroke-miterlimit="2.61313"/>
<path fill-rule="evenodd" clip-rule="evenodd" d="M85.7704 90.3312C94.6889 89.7199 101.867 96.8454 102.373 105.006C102.932 113.925 95.9263 121.208 87.6337 121.662C78.6478 122.153 71.5516 115.294 70.9929 106.96C70.4225 98.4805 76.9337 90.9425 85.7733 90.3312H85.7704ZM85.0274 86.318C73.8214 87.4617 66.0466 96.8454 66.9767 107.759C67.8543 117.967 76.9337 126.646 88.3503 125.675C98.5852 124.797 107.398 115.812 106.401 104.369C105.869 98.2552 102.932 94.0402 99.8342 91.2087C96.6839 88.3392 91.1291 85.692 85.0274 86.318Z" stroke="#EA5757" stroke-width="1.63219" stroke-miterlimit="2.61313"/>
<path fill-rule="evenodd" clip-rule="evenodd" d="M81.2548 110.693C80.974 111.184 80.7487 111.93 80.5762 112.568C80.3246 113.524 80.2047 113.884 80.936 114.375C82.1323 115.174 84.1916 115.227 84.8965 115.557C85.1627 116.701 84.4314 118.254 85.8676 118.254C86.5726 118.254 87.4764 118.333 88.0088 118.067C88.2077 117.377 88.0234 116.525 88.1287 115.753C88.234 115.063 88.819 115.074 89.524 114.782C90.6267 114.302 91.5715 113.48 92.1302 112.603C93.6981 110.131 92.7942 107.153 91.0392 105.679C89.1788 104.111 85.5488 103.485 84.9111 102.131C84.3144 100.856 85.5225 99.9635 87.2629 99.9781C91.516 100.004 90.8929 102.783 92.0747 98.3693C92.3262 97.4509 91.5949 97.2139 90.4278 96.8805C89.9774 96.7606 89.5649 96.6816 89.1116 96.6026C88.5148 96.4827 88.275 96.4446 88.2487 95.7777C88.155 93.9291 88.6991 93.8501 86.2157 93.8501C85.0866 93.8501 85.2446 94.2479 85.2592 95.3243C85.2592 96.5207 85.4055 96.588 84.3963 96.9595C82.9601 97.4918 82.1382 98.0622 81.4449 99.0743C80.0087 101.148 80.2632 104.298 82.8665 106.054C85.1393 107.569 89.1145 107.914 88.6084 110.321C88.1843 112.354 84.9258 111.968 83.1444 111.357C82.5447 111.158 81.8281 110.625 81.2431 110.693H81.2577H81.2548Z" stroke="#EA5757" stroke-width="1.63219" stroke-miterlimit="2.61313"/>
<path fill-rule="evenodd" clip-rule="evenodd" d="M101.76 133.409C102.506 133.117 103.767 132.213 104.539 131.762C106.013 130.885 110.187 128.586 111.744 127.869C112.089 127.711 112.955 127.457 113.192 127.179C111.969 126.594 111.343 126.462 109.883 126.991C108.874 127.363 107.97 127.775 107.011 128.2C105.136 129.024 103.208 129.993 101.494 130.937C101.535 131.695 101.746 131.455 101.746 133.409H101.76Z" stroke="#1A52F3" stroke-width="1.63219" stroke-miterlimit="2.61313"/>
<path fill-rule="evenodd" clip-rule="evenodd" d="M98.77 127.626C99.434 128.132 99.7148 128.41 100.244 128.969C100.604 128.863 101.52 128.264 101.973 128.024C103.327 127.307 107.197 125.976 107.689 125.59C106.492 124.367 104.298 125.432 103.038 125.897C102.175 126.204 99.1708 127.187 98.7846 127.626H98.77Z" stroke="#1A52F3" stroke-width="1.63219" stroke-miterlimit="2.61313"/>
</g>
<path d="M29.7166 17.4002V19.2832H24.8675V22.266H28.5835V24.1157H24.8675V29.0315H22.5346V17.4002H29.7166ZM32.554 18.7C32.143 18.7 31.7986 18.5722 31.5209 18.3167C31.2542 18.0501 31.1209 17.7224 31.1209 17.3336C31.1209 16.9448 31.2542 16.6226 31.5209 16.3671C31.7986 16.1005 32.143 15.9671 32.554 15.9671C32.965 15.9671 33.3039 16.1005 33.5705 16.3671C33.8482 16.6226 33.9871 16.9448 33.9871 17.3336C33.9871 17.7224 33.8482 18.0501 33.5705 18.3167C33.3039 18.5722 32.965 18.7 32.554 18.7ZM33.7038 19.7998V29.0315H31.3709V19.7998H33.7038ZM41.1245 19.6665C42.2243 19.6665 43.113 20.0164 43.7907 20.7163C44.4683 21.4051 44.8072 22.3716 44.8072 23.6158V29.0315H42.4743V23.9324C42.4743 23.1992 42.291 22.6382 41.9243 22.2494C41.5577 21.8494 41.0578 21.6495 40.4246 21.6495C39.7803 21.6495 39.2693 21.8494 38.8916 22.2494C38.525 22.6382 38.3417 23.1992 38.3417 23.9324V29.0315H36.0087V19.7998H38.3417V20.9496C38.6527 20.5497 39.0471 20.2386 39.5248 20.0164C40.0136 19.7831 40.5468 19.6665 41.1245 19.6665ZM46.4258 24.3823C46.4258 23.4492 46.6091 22.6215 46.9757 21.8994C47.3534 21.1773 47.8588 20.6219 48.4921 20.2331C49.1364 19.8442 49.8529 19.6498 50.6417 19.6498C51.3304 19.6498 51.9303 19.7887 52.4414 20.0664C52.9635 20.3441 53.3801 20.6941 53.6911 21.1162V19.7998H56.0407V29.0315H53.6911V27.6817C53.3912 28.115 52.9746 28.476 52.4414 28.7649C51.9192 29.0426 51.3138 29.1815 50.625 29.1815C49.8474 29.1815 49.1364 28.9815 48.4921 28.5816C47.8588 28.1816 47.3534 27.6206 46.9757 26.8985C46.6091 26.1653 46.4258 25.3266 46.4258 24.3823ZM53.6911 24.4156C53.6911 23.8491 53.58 23.3658 53.3579 22.9659C53.1357 22.5549 52.8357 22.2438 52.458 22.0327C52.0803 21.8106 51.6748 21.6995 51.2416 21.6995C50.8083 21.6995 50.4084 21.805 50.0418 22.0161C49.6752 22.2271 49.3752 22.5382 49.1419 22.9492C48.9198 23.3492 48.8087 23.8269 48.8087 24.3823C48.8087 24.9378 48.9198 25.4266 49.1419 25.8487C49.3752 26.2598 49.6752 26.5764 50.0418 26.7986C50.4195 27.0207 50.8194 27.1318 51.2416 27.1318C51.6748 27.1318 52.0803 27.0263 52.458 26.8152C52.8357 26.593 53.1357 26.282 53.3579 25.8821C53.58 25.471 53.6911 24.9822 53.6911 24.4156ZM63.435 19.6665C64.5348 19.6665 65.4235 20.0164 66.1012 20.7163C66.7788 21.4051 67.1177 22.3716 67.1177 23.6158V29.0315H64.7847V23.9324C64.7847 23.1992 64.6014 22.6382 64.2348 22.2494C63.8682 21.8494 63.3683 21.6495 62.7351 21.6495C62.0908 21.6495 61.5798 21.8494 61.202 22.2494C60.8354 22.6382 60.6521 23.1992 60.6521 23.9324V29.0315H58.3192V19.7998H60.6521V20.9496C60.9632 20.5497 61.3576 20.2386 61.8353 20.0164C62.3241 19.7831 62.8573 19.6665 63.435 19.6665ZM68.7363 24.4156C68.7363 23.4603 68.9307 22.6271 69.3195 21.9161C69.7083 21.194 70.2471 20.6385 70.9359 20.2497C71.6246 19.8498 72.4134 19.6498 73.3021 19.6498C74.4464 19.6498 75.3906 19.9387 76.1349 20.5163C76.8904 21.0829 77.3958 21.8828 77.6513 22.9159H75.1351C75.0018 22.516 74.7741 22.2049 74.4519 21.9827C74.1409 21.7495 73.752 21.6328 73.2854 21.6328C72.6189 21.6328 72.0912 21.8772 71.7024 22.366C71.3136 22.8437 71.1192 23.5269 71.1192 24.4156C71.1192 25.2933 71.3136 25.9765 71.7024 26.4653C72.0912 26.943 72.6189 27.1818 73.2854 27.1818C74.2297 27.1818 74.8463 26.7597 75.1351 25.9154H77.6513C77.3958 26.9152 76.8904 27.7095 76.1349 28.2983C75.3795 28.8871 74.4352 29.1815 73.3021 29.1815C72.4134 29.1815 71.6246 28.9871 70.9359 28.5982C70.2471 28.1983 69.7083 27.6429 69.3195 26.9319C68.9307 26.2098 68.7363 25.371 68.7363 24.4156ZM80.5435 18.7C80.1325 18.7 79.7881 18.5722 79.5104 18.3167C79.2438 18.0501 79.1105 17.7224 79.1105 17.3336C79.1105 16.9448 79.2438 16.6226 79.5104 16.3671C79.7881 16.1005 80.1325 15.9671 80.5435 15.9671C80.9546 15.9671 81.2934 16.1005 81.56 16.3671C81.8377 16.6226 81.9766 16.9448 81.9766 17.3336C81.9766 17.7224 81.8377 18.0501 81.56 18.3167C81.2934 18.5722 80.9546 18.7 80.5435 18.7ZM81.6933 19.7998V29.0315H79.3604V19.7998H81.6933ZM83.3984 24.3823C83.3984 23.4492 83.5817 22.6215 83.9483 21.8994C84.326 21.1773 84.8314 20.6219 85.4647 20.2331C86.109 19.8442 86.8255 19.6498 87.6143 19.6498C88.303 19.6498 88.9029 19.7887 89.414 20.0664C89.9361 20.3441 90.3527 20.6941 90.6637 21.1162V19.7998H93.0133V29.0315H90.6637V27.6817C90.3638 28.115 89.9472 28.476 89.414 28.7649C88.8918 29.0426 88.2864 29.1815 87.5976 29.1815C86.82 29.1815 86.109 28.9815 85.4647 28.5816C84.8314 28.1816 84.326 27.6206 83.9483 26.8985C83.5817 26.1653 83.3984 25.3266 83.3984 24.3823ZM90.6637 24.4156C90.6637 23.8491 90.5526 23.3658 90.3305 22.9659C90.1083 22.5549 89.8083 22.2438 89.4306 22.0327C89.0529 21.8106 88.6474 21.6995 88.2142 21.6995C87.7809 21.6995 87.381 21.805 87.0144 22.0161C86.6478 22.2271 86.3478 22.5382 86.1145 22.9492C85.8924 23.3492 85.7813 23.8269 85.7813 24.3823C85.7813 24.9378 85.8924 25.4266 86.1145 25.8487C86.3478 26.2598 86.6478 26.5764 87.0144 26.7986C87.3921 27.0207 87.792 27.1318 88.2142 27.1318C88.6474 27.1318 89.0529 27.0263 89.4306 26.8152C89.8083 26.593 90.1083 26.282 90.3305 25.8821C90.5526 25.471 90.6637 24.9822 90.6637 24.4156ZM97.6247 16.7004V29.0315H95.2918V16.7004H97.6247ZM24.8675 48.1818H28.7001V50.0315H22.5346V38.4002H24.8675V48.1818ZM31.3661 39.7C30.955 39.7 30.6106 39.5722 30.3329 39.3167C30.0663 39.0501 29.933 38.7224 29.933 38.3336C29.933 37.9448 30.0663 37.6226 30.3329 37.3671C30.6106 37.1005 30.955 36.9671 31.3661 36.9671C31.7771 36.9671 32.1159 37.1005 32.3826 37.3671C32.6603 37.6226 32.7991 37.9448 32.7991 38.3336C32.7991 38.7224 32.6603 39.0501 32.3826 39.3167C32.1159 39.5722 31.7771 39.7 31.3661 39.7ZM32.5159 40.7998V50.0315H30.1829V40.7998H32.5159ZM37.537 42.7161V47.182C37.537 47.4931 37.6092 47.7208 37.7536 47.8652C37.9091 47.9985 38.1646 48.0652 38.5201 48.0652H39.6033V50.0315H38.1369C36.1706 50.0315 35.1874 49.0761 35.1874 47.1653V42.7161H34.0876V40.7998H35.1874V38.5169H37.537V40.7998H39.6033V42.7161H37.537ZM49.863 45.2157C49.863 45.549 49.8408 45.8489 49.7964 46.1155H43.0476C43.1031 46.7821 43.3364 47.3042 43.7475 47.6819C44.1585 48.0596 44.664 48.2485 45.2639 48.2485C46.1304 48.2485 46.7469 47.8763 47.1135 47.132H49.6298C49.3631 48.0207 48.8521 48.7539 48.0967 49.3316C47.3413 49.8982 46.4137 50.1815 45.3139 50.1815C44.4251 50.1815 43.6253 49.9871 42.9143 49.5982C42.2144 49.1983 41.6645 48.6373 41.2646 47.9152C40.8757 47.1931 40.6813 46.3599 40.6813 45.4156C40.6813 44.4603 40.8757 43.6215 41.2646 42.8994C41.6534 42.1773 42.1977 41.6219 42.8976 41.2331C43.5975 40.8442 44.4029 40.6498 45.3139 40.6498C46.1915 40.6498 46.9747 40.8387 47.6634 41.2164C48.3633 41.5941 48.9021 42.1329 49.2798 42.8328C49.6686 43.5215 49.863 44.3158 49.863 45.2157ZM47.4468 44.5491C47.4357 43.9492 47.2191 43.4715 46.7969 43.1161C46.3748 42.7495 45.8582 42.5662 45.2472 42.5662C44.6695 42.5662 44.1807 42.7439 43.7808 43.0994C43.392 43.4438 43.1531 43.927 43.0643 44.5491H47.4468ZM53.8988 42.2329C54.1987 41.7441 54.5876 41.3608 55.0652 41.0831C55.554 40.8054 56.1095 40.6665 56.7316 40.6665V43.1161H56.1151C55.3819 43.1161 54.8264 43.2882 54.4487 43.6326C54.0821 43.977 53.8988 44.5769 53.8988 45.4323V50.0315H51.5659V40.7998H53.8988V42.2329ZM57.7031 45.3823C57.7031 44.4492 57.8864 43.6215 58.253 42.8994C58.6307 42.1773 59.1361 41.6219 59.7694 41.2331C60.4137 40.8442 61.1302 40.6498 61.919 40.6498C62.6077 40.6498 63.2076 40.7887 63.7187 41.0664C64.2408 41.3441 64.6574 41.6941 64.9684 42.1162V40.7998H67.318V50.0315H64.9684V48.6817C64.6685 49.115 64.2519 49.476 63.7187 49.7649C63.1965 50.0426 62.5911 50.1815 61.9023 50.1815C61.1247 50.1815 60.4137 49.9815 59.7694 49.5816C59.1361 49.1816 58.6307 48.6206 58.253 47.8985C57.8864 47.1653 57.7031 46.3266 57.7031 45.3823ZM64.9684 45.4156C64.9684 44.8491 64.8573 44.3658 64.6352 43.9659C64.413 43.5549 64.113 43.2438 63.7353 43.0327C63.3576 42.8106 62.9521 42.6995 62.5189 42.6995C62.0856 42.6995 61.6857 42.805 61.3191 43.0161C60.9525 43.2271 60.6525 43.5382 60.4192 43.9492C60.1971 44.3492 60.086 44.8269 60.086 45.3823C60.086 45.9378 60.1971 46.4266 60.4192 46.8487C60.6525 47.2598 60.9525 47.5764 61.3191 47.7986C61.6968 48.0207 62.0967 48.1318 62.5189 48.1318C62.9521 48.1318 63.3576 48.0263 63.7353 47.8152C64.113 47.593 64.413 47.282 64.6352 46.8821C64.8573 46.471 64.9684 45.9822 64.9684 45.4156ZM68.9966 45.4156C68.9966 44.4603 69.191 43.6271 69.5799 42.9161C69.9687 42.194 70.5075 41.6385 71.1962 41.2497C71.885 40.8498 72.6737 40.6498 73.5625 40.6498C74.7067 40.6498 75.651 40.9387 76.3953 41.5163C77.1507 42.0829 77.6562 42.8828 77.9117 43.9159H75.3955C75.2622 43.516 75.0344 43.2049 74.7123 42.9827C74.4012 42.7495 74.0124 42.6328 73.5458 42.6328C72.8793 42.6328 72.3516 42.8772 71.9628 43.366C71.5739 43.8437 71.3795 44.5269 71.3795 45.4156C71.3795 46.2933 71.5739 46.9765 71.9628 47.4653C72.3516 47.943 72.8793 48.1818 73.5458 48.1818C74.4901 48.1818 75.1066 47.7597 75.3955 46.9154H77.9117C77.6562 47.9152 77.1507 48.7095 76.3953 49.2983C75.6399 49.8871 74.6956 50.1815 73.5625 50.1815C72.6737 50.1815 71.885 49.9871 71.1962 49.5982C70.5075 49.1983 69.9687 48.6429 69.5799 47.9319C69.191 47.2098 68.9966 46.371 68.9966 45.4156ZM88.4525 40.7998L82.7369 54.3974H80.254L82.2536 49.7982L78.5543 40.7998H81.1705L83.5534 47.2487L85.9697 40.7998H88.4525Z" fill="black"/>
<path d="M29.6085 62.7647V70.0234H28.654V64.6109L26.2414 70.0234H25.5701L23.147 64.6004V70.0234H22.1925V62.7647H23.2204L25.9057 68.7647L28.591 62.7647H29.6085ZM33.7343 70.1178C33.1959 70.1178 32.7063 69.9955 32.2658 69.7507C31.8322 69.506 31.4896 69.1598 31.2378 68.7123C30.9931 68.2577 30.8707 67.7332 30.8707 67.1388C30.8707 66.5514 30.9966 66.0339 31.2483 65.5864C31.5071 65.1318 31.8567 64.7857 32.2973 64.5479C32.7378 64.3032 33.2308 64.1808 33.7763 64.1808C34.3217 64.1808 34.8147 64.3032 35.2553 64.5479C35.6958 64.7857 36.042 65.1283 36.2937 65.5759C36.5525 66.0235 36.6819 66.5444 36.6819 67.1388C36.6819 67.7332 36.549 68.2577 36.2833 68.7123C36.0245 69.1598 35.6714 69.506 35.2238 69.7507C34.7763 69.9955 34.2798 70.1178 33.7343 70.1178ZM33.7343 69.2787C34.077 69.2787 34.3987 69.1983 34.6993 69.0374C35 68.8766 35.2413 68.6353 35.4231 68.3137C35.6119 67.992 35.7063 67.6004 35.7063 67.1388C35.7063 66.6773 35.6154 66.2857 35.4336 65.964C35.2518 65.6423 35.014 65.4046 34.7203 65.2507C34.4266 65.0899 34.1084 65.0095 33.7658 65.0095C33.4161 65.0095 33.0945 65.0899 32.8008 65.2507C32.514 65.4046 32.2833 65.6423 32.1084 65.964C31.9336 66.2857 31.8462 66.6773 31.8462 67.1388C31.8462 67.6074 31.9301 68.0025 32.098 68.3241C32.2728 68.6458 32.5036 68.8871 32.7903 69.0479C33.077 69.2018 33.3917 69.2787 33.7343 69.2787ZM40.7376 64.1703C41.4369 64.1703 42.0033 64.3836 42.4369 64.8102C42.8705 65.2297 43.0872 65.8381 43.0872 66.6353V70.0234H42.1432V66.7717C42.1432 66.1983 41.9998 65.7612 41.7131 65.4605C41.4264 65.1528 41.0348 64.999 40.5383 64.999C40.0348 64.999 39.6327 65.1563 39.332 65.471C39.0383 65.7857 38.8915 66.2437 38.8915 66.8451V70.0234H37.9369V64.2752H38.8915V65.0934C39.0803 64.7997 39.3355 64.5724 39.6572 64.4116C39.9859 64.2507 40.346 64.1703 40.7376 64.1703ZM49.8912 66.929C49.8912 67.1109 49.8807 67.3032 49.8598 67.506H45.2654C45.3003 68.0724 45.4926 68.5164 45.8423 68.8381C46.1989 69.1528 46.629 69.3102 47.1325 69.3102C47.5451 69.3102 47.8877 69.2157 48.1605 69.0269C48.4402 68.8311 48.636 68.5724 48.7479 68.2507H49.7758C49.622 68.8032 49.3143 69.2542 48.8528 69.6039C48.3912 69.9465 47.8178 70.1178 47.1325 70.1178C46.587 70.1178 46.0975 69.9955 45.664 69.7507C45.2374 69.506 44.9017 69.1598 44.657 68.7123C44.4122 68.2577 44.2898 67.7332 44.2898 67.1388C44.2898 66.5444 44.4087 66.0235 44.6465 65.5759C44.8842 65.1283 45.2164 64.7857 45.643 64.5479C46.0765 64.3032 46.5731 64.1808 47.1325 64.1808C47.6779 64.1808 48.1605 64.2997 48.58 64.5374C48.9996 64.7752 49.3213 65.1039 49.5451 65.5235C49.7758 65.936 49.8912 66.4046 49.8912 66.929ZM48.9052 66.7297C48.9052 66.3661 48.8248 66.0549 48.664 65.7962C48.5031 65.5304 48.2828 65.3311 48.0031 65.1983C47.7304 65.0584 47.4262 64.9885 47.0905 64.9885C46.608 64.9885 46.1954 65.1423 45.8528 65.45C45.5171 65.7577 45.3248 66.1843 45.2759 66.7297H48.9052ZM56.1022 64.2752L52.6407 72.7297H51.6547L52.7875 69.9605L50.4694 64.2752H51.5288L53.333 68.9325L55.1162 64.2752H56.1022ZM62.1764 70.0969C61.6939 70.0969 61.2604 70.0129 60.8757 69.8451C60.4981 69.6703 60.2009 69.4325 59.9841 69.1318C59.7674 68.8241 59.6555 68.471 59.6485 68.0724H60.666C60.7009 68.4151 60.8408 68.7053 61.0855 68.943C61.3373 69.1738 61.7009 69.2892 62.1764 69.2892C62.631 69.2892 62.9876 69.1773 63.2464 68.9535C63.5121 68.7227 63.645 68.429 63.645 68.0724C63.645 67.7927 63.568 67.5654 63.4142 67.3906C63.2604 67.2158 63.068 67.0829 62.8373 66.992C62.6065 66.9011 62.2953 66.8032 61.9037 66.6983C61.4212 66.5724 61.0331 66.4465 60.7394 66.3207C60.4527 66.1948 60.2044 65.999 59.9946 65.7332C59.7918 65.4605 59.6904 65.0969 59.6904 64.6423C59.6904 64.2437 59.7918 63.8906 59.9946 63.5829C60.1974 63.2752 60.4806 63.0374 60.8443 62.8696C61.2149 62.7018 61.638 62.6179 62.1135 62.6179C62.7988 62.6179 63.3583 62.7892 63.7918 63.1319C64.2324 63.4745 64.4806 63.9291 64.5366 64.4955H63.4876C63.4527 64.2158 63.3058 63.971 63.0471 63.7612C62.7883 63.5444 62.4457 63.436 62.0191 63.436C61.6205 63.436 61.2953 63.5409 61.0436 63.7507C60.7918 63.9535 60.666 64.2402 60.666 64.6109C60.666 64.8766 60.7394 65.0934 60.8862 65.2612C61.0401 65.429 61.2254 65.5584 61.4422 65.6493C61.666 65.7332 61.9771 65.8311 62.3757 65.943C62.8583 66.0759 63.2464 66.2088 63.5401 66.3416C63.8338 66.4675 64.0855 66.6668 64.2953 66.9395C64.5051 67.2053 64.61 67.5689 64.61 68.0304C64.61 68.3871 64.5156 68.7227 64.3268 69.0374C64.138 69.3521 63.8583 69.6074 63.4876 69.8032C63.117 69.999 62.6799 70.0969 62.1764 70.0969ZM72.9273 64.1703C73.3748 64.1703 73.7734 64.2647 74.1231 64.4535C74.4727 64.6353 74.7489 64.9116 74.9517 65.2822C75.1545 65.6528 75.2559 66.1039 75.2559 66.6353V70.0234H74.3119V66.7717C74.3119 66.1983 74.1685 65.7612 73.8818 65.4605C73.6021 65.1528 73.221 64.999 72.7384 64.999C72.2419 64.999 71.8468 65.1598 71.5531 65.4815C71.2594 65.7962 71.1126 66.2542 71.1126 66.8556V70.0234H70.1685V66.7717C70.1685 66.1983 70.0252 65.7612 69.7385 65.4605C69.4587 65.1528 69.0776 64.999 68.5951 64.999C68.0986 64.999 67.7035 65.1598 67.4098 65.4815C67.1161 65.7962 66.9692 66.2542 66.9692 66.8556V70.0234H66.0147V64.2752H66.9692V65.1039C67.158 64.8032 67.4098 64.5724 67.7245 64.4116C68.0462 64.2507 68.3993 64.1703 68.7839 64.1703C69.2664 64.1703 69.693 64.2787 70.0636 64.4955C70.4343 64.7123 70.7105 65.0304 70.8923 65.45C71.0531 65.0444 71.3189 64.7297 71.6895 64.506C72.0601 64.2822 72.4727 64.1703 72.9273 64.1703ZM76.4651 67.1283C76.4651 66.5409 76.584 66.0269 76.8217 65.5864C77.0595 65.1388 77.3847 64.7927 77.7972 64.5479C78.2168 64.3032 78.6818 64.1808 79.1923 64.1808C79.6958 64.1808 80.1329 64.2892 80.5035 64.506C80.8741 64.7228 81.1504 64.9955 81.3322 65.3242V64.2752H82.2972V70.0234H81.3322V68.9535C81.1434 69.2892 80.8602 69.5689 80.4825 69.7927C80.1119 70.0095 79.6783 70.1178 79.1818 70.1178C78.6714 70.1178 78.2098 69.992 77.7972 69.7402C77.3847 69.4885 77.0595 69.1353 76.8217 68.6808C76.584 68.2262 76.4651 67.7088 76.4651 67.1283ZM81.3322 67.1388C81.3322 66.7053 81.2448 66.3276 81.07 66.006C80.8951 65.6843 80.6574 65.4395 80.3567 65.2717C80.063 65.0969 79.7378 65.0095 79.3811 65.0095C79.0245 65.0095 78.6993 65.0934 78.4056 65.2612C78.1119 65.429 77.8777 65.6738 77.7028 65.9955C77.528 66.3172 77.4406 66.6948 77.4406 67.1283C77.4406 67.5689 77.528 67.9535 77.7028 68.2822C77.8777 68.6039 78.1119 68.8521 78.4056 69.0269C78.6993 69.1948 79.0245 69.2787 79.3811 69.2787C79.7378 69.2787 80.063 69.1948 80.3567 69.0269C80.6574 68.8521 80.8951 68.6039 81.07 68.2822C81.2448 67.9535 81.3322 67.5724 81.3322 67.1388ZM84.8648 65.2088C85.0327 64.8801 85.2704 64.6249 85.5781 64.443C85.8928 64.2612 86.2739 64.1703 86.7215 64.1703V65.1563H86.4697C85.3998 65.1563 84.8648 65.7367 84.8648 66.8976V70.0234H83.9103V64.2752H84.8648V65.2088ZM88.9877 65.0619V68.45C88.9877 68.7297 89.0471 68.929 89.166 69.0479C89.2849 69.1598 89.4912 69.2157 89.7849 69.2157H90.4877V70.0234H89.6276C89.0961 70.0234 88.6975 69.9011 88.4318 69.6563C88.166 69.4116 88.0332 69.0095 88.0332 68.45V65.0619H87.2884V64.2752H88.0332V62.8277H88.9877V64.2752H90.4877V65.0619H88.9877ZM92.882 62.7123L92.7666 67.957H91.9694L91.854 62.7123H92.882ZM92.41 70.0864C92.2282 70.0864 92.0743 70.0234 91.9484 69.8976C91.8226 69.7717 91.7596 69.6178 91.7596 69.436C91.7596 69.2542 91.8226 69.1004 91.9484 68.9745C92.0743 68.8486 92.2282 68.7857 92.41 68.7857C92.5848 68.7857 92.7317 68.8486 92.8505 68.9745C92.9764 69.1004 93.0393 69.2542 93.0393 69.436C93.0393 69.6178 92.9764 69.7717 92.8505 69.8976C92.7317 70.0234 92.5848 70.0864 92.41 70.0864Z" fill="black"/>
</svg>
