<svg width="48" height="48" viewBox="0 0 48 48" fill="none" xmlns="http://www.w3.org/2000/svg">
<g clip-path="url(#clip0_157_997)">
<path d="M24 48C37.2548 48 48 37.2548 48 24C48 10.7452 37.2548 0 24 0C10.7452 0 0 10.7452 0 24C0 37.2548 10.7452 48 24 48Z" fill="#ED2F9B"/>
<path d="M25.8449 19.0842H25.8498C26.093 19.0853 26.2916 18.8891 26.2927 18.6458C26.2941 18.4023 26.0979 18.204 25.8544 18.2029L23.2478 18.1748L22.2028 18.1636H22.1979C21.9546 18.1624 21.7564 18.3587 21.755 18.6019C21.7538 18.8455 21.95 19.0437 22.1933 19.0449L23.2384 19.056C23.6899 19.0612 24.095 19.3352 24.2674 19.7529L22.1861 19.7308C21.9426 19.7282 21.7432 19.9233 21.7406 20.1665C21.738 20.4101 21.9331 20.6095 22.1767 20.612L24.2576 20.6341C24.0778 21.0432 23.6733 21.308 23.2263 21.3086H23.214L22.1689 21.2971C21.9885 21.2951 21.825 21.4035 21.7567 21.5705C21.6881 21.7374 21.7283 21.9294 21.8582 22.0547L24.4432 24.5508C24.6185 24.7198 24.8974 24.7149 25.0663 24.5399C25.2353 24.3646 25.2304 24.0858 25.0554 23.9168L23.2662 22.1896C24.1822 22.1709 24.9694 21.5352 25.1799 20.6436L25.8283 20.6505H25.8331C26.0764 20.6519 26.2746 20.4557 26.2761 20.2124C26.2772 19.9689 26.081 19.7706 25.8377 19.7692L25.1894 19.7623C25.1375 19.5168 25.0397 19.283 24.9005 19.0738L25.8449 19.0842Z" fill="white"/>
<path d="M30.9832 14.3861C28.418 11.8665 24.6935 10.9264 21.2398 11.9265C17.7862 12.9265 15.1404 15.7115 14.3182 19.2116C13.496 22.712 14.6254 26.3834 17.2727 28.8167C18.5596 30.0106 19.2888 31.6883 19.2837 33.4436V38.1945C19.2848 39.2462 20.1368 40.0982 21.1885 40.0994H23.5667V41.5593C23.5667 41.8028 23.7638 41.9999 24.0073 41.9999C24.2506 41.9999 24.4479 41.8028 24.4479 41.5593V40.0994H26.8255C27.8772 40.0982 28.7292 39.2459 28.7304 38.1945V33.437C28.7433 31.6624 29.4903 29.9722 30.7941 28.7682C32.783 26.9178 33.9285 24.3343 33.9644 21.6179C34.0002 18.9015 32.923 16.2886 30.9835 14.3864L30.9832 14.3861ZM26.8255 39.2181H21.1888C20.6236 39.2175 20.1658 38.7597 20.1652 38.1945V38.0058H25.2142C25.4577 38.0058 25.6548 37.8084 25.6548 37.5651C25.6548 37.3219 25.4577 37.1245 25.2142 37.1245H20.1652V35.9119H21.4074C21.6509 35.9119 21.848 35.7145 21.848 35.4712C21.848 35.2277 21.6509 35.0306 21.4074 35.0306H20.1652V33.8843H27.8491V35.0306H22.9229C22.6794 35.0306 22.4823 35.2277 22.4823 35.4712C22.4823 35.7145 22.6794 35.9119 22.9229 35.9119H27.8491V37.1242H26.7297C26.4865 37.1242 26.2891 37.3216 26.2891 37.5648C26.2891 37.8084 26.4865 38.0055 26.7297 38.0055H27.8491V38.1945C27.8485 38.7597 27.3907 39.2175 26.8255 39.2181ZM30.1931 28.123C28.8228 29.3933 27.9894 31.1389 27.8637 33.003H20.1517C20.0439 31.157 19.2263 29.424 17.8694 28.1675C15.1131 25.6372 14.192 21.675 15.5494 18.1883C16.9072 14.7017 20.2651 12.4052 24.0067 12.405C24.0348 12.405 24.0635 12.405 24.0919 12.4052C27.8061 12.44 31.1243 14.7341 32.4686 18.1969C33.8126 21.6595 32.9113 25.5916 30.1931 28.123Z" fill="white"/>
<path d="M24.6253 15.1525C22.3839 14.9271 20.1931 15.9162 18.8795 17.7462C17.5662 19.5761 17.3301 21.9684 18.261 24.0195C19.1916 26.0709 21.1472 27.4689 23.3894 27.6854C23.5997 27.7061 23.8097 27.7167 24.0188 27.7164C27.3741 27.7101 30.1352 25.0743 30.297 21.7228C30.4588 18.3715 27.9642 15.4819 24.6253 15.1525ZM29.3965 21.9503C29.1094 24.8563 26.57 27.0113 23.6559 26.8214C20.7422 26.6318 18.5034 24.1658 18.5955 21.2472C18.6876 18.3285 21.0772 16.0086 23.9973 16.0028C24.1769 16.0028 24.3573 16.0117 24.5386 16.0295C27.5152 16.323 29.6903 18.974 29.3965 21.9503Z" fill="white"/>
<path d="M23.9146 6.44064V9.36875C23.9146 9.6123 24.1116 9.80938 24.3552 9.80938C24.5985 9.80938 24.7958 9.6123 24.7958 9.36875V6.44064C24.7958 6.19737 24.5985 6 24.3552 6C24.1116 6 23.9146 6.19737 23.9146 6.44064Z" fill="white"/>
<path d="M37.9608 19.9534H35.0324C34.7892 19.9534 34.5918 20.1507 34.5918 20.394C34.5918 20.6373 34.7892 20.8346 35.0324 20.8346H37.9608C38.2041 20.8346 38.4015 20.6373 38.4015 20.394C38.4015 20.1507 38.2041 19.9534 37.9608 19.9534Z" fill="white"/>
<path d="M12.982 19.9534H10.0539C9.81036 19.9534 9.61328 20.1507 9.61328 20.394C9.61328 20.6373 9.81036 20.8346 10.0539 20.8346H12.982C13.2256 20.8346 13.4227 20.6373 13.4227 20.394C13.4227 20.1507 13.2256 19.9534 12.982 19.9534Z" fill="white"/>
<path d="M32.3294 12.6951L34.6143 10.4101C34.7864 10.238 34.7864 9.95918 34.6143 9.78705C34.4422 9.61493 34.1633 9.61493 33.9912 9.78705L31.7063 12.072C31.5342 12.2441 31.5342 12.523 31.706 12.6951C31.8781 12.8672 32.1572 12.8672 32.3294 12.6951Z" fill="white"/>
<path d="M13.4006 9.78705C13.2285 9.95918 13.2285 10.238 13.4006 10.4101L15.6855 12.6951C15.8576 12.8672 16.1368 12.8672 16.3089 12.6951C16.481 12.523 16.481 12.2441 16.3089 12.072L14.0237 9.78705C13.8515 9.61493 13.5727 9.61493 13.4006 9.78705Z" fill="white"/>
</g>
<defs>
<clipPath id="clip0_157_997">
<rect width="48" height="48" fill="white"/>
</clipPath>
</defs>
</svg>
