<svg width="49" height="49" viewBox="0 0 49 49" fill="none" xmlns="http://www.w3.org/2000/svg">
<g clip-path="url(#clip0_157_1027)">
<path d="M24.5 49C38.031 49 49 38.031 49 24.5C49 10.969 38.031 0 24.5 0C10.969 0 0 10.969 0 24.5C0 38.031 10.969 49 24.5 49Z" fill="#5088EF"/>
<mask id="mask0_157_1027" style="mask-type:luminance" maskUnits="userSpaceOnUse" x="10" y="10" width="29" height="29">
<path d="M24.7939 38.9969C20.9491 39.0749 17.2307 37.6223 14.4569 34.9587C11.683 32.2951 10.0809 28.6387 10.003 24.7938C9.92504 20.949 11.3776 17.2306 14.0412 14.4568C16.7048 11.683 20.3613 10.0808 24.2061 10.0029C28.051 9.92494 31.7693 11.3775 34.5431 14.0411C37.317 16.7047 38.9191 20.3612 38.997 24.206C39.075 28.0509 37.6224 31.7692 34.9588 34.543C32.2952 37.3169 28.6388 38.919 24.7939 38.9969Z" fill="white"/>
</mask>
<g mask="url(#mask0_157_1027)">
<path d="M39.29 38.7063L39.0941 29.0429L10.104 29.6306L10.2999 39.294L39.29 38.7063Z" fill="#E32D3C"/>
<path d="M39.0942 29.043L38.8983 19.3796L9.90815 19.9673L10.1041 29.6307L39.0942 29.043Z" fill="white"/>
<path d="M38.8984 19.3794L38.7025 9.716L9.71235 10.3037L9.90826 19.9671L38.8984 19.3794Z" fill="#2B4896"/>
</g>
</g>
<defs>
<clipPath id="clip0_157_1027">
<rect width="49" height="49" fill="white"/>
</clipPath>
</defs>
</svg>
