<svg width="169" height="157" viewBox="0 0 169 157" fill="none" xmlns="http://www.w3.org/2000/svg">
<rect width="168.582" height="156.186" rx="5.45412" fill="#FFF7FA"/>
<mask id="mask0_287_10" style="mask-type:alpha" maskUnits="userSpaceOnUse" x="0" y="0" width="169" height="157">
<rect x="0.00012207" width="168.582" height="156.186" rx="5.45412" fill="#F8E6D6"/>
</mask>
<g mask="url(#mask0_287_10)">
<ellipse cx="84.5997" cy="171.823" rx="97.7161" ry="89.8464" fill="#FFE7F0"/>
<path fill-rule="evenodd" clip-rule="evenodd" d="M74.2491 144.618H72.4193V134.425H95.3077V144.618H92.8473C91.2207 140.938 87.5749 138.56 83.5465 138.56C79.5215 138.56 75.8722 140.934 74.2457 144.618H74.2491Z" fill="#7E0C2E"/>
<path fill-rule="evenodd" clip-rule="evenodd" d="M79.7179 123.635H78.9115V119.145H88.9807V123.632H87.8987C87.1819 122.012 85.5761 120.971 83.8083 120.971C82.0405 120.971 80.4346 122.016 79.7179 123.632V123.635Z" fill="#7E0C2E"/>
<path fill-rule="evenodd" clip-rule="evenodd" d="M108.206 152.299C108.158 150.666 106.997 149.28 105.398 148.949C104.74 147.443 103.251 146.468 101.607 146.468C100.949 146.468 100.298 146.627 99.7153 146.927V152.299H108.21H108.206Z" fill="#46CB5C"/>
<path fill-rule="evenodd" clip-rule="evenodd" d="M91.4448 152.298C91.4655 151.554 91.9962 150.924 92.7233 150.772C93.0231 150.086 93.702 149.642 94.4497 149.642C94.7495 149.642 95.0459 149.714 95.3112 149.852V152.298H91.4448Z" fill="#46CB5C"/>
<path fill-rule="evenodd" clip-rule="evenodd" d="M78.119 152.299C78.119 152.299 78.0777 151.006 76.234 150.772C75.6172 150.017 74.6937 149.58 73.7185 149.58C73.2705 149.58 72.8294 149.673 72.4193 149.849V152.295H78.119V152.299Z" fill="#46CB5C"/>
<path fill-rule="evenodd" clip-rule="evenodd" d="M83.9358 79.4399H86.4445C86.4066 80.6908 86.3894 82.0141 86.3894 83.2857C86.3894 107.17 92.5508 130.661 104.264 151.472L95.0113 151.479C85.1936 121.547 83.5636 109.2 83.9358 79.4399Z" fill="#F41B83"/>
<path fill-rule="evenodd" clip-rule="evenodd" d="M56.1814 152.302C56.1814 152.302 56.2848 147.564 60.868 146.709C60.868 146.709 63.8936 140.21 70.3583 143.332V152.302H56.178H56.1814Z" fill="#46CB5C"/>
<path fill-rule="evenodd" clip-rule="evenodd" d="M83.8188 79.4399H81.3101C81.348 80.6977 81.3618 82.0072 81.3618 83.2788C81.3618 107.163 75.2003 130.672 63.4873 151.482L72.7398 151.479C82.5575 121.547 84.1875 109.2 83.8188 79.4399Z" fill="#F41B83"/>
<path d="M97.6235 130.734H70.3621V137.512H97.6269L97.6235 130.734Z" fill="#7E0C2E"/>
<path d="M91.221 115.727H76.4652V117.618H91.221V115.727Z" fill="#7E0C2E"/>
<path d="M89.9765 117.615H77.1573V119.42L89.9765 119.417V117.615Z" fill="#F41B83"/>
<path d="M97.6262 135.586H70.1511V137.571H97.6262V135.586Z" fill="#F41B83"/>
<path d="M84.1463 71.7068H83.4778V75.1666H84.1463V71.7068Z" fill="#F41B83"/>
<path d="M86.4964 77.9819H81.2894V79.4396H86.4964V77.9819Z" fill="#7E0C2E"/>
<path d="M86.0315 76.5107H81.6102V77.9856H86.0315V76.5107Z" fill="#F41B83"/>
<path d="M85.1419 75.1733H82.4816V76.5104H85.1419V75.1733Z" fill="#7E0C2E"/>
<path d="M73.5385 150.92H62.7938V152.302H73.5385V150.92Z" fill="#7E0C2E"/>
<path d="M105.081 150.92H94.3395V152.302H105.081V150.92Z" fill="#7E0C2E"/>
</g>
<path d="M29.3933 19.4007V21.2843H24.5425V24.2681H28.2597V26.1184H24.5425V31.0359H22.2088V19.4007H29.3933ZM33.3818 23.2346C33.6818 22.7457 34.0708 22.3623 34.5486 22.0845C35.0376 21.8066 35.5932 21.6677 36.2156 21.6677V24.1181H35.5988C34.8653 24.1181 34.3097 24.2904 33.9319 24.6349C33.5651 24.9794 33.3818 25.5795 33.3818 26.4352V31.0359H31.0481V21.8011H33.3818V23.2346ZM46.3721 26.2185C46.3721 26.5518 46.3499 26.8519 46.3055 27.1186H39.5544C39.6099 27.7854 39.8433 28.3077 40.2545 28.6855C40.6657 29.0634 41.1713 29.2523 41.7714 29.2523C42.6382 29.2523 43.255 28.88 43.6217 28.1354H46.1388C45.872 29.0245 45.3609 29.7579 44.6052 30.3358C43.8495 30.9025 42.9216 31.1859 41.8214 31.1859C40.9324 31.1859 40.1322 30.9914 39.421 30.6025C38.7209 30.2024 38.1708 29.6412 37.7708 28.9189C37.3818 28.1965 37.1873 27.3631 37.1873 26.4185C37.1873 25.4628 37.3818 24.6238 37.7708 23.9014C38.1597 23.1791 38.7042 22.6234 39.4044 22.2345C40.1045 21.8455 40.9101 21.6511 41.8214 21.6511C42.6993 21.6511 43.4828 21.84 44.1718 22.2178C44.8719 22.5957 45.4109 23.1346 45.7887 23.8347C46.1777 24.5237 46.3721 25.3183 46.3721 26.2185ZM43.9551 25.5517C43.944 24.9516 43.7273 24.4737 43.305 24.1181C42.8827 23.7514 42.3659 23.568 41.7547 23.568C41.1769 23.568 40.6879 23.7458 40.2878 24.1015C39.8989 24.446 39.6599 24.9294 39.571 25.5517H43.9551ZM53.193 21.6677C54.2932 21.6677 55.1822 22.0178 55.8601 22.7179C56.538 23.4069 56.8769 24.3737 56.8769 25.6184V31.0359H54.5432V25.9351C54.5432 25.2016 54.3599 24.6404 53.9931 24.2515C53.6264 23.8514 53.1263 23.6514 52.4929 23.6514C51.8483 23.6514 51.3372 23.8514 50.9593 24.2515C50.5926 24.6404 50.4092 25.2016 50.4092 25.9351V31.0359H48.0755V21.8011H50.4092V22.9513C50.7204 22.5512 51.1149 22.24 51.5928 22.0178C52.0817 21.7844 52.6151 21.6677 53.193 21.6677ZM58.4961 26.4185C58.4961 25.4628 58.6905 24.6293 59.0795 23.9181C59.4684 23.1958 60.0074 22.6401 60.6964 22.2512C61.3854 21.8511 62.1744 21.6511 63.0635 21.6511C64.2081 21.6511 65.1527 21.94 65.8972 22.5179C66.6529 23.0846 67.1585 23.8848 67.4141 24.9182H64.8971C64.7637 24.5182 64.5359 24.207 64.2136 23.9848C63.9025 23.7514 63.5135 23.6347 63.0468 23.6347C62.38 23.6347 61.8521 23.8792 61.4632 24.3682C61.0742 24.846 60.8798 25.5295 60.8798 26.4185C60.8798 27.2964 61.0742 27.9798 61.4632 28.4688C61.8521 28.9467 62.38 29.1856 63.0468 29.1856C63.9914 29.1856 64.6081 28.7633 64.8971 27.9187H67.4141C67.1585 28.9189 66.6529 29.7135 65.8972 30.3024C65.1416 30.8914 64.197 31.1859 63.0635 31.1859C62.1744 31.1859 61.3854 30.9914 60.6964 30.6025C60.0074 30.2024 59.4684 29.6468 59.0795 28.9356C58.6905 28.2132 58.4961 27.3742 58.4961 26.4185ZM74.3246 21.6677C75.0247 21.6677 75.6471 21.8233 76.1916 22.1345C76.7361 22.4345 77.1584 22.8846 77.4585 23.4847C77.7696 24.0737 77.9252 24.7849 77.9252 25.6184V31.0359H75.5915V25.9351C75.5915 25.2016 75.4081 24.6404 75.0414 24.2515C74.6747 23.8514 74.1746 23.6514 73.5412 23.6514C72.8966 23.6514 72.3854 23.8514 72.0076 24.2515C71.6409 24.6404 71.4575 25.2016 71.4575 25.9351V31.0359H69.1238V18.7006H71.4575V22.9513C71.7575 22.5512 72.1576 22.24 72.6577 22.0178C73.1578 21.7844 73.7134 21.6677 74.3246 21.6677Z" fill="black"/>
<path d="M25.5286 47.1063C25.7944 47.1483 26.0358 47.2567 26.2526 47.4316C26.4765 47.6065 26.6514 47.8233 26.7773 48.0822C26.9102 48.341 26.9766 48.6173 26.9766 48.9111C26.9766 49.2819 26.8822 49.6176 26.6933 49.9184C26.5045 50.2122 26.2281 50.4466 25.8644 50.6215C25.5076 50.7893 25.0844 50.8733 24.5947 50.8733H21.8666V43.5597H24.4898C24.9865 43.5597 25.4097 43.6436 25.7595 43.8115C26.1092 43.9724 26.3716 44.1927 26.5464 44.4726C26.7213 44.7524 26.8088 45.0672 26.8088 45.4169C26.8088 45.8506 26.6898 46.2109 26.452 46.4977C26.2212 46.7775 25.9134 46.9804 25.5286 47.1063ZM22.8214 46.7181H24.4268C24.8746 46.7181 25.2208 46.6131 25.4657 46.4033C25.7105 46.1934 25.8329 45.9031 25.8329 45.5324C25.8329 45.1616 25.7105 44.8713 25.4657 44.6614C25.2208 44.4516 24.8676 44.3466 24.4059 44.3466H22.8214V46.7181ZM24.5108 50.0863C24.9865 50.0863 25.3572 49.9744 25.6231 49.7505C25.8889 49.5267 26.0218 49.2154 26.0218 48.8167C26.0218 48.4109 25.8819 48.0926 25.6021 47.8618C25.3223 47.624 24.948 47.505 24.4793 47.505H22.8214V50.0863H24.5108ZM30.8095 50.9677C30.2709 50.9677 29.7812 50.8453 29.3405 50.6005C28.9068 50.3556 28.564 50.0094 28.3122 49.5617C28.0674 49.107 27.945 48.5823 27.945 47.9877C27.945 47.4001 28.0709 46.8825 28.3227 46.4347C28.5815 45.9801 28.9313 45.6338 29.372 45.3959C29.8127 45.1511 30.3059 45.0287 30.8515 45.0287C31.3972 45.0287 31.8903 45.1511 32.331 45.3959C32.7717 45.6338 33.118 45.9766 33.3698 46.4243C33.6287 46.872 33.7581 47.3931 33.7581 47.9877C33.7581 48.5823 33.6252 49.107 33.3593 49.5617C33.1005 50.0094 32.7473 50.3556 32.2996 50.6005C31.8519 50.8453 31.3552 50.9677 30.8095 50.9677ZM30.8095 50.1283C31.1523 50.1283 31.4741 50.0478 31.7749 49.8869C32.0757 49.7261 32.317 49.4847 32.4989 49.1629C32.6878 48.8411 32.7822 48.4494 32.7822 47.9877C32.7822 47.526 32.6913 47.1343 32.5094 46.8125C32.3275 46.4907 32.0897 46.2529 31.7959 46.099C31.5021 45.9381 31.1838 45.8576 30.841 45.8576C30.4913 45.8576 30.1695 45.9381 29.8757 46.099C29.5889 46.2529 29.358 46.4907 29.1831 46.8125C29.0082 47.1343 28.9208 47.526 28.9208 47.9877C28.9208 48.4564 29.0048 48.8516 29.1726 49.1734C29.3475 49.4952 29.5784 49.7365 29.8652 49.8974C30.152 50.0513 30.4668 50.1283 30.8095 50.1283ZM37.8152 45.0182C38.5147 45.0182 39.0813 45.2316 39.5151 45.6583C39.9488 46.078 40.1656 46.6866 40.1656 47.4841V50.8733H39.2212V47.6205C39.2212 47.0468 39.0778 46.6096 38.791 46.3088C38.5042 46.001 38.1125 45.8471 37.6158 45.8471C37.1122 45.8471 36.7099 46.0045 36.4091 46.3193C36.1153 46.6341 35.9684 47.0923 35.9684 47.6939V50.8733H35.0136V45.1231H35.9684V45.9416C36.1573 45.6478 36.4126 45.4204 36.7344 45.2595C37.0632 45.0986 37.4234 45.0182 37.8152 45.0182ZM42.2395 44.1892C42.0577 44.1892 41.9038 44.1263 41.7779 44.0004C41.6589 43.8745 41.5995 43.7206 41.5995 43.5387C41.5995 43.3568 41.6589 43.2029 41.7779 43.077C41.9038 42.9511 42.0577 42.8881 42.2395 42.8881C42.4214 42.8881 42.5718 42.9511 42.6907 43.077C42.8167 43.2029 42.8796 43.3568 42.8796 43.5387C42.8796 43.7206 42.8167 43.8745 42.6907 44.0004C42.5718 44.1263 42.4214 44.1892 42.2395 44.1892ZM42.7117 52.122C42.7117 52.6326 42.5823 53.0069 42.3235 53.2447C42.0647 53.4826 41.6869 53.6015 41.1902 53.6015H40.6341V52.7935H41.0329C41.2987 52.7935 41.484 52.741 41.589 52.6361C41.7009 52.5312 41.7569 52.3528 41.7569 52.101V45.1231H42.7117V52.122ZM46.836 50.9677C46.2973 50.9677 45.8077 50.8453 45.367 50.6005C44.9332 50.3556 44.5905 50.0094 44.3386 49.5617C44.0938 49.107 43.9714 48.5823 43.9714 47.9877C43.9714 47.4001 44.0973 46.8825 44.3491 46.4347C44.608 45.9801 44.9577 45.6338 45.3984 45.3959C45.8391 45.1511 46.3323 45.0287 46.8779 45.0287C47.4236 45.0287 47.9168 45.1511 48.3575 45.3959C48.7982 45.6338 49.1444 45.9766 49.3963 46.4243C49.6551 46.872 49.7845 47.3931 49.7845 47.9877C49.7845 48.5823 49.6516 49.107 49.3858 49.5617C49.1269 50.0094 48.7737 50.3556 48.326 50.6005C47.8783 50.8453 47.3816 50.9677 46.836 50.9677ZM46.836 50.1283C47.1787 50.1283 47.5005 50.0478 47.8013 49.8869C48.1021 49.7261 48.3435 49.4847 48.5253 49.1629C48.7142 48.8411 48.8087 48.4494 48.8087 47.9877C48.8087 47.526 48.7177 47.1343 48.5358 46.8125C48.354 46.4907 48.1161 46.2529 47.8223 46.099C47.5285 45.9381 47.2102 45.8576 46.8675 45.8576C46.5177 45.8576 46.1959 45.9381 45.9021 46.099C45.6153 46.2529 45.3844 46.4907 45.2096 46.8125C45.0347 47.1343 44.9472 47.526 44.9472 47.9877C44.9472 48.4564 45.0312 48.8516 45.1991 49.1734C45.3739 49.4952 45.6048 49.7365 45.8916 49.8974C46.1784 50.0513 46.4932 50.1283 46.836 50.1283ZM56.1396 45.1231V50.8733H55.1847V50.0234C55.0028 50.3172 54.7475 50.548 54.4187 50.7159C54.0969 50.8768 53.7402 50.9572 53.3484 50.9572C52.9007 50.9572 52.4985 50.8663 52.1417 50.6844C51.785 50.4955 51.5017 50.2157 51.2918 49.845C51.0889 49.4742 50.9875 49.023 50.9875 48.4914V45.1231H51.9319V48.3655C51.9319 48.9321 52.0753 49.3693 52.3621 49.6771C52.6489 49.9779 53.0406 50.1283 53.5373 50.1283C54.048 50.1283 54.4502 49.9709 54.744 49.6561C55.0378 49.3413 55.1847 48.8831 55.1847 48.2815V45.1231H56.1396ZM58.7067 46.057C58.8746 45.7282 59.1124 45.4729 59.4202 45.291C59.735 45.1091 60.1162 45.0182 60.5639 45.0182V46.0045H60.3121C59.2418 46.0045 58.7067 46.5851 58.7067 47.7464V50.8733H57.7518V45.1231H58.7067V46.057ZM70.004 45.6793C69.8011 45.2525 69.5073 44.9238 69.1225 44.6929C68.7378 44.4551 68.2901 44.3361 67.7794 44.3361C67.2688 44.3361 66.8071 44.4551 66.3944 44.6929C65.9886 44.9238 65.6668 45.2595 65.429 45.7002C65.1982 46.1339 65.0827 46.6376 65.0827 47.2112C65.0827 47.7848 65.1982 48.2885 65.429 48.7222C65.6668 49.1559 65.9886 49.4917 66.3944 49.7296C66.8071 49.9604 67.2688 50.0758 67.7794 50.0758C68.493 50.0758 69.0806 49.8625 69.5423 49.4357C70.004 49.009 70.2733 48.4319 70.3502 47.7044H67.4332V46.9279H71.368V47.6624C71.3121 48.264 71.1232 48.8167 70.8014 49.3203C70.4796 49.817 70.0564 50.2122 69.5318 50.506C69.0071 50.7928 68.423 50.9362 67.7794 50.9362C67.1009 50.9362 66.4818 50.7789 65.9222 50.4641C65.3626 50.1423 64.9183 49.6981 64.5896 49.1315C64.2678 48.5648 64.1069 47.9248 64.1069 47.2112C64.1069 46.4977 64.2678 45.8576 64.5896 45.291C64.9183 44.7174 65.3626 44.2732 65.9222 43.9584C66.4818 43.6366 67.1009 43.4757 67.7794 43.4757C68.5559 43.4757 69.2415 43.6681 69.8361 44.0528C70.4377 44.4376 70.8749 44.9797 71.1477 45.6793H70.004ZM77.8771 47.7779C77.8771 47.9597 77.8666 48.1521 77.8456 48.355H73.2497C73.2846 48.9216 73.477 49.3658 73.8268 49.6876C74.1835 50.0024 74.6137 50.1598 75.1174 50.1598C75.5301 50.1598 75.8729 50.0653 76.1457 49.8765C76.4255 49.6806 76.6214 49.4218 76.7333 49.1H77.7617C77.6078 49.6526 77.3 50.1038 76.8383 50.4536C76.3766 50.7963 75.803 50.9677 75.1174 50.9677C74.5718 50.9677 74.0821 50.8453 73.6484 50.6005C73.2217 50.3556 72.8859 50.0094 72.6411 49.5617C72.3962 49.107 72.2738 48.5823 72.2738 47.9877C72.2738 47.3931 72.3927 46.872 72.6306 46.4243C72.8684 45.9766 73.2007 45.6338 73.6274 45.3959C74.0611 45.1511 74.5578 45.0287 75.1174 45.0287C75.663 45.0287 76.1457 45.1476 76.5654 45.3854C76.9852 45.6233 77.307 45.9521 77.5308 46.3718C77.7617 46.7845 77.8771 47.2532 77.8771 47.7779ZM76.8907 47.5785C76.8907 47.2147 76.8103 46.9034 76.6494 46.6446C76.4885 46.3788 76.2681 46.1794 75.9883 46.0465C75.7155 45.9066 75.4112 45.8366 75.0754 45.8366C74.5928 45.8366 74.18 45.9905 73.8373 46.2983C73.5015 46.6061 73.3091 47.0329 73.2602 47.5785H76.8907ZM76.1038 43.4967L73.8687 44.6929V43.9794L76.1038 42.6678V43.4967ZM81.9391 45.0182C82.6386 45.0182 83.2053 45.2316 83.639 45.6583C84.0727 46.078 84.2895 46.6866 84.2895 47.4841V50.8733H83.3452V47.6205C83.3452 47.0468 83.2018 46.6096 82.9149 46.3088C82.6281 46.001 82.2364 45.8471 81.7397 45.8471C81.2361 45.8471 80.8338 46.0045 80.533 46.3193C80.2392 46.6341 80.0923 47.0923 80.0923 47.6939V50.8733H79.1375V45.1231H80.0923V45.9416C80.2812 45.6478 80.5365 45.4204 80.8583 45.2595C81.1871 45.0986 81.5474 45.0182 81.9391 45.0182ZM86.3425 44.1892C86.1606 44.1892 86.0067 44.1263 85.8808 44.0004C85.7549 43.8745 85.6919 43.7206 85.6919 43.5387C85.6919 43.3568 85.7549 43.2029 85.8808 43.077C86.0067 42.9511 86.1606 42.8881 86.3425 42.8881C86.5174 42.8881 86.6643 42.9511 86.7832 43.077C86.9091 43.2029 86.972 43.3568 86.972 43.5387C86.972 43.7206 86.9091 43.8745 86.7832 44.0004C86.6643 44.1263 86.5174 44.1892 86.3425 44.1892ZM86.8042 45.1231V50.8733H85.8493V45.1231H86.8042ZM93.6781 47.7779C93.6781 47.9597 93.6676 48.1521 93.6466 48.355H89.0506C89.0856 48.9216 89.278 49.3658 89.6278 49.6876C89.9845 50.0024 90.4147 50.1598 90.9184 50.1598C91.3311 50.1598 91.6739 50.0653 91.9467 49.8765C92.2265 49.6806 92.4224 49.4218 92.5343 49.1H93.5626C93.4087 49.6526 93.1009 50.1038 92.6393 50.4536C92.1776 50.7963 91.6039 50.9677 90.9184 50.9677C90.3728 50.9677 89.8831 50.8453 89.4494 50.6005C89.0227 50.3556 88.6869 50.0094 88.4421 49.5617C88.1972 49.107 88.0748 48.5823 88.0748 47.9877C88.0748 47.3931 88.1937 46.872 88.4316 46.4243C88.6694 45.9766 89.0017 45.6338 89.4284 45.3959C89.8621 45.1511 90.3588 45.0287 90.9184 45.0287C91.464 45.0287 91.9467 45.1476 92.3664 45.3854C92.7862 45.6233 93.1079 45.9521 93.3318 46.3718C93.5626 46.7845 93.6781 47.2532 93.6781 47.7779ZM92.6917 47.5785C92.6917 47.2147 92.6113 46.9034 92.4504 46.6446C92.2895 46.3788 92.0691 46.1794 91.7893 46.0465C91.5165 45.9066 91.2122 45.8366 90.8764 45.8366C90.3937 45.8366 89.981 45.9905 89.6383 46.2983C89.3025 46.6061 89.1101 47.0329 89.0611 47.5785H92.6917ZM96.1766 43.5597L96.0612 48.8062H95.2637L95.1483 43.5597H96.1766ZM95.7044 50.9362C95.5226 50.9362 95.3687 50.8733 95.2428 50.7474C95.1168 50.6215 95.0539 50.4676 95.0539 50.2857C95.0539 50.1038 95.1168 49.9499 95.2428 49.824C95.3687 49.6981 95.5226 49.6351 95.7044 49.6351C95.8793 49.6351 96.0262 49.6981 96.1452 49.824C96.2711 49.9499 96.334 50.1038 96.334 50.2857C96.334 50.4676 96.2711 50.6215 96.1452 50.7474C96.0262 50.8733 95.8793 50.9362 95.7044 50.9362Z" fill="black"/>
</svg>
