<svg width="169" height="157" viewBox="0 0 169 157" fill="none" xmlns="http://www.w3.org/2000/svg">
<rect width="168.866" height="156.449" rx="5.46331" fill="#FFF7E1"/>
<mask id="mask0_287_8" style="mask-type:alpha" maskUnits="userSpaceOnUse" x="0" y="0" width="169" height="157">
<rect width="168.866" height="156.449" rx="5.46331" fill="#F8E6D6"/>
</mask>
<g mask="url(#mask0_287_8)">
<ellipse cx="84.7436" cy="172.113" rx="97.8808" ry="89.9978" fill="#FFEEBF"/>
</g>
<path d="M30.6948 22.9095C30.4276 22.4197 30.0603 22.0468 29.5928 21.7908C29.1252 21.5348 28.5798 21.4068 27.9564 21.4068C27.2663 21.4068 26.654 21.5626 26.1197 21.8743C25.5854 22.186 25.168 22.6312 24.8674 23.2101C24.5668 23.7889 24.4166 24.4568 24.4166 25.2138C24.4166 25.993 24.5668 26.672 24.8674 27.2508C25.1791 27.8297 25.6077 28.275 26.1531 28.5866C26.6986 28.8983 27.3331 29.0542 28.0566 29.0542C28.9471 29.0542 29.6763 28.8204 30.244 28.3529C30.8117 27.8742 31.1846 27.2119 31.3627 26.3659H27.3553V24.5793H33.6669V26.6163C33.5111 27.429 33.1772 28.1803 32.6651 28.8705C32.153 29.5607 31.4907 30.1172 30.6781 30.5402C29.8766 30.9521 28.975 31.158 27.9731 31.158C26.8488 31.158 25.8303 30.9076 24.9175 30.4067C24.0158 29.8946 23.3034 29.1878 22.7802 28.2861C22.2682 27.3844 22.0121 26.3603 22.0121 25.2138C22.0121 24.0672 22.2682 23.0431 22.7802 22.1414C23.3034 21.2286 24.0158 20.5218 24.9175 20.0209C25.8303 19.5088 26.8433 19.2528 27.9564 19.2528C29.27 19.2528 30.4109 19.5756 31.3794 20.2212C32.3478 20.8557 33.0157 21.7518 33.3831 22.9095H30.6948ZM43.9956 26.2323C43.9956 26.5663 43.9733 26.8668 43.9288 27.134H37.1664C37.222 27.8019 37.4558 28.3251 37.8676 28.7035C38.2795 29.082 38.786 29.2712 39.3871 29.2712C40.2554 29.2712 40.8732 28.8983 41.2405 28.1525H43.7618C43.4947 29.043 42.9826 29.7777 42.2257 30.3566C41.4687 30.9243 40.5392 31.2081 39.4372 31.2081C38.5467 31.2081 37.7452 31.0133 37.0328 30.6237C36.3315 30.223 35.7805 29.6608 35.3797 28.9373C34.9901 28.2137 34.7953 27.3789 34.7953 26.4327C34.7953 25.4754 34.9901 24.6349 35.3797 23.9114C35.7693 23.1878 36.3148 22.6312 37.0161 22.2416C37.7174 21.852 38.5244 21.6572 39.4372 21.6572C40.3166 21.6572 41.1014 21.8465 41.7915 22.2249C42.4928 22.6034 43.0327 23.1433 43.4112 23.8446C43.8008 24.5347 43.9956 25.3306 43.9956 26.2323ZM41.5745 25.5644C41.5633 24.9633 41.3463 24.4846 40.9233 24.1284C40.5003 23.7611 39.9827 23.5774 39.3704 23.5774C38.7916 23.5774 38.3018 23.7555 37.901 24.1117C37.5114 24.4568 37.2721 24.941 37.1831 25.5644H41.5745ZM48.0395 23.2435C48.3401 22.7537 48.7297 22.3696 49.2083 22.0913C49.6981 21.8131 50.2547 21.6739 50.8781 21.6739V24.1284H50.2603C49.5256 24.1284 48.969 24.301 48.5905 24.6461C48.2232 24.9911 48.0395 25.5922 48.0395 26.4494V31.0579H45.7019V21.8075H48.0395V23.2435ZM63.9404 21.6739C65.0758 21.6739 65.9886 22.0246 66.6788 22.7258C67.3801 23.416 67.7307 24.3845 67.7307 25.6312V31.0579H65.3931V25.9485C65.3931 25.2249 65.2094 24.6739 64.8421 24.2954C64.4747 23.9058 63.9738 23.711 63.3393 23.711C62.7048 23.711 62.1983 23.9058 61.8198 24.2954C61.4525 24.6739 61.2688 25.2249 61.2688 25.9485V31.0579H58.9312V25.9485C58.9312 25.2249 58.7475 24.6739 58.3802 24.2954C58.0128 23.9058 57.5119 23.711 56.8774 23.711C56.2318 23.711 55.7197 23.9058 55.3412 24.2954C54.9739 24.6739 54.7902 25.2249 54.7902 25.9485V31.0579H52.4526V21.8075H54.7902V22.9262C55.0908 22.5366 55.4748 22.2305 55.9423 22.0079C56.421 21.7852 56.9442 21.6739 57.5119 21.6739C58.2355 21.6739 58.8811 21.8298 59.4488 22.1414C60.0165 22.442 60.4562 22.8761 60.7679 23.4438C61.0684 22.9095 61.5026 22.481 62.0703 22.1581C62.6491 21.8353 63.2725 21.6739 63.9404 21.6739ZM69.3479 26.3993C69.3479 25.4642 69.5316 24.6349 69.8989 23.9114C70.2774 23.1878 70.7839 22.6312 71.4184 22.2416C72.064 21.852 72.782 21.6572 73.5723 21.6572C74.2625 21.6572 74.8636 21.7964 75.3757 22.0746C75.8988 22.3529 76.3163 22.7036 76.628 23.1266V21.8075H78.9823V31.0579H76.628V29.7054C76.3274 30.1395 75.91 30.5013 75.3757 30.7907C74.8525 31.069 74.2458 31.2081 73.5556 31.2081C72.7764 31.2081 72.064 31.0078 71.4184 30.607C70.7839 30.2063 70.2774 29.6441 69.8989 28.9206C69.5316 28.1859 69.3479 27.3455 69.3479 26.3993ZM76.628 26.4327C76.628 25.865 76.5166 25.3807 76.294 24.98C76.0714 24.5681 75.7708 24.2564 75.3924 24.0449C75.0139 23.8223 74.6076 23.711 74.1734 23.711C73.7393 23.711 73.3386 23.8167 72.9712 24.0282C72.6039 24.2397 72.3033 24.5514 72.0696 24.9633C71.8469 25.364 71.7356 25.8427 71.7356 26.3993C71.7356 26.9559 71.8469 27.4457 72.0696 27.8687C72.3033 28.2805 72.6039 28.5978 72.9712 28.8204C73.3497 29.043 73.7504 29.1544 74.1734 29.1544C74.6076 29.1544 75.0139 29.0486 75.3924 28.8371C75.7708 28.6145 76.0714 28.3028 76.294 27.902C76.5166 27.4902 76.628 27.0004 76.628 26.4327ZM86.3915 21.6739C87.4935 21.6739 88.3841 22.0246 89.0631 22.7258C89.7421 23.416 90.0816 24.3845 90.0816 25.6312V31.0579H87.744V25.9485C87.744 25.2138 87.5603 24.6516 87.193 24.262C86.8257 23.8613 86.3247 23.6609 85.6902 23.6609C85.0446 23.6609 84.5325 23.8613 84.1541 24.262C83.7867 24.6516 83.603 25.2138 83.603 25.9485V31.0579H81.2654V21.8075H83.603V22.9596C83.9147 22.5589 84.3099 22.2472 84.7886 22.0246C85.2784 21.7908 85.8127 21.6739 86.3915 21.6739Z" fill="black"/>
<g clip-path="url(#clip0_287_8)">
<path d="M49.384 150.563H118.451V146.181H49.384V150.563Z" fill="#A85700"/>
<path d="M88.8509 80.4035C88.8509 82.0344 86.8407 83.3639 84.366 83.3639C81.8878 83.3639 79.8811 82.0415 79.8811 80.4035C79.8811 78.7726 81.8842 77.4431 84.366 77.4431C86.8442 77.4431 88.8509 78.7655 88.8509 80.4035Z" fill="#46CB5C"/>
<path d="M86.8838 75.2875C86.8838 77.436 85.7599 79.1838 84.3666 79.1838C82.9768 79.1838 81.8494 77.4395 81.8494 75.2875C81.8494 73.139 82.9732 71.3911 84.3666 71.3911C85.7564 71.3911 86.8838 73.1354 86.8838 75.2875Z" fill="#46CB5C"/>
<path d="M84.1465 73.7557H84.5897V69.7104H84.1465V73.7557Z" fill="#46CB5C"/>
<path d="M84.3657 69.7182C83.8587 69.7182 83.4475 69.3069 83.4475 68.7999C83.4475 68.2929 83.8587 67.8817 84.3657 67.8817C84.8727 67.8817 85.284 68.2929 85.284 68.7999C85.284 69.3069 84.8727 69.7182 84.3657 69.7182ZM84.3657 67.5129C83.6496 67.5129 83.0681 68.0944 83.0681 68.8035C83.0681 69.5196 83.6496 70.1011 84.3657 70.1011C85.0819 70.1011 85.6562 69.5196 85.6562 68.8035C85.6562 68.0873 85.0748 67.5129 84.3657 67.5129Z" fill="#46CB5C"/>
<path d="M84.1465 69.7927H84.5897V67.7683H84.1465V69.7927Z" fill="#46CB5C"/>
<path d="M83.4307 69.0763H85.3097V68.6367H83.4307V69.0763Z" fill="#46CB5C"/>
<path d="M85.0321 66.4099C85.0002 66.5411 84.6457 66.6617 84.5889 66.6014C84.5464 66.5447 84.5747 66.2291 84.5747 66.2291C84.5428 66.1547 84.4436 65.9561 84.3656 65.9384C84.2521 65.9136 83.9543 66.1795 83.9543 66.1795L84.1458 66.2539H84.1528C84.167 66.3284 84.1918 66.5447 84.1458 66.6014C84.089 66.6723 83.7345 66.5447 83.7026 66.4099C83.6707 66.2788 82.5149 65.1336 82.2029 65.1762C82.2029 65.1762 82.1852 66.3319 83.3161 66.8531C83.3161 66.8531 83.4367 67.3707 84.0997 67.4026L84.0855 67.7324H84.635L84.6208 67.4026C85.2838 67.3707 85.4044 66.8531 85.4044 66.8531C86.5424 66.3355 86.5176 65.1762 86.5176 65.1762C86.2092 65.1301 85.0498 66.2752 85.0179 66.4099H85.025H85.0321Z" fill="#46CB5C"/>
<path d="M77.4168 83.1409C77.5621 82.8573 79.1044 79.6877 75.9809 79.6203C75.8426 79.6203 75.7079 79.5565 75.6264 79.4431C75.3498 79.0637 74.7081 78.1277 74.4245 76.972C74.4103 76.9259 74.3997 76.8904 74.3749 76.8514C74.1834 76.5465 73.2758 75.2312 72.4958 76.5288L72.51 76.4969L72.0349 76.2452L72.3008 76.9046L72.4639 77.2343C72.4639 77.2343 72.1342 77.4293 72.4072 77.7909C72.4391 77.8335 72.471 77.8867 72.4887 77.9363C72.5454 78.1313 72.666 78.6454 72.4639 78.9928C72.4639 78.9928 72.7936 79.7267 73.2722 78.9928L73.6764 78.071C73.6764 78.071 73.9352 79.5459 73.6764 79.9501C73.4282 80.3365 72.8716 80.9002 73.2971 82.0879C73.329 82.1836 73.3361 82.2829 73.3042 82.3715C73.2332 82.5914 73.0843 82.9778 72.8752 83.031C72.5844 83.1054 73.0524 85.5588 73.0524 85.5588C73.0524 85.5588 73.095 86.1864 73.5701 86.002C74.0451 85.8176 73.7899 85.1617 73.7899 85.1617C73.7899 85.1617 73.3928 84.9667 73.3467 83.7897C73.3396 83.6621 73.3963 83.538 73.4921 83.4493L74.233 82.7863C74.3217 82.7119 74.4351 82.6658 74.5486 82.6729L74.8003 82.6871C75.0024 82.7013 75.1726 82.8466 75.2116 83.0416C75.3002 83.4671 75.4207 84.1797 75.3179 84.5023C75.1726 84.9774 75.3924 86.5941 75.1336 86.9947C74.8747 87.3989 75.6441 86.9947 75.6441 86.9947L75.9738 84.2258C75.9738 84.2116 75.9738 84.208 75.9738 84.1939C75.9809 84.0485 76.0305 82.9282 76.339 82.9991C76.6155 83.0629 76.8637 84.1052 76.9346 84.4279C76.9488 84.4917 76.9488 84.5555 76.9346 84.6122C76.9346 84.6122 76.2716 85.9275 76.5978 86.1438C76.8247 86.2963 77.0268 85.8354 77.431 85.4347C77.5338 85.3319 77.5692 85.1937 77.5515 85.0554C77.47 84.5626 77.2927 83.3749 77.4061 83.1444V83.1551L77.4168 83.1409Z" fill="#46CB5C"/>
<path d="M80.9018 79.6767C80.9018 79.6767 80.7387 78.3436 80.8203 78.0706C80.9018 77.8047 81.1252 77.1985 80.9266 76.7872C80.7352 76.3759 80.4834 76.071 80.1856 76.071C80.1856 76.071 79.7992 76.2625 79.5865 76.6028L79.6007 76.578L79.2071 76.2483L79.4588 76.9078V76.9007C79.4447 76.9716 79.4411 77.0389 79.4447 77.1169C79.5014 77.7764 79.5014 79.1271 79.3064 79.4569C79.1149 79.7866 78.2321 80.9991 78.8136 82.2648C79.3879 83.5305 79.1433 84.1616 79.1433 84.1616C79.1433 84.1616 78.9519 84.7678 79.2816 84.9025C79.6113 85.0408 79.005 86.7745 79.4021 86.9376C79.7992 87.1007 80.1856 86.9376 80.1856 86.9376C80.1856 86.9376 80.5154 86.6327 80.4586 86.3632C80.4019 86.0902 80.0722 84.821 80.1289 84.6296C80.1856 84.4381 80.0226 82.7895 80.2353 82.7895C80.4551 82.7895 80.5969 82.513 80.4551 82.7895C80.3168 83.066 80.5118 84.0304 80.5118 84.1367C80.5118 84.2431 80.1821 85.2358 81.0046 85.8952C81.8342 86.5547 81.6357 85.7889 81.579 85.7322C81.5222 85.6754 81.0046 84.9593 81.0543 84.4097C81.111 83.8602 81.6357 83.2008 81.6357 83.2008L81.9335 83.2823C81.9335 83.2823 81.9087 83.8318 81.9335 84.1367C81.9583 84.4416 81.4903 84.6296 81.7704 84.9664C82.0505 85.2961 82.0221 86.2888 81.9335 86.7C81.852 87.1113 82.483 87.0227 82.483 87.0227C82.483 87.0227 82.5894 86.4271 82.483 86.2321C82.3767 86.0442 82.6107 85.1082 82.5327 84.7217C82.4582 84.3353 82.5575 84.0658 82.5468 83.3993C82.5327 82.7399 82.7879 79.3824 80.8841 79.6873L80.8947 79.6802L80.9018 79.6767Z" fill="#46CB5C"/>
<path d="M80.8211 76.578L80.9345 76.7872L81.2997 76.2483C80.7005 76.4681 80.8246 76.578 80.8246 76.578H80.8175H80.8211Z" fill="#46CB5C"/>
<path d="M91.4354 83.1409C91.2901 82.8573 89.7478 79.6877 92.8713 79.6203C93.0096 79.6203 93.1443 79.5565 93.2258 79.4431C93.5059 79.0637 94.1441 78.1277 94.4277 76.972C94.4419 76.9259 94.4525 76.8904 94.4774 76.8514C94.6688 76.5465 95.5764 75.2312 96.3564 76.5288L96.3422 76.4969L96.8173 76.2452L96.5514 76.9046L96.3883 77.2343C96.3883 77.2343 96.718 77.4293 96.4379 77.7909C96.406 77.8335 96.3741 77.8867 96.3564 77.9363C96.2997 78.1313 96.1791 78.6454 96.3812 78.9928C96.3812 78.9928 96.0515 79.7267 95.5729 78.9928L95.1687 78.071C95.1687 78.071 94.9099 79.5459 95.1687 79.9501C95.4169 80.3365 95.9735 80.9002 95.5481 82.0879C95.5162 82.1836 95.5091 82.2829 95.541 82.3715C95.6119 82.5914 95.7608 82.9778 95.97 83.031C96.2607 83.1054 95.7927 85.5588 95.7927 85.5588C95.7927 85.5588 95.7466 86.1864 95.2751 86.002C94.8 85.8176 95.0553 85.1617 95.0553 85.1617C95.0553 85.1617 95.4523 84.9667 95.4984 83.7897C95.5055 83.6621 95.4488 83.538 95.3531 83.4493L94.6121 82.7863C94.5234 82.7119 94.41 82.6658 94.2965 82.6729L94.0448 82.6871C93.8427 82.7013 93.6726 82.8466 93.6336 83.0416C93.5449 83.4671 93.4244 84.1797 93.5272 84.5023C93.6726 84.9774 93.4528 86.5941 93.7116 86.9947C93.9704 87.3989 93.1975 86.9947 93.1975 86.9947L92.8678 84.2258C92.8678 84.2116 92.8678 84.208 92.8678 84.1939C92.8607 84.0485 92.811 82.9282 92.5026 82.9991C92.2225 83.0629 91.9779 84.1052 91.907 84.4279C91.8928 84.4917 91.8928 84.5555 91.907 84.6122C91.907 84.6122 92.57 85.9275 92.2438 86.1438C92.0169 86.2963 91.8148 85.8354 91.4106 85.4347C91.3078 85.3319 91.2724 85.1937 91.2901 85.0554C91.3716 84.5626 91.5489 83.3749 91.4354 83.1444L91.4425 83.1551L91.4354 83.1409Z" fill="#46CB5C"/>
<path d="M87.954 79.6767C87.954 79.6767 88.1171 78.3436 88.0355 78.0706C87.954 77.8047 87.7306 77.1985 87.9292 76.7872C88.1206 76.3759 88.3723 76.071 88.6701 76.071C88.6701 76.071 89.0566 76.2625 89.2693 76.6028L89.2551 76.578L89.6487 76.2483L89.3969 76.9078V76.9007C89.4111 76.9716 89.4147 77.0389 89.4111 77.1169C89.3544 77.7764 89.3544 79.1271 89.5494 79.4569C89.7373 79.7866 90.6236 80.9991 90.0422 82.2648C89.4679 83.5305 89.7125 84.1616 89.7125 84.1616C89.7125 84.1616 89.9075 84.7678 89.5742 84.9025C89.2445 85.0408 89.8543 86.7745 89.4537 86.9376C89.0566 87.1007 88.6701 86.9376 88.6701 86.9376C88.6701 86.9376 88.3404 86.6327 88.3972 86.3632C88.4539 86.0902 88.7836 84.821 88.7269 84.6296C88.6701 84.4381 88.8332 82.7895 88.6205 82.7895C88.4007 82.7895 88.2589 82.513 88.4007 82.7895C88.539 83.066 88.344 84.0304 88.344 84.1367C88.344 84.2431 88.6737 85.2358 87.8512 85.8952C87.0216 86.5547 87.2201 85.7889 87.2768 85.7322C87.3335 85.6754 87.8512 84.9593 87.8015 84.4097C87.7448 83.8602 87.2201 83.2008 87.2201 83.2008L86.9223 83.2823C86.9223 83.2823 86.9471 83.8318 86.9223 84.1367C86.8975 84.4416 87.3655 84.6296 87.0854 84.9664C86.8088 85.2961 86.8337 86.2888 86.9223 86.7C87.0038 87.1113 86.3728 87.0227 86.3728 87.0227C86.3728 87.0227 86.2664 86.4271 86.3728 86.2321C86.4791 86.0442 86.2451 85.1082 86.3231 84.7217C86.3976 84.3353 86.2983 84.0658 86.3089 83.3993C86.3231 82.7399 86.0678 79.3824 87.9646 79.6873L87.9575 79.6802L87.954 79.6767Z" fill="#46CB5C"/>
<path d="M88.0355 76.578L87.9221 76.7872L87.5569 76.2483C88.1561 76.4681 88.032 76.578 88.032 76.578H88.0391H88.0355Z" fill="#46CB5C"/>
<path d="M54.355 146.206H60.4707V105.533H54.355V146.206Z" fill="#A85700"/>
<path d="M106.645 146.206H112.768V105.533H106.645V146.206Z" fill="#A85700"/>
<path d="M53.0076 104.59H115.119V100.229H53.0076V104.59Z" fill="#FF9800"/>
<path d="M56.0557 93.1776H112.069V88.8062H56.0557V93.1776Z" fill="#FDC573"/>
<path d="M53.0076 100.23H115.119V98.0386H53.0076V100.23Z" fill="#FDC573"/>
<path d="M53.0076 98.0385H115.119V96.9536H53.0076V98.0385Z" fill="#A85700"/>
<path d="M53.0076 94.2657H115.119V93.1772H53.0076V94.2657Z" fill="#FF9800"/>
<path d="M53.0076 88.8061H115.119V87.7212H53.0076V88.8061Z" fill="#FDC573"/>
<path d="M74.7935 86.5445H93.3322V85.449H74.7935V86.5445Z" fill="#FDC573"/>
<path d="M115.118 96.9535H53.0071L51.1316 94.2661H116.997L115.118 96.9535Z" fill="#FDC573"/>
<path d="M103.99 108.954H64.1433L55.5139 104.59H112.616L103.99 108.954Z" fill="#A85700"/>
<path d="M73.585 94.266H94.5487V86.4414H73.585V94.266Z" fill="#FF9800"/>
<path d="M75.4573 92.3866H92.67V88.3201H75.4573V92.3866Z" fill="#A85700"/>
<path d="M51.3655 105.685H116.763V104.59H51.3655V105.685Z" fill="#FDC573"/>
<path d="M53.2949 146.206H57.833V105.686H53.2949V146.206Z" fill="#FFC163"/>
<path d="M58.3967 107.954H52.7241C52.5539 107.954 52.4192 107.816 52.4192 107.65V105.987C52.4192 105.817 52.5575 105.682 52.7241 105.682H58.3967C58.5668 105.682 58.7016 105.82 58.7016 105.987V107.65C58.7016 107.82 58.5633 107.954 58.3967 107.954Z" fill="#FDC573"/>
<path d="M64.5759 146.206H69.1211V105.686H64.5759V146.206Z" fill="#FFC163"/>
<path d="M69.6843 107.954H64.0117C63.8415 107.954 63.7068 107.816 63.7068 107.65V105.987C63.7068 105.817 63.8451 105.682 64.0117 105.682H69.6843C69.8544 105.682 69.9892 105.82 69.9892 105.987V107.65C69.9892 107.82 69.8509 107.954 69.6843 107.954Z" fill="#FDC573"/>
<path d="M75.8574 146.206H80.4026V105.686H75.8574V146.206Z" fill="#FFC163"/>
<path d="M80.9658 107.954H75.2932C75.123 107.954 74.9883 107.816 74.9883 107.65V105.987C74.9883 105.817 75.1266 105.682 75.2932 105.682H80.9658C81.1359 105.682 81.2707 105.82 81.2707 105.987V107.65C81.2707 107.82 81.1324 107.954 80.9658 107.954Z" fill="#FDC573"/>
<path d="M87.1426 146.206H91.6842V105.686H87.1426V146.206Z" fill="#FFC163"/>
<path d="M92.247 107.954H86.5744C86.4043 107.954 86.2695 107.816 86.2695 107.65V105.987C86.2695 105.817 86.4078 105.682 86.5744 105.682H92.247C92.4172 105.682 92.5519 105.82 92.5519 105.987V107.65C92.5519 107.82 92.4136 107.954 92.247 107.954Z" fill="#FDC573"/>
<path d="M98.4238 146.206H102.973V105.686H98.4238V146.206Z" fill="#FDC573"/>
<path d="M103.532 107.954H97.8596C97.6894 107.954 97.5547 107.816 97.5547 107.65V105.987C97.5547 105.817 97.693 105.682 97.8596 105.682H103.532C103.702 105.682 103.837 105.82 103.837 105.987V107.65C103.837 107.82 103.699 107.954 103.532 107.954Z" fill="#FDC573"/>
<path d="M109.705 146.206H114.254V105.686H109.705V146.206Z" fill="#FDC573"/>
<path d="M114.813 107.954H109.141C108.97 107.954 108.836 107.816 108.836 107.65V105.987C108.836 105.817 108.974 105.682 109.141 105.682H114.813C114.983 105.682 115.118 105.82 115.118 105.987V107.65C115.118 107.82 114.98 107.954 114.813 107.954Z" fill="#FDC573"/>
</g>
<path d="M27.8813 43.613V50.939H26.9248V47.6176H23.1935V50.939H22.2371V43.613H23.1935V46.8293H26.9248V43.613H27.8813ZM29.1571 48.038C29.1571 47.4494 29.2762 46.9344 29.5145 46.4929C29.7527 46.0445 30.0786 45.6976 30.492 45.4524C30.9124 45.2071 31.3784 45.0845 31.8899 45.0845C32.3944 45.0845 32.8324 45.1931 33.2037 45.4103C33.5751 45.6276 33.8519 45.9008 34.0341 46.2302V45.1791H35.0011V50.939H34.0341V49.8669C33.8449 50.2032 33.5611 50.4835 33.1827 50.7077C32.8113 50.925 32.3769 51.0336 31.8794 51.0336C31.3679 51.0336 30.9054 50.9074 30.492 50.6552C30.0786 50.4029 29.7527 50.0491 29.5145 49.5936C29.2762 49.1381 29.1571 48.6196 29.1571 48.038ZM34.0341 48.0485C34.0341 47.6141 33.9465 47.2357 33.7713 46.9134C33.5961 46.591 33.3579 46.3458 33.0566 46.1776C32.7623 46.0024 32.4365 45.9149 32.0791 45.9149C31.7217 45.9149 31.3959 45.9989 31.1016 46.1671C30.8073 46.3353 30.5726 46.5805 30.3974 46.9029C30.2222 47.2252 30.1346 47.6036 30.1346 48.038C30.1346 48.4795 30.2222 48.8649 30.3974 49.1942C30.5726 49.5165 30.8073 49.7653 31.1016 49.9404C31.3959 50.1086 31.7217 50.1927 32.0791 50.1927C32.4365 50.1927 32.7623 50.1086 33.0566 49.9404C33.3579 49.7653 33.5961 49.5165 33.7713 49.1942C33.9465 48.8649 34.0341 48.483 34.0341 48.0485ZM37.5739 43.1611V50.939H36.6174V43.1611H37.5739ZM40.1605 43.1611V50.939H39.204V43.1611H40.1605ZM44.3027 51.0336C43.7631 51.0336 43.2726 50.9109 42.8312 50.6657C42.3968 50.4204 42.0534 50.0736 41.8012 49.6251C41.5559 49.1697 41.4333 48.6441 41.4333 48.0485C41.4333 47.4599 41.5594 46.9414 41.8117 46.4929C42.0709 46.0375 42.4213 45.6906 42.8627 45.4524C43.3042 45.2071 43.7982 45.0845 44.3447 45.0845C44.8913 45.0845 45.3853 45.2071 45.8267 45.4524C46.2682 45.6906 46.615 46.034 46.8673 46.4824C47.1266 46.9309 47.2562 47.4529 47.2562 48.0485C47.2562 48.6441 47.1231 49.1697 46.8568 49.6251C46.5975 50.0736 46.2437 50.4204 45.7952 50.6657C45.3468 50.9109 44.8493 51.0336 44.3027 51.0336ZM44.3027 50.1927C44.646 50.1927 44.9684 50.1121 45.2697 49.951C45.571 49.7898 45.8127 49.548 45.9949 49.2257C46.1841 48.9034 46.2787 48.511 46.2787 48.0485C46.2787 47.5861 46.1876 47.1937 46.0054 46.8713C45.8232 46.549 45.585 46.3108 45.2907 46.1566C44.9964 45.9954 44.6776 45.9149 44.3342 45.9149C43.9839 45.9149 43.6615 45.9954 43.3672 46.1566C43.08 46.3108 42.8487 46.549 42.6735 46.8713C42.4984 47.1937 42.4108 47.5861 42.4108 48.0485C42.4108 48.518 42.4949 48.9139 42.663 49.2362C42.8382 49.5586 43.0694 49.8003 43.3567 49.9615C43.644 50.1156 43.9593 50.1927 44.3027 50.1927ZM56.8656 45.7362C56.6624 45.3087 56.3681 44.9794 55.9827 44.7482C55.5973 44.5099 55.1489 44.3908 54.6373 44.3908C54.1258 44.3908 53.6633 44.5099 53.2499 44.7482C52.8435 44.9794 52.5212 45.3157 52.2829 45.7572C52.0517 46.1916 51.9361 46.6961 51.9361 47.2707C51.9361 47.8453 52.0517 48.3498 52.2829 48.7843C52.5212 49.2187 52.8435 49.5551 53.2499 49.7933C53.6633 50.0245 54.1258 50.1402 54.6373 50.1402C55.3521 50.1402 55.9407 49.9264 56.4031 49.499C56.8656 49.0716 57.1354 48.4935 57.2125 47.7647H54.2905V46.9869H58.232V47.7227C58.1759 48.3253 57.9867 48.8789 57.6644 49.3834C57.3421 49.8809 56.9182 50.2768 56.3926 50.5711C55.8671 50.8584 55.282 51.002 54.6373 51.002C53.9576 51.002 53.3375 50.8444 52.7769 50.529C52.2164 50.2067 51.7714 49.7618 51.4421 49.1942C51.1198 48.6266 50.9586 47.9855 50.9586 47.2707C50.9586 46.556 51.1198 45.9149 51.4421 45.3473C51.7714 44.7727 52.2164 44.3277 52.7769 44.0124C53.3375 43.6901 53.9576 43.5289 54.6373 43.5289C55.4151 43.5289 56.1018 43.7216 56.6974 44.107C57.3 44.4924 57.738 45.0355 58.0113 45.7362H56.8656ZM64.752 47.8383C64.752 48.0205 64.7415 48.2132 64.7205 48.4164H60.1168C60.1518 48.984 60.3445 49.4289 60.6949 49.7513C61.0522 50.0666 61.4832 50.2242 61.9877 50.2242C62.4011 50.2242 62.7444 50.1296 63.0177 49.9404C63.298 49.7442 63.4942 49.485 63.6063 49.1627H64.6364C64.4822 49.7162 64.1739 50.1682 63.7114 50.5185C63.249 50.8619 62.6744 51.0336 61.9877 51.0336C61.4411 51.0336 60.9506 50.9109 60.5162 50.6657C60.0887 50.4204 59.7524 50.0736 59.5072 49.6251C59.2619 49.1697 59.1393 48.6441 59.1393 48.0485C59.1393 47.4529 59.2584 46.9309 59.4966 46.4824C59.7349 46.034 60.0677 45.6906 60.4952 45.4524C60.9296 45.2071 61.4271 45.0845 61.9877 45.0845C62.5342 45.0845 63.0177 45.2036 63.4382 45.4419C63.8586 45.6801 64.1809 46.0094 64.4051 46.4299C64.6364 46.8433 64.752 47.3128 64.752 47.8383ZM63.764 47.6386C63.764 47.2742 63.6834 46.9624 63.5222 46.7032C63.3611 46.4369 63.1404 46.2372 62.8601 46.104C62.5868 45.9639 62.282 45.8938 61.9456 45.8938C61.4621 45.8938 61.0487 46.048 60.7054 46.3563C60.369 46.6646 60.1763 47.0921 60.1273 47.6386H63.764ZM68.8209 45.074C69.5216 45.074 70.0892 45.2877 70.5236 45.7152C70.958 46.1356 71.1753 46.7452 71.1753 47.544V50.939H70.2293V47.6807C70.2293 47.1061 70.0856 46.6681 69.7984 46.3668C69.5111 46.0585 69.1187 45.9043 68.6212 45.9043C68.1166 45.9043 67.7137 46.062 67.4124 46.3773C67.1181 46.6926 66.971 47.1516 66.971 47.7542V50.939H66.0145V45.1791H66.971V45.9989C67.1602 45.7046 67.4159 45.4769 67.7383 45.3157C68.0676 45.1546 68.4285 45.074 68.8209 45.074ZM73.2317 44.2437C73.0495 44.2437 72.8953 44.1806 72.7692 44.0545C72.6431 43.9283 72.58 43.7742 72.58 43.592C72.58 43.4098 72.6431 43.2556 72.7692 43.1295C72.8953 43.0034 73.0495 42.9403 73.2317 42.9403C73.4068 42.9403 73.554 43.0034 73.6731 43.1295C73.7992 43.2556 73.8623 43.4098 73.8623 43.592C73.8623 43.7742 73.7992 43.9283 73.6731 44.0545C73.554 44.1806 73.4068 44.2437 73.2317 44.2437ZM73.6941 45.1791V50.939H72.7377V45.1791H73.6941ZM80.5796 47.8383C80.5796 48.0205 80.5691 48.2132 80.5481 48.4164H75.9444C75.9794 48.984 76.1721 49.4289 76.5225 49.7513C76.8799 50.0666 77.3108 50.2242 77.8153 50.2242C78.2287 50.2242 78.5721 50.1296 78.8454 49.9404C79.1256 49.7442 79.3218 49.485 79.434 49.1627H80.464C80.3098 49.7162 80.0015 50.1682 79.5391 50.5185C79.0766 50.8619 78.502 51.0336 77.8153 51.0336C77.2687 51.0336 76.7782 50.9109 76.3438 50.6657C75.9164 50.4204 75.58 50.0736 75.3348 49.6251C75.0895 49.1697 74.9669 48.6441 74.9669 48.0485C74.9669 47.4529 75.086 46.9309 75.3243 46.4824C75.5625 46.034 75.8954 45.6906 76.3228 45.4524C76.7572 45.2071 77.2547 45.0845 77.8153 45.0845C78.3619 45.0845 78.8454 45.2036 79.2658 45.4419C79.6862 45.6801 80.0085 46.0094 80.2328 46.4299C80.464 46.8433 80.5796 47.3128 80.5796 47.8383ZM79.5916 47.6386C79.5916 47.2742 79.511 46.9624 79.3499 46.7032C79.1887 46.4369 78.968 46.2372 78.6877 46.104C78.4144 45.9639 78.1096 45.8938 77.7733 45.8938C77.2898 45.8938 76.8763 46.048 76.533 46.3563C76.1967 46.6646 76.004 47.0921 75.9549 47.6386H79.5916ZM83.0824 43.613L82.9668 48.8684H82.168L82.0523 43.613H83.0824ZM82.6094 51.002C82.4272 51.002 82.2731 50.939 82.1469 50.8128C82.0208 50.6867 81.9577 50.5326 81.9577 50.3504C81.9577 50.1682 82.0208 50.014 82.1469 49.8879C82.2731 49.7618 82.4272 49.6987 82.6094 49.6987C82.7846 49.6987 82.9317 49.7618 83.0509 49.8879C83.177 50.014 83.2401 50.1682 83.2401 50.3504C83.2401 50.5326 83.177 50.6867 83.0509 50.8128C82.9317 50.939 82.7846 51.002 82.6094 51.002Z" fill="black"/>
<defs>
<clipPath id="clip0_287_8">
<rect width="94.9271" height="94.9271" fill="white" transform="translate(36.4551 55.6362)"/>
</clipPath>
</defs>
</svg>
