<svg width="48" height="48" viewBox="0 0 48 48" fill="none" xmlns="http://www.w3.org/2000/svg">
<g clip-path="url(#clip0_157_984)">
<path d="M24 48C37.2548 48 48 37.2548 48 24C48 10.7452 37.2548 0 24 0C10.7452 0 0 10.7452 0 24C0 37.2548 10.7452 48 24 48Z" fill="#A5D2FF"/>
<g clip-path="url(#clip1_157_984)">
<path d="M9.93311 29.2174C12.0525 34.9293 17.5506 39 24.0001 39C30.4496 39 35.9477 34.9293 38.0671 29.2174L24.0001 27.9131L9.93311 29.2174Z" fill="#FFDA44"/>
<path d="M24.0001 9C17.5506 9 12.0525 13.0706 9.93311 18.7826L24.0001 20.0869L38.0671 18.7826C35.9477 13.0706 30.4496 9 24.0001 9Z" fill="black"/>
<path d="M9.93299 18.7827C9.33006 20.4077 9 22.1653 9 24.0001C9 25.8349 9.33006 27.5925 9.93299 29.2174H38.0671C38.67 27.5925 39 25.8349 39 24.0001C39 22.1653 38.67 20.4077 38.067 18.7827H9.93299Z" fill="#D80027"/>
</g>
</g>
<defs>
<clipPath id="clip0_157_984">
<rect width="48" height="48" fill="white"/>
</clipPath>
<clipPath id="clip1_157_984">
<rect width="30" height="30" fill="white" transform="translate(9 9)"/>
</clipPath>
</defs>
</svg>
