<svg width="169" height="157" viewBox="0 0 169 157" fill="none" xmlns="http://www.w3.org/2000/svg">
<rect width="168.582" height="156.186" rx="5.45412" fill="#F3EEFF"/>
<mask id="mask0_287_11" style="mask-type:alpha" maskUnits="userSpaceOnUse" x="0" y="0" width="169" height="157">
<rect width="168.582" height="156.186" rx="5.45412" fill="#F8E6D6"/>
</mask>
<g mask="url(#mask0_287_11)">
<ellipse cx="84.5997" cy="171.823" rx="97.7161" ry="89.8464" fill="#E1D5FF"/>
<path d="M120.619 148.115C125.294 141.06 127.798 132.77 127.798 124.299C127.798 100.506 108.505 81.2131 84.7122 81.2131C60.9197 81.2131 41.6265 100.506 41.6265 124.299C41.6265 132.77 44.1307 141.055 48.8059 148.11L120.619 148.115Z" fill="#FF9800"/>
<path d="M38.8542 106.079C38.8218 106.079 38.7987 106.056 38.7987 106.024C38.7987 105.991 38.8218 105.968 38.8542 105.968L43.9414 105.95C43.9738 105.95 43.9969 105.973 43.9969 106.005C43.9969 106.038 43.9738 106.061 43.9414 106.061L38.8542 106.079ZM38.2895 136.093H38.4284L37.9331 148.114H44.6913L44.196 136.093H44.3256C44.844 136.074 45.2514 135.649 45.2514 135.13C45.2514 134.612 44.844 134.186 44.3256 134.167H44.108L43.5063 119.489C43.9182 119.401 44.2145 119.04 44.2145 118.619C44.2145 118.586 44.2145 118.559 44.2099 118.526C44.2145 118.494 44.2145 118.466 44.2145 118.434C44.2145 117.999 43.8905 117.628 43.46 117.568H43.4322L42.9786 106.547H43.9275C43.9321 106.547 43.9321 106.547 43.9368 106.547C44.233 106.547 44.4783 106.306 44.4783 106.005C44.4783 105.792 44.3534 105.598 44.1589 105.51C44.3487 105.251 44.4506 104.936 44.4506 104.616C44.4506 104.334 44.3719 104.061 44.2238 103.82C43.7747 103.228 43.2008 102.742 42.5435 102.399C42.2657 102.233 41.9973 102.047 41.738 101.848C42.0389 101.686 42.2287 101.372 42.2287 101.024C42.2287 100.599 41.9417 100.228 41.5297 100.122V99.4136H41.0437V100.122C40.6364 100.228 40.3494 100.599 40.3494 101.024C40.3494 101.362 40.5345 101.677 40.8354 101.839C40.5762 102.043 40.3031 102.233 40.0253 102.404C39.368 102.751 38.7987 103.242 38.3543 103.839C38.2108 104.08 38.1321 104.353 38.1321 104.63C38.1321 104.987 38.2571 105.329 38.4839 105.602C38.3636 105.704 38.2895 105.857 38.2895 106.014C38.2895 106.311 38.5302 106.551 38.8265 106.551H38.8311H39.6134L39.1644 117.559H39.1366C38.7154 117.559 38.3867 117.975 38.3867 118.526C38.3821 118.559 38.3821 118.586 38.3821 118.619C38.3821 119.035 38.6783 119.397 39.0903 119.475L38.4886 134.153H38.271C37.7526 134.172 37.3452 134.598 37.3452 135.112C37.3452 135.63 37.7526 136.056 38.271 136.074V136.07L38.2895 136.093Z" fill="#A85700"/>
<path d="M47.6909 132.529C47.5798 132.64 47.515 132.793 47.515 132.955C47.515 133.075 47.552 133.191 47.6168 133.288V148.952H54.7777V133.27C54.8471 133.168 54.8795 133.052 54.8795 132.936C54.8795 132.714 54.7546 132.506 54.5555 132.404C54.8194 132.085 54.9629 131.677 54.9629 131.265C54.9629 130.932 54.8703 130.608 54.699 130.326C54.1621 129.617 53.4724 129.039 52.6854 128.627C52.3198 128.414 51.968 128.169 51.6393 127.9C51.9448 127.738 52.1392 127.423 52.1392 127.076C52.1392 126.655 51.8522 126.285 51.4449 126.174V125.465H50.9589V126.174C50.5469 126.28 50.2645 126.65 50.2645 127.072C50.2645 127.414 50.4497 127.729 50.7506 127.891C50.4219 128.164 50.0701 128.419 49.6998 128.636C48.9129 129.053 48.2278 129.636 47.6955 130.349C47.5289 130.627 47.4363 130.951 47.4363 131.275C47.4363 131.691 47.5798 132.099 47.8483 132.418C47.7927 132.446 47.7418 132.483 47.6955 132.524L47.6909 132.529Z" fill="#A85700"/>
<path d="M125.341 106.065C125.336 106.065 125.336 106.065 125.332 106.065C125.299 106.065 125.276 106.042 125.276 106.01C125.276 105.977 125.299 105.954 125.332 105.954C125.336 105.954 125.336 105.954 125.341 105.954L130.428 105.973C130.461 105.973 130.484 105.996 130.484 106.028C130.484 106.061 130.456 106.084 130.428 106.084L125.346 106.065H125.341ZM130.081 136.051H130.22L129.729 148.073H136.487L135.992 136.051H130.984C131.516 136.051 131.947 135.621 131.947 135.088C131.947 134.556 131.516 134.126 130.984 134.126H130.766L130.164 119.447C130.576 119.369 130.873 119.008 130.873 118.591C130.873 118.559 130.873 118.531 130.868 118.499C130.868 117.948 130.539 117.531 130.118 117.531H130.086L129.641 106.561H130.424C130.72 106.561 130.965 106.32 130.965 106.019C130.965 105.862 130.896 105.709 130.775 105.607C131.002 105.334 131.127 104.987 131.127 104.635C131.127 104.357 131.049 104.08 130.905 103.843C130.461 103.251 129.891 102.76 129.234 102.413C128.952 102.242 128.679 102.052 128.424 101.848C128.725 101.686 128.91 101.372 128.91 101.034C128.91 100.612 128.623 100.238 128.216 100.131V99.4229H127.73V100.131C127.318 100.238 127.031 100.608 127.031 101.034C127.031 101.376 127.22 101.696 127.526 101.858C127.271 102.057 126.998 102.242 126.721 102.408C126.063 102.751 125.489 103.237 125.04 103.83C124.892 104.07 124.813 104.343 124.813 104.626C124.813 104.945 124.915 105.26 125.105 105.519C124.911 105.607 124.786 105.801 124.786 106.014C124.786 106.311 125.026 106.556 125.327 106.556C125.332 106.556 125.332 106.556 125.336 106.556H126.285L125.832 117.577H125.804C125.369 117.638 125.049 118.003 125.049 118.438C125.049 118.471 125.049 118.499 125.054 118.531C125.049 118.563 125.049 118.591 125.049 118.624C125.049 119.045 125.346 119.41 125.758 119.494L125.156 134.172H124.938C124.406 134.172 123.976 134.602 123.976 135.135C123.976 135.667 124.406 136.098 124.938 136.098L130.081 136.056V136.051Z" fill="#A85700"/>
<path d="M114.51 132.936C114.51 133.056 114.547 133.172 114.611 133.269V148.952H121.768V133.283C121.837 133.181 121.87 133.066 121.87 132.945C121.87 132.719 121.74 132.515 121.541 132.413C121.805 132.089 121.953 131.686 121.953 131.27C121.953 130.941 121.865 130.622 121.694 130.339C121.161 129.626 120.476 129.043 119.689 128.627C119.319 128.409 118.967 128.154 118.639 127.881C118.939 127.719 119.125 127.405 119.125 127.062C119.125 126.636 118.838 126.266 118.426 126.159V125.451H117.935V126.159C117.523 126.266 117.231 126.636 117.231 127.062C117.231 127.414 117.43 127.733 117.741 127.891C117.412 128.159 117.06 128.404 116.694 128.617C115.907 129.025 115.218 129.608 114.681 130.316C114.51 130.599 114.417 130.923 114.417 131.256C114.417 131.672 114.56 132.075 114.824 132.395C114.625 132.496 114.505 132.7 114.5 132.922L114.51 132.936Z" fill="#A85700"/>
<path d="M78.7135 148.249L78.6672 135.223C78.6672 132.529 81.2501 130.33 84.4348 130.316C87.6241 130.302 90.2209 132.501 90.2302 135.186L90.2718 148.253H78.7135V148.249ZM111.917 148.249V130.562H109.931V126.84C110.019 126.715 110.065 126.572 110.065 126.419C110.065 126.109 109.866 125.836 109.574 125.738C109.963 125.312 110.181 124.757 110.181 124.183C110.181 123.762 110.065 123.35 109.847 122.989C109.144 122.054 108.241 121.285 107.209 120.739C106.644 120.42 106.117 120.031 105.649 119.577C105.978 119.425 106.191 119.096 106.191 118.73C106.191 118.309 105.904 117.939 105.496 117.828V117.119H105.006V117.828C104.598 117.939 104.311 118.309 104.311 118.73C104.311 119.105 104.533 119.438 104.876 119.587C104.404 120.031 103.881 120.415 103.316 120.73C102.279 121.271 101.372 122.031 100.659 122.961C100.437 123.322 100.321 123.739 100.321 124.164C100.321 124.738 100.534 125.289 100.918 125.715C100.627 125.812 100.432 126.085 100.432 126.396C100.432 126.548 100.479 126.692 100.566 126.817V130.562H99.0621V123.202H95.5256C96.905 121.711 97.6688 119.749 97.6688 117.716C97.6688 117.494 97.6596 117.272 97.641 117.05V117.045C97.5299 116.101 97.2522 115.18 96.8263 114.333C96.1042 113 95.1461 111.805 94.0073 110.81V110.792H93.9842C92.6187 109.579 91.1698 108.426 89.6793 107.375C87.3279 105.649 85.0967 104.02 84.8051 102.598C85.1939 102.478 85.4578 102.117 85.4578 101.71C85.4578 101.284 85.1708 100.914 84.7542 100.807V100.099H84.1987V100.807C83.7914 100.914 83.5044 101.284 83.5044 101.71C83.5044 102.112 83.7682 102.473 84.1524 102.598C83.8608 104.02 81.6343 105.654 79.2782 107.375C77.7831 108.426 76.3342 109.574 74.9687 110.787H74.9502V110.806C73.8068 111.801 72.8533 112.995 72.1312 114.328C71.7007 115.175 71.423 116.096 71.3119 117.041V117.045C71.2934 117.263 71.2841 117.485 71.2841 117.707C71.2841 119.739 72.0525 121.697 73.4273 123.188H69.8908V130.548H68.391V126.803C68.479 126.678 68.5253 126.534 68.5253 126.382C68.5253 126.076 68.3309 125.803 68.0392 125.701C68.4234 125.275 68.6364 124.725 68.6364 124.151C68.6364 123.725 68.516 123.308 68.2985 122.947C67.5902 122.017 66.6783 121.253 65.6415 120.716C65.0767 120.401 64.5537 120.017 64.0815 119.573C64.4241 119.425 64.6463 119.087 64.6463 118.716C64.6463 118.295 64.3639 117.92 63.9519 117.814V117.105H63.4659V117.814C63.0585 117.92 62.7716 118.29 62.7716 118.716C62.7716 119.082 62.9845 119.411 63.3131 119.563C62.8456 120.012 62.3179 120.406 61.7486 120.725C60.7163 121.271 59.8137 122.04 59.1101 122.975C58.8925 123.336 58.7768 123.748 58.7768 124.169C58.7768 124.743 58.9944 125.299 59.3786 125.724C59.087 125.822 58.8879 126.095 58.8879 126.405C58.8879 126.558 58.9342 126.701 59.0222 126.826V130.543H57.0271V148.23H27.666V150.605H141.278V148.244H111.912L111.917 148.249Z" fill="#A85700"/>
<path d="M78.5797 148.716L78.5381 135.376C78.5381 132.617 81.1812 130.367 84.4446 130.353C87.7079 130.339 90.3695 132.589 90.3834 135.339L90.4251 148.716H78.5797Z" fill="white"/>
</g>
<path d="M32.4716 19.7003V31.3354H30.1379V26.3847H25.1538V31.3354H22.8201V19.7003H25.1538V24.4844H30.1379V19.7003H32.4716ZM35.9521 21.0005C35.541 21.0005 35.1965 20.8727 34.9186 20.6171C34.6519 20.3504 34.5186 20.0225 34.5186 19.6336C34.5186 19.2446 34.6519 18.9224 34.9186 18.6668C35.1965 18.4001 35.541 18.2667 35.9521 18.2667C36.3633 18.2667 36.7023 18.4001 36.969 18.6668C37.2468 18.9224 37.3857 19.2446 37.3857 19.6336C37.3857 20.0225 37.2468 20.3504 36.969 20.6171C36.7023 20.8727 36.3633 21.0005 35.9521 21.0005ZM37.1023 22.1006V31.3354H34.7686V22.1006H37.1023ZM44.5255 21.9673C45.6257 21.9673 46.5147 22.3173 47.1926 23.0175C47.8705 23.7065 48.2094 24.6733 48.2094 25.9179V31.3354H45.8757V26.2346C45.8757 25.5012 45.6924 24.94 45.3256 24.551C44.9589 24.151 44.4588 23.9509 43.8254 23.9509C43.1809 23.9509 42.6697 24.151 42.2918 24.551C41.9251 24.94 41.7417 25.5012 41.7417 26.2346V31.3354H39.408V22.1006H41.7417V23.2508C42.0529 22.8508 42.4474 22.5396 42.9253 22.3173C43.4142 22.084 43.9476 21.9673 44.5255 21.9673ZM49.8286 26.6847C49.8286 25.7512 50.0119 24.9233 50.3787 24.201C50.7565 23.4786 51.2677 22.923 51.9122 22.534C52.5568 22.1451 53.2736 21.9506 54.0626 21.9506C54.6627 21.9506 55.235 22.084 55.7795 22.3507C56.324 22.6063 56.7574 22.9508 57.0797 23.3842V19.0002H59.4468V31.3354H57.0797V29.9686C56.7908 30.4242 56.3852 30.7909 55.8629 31.0687C55.3406 31.3466 54.7349 31.4855 54.0459 31.4855C53.268 31.4855 52.5568 31.2854 51.9122 30.8854C51.2677 30.4853 50.7565 29.9241 50.3787 29.2018C50.0119 28.4683 49.8286 27.6293 49.8286 26.6847ZM57.0964 26.718C57.0964 26.1513 56.9853 25.6679 56.763 25.2678C56.5407 24.8566 56.2407 24.5455 55.8629 24.3343C55.485 24.1121 55.0794 24.0009 54.646 24.0009C54.2126 24.0009 53.8125 24.1065 53.4458 24.3177C53.0791 24.5288 52.779 24.84 52.5457 25.2511C52.3234 25.6512 52.2123 26.1291 52.2123 26.6847C52.2123 27.2404 52.3234 27.7293 52.5457 28.1516C52.779 28.5628 53.0791 28.8795 53.4458 29.1018C53.8236 29.324 54.2237 29.4351 54.646 29.4351C55.0794 29.4351 55.485 29.3296 55.8629 29.1184C56.2407 28.8962 56.5407 28.585 56.763 28.1849C56.9853 27.7738 57.0964 27.2848 57.0964 26.718ZM62.9096 21.0005C62.4984 21.0005 62.1539 20.8727 61.8761 20.6171C61.6093 20.3504 61.476 20.0225 61.476 19.6336C61.476 19.2446 61.6093 18.9224 61.8761 18.6668C62.1539 18.4001 62.4984 18.2667 62.9096 18.2667C63.3207 18.2667 63.6597 18.4001 63.9264 18.6668C64.2042 18.9224 64.3431 19.2446 64.3431 19.6336C64.3431 20.0225 64.2042 20.3504 63.9264 20.6171C63.6597 20.8727 63.3207 21.0005 62.9096 21.0005ZM64.0597 22.1006V31.3354H61.726V22.1006H64.0597Z" fill="black"/>
<path d="M24.6919 46.0103C24.3631 46.0103 24.0938 46.0802 23.8839 46.2202C23.6741 46.3531 23.5692 46.5664 23.5692 46.8602C23.5692 47.0771 23.6356 47.259 23.7685 47.4059C23.9014 47.5528 24.0833 47.6577 24.3142 47.7207C24.51 47.6857 24.7059 47.6682 24.9018 47.6682C25.5803 47.6682 26.112 47.8361 26.4967 48.1719C26.8884 48.5006 27.1263 48.9099 27.2102 49.3995H26.3708C26.3008 49.1267 26.1364 48.8889 25.8776 48.686C25.6258 48.4761 25.2935 48.3712 24.8808 48.3712C24.3911 48.3712 24.0064 48.5216 23.7266 48.8224C23.4537 49.1232 23.3173 49.501 23.3173 49.9557C23.3173 50.4174 23.4537 50.7951 23.7266 51.0889C24.0064 51.3827 24.3911 51.5296 24.8808 51.5296C25.2865 51.5296 25.6153 51.4282 25.8671 51.2253C26.126 51.0294 26.2938 50.7951 26.3708 50.5223H27.2102C27.1613 50.8371 27.0353 51.1274 26.8325 51.3932C26.6366 51.659 26.3708 51.8689 26.035 52.0228C25.7062 52.1837 25.3215 52.2641 24.8808 52.2641C24.3771 52.2641 23.9399 52.1627 23.5692 51.9598C23.2054 51.757 22.9291 51.4806 22.7402 51.1309C22.5513 50.7811 22.4569 50.3859 22.4569 49.9452C22.4569 49.5045 22.5548 49.1127 22.7507 48.77C22.9536 48.4272 23.2334 48.1614 23.5901 47.9725C23.3243 47.8606 23.111 47.6962 22.9501 47.4793C22.7892 47.2625 22.7087 47.0036 22.7087 46.7028C22.7087 46.2691 22.8626 45.9403 23.1704 45.7165C23.4852 45.4856 23.8979 45.3702 24.4086 45.3702H25.7832V44.1425H21.3866V43.408H28.0916V44.1425H26.6121V46.0103H24.6919ZM25.7847 43.45C25.421 42.8764 25.1237 42.4637 24.8928 42.2118C24.655 41.953 24.4276 41.7851 24.2108 41.7082C23.9939 41.6312 23.6966 41.5927 23.3189 41.5927H22.8782V40.8792H23.3084C23.819 40.8792 24.2248 40.9317 24.5256 41.0366C24.8264 41.1415 25.1342 41.3724 25.449 41.7291C25.7638 42.0859 26.152 42.6595 26.6137 43.45H25.7847ZM34.9954 44.1425V45.5381C35.4781 45.657 35.8593 45.9229 36.1391 46.3356C36.4259 46.7413 36.5693 47.2555 36.5693 47.878C36.5693 48.3747 36.4749 48.8189 36.286 49.2107C36.0971 49.5954 35.8138 49.8997 35.4361 50.1236C35.0583 50.3404 34.6036 50.4488 34.072 50.4488C34.016 50.4488 33.8971 50.4418 33.7152 50.4278V49.6619C33.8691 49.6758 33.9706 49.6828 34.0195 49.6828C34.5442 49.6828 34.9534 49.5185 35.2472 49.1897C35.541 48.8609 35.6879 48.4307 35.6879 47.899C35.6879 47.4164 35.569 47.0211 35.3312 46.7133C35.1003 46.4055 34.7645 46.2516 34.3238 46.2516C33.8691 46.2516 33.5229 46.4265 33.285 46.7763C33.0472 47.1191 32.9283 47.5842 32.9283 48.1719V48.3292H32.1833V48.1719C32.1833 47.5912 32.0678 47.126 31.837 46.7763C31.6131 46.4265 31.2844 46.2516 30.8506 46.2516C30.3959 46.2516 30.0462 46.4055 29.8013 46.7133C29.5565 47.0141 29.4341 47.4094 29.4341 47.899C29.4341 48.4307 29.581 48.8609 29.8748 49.1897C30.1686 49.5185 30.5778 49.6828 31.1025 49.6828C31.1654 49.6828 31.2669 49.6758 31.4068 49.6619V50.4278C31.2249 50.4418 31.106 50.4488 31.05 50.4488C30.5184 50.4488 30.0637 50.3404 29.6859 50.1236C29.3082 49.8997 29.0249 49.5954 28.836 49.2107C28.6471 48.8189 28.5527 48.3747 28.5527 47.878C28.5527 47.3884 28.6436 46.9617 28.8255 46.5979C29.0144 46.2341 29.2732 45.9578 29.602 45.769C29.9308 45.5731 30.3085 45.4751 30.7352 45.4751C31.2459 45.4751 31.6481 45.6221 31.9419 45.9159C32.2357 46.2097 32.4386 46.5699 32.5505 46.9966H32.582C32.6799 46.6119 32.8548 46.2796 33.1066 45.9998C33.3585 45.72 33.7012 45.5521 34.135 45.4961V44.1425H27.5349V43.408H37.5767V44.1425H34.9954ZM40.6647 43.408V44.1425H39.2901V51.1729H38.4087V44.1425H37.0236V43.408H38.4192C38.0625 42.8484 37.7687 42.4427 37.5378 42.1908C37.307 41.939 37.0831 41.7781 36.8663 41.7082C36.6494 41.6312 36.3556 41.5927 35.9848 41.5927H35.5441V40.8792H35.9743C36.485 40.8792 36.8907 40.9317 37.1915 41.0366C37.4853 41.1345 37.7896 41.3619 38.1044 41.7187C38.4192 42.0684 38.804 42.6315 39.2587 43.408H40.6647ZM52.2862 44.1425H50.9011V51.1729H50.0302V46.6923H48.0366V47.6892C48.0366 48.3188 47.8512 48.8294 47.4804 49.2212C47.1167 49.6059 46.62 49.7983 45.9904 49.7983C45.3608 49.7983 44.8677 49.6059 44.5109 49.2212C44.1541 48.8294 43.9758 48.3188 43.9758 47.6892V45.9368H44.8572V47.6682C44.8572 48.0739 44.9586 48.4027 45.1615 48.6545C45.3713 48.9064 45.6511 49.0323 46.0009 49.0323C46.3647 49.0323 46.6515 48.9064 46.8613 48.6545C47.0782 48.4027 47.1866 48.0739 47.1866 47.6682V45.9368H50.0302V44.1425H42.9055V43.408H52.2862V44.1425ZM55.359 43.408V44.1425H53.9844V51.1729H53.103V44.1425H51.718V43.408H53.124V42.9673C53.124 42.5336 53.0401 42.1733 52.8722 41.8865C52.7043 41.5997 52.4175 41.4563 52.0118 41.4563C51.599 41.4563 51.3087 41.5997 51.1408 41.8865C50.966 42.1733 50.8785 42.5336 50.8785 42.9673V43.6179H50.0181V43.0093C50.0181 42.3168 50.179 41.7641 50.5008 41.3514C50.8156 40.9317 51.3192 40.7218 52.0118 40.7218C52.7113 40.7218 53.215 40.9282 53.5228 41.3409C53.8305 41.7536 53.9844 42.3098 53.9844 43.0093V43.408H55.359ZM60.584 40.6798C62.046 40.6798 63.1583 40.9177 63.9207 41.3934C64.6902 41.8621 65.075 42.5546 65.075 43.471V43.6494H64.2146V43.492C64.2146 42.7645 63.8998 42.2363 63.2702 41.9075C62.6476 41.5718 61.7487 41.4039 60.5735 41.4039C59.4053 41.4039 58.5308 41.5543 57.9502 41.8551C57.3696 42.1489 57.0723 42.6665 57.0583 43.408H58.4434V44.1425H57.0688V51.1729H56.1874V44.1425H54.8023V43.408H56.1874C56.2084 42.4637 56.5826 41.7746 57.3102 41.3409C58.0377 40.9002 59.1289 40.6798 60.584 40.6798ZM66.7323 44.1425H65.3472V51.1729H64.4763V46.6189H62.4302C62.605 46.7868 62.7415 46.9896 62.8394 47.2275C62.9443 47.4653 62.9968 47.7276 62.9968 48.0145C62.9968 48.4062 62.9058 48.749 62.724 49.0428C62.5491 49.3366 62.3077 49.5604 62 49.7143C61.6922 49.8682 61.3459 49.9452 60.9611 49.9452C60.5624 49.9452 60.1987 49.8612 59.8699 49.6933C59.5481 49.5254 59.2928 49.2911 59.1039 48.9903C58.922 48.6825 58.8311 48.3257 58.8311 47.92C58.8311 47.5003 58.9255 47.1365 59.1144 46.8287C59.3102 46.521 59.5726 46.2866 59.9014 46.1257C60.2371 45.9648 60.6149 45.8844 61.0346 45.8844H64.4763V44.1425H57.8867V43.408H66.7323V44.1425ZM60.9716 49.2002C61.3564 49.2002 61.6712 49.0812 61.916 48.8434C62.1678 48.5986 62.2938 48.2873 62.2938 47.9095C62.2938 47.5388 62.1678 47.231 61.916 46.9861C61.6712 46.7413 61.3564 46.6189 60.9716 46.6189C60.5799 46.6189 60.2581 46.7413 60.0063 46.9861C59.7544 47.224 59.6285 47.5353 59.6285 47.92C59.6285 48.2978 59.751 48.6056 59.9958 48.8434C60.2476 49.0812 60.5729 49.2002 60.9716 49.2002ZM74.4663 44.1425H73.0812V51.1729H72.2103V48.8749C72.0074 49.2107 71.7136 49.4835 71.3289 49.6933C70.9442 49.8962 70.4825 49.9976 69.9438 49.9976C69.0624 49.9976 68.3804 49.7318 67.8977 49.2002C67.415 48.6685 67.1737 47.948 67.1737 47.0386C67.1737 46.8777 67.1842 46.7133 67.2051 46.5454H67.352C67.9746 46.5454 68.4433 46.4195 68.7581 46.1677C69.0729 45.9089 69.2303 45.4751 69.2303 44.8666V44.1425H66.1663V43.408H74.4663V44.1425ZM72.2103 44.1425H70.1012V45.0135C70.1012 46.3146 69.4122 46.9931 68.0341 47.0491V47.1226C68.0341 47.7871 68.216 48.3118 68.5797 48.6965C68.9505 49.0743 69.4646 49.2631 70.1222 49.2631C70.5139 49.2631 70.8672 49.1827 71.182 49.0218C71.5038 48.8539 71.7556 48.6196 71.9375 48.3188C72.1194 48.018 72.2103 47.6752 72.2103 47.2904V44.1425ZM83.0633 44.1425H81.6677V51.1729H80.8073V47.5108H75.9175V49.0428C75.9175 49.4905 76.019 49.8472 76.2218 50.1131C76.4247 50.3789 76.729 50.5118 77.1347 50.5118C77.5055 50.5118 77.7993 50.3894 78.0161 50.1445C78.233 49.8927 78.3414 49.5639 78.3414 49.1582V49.0323H79.1809C79.1879 49.0812 79.1914 49.1372 79.1914 49.2002C79.1914 49.8297 79.006 50.3334 78.6352 50.7112C78.2715 51.0819 77.7748 51.2673 77.1452 51.2673C76.4737 51.2673 75.956 51.0609 75.5923 50.6482C75.2355 50.2285 75.0571 49.6793 75.0571 49.0008V46.8602H76.0225C76.6101 46.8602 77.0578 46.7028 77.3656 46.388C77.6734 46.0733 77.8273 45.643 77.8273 45.0974V44.1425H73.9029V43.408H83.0633V44.1425ZM80.8073 44.1425H78.6877V45.0974C78.6877 45.4612 78.6317 45.7864 78.5198 46.0733C78.4079 46.3601 78.2505 46.5979 78.0476 46.7868H80.8073V44.1425ZM84.8296 43.8592L84.7142 49.1057H83.9167L83.8013 43.8592H84.8296ZM84.3574 51.2358C84.1756 51.2358 84.0217 51.1729 83.8957 51.0469C83.7698 50.921 83.7069 50.7671 83.7069 50.5852C83.7069 50.4034 83.7698 50.2495 83.8957 50.1236C84.0217 49.9976 84.1756 49.9347 84.3574 49.9347C84.5323 49.9347 84.6792 49.9976 84.7981 50.1236C84.9241 50.2495 84.987 50.4034 84.987 50.5852C84.987 50.7671 84.9241 50.921 84.7981 51.0469C84.6792 51.1729 84.5323 51.2358 84.3574 51.2358Z" fill="black"/>
</svg>
