<svg width="49" height="49" viewBox="0 0 49 49" fill="none" xmlns="http://www.w3.org/2000/svg">
<g clip-path="url(#clip0_157_1037)">
<path d="M24.5 49C38.031 49 49 38.031 49 24.5C49 10.969 38.031 0 24.5 0C10.969 0 0 10.969 0 24.5C0 38.031 10.969 49 24.5 49Z" fill="#739E16"/>
<path d="M10 14H39V17.3842H35.8488V35.5895H32.0565V30.3381C31.1992 31.4082 29.9251 31.9432 28.2343 31.9432C28.0777 31.9475 27.9211 31.9378 27.7663 31.9142C27.2216 33.1196 26.3319 34.0484 25.0971 34.7004C23.8623 35.3524 22.4185 35.6781 20.7657 35.6775C18.3542 35.6775 16.4481 35.0014 15.0473 33.6494C13.6466 32.2973 12.9462 30.3961 12.9462 27.9459V23.7185H13.7633C14.7354 23.6985 15.4841 23.6305 16.0095 23.5144C16.519 23.4066 16.9768 23.1287 17.3076 22.7264C17.647 22.3183 17.8654 21.798 17.9627 21.1653C18.06 20.5326 18.1087 19.6235 18.1087 18.4381V17.3842H10V14ZM16.9192 28.296C16.9192 30.9614 18.1932 32.2939 20.7414 32.2932C22.6088 32.2932 23.8255 31.6612 24.3914 30.3971C23.2634 29.2297 22.6993 27.7609 22.6993 25.9908C22.6993 24.2207 23.2147 22.7719 24.2454 21.6445C25.2768 20.5164 26.6286 19.9524 28.3007 19.9524C29.9729 19.9524 31.2276 20.4774 32.0649 21.5275V17.3842H22.0489V18.4053C22.0489 21.3434 21.7085 23.3662 21.0278 24.4737C20.3471 25.5812 18.9775 26.2342 16.9192 26.4326V28.296ZM26.2548 25.9328C26.2548 26.8275 26.5225 27.5326 27.0578 28.048C27.5932 28.5633 28.3004 28.821 29.1795 28.821C30.0649 28.821 30.7653 28.5633 31.2806 28.048C31.796 27.5326 32.0537 26.8275 32.0537 25.9328C32.0537 25.0381 31.8007 24.333 31.2947 23.8177C30.7887 23.3023 30.0886 23.0446 29.1945 23.0446C28.2998 23.0446 27.5851 23.3023 27.0503 23.8177C26.5156 24.333 26.2489 25.0381 26.2501 25.9328H26.2548Z" fill="white"/>
</g>
<defs>
<clipPath id="clip0_157_1037">
<rect width="49" height="49" fill="white"/>
</clipPath>
</defs>
</svg>
