<svg width="62" height="62" viewBox="0 0 62 62" fill="none" xmlns="http://www.w3.org/2000/svg">
<path d="M33.551 3.89502C18.6373 3.89502 4.49892 13.845 5.93643 27.5185C2.71109 30.2563 0.732422 33.9235 0.732422 37.9509C0.732422 42.5672 3.28363 46.8425 7.75465 49.757C7.39306 52.1641 6.27961 54.4191 4.36209 56.6351C4.13939 56.8922 4.0843 57.2544 4.22089 57.5655C4.35748 57.8772 4.66058 58.0825 5.00086 58.0929C9.93688 58.2465 14.4109 56.9324 17.4692 53.1323C23.883 53.8365 30.7544 51.9483 35.2496 47.5072C36.0235 47.4693 36.7972 47.4132 37.5658 47.3241C41.9416 52.8895 48.4125 54.7644 55.4589 54.5443C55.7987 54.534 56.1023 54.3285 56.2389 54.0174C56.3755 53.7057 56.3204 53.3441 56.0983 53.0864C53.1999 49.7341 51.5441 46.3156 51.0482 42.6534C53.0885 41.3476 54.8713 39.8313 56.3532 38.1411C56.674 37.7749 56.6373 37.2176 56.2717 36.8967C55.9049 36.5747 55.3483 36.6126 55.0274 36.9782C53.5471 38.6667 51.737 40.1716 49.6467 41.4509C49.3574 41.6283 49.195 41.956 49.23 42.2935C49.6134 45.9948 51.0425 49.4431 53.5856 52.7881C46.9761 52.6176 41.9622 50.292 38.666 45.8611C38.4754 45.6058 38.1592 45.4715 37.8448 45.5134C37.5265 45.555 37.2066 45.5865 36.8864 45.6167C38.5429 43.3601 39.4966 40.7428 39.4966 37.9511C39.4966 29.5021 30.8019 22.628 20.1146 22.628C15.3552 22.628 10.9938 23.9937 7.6166 26.2522C7.23843 15.927 17.8194 5.65827 33.5511 5.65827C47.8618 5.65827 59.5042 14.6594 59.5042 25.7233C59.5042 28.3748 58.8453 30.9495 57.5459 33.3761C57.3157 33.8054 57.4776 34.3398 57.9068 34.5694C58.3361 34.8001 58.8699 34.6377 59.1001 34.2084C60.5384 31.5229 61.2673 28.6681 61.2673 25.7233C61.2672 13.687 48.8339 3.89502 33.551 3.89502ZM20.1144 24.3911C29.8296 24.3911 37.7333 30.4744 37.7333 37.9511C37.7333 46.686 27.4116 52.6776 17.1943 51.3227C16.874 51.2802 16.5618 51.4145 16.3707 51.6705C14.2133 54.5724 11.091 56.1007 6.85819 56.316C8.43253 54.1132 9.3256 51.8364 9.57638 49.4012C9.61138 49.0637 9.44899 48.736 9.15909 48.5592C4.92445 45.9695 2.49555 42.1035 2.49555 37.9509C2.49555 30.4743 10.3993 24.3911 20.1144 24.3911Z" fill="black"/>
<path d="M11.1701 41.3783H11.7692L11.3451 41.8025C10.6099 42.5388 10.6099 43.7367 11.3457 44.4736L13.5628 46.6907C14.2756 47.4046 15.5211 47.4046 16.2338 46.6907L16.658 46.2665V46.8663C16.658 47.9079 17.5052 48.7551 18.5469 48.7551H21.6823C22.724 48.7551 23.5712 47.9079 23.5712 46.8663V46.2671L23.9953 46.6913C24.7311 47.426 25.9296 47.4253 26.6664 46.6907L28.8841 44.473C29.6193 43.7366 29.6193 42.5387 28.8835 41.8019L28.46 41.3783H29.0585C30.1002 41.3783 30.9479 40.5311 30.9479 39.4895V36.354C30.9479 35.3123 30.1003 34.4652 29.0585 34.4652H28.4593L28.8835 34.041C29.6193 33.3052 29.6199 32.1067 28.8835 31.3699L26.6658 29.1522C25.9295 28.4164 24.7311 28.417 23.9947 29.1528L23.5712 29.5764V28.9772C23.5712 27.9356 22.724 27.0884 21.6823 27.0884H18.5469C17.5052 27.0884 16.658 27.9356 16.658 28.9772V29.577L16.2338 29.1528C15.521 28.4388 14.2755 28.4388 13.5628 29.1528L11.3451 31.3705C10.6093 32.1069 10.6099 33.3052 11.3457 34.0411L11.7698 34.4653H11.1701C10.1284 34.4653 9.28125 35.3125 9.28125 36.3541V39.4896C9.28125 40.5311 10.1284 41.3783 11.1701 41.3783ZM11.0444 36.354C11.0444 36.2845 11.1006 36.2283 11.1701 36.2283H12.8907C13.2638 36.2283 13.5961 35.9935 13.7212 35.6423C13.798 35.4259 13.8858 35.2147 13.9817 35.0138C14.1418 34.6764 14.0731 34.2752 13.8089 34.0112L12.5922 32.7944C12.5434 32.7456 12.5434 32.6654 12.5922 32.6165L14.8093 30.3994C14.8587 30.35 14.9379 30.35 14.9872 30.3994L16.2039 31.6162C16.4668 31.8802 16.8691 31.9485 17.2049 31.7895C17.4098 31.6925 17.6199 31.6053 17.8351 31.5283C18.1864 31.4032 18.421 31.0708 18.421 30.6978V28.9772C18.421 28.9078 18.4772 28.8515 18.5467 28.8515H21.6822C21.7517 28.8515 21.8079 28.9077 21.8079 28.9772V30.6973C21.8079 31.0704 22.0427 31.4027 22.3939 31.5278C22.6091 31.6047 22.8192 31.692 23.0241 31.789C23.3599 31.9497 23.7621 31.8803 24.025 31.6157L25.2407 30.4001C25.2901 30.3513 25.3704 30.3506 25.4198 30.3994L27.6364 32.6161C27.6858 32.6655 27.6858 32.7458 27.637 32.7946L26.4203 34.0113C26.1569 34.2748 26.0874 34.6754 26.247 35.0123C26.3446 35.2178 26.4312 35.4283 26.5087 35.6441C26.6343 35.9948 26.9666 36.2284 27.3386 36.2284H29.0588C29.1283 36.2284 29.1851 36.2846 29.1851 36.3541V39.4896C29.1851 39.559 29.1283 39.6153 29.0588 39.6153H27.3392C26.9674 39.6153 26.635 39.8489 26.5093 40.1996C26.4318 40.4153 26.3451 40.6261 26.2476 40.8314C26.088 41.1683 26.1575 41.5689 26.4209 41.8324L27.6365 43.0481C27.6859 43.0975 27.6859 43.1783 27.6371 43.2271L25.4205 45.4438C25.3723 45.4932 25.2919 45.4932 25.2414 45.4444L24.0253 44.2282C23.7619 43.9636 23.3595 43.8947 23.0243 44.0549C22.8194 44.1519 22.6093 44.2391 22.3941 44.3161C22.0428 44.4412 21.8082 44.7735 21.8082 45.1466V46.8667C21.8082 46.9361 21.752 46.9924 21.6825 46.9924H18.547C18.4775 46.9924 18.4213 46.9363 18.4213 46.8667V45.1461C18.4213 44.773 18.1865 44.4407 17.8353 44.3157C17.6201 44.2388 17.41 44.1515 17.2051 44.0545C16.8746 43.897 16.4706 43.9605 16.2042 44.2277L14.9874 45.4445C14.9266 45.5053 14.8703 45.5053 14.8095 45.4445L12.5929 43.2279C12.5435 43.1785 12.5435 43.0976 12.5923 43.0488L13.8085 41.8326C14.0724 41.5686 14.1413 41.1675 13.9813 40.83C13.8854 40.6291 13.7976 40.4179 13.7207 40.2015C13.5956 39.8502 13.2633 39.6155 12.8902 39.6155H11.1701C11.1006 39.6155 11.0444 39.5592 11.0444 39.4898V36.354Z" fill="black"/>
<path d="M20.1145 42.7463C22.7753 42.7463 24.9396 40.582 24.9396 37.9212C24.9396 35.261 22.7753 33.0967 20.1145 33.0967C17.4543 33.0967 15.29 35.261 15.29 37.9212C15.2899 40.582 17.4543 42.7463 20.1145 42.7463ZM20.1145 34.8598C21.8031 34.8598 23.1765 36.2333 23.1765 37.9212C23.1765 39.6097 21.8031 40.9832 20.1145 40.9832C18.4266 40.9832 17.0532 39.6097 17.0532 37.9212C17.053 36.2333 18.4265 34.8598 20.1145 34.8598Z" fill="black"/>
</svg>
