<svg width="122" height="93" viewBox="0 0 122 93" fill="none" xmlns="http://www.w3.org/2000/svg">
<path d="M117.247 47.8946C117.254 52.41 117.262 56.9118 117.269 61.4271C117.28 68.0306 117.291 74.6477 117.301 81.2512C117.303 82.0106 117.304 82.7699 117.305 83.5428C117.305 83.6784 117.306 83.814 117.306 83.9496L117.306 83.9631C117.306 84.153 117.292 84.3429 117.278 84.5194C117.292 84.4243 117.364 84.1524 117.263 84.5195C117.22 84.6962 117.162 84.873 117.104 85.0499C117.089 85.1314 116.944 85.4175 117.118 85.0633C116.958 85.3903 116.769 85.704 116.551 85.9773C116.799 85.6766 116.595 85.9226 116.537 85.9774C116.406 86.1007 116.26 86.2242 116.144 86.3474C115.882 86.6075 116.057 86.416 116.144 86.3609C115.998 86.4708 115.838 86.5673 115.663 86.6503C115.547 86.7057 115.445 86.7609 115.328 86.8163C114.833 87.0787 115.693 86.745 115.139 86.8859C115.008 86.9143 114.892 86.9561 114.76 86.9981C114.629 87.0265 114.513 87.0547 114.382 87.0831C114.644 87.0534 114.629 87.0536 114.367 87.0832C114.148 87.0854 113.944 87.1009 113.74 87.1029L111.598 87.1236L90.7437 87.3256C85.5847 87.3756 80.4113 87.4935 75.2377 87.4758C75.0628 87.4775 74.8733 87.4657 74.6984 87.4539C74.334 87.4303 75.165 87.585 74.5964 87.4278C74.436 87.3886 74.2756 87.3495 74.1298 87.3102C74.0278 87.2841 73.634 87.1388 74.0278 87.2977C73.8528 87.2316 73.6778 87.1519 73.5173 87.0585C73.3569 86.9652 73.1964 86.8718 73.0359 86.7784C73.1235 86.8318 73.2987 87.02 73.0359 86.7649C72.9045 86.6441 72.7732 86.5098 72.6418 86.4026C72.5835 86.3489 72.379 86.1068 72.6273 86.4027C72.4374 86.1605 72.2913 85.9043 72.1305 85.6482C71.8529 85.1898 72.2039 85.9865 72.0574 85.4726C72.0134 85.2968 71.9548 85.1211 71.8962 84.9453C71.7205 84.4182 71.8966 85.1759 71.8669 84.8507C71.8521 84.6881 71.8518 84.539 71.837 84.3764L71.837 84.3628L71.8368 84.2544L71.836 83.7527L71.8273 78.4237L71.7943 58.2064L71.7627 38.8704L71.7558 34.6263L71.7546 33.8941C71.7681 33.2566 71.7963 32.6326 71.8535 31.9947C71.8822 31.6826 71.9108 31.3704 71.9394 31.0583C71.9538 30.9361 71.9682 30.8139 71.9826 30.6917C71.9969 30.5696 72.0691 30.1214 72.0114 30.4881C72.4007 27.9486 73.0962 25.4469 74.127 23.0639C74.1705 22.955 74.2287 22.846 74.2722 22.7235C74.0834 23.1457 74.3302 22.5874 74.3593 22.5464C74.49 22.2739 74.6208 22.0015 74.7661 21.7289C75.0711 21.1293 75.3908 20.5431 75.725 19.9704C76.3354 18.9204 77.0187 17.9103 77.7604 16.9404C77.9494 16.6945 78.1385 16.4621 78.3276 16.2162C78.7057 15.738 78.0512 16.5308 78.4585 16.0658C78.5312 15.9702 78.6185 15.8744 78.6912 15.7923C79.1276 15.2864 79.5786 14.7803 80.0587 14.3011C80.9607 13.3703 81.9066 12.4933 82.9108 11.67C83.3911 11.2721 83.886 10.8876 84.3809 10.5303C84.0316 10.7913 84.7448 10.2691 84.8467 10.2003C85.1233 10.0078 85.4145 9.81515 85.7056 9.63605C86.7829 8.93407 87.9186 8.29931 89.069 7.71866C89.6369 7.44196 90.2194 7.16513 90.802 6.91541C90.9767 6.84592 91.1515 6.76286 91.3262 6.69337C91.3991 6.66555 91.7195 6.5404 91.3408 6.69323C91.7049 6.55411 92.0545 6.41513 92.4186 6.28956C93.7003 5.82967 95.0113 5.4373 96.337 5.12615C96.978 4.97078 97.619 4.84252 98.2746 4.7277C98.5951 4.67035 98.9302 4.61287 99.2508 4.56909C99.3819 4.55426 99.513 4.52586 99.6442 4.51104C99.1488 4.58363 99.8045 4.49593 99.8627 4.4818C101.203 4.31966 102.558 4.23873 103.914 4.22561L101.724 2.21285C101.733 7.6638 101.742 13.1148 101.751 18.5657C101.752 19.3522 101.754 20.1386 101.755 20.9251C102.483 20.24 103.21 19.555 103.938 18.87C97.4526 18.987 91.4106 22.6389 88.8547 28.2367C87.2429 31.7914 87.4966 35.4772 87.5028 39.2332C87.5048 40.4943 87.5069 41.7689 87.509 43.0299C87.5108 44.1283 88.5178 45.0541 89.6983 45.0427C93.1522 45.0093 96.606 44.9758 100.045 44.9425C104.446 44.8999 108.833 44.8574 113.234 44.8147C113.424 44.8129 113.613 44.8111 113.803 44.8092C113.832 44.809 113.861 44.8087 113.89 44.8084C114.094 44.8064 114.298 44.818 114.488 44.8297C114.05 44.7933 114.735 44.8951 114.867 44.9345C114.983 44.9605 115.115 44.9999 115.231 45.0395C115.027 44.9737 115.056 44.9598 115.231 45.053C115.45 45.1594 115.669 45.2793 115.888 45.3992C115.917 45.4125 116.165 45.5864 115.975 45.4526C115.756 45.292 116.15 45.6001 116.179 45.6405C116.267 45.721 116.72 46.2048 116.457 45.8819C116.588 46.0433 116.705 46.2185 116.822 46.3936C116.88 46.5015 116.939 46.5959 116.997 46.7038C117.143 46.9736 116.895 46.42 116.997 46.7174C117.071 46.9472 117.144 47.177 117.202 47.4069C117.261 47.6369 117.202 47.3527 117.202 47.3256C117.232 47.5151 117.247 47.7048 117.247 47.8946C117.263 48.9521 118.241 49.9732 119.436 49.9074C120.602 49.8419 121.65 48.991 121.619 47.8523C121.54 43.8665 118.095 40.7404 113.825 40.7411C112.441 40.7409 111.071 40.7678 109.686 40.7812L93.8888 40.9342L89.6916 40.9748C90.4214 41.6457 91.1512 42.3167 91.881 42.9876L91.8688 35.5163L91.8669 34.3501C91.8663 33.9976 91.8803 33.6585 91.9089 33.3056C91.9517 32.7493 92.0239 32.3282 92.2121 31.5941C92.835 29.2558 94.1143 27.318 96.1228 25.6713C96.5303 25.3284 96.4284 25.4107 96.8214 25.1493C97.1271 24.9429 97.4474 24.75 97.7678 24.5706C98.0881 24.3912 98.423 24.2253 98.7579 24.0593C98.889 23.9902 99.0346 23.9346 99.1657 23.8791C99.8065 23.6017 98.8161 23.9774 99.4861 23.7539C100.214 23.5164 100.943 23.2924 101.7 23.1494C101.89 23.1069 102.079 23.0779 102.269 23.049C102.429 23.0203 102.429 23.0203 102.269 23.049C102.385 23.0343 102.502 23.0196 102.618 23.0185C103.055 22.9736 103.493 22.9558 103.93 22.9516C105.11 22.9266 106.114 22.0083 106.112 20.8964L106.086 4.54357L106.082 2.18421C106.08 1.08587 105.073 0.160008 103.893 0.171441C92.1757 0.31204 81.196 5.7067 74.288 14.5332C71.0157 18.7142 68.7795 23.6717 67.8988 28.7651C67.4801 31.1693 67.3674 33.5704 67.3714 35.9976C67.3805 41.557 67.3895 47.1165 67.3986 52.6759C67.4106 59.9981 67.4225 67.3202 67.4345 74.6424C67.4385 77.1238 67.4426 79.6188 67.4466 82.1002C67.4493 83.7138 67.3063 85.4373 67.9501 86.9633C69.1351 89.7587 71.9507 91.562 75.2006 91.5712C75.667 91.5667 76.1479 91.562 76.6143 91.5575C79.3832 91.5307 82.1521 91.5039 84.9211 91.4771C92.6012 91.4027 100.296 91.3281 107.976 91.2538C109.914 91.235 111.853 91.2298 113.805 91.1973C118.265 91.1405 121.67 87.8125 121.663 83.6904C121.669 78.2529 121.645 72.8156 121.636 67.3782L121.606 48.9236L121.604 47.866C121.603 46.8083 120.595 45.7876 119.415 45.8532C118.249 45.9052 117.245 46.7556 117.247 47.8946Z" fill="#CFDCFF"/>
<path d="M49.9894 48.2667C49.9968 52.782 50.0041 57.2838 50.0115 61.7992C50.0223 68.4027 50.0331 75.0198 50.0438 81.6233C50.0451 82.3826 50.0463 83.142 50.0476 83.9149C50.0478 84.0505 50.048 84.1861 50.0482 84.3216L50.0483 84.3352C50.0486 84.525 50.0343 84.715 50.02 84.8914C50.0344 84.7964 50.1069 84.5245 50.0055 84.8916C49.962 85.0683 49.904 85.2451 49.846 85.422C49.8316 85.5034 49.6863 85.7896 49.8606 85.4354C49.7008 85.7624 49.5119 86.0761 49.2937 86.3494C49.541 86.0487 49.3374 86.2947 49.2792 86.3495C49.1482 86.4728 49.0027 86.5963 48.8863 86.7194C48.6244 86.9796 48.7989 86.7881 48.8863 86.733C48.7407 86.8429 48.5806 86.9393 48.4058 87.0224C48.2893 87.0778 48.1874 87.133 48.0709 87.1884C47.5758 87.4508 48.4351 87.117 47.8816 87.258C47.7505 87.2864 47.6339 87.3282 47.5028 87.3701C47.3717 87.3985 47.2552 87.4268 47.1241 87.4552C47.3863 87.4255 47.3718 87.4256 47.1095 87.4553C46.8909 87.4574 46.6869 87.473 46.4829 87.4749L44.3406 87.4957L23.4861 87.6977C18.3272 87.7476 13.1538 87.8655 7.98011 87.8479C7.80523 87.8495 7.61575 87.8378 7.44085 87.826C7.07647 87.8024 7.90742 87.957 7.33879 87.7998C7.17842 87.7607 7.01805 87.7216 6.87225 87.6823C6.7702 87.6562 6.37647 87.5108 6.77021 87.6697C6.59522 87.6036 6.42021 87.524 6.25975 87.4306C6.09929 87.3372 5.93883 87.2439 5.77837 87.1505C5.8659 87.2039 6.04109 87.392 5.77834 87.1369C5.64699 87.0162 5.5156 86.8819 5.38427 86.7746C5.32588 86.721 5.12145 86.4789 5.36969 86.7748C5.17984 86.5326 5.03369 86.2763 4.87296 86.0203C4.59531 85.5619 4.94638 86.3585 4.79981 85.8447C4.7558 85.6688 4.69721 85.4931 4.63863 85.3174C4.46289 84.7903 4.63901 85.5479 4.60934 85.2228C4.5945 85.0602 4.59425 84.911 4.57941 84.7485L4.57939 84.7349L4.57922 84.6264L4.5784 84.1247L4.5697 78.7958L4.53671 58.5785L4.50516 39.2425L4.49823 34.9984L4.49704 34.2661C4.51057 33.6287 4.5387 33.0047 4.59595 32.3668C4.62459 32.0546 4.65322 31.7425 4.68186 31.4303C4.69623 31.3082 4.71061 31.186 4.72498 31.0638C4.73936 30.9416 4.8115 30.4935 4.7538 30.8601C5.14314 28.3207 5.83859 25.8189 6.86942 23.436C6.91296 23.3271 6.97108 23.218 7.0146 23.0956C6.82583 23.5178 7.07268 22.9594 7.10176 22.9185C7.23248 22.646 7.36319 22.3735 7.50848 22.1009C7.81355 21.5013 8.13321 20.9152 8.46747 20.3424C9.07784 19.2924 9.76115 18.2824 10.5028 17.3124C10.6919 17.0665 10.881 16.8342 11.07 16.5883C11.4481 16.11 10.7936 16.9028 11.2009 16.4379C11.2736 16.3422 11.3609 16.2465 11.4337 16.1644C11.87 15.6585 12.321 15.1524 12.8011 14.6731C13.7032 13.7423 14.649 12.8654 15.6533 12.042C16.1335 11.6442 16.6284 11.2597 17.1233 10.9023C16.774 11.1634 17.4872 10.6412 17.5891 10.5724C17.8657 10.3799 18.1569 10.1872 18.4481 10.0081C19.5254 9.30614 20.6611 8.67138 21.8114 8.09073C22.3793 7.81403 22.9618 7.5372 23.5444 7.28748C23.7191 7.21799 23.8939 7.13493 24.0687 7.06544C24.1415 7.03762 24.4619 6.91247 24.0832 7.0653C24.4474 6.92618 24.7969 6.7872 25.161 6.66163C26.4427 6.20174 27.7537 5.80938 29.0794 5.49822C29.7204 5.34285 30.3614 5.21459 31.017 5.09977C31.3376 5.04242 31.6727 4.98494 31.9932 4.94116C32.1244 4.92633 32.2555 4.89793 32.3866 4.88311C31.8912 4.9557 32.5469 4.868 32.6052 4.85387C33.9457 4.69173 35.3009 4.6108 36.6562 4.59768L34.4669 2.58492C34.4758 8.03587 34.4847 13.4868 34.4936 18.9378C34.4948 19.7242 34.4961 20.5107 34.4974 21.2971C35.225 20.6121 35.9525 19.9271 36.6801 19.242C30.1951 19.3591 24.153 23.011 21.5972 28.6088C19.9853 32.1635 20.2391 35.8493 20.2452 39.6053C20.2473 40.8664 20.2493 42.141 20.2514 43.402C20.2532 44.5003 21.2603 45.4262 22.4407 45.4148C25.8946 45.3813 29.3485 45.3479 32.7878 45.3146C37.1889 45.2719 41.5755 45.2294 45.9766 45.1868C46.1661 45.185 46.3556 45.1831 46.545 45.1813C46.5742 45.181 46.6033 45.1807 46.6324 45.1805C46.8365 45.1785 47.0405 45.1901 47.23 45.2018C46.7927 45.1654 47.4779 45.2672 47.6091 45.3066C47.7257 45.3326 47.8569 45.372 47.9736 45.4115C47.7695 45.3457 47.7986 45.3319 47.9736 45.4251C48.1924 45.5315 48.4112 45.6514 48.63 45.7713C48.6592 45.7846 48.9072 45.9585 48.7175 45.8247C48.4987 45.6641 48.8926 45.9722 48.9219 46.0126C49.0094 46.0931 49.462 46.5768 49.1991 46.254C49.3306 46.4154 49.4474 46.5905 49.5643 46.7657C49.6228 46.8736 49.6812 46.968 49.7397 47.0759C49.8859 47.3456 49.6372 46.7921 49.7397 47.0894C49.813 47.3192 49.8862 47.549 49.9449 47.779C50.0036 48.0089 49.9448 47.7247 49.9448 47.6976C49.9742 47.8872 49.9891 48.0769 49.9894 48.2667C50.0057 49.3242 50.9838 50.3453 52.1787 50.2795C53.3445 50.2139 54.3924 49.3631 54.3614 48.2244C54.282 44.2385 50.8376 41.1125 46.5675 41.1132C45.183 41.113 43.8132 41.1398 42.4287 41.1532L26.6312 41.3062L22.4341 41.3469C23.1638 42.0178 23.8936 42.6887 24.6234 43.3597L24.6112 35.8883L24.6093 34.7222C24.6087 34.3697 24.6227 34.0305 24.6513 33.6777C24.6941 33.1213 24.7663 32.7003 24.9546 31.9662C25.5774 29.6279 26.8567 27.69 28.8652 26.0434C29.2727 25.7005 29.1708 25.7828 29.5639 25.5213C29.8696 25.315 30.1899 25.1221 30.5102 24.9427C30.8305 24.7633 31.1654 24.5973 31.5004 24.4314C31.6314 24.3623 31.7771 24.3067 31.9081 24.2511C32.5489 23.9737 31.5585 24.3495 32.2285 24.126C32.9568 23.8884 33.6852 23.6644 34.4427 23.5215C34.6321 23.479 34.8215 23.45 35.011 23.4211C35.1712 23.3924 35.1712 23.3924 35.011 23.4211C35.1275 23.4064 35.2441 23.3917 35.3607 23.3906C35.7978 23.3456 36.235 23.3279 36.6722 23.3236C37.8526 23.2986 38.8567 22.3804 38.8549 21.2685L38.8282 4.91564L38.8243 2.55628C38.8225 1.45794 37.8154 0.532079 36.635 0.543512C24.9181 0.684111 13.9384 6.07877 7.03039 14.9053C3.75816 19.0863 1.52192 24.0437 0.641241 29.1372C0.222528 31.5413 0.109859 33.9425 0.11382 36.3697C0.122892 41.9291 0.131964 47.4885 0.141036 53.048C0.152985 60.3701 0.164933 67.6923 0.176882 75.0145C0.180931 77.4959 0.185003 79.9909 0.189052 82.4723C0.191685 84.0859 0.0487626 85.8093 0.692491 87.3354C1.87751 90.1308 4.69315 91.9341 7.94307 91.9433C8.40942 91.9388 8.89034 91.9341 9.35669 91.9296C12.1256 91.9028 14.8946 91.8759 17.6635 91.8491C25.3436 91.7747 33.0384 91.7002 40.7185 91.6258C42.6568 91.6071 44.595 91.6018 46.5478 91.5694C51.0073 91.5126 54.412 88.1846 54.4053 84.0625C54.411 78.625 54.3876 73.1877 54.3787 67.7503L54.3486 49.2957L54.3469 48.2381C54.3451 47.1804 53.3379 46.1596 52.1575 46.2253C50.9917 46.2773 49.9875 47.1277 49.9894 48.2667Z" fill="#CFDCFF"/>
</svg>
