<svg width="56" height="57" viewBox="0 0 56 57" fill="none" xmlns="http://www.w3.org/2000/svg">
<path d="M7 5.34375H8.75V7.125H7V5.34375Z" fill="black"/>
<path d="M10.5 5.34375H12.25V7.125H10.5V5.34375Z" fill="black"/>
<path d="M14 5.34375H15.75V7.125H14V5.34375Z" fill="black"/>
<path d="M7.875 24.9375H21.875C22.1071 24.9375 22.3296 24.8437 22.4937 24.6766C22.6578 24.5096 22.75 24.2831 22.75 24.0469V15.1406C22.75 14.9044 22.6578 14.6779 22.4937 14.5109C22.3296 14.3438 22.1071 14.25 21.875 14.25H7.875C7.64294 14.25 7.42038 14.3438 7.25628 14.5109C7.09219 14.6779 7 14.9044 7 15.1406V24.0469C7 24.2831 7.09219 24.5096 7.25628 24.6766C7.42038 24.8437 7.64294 24.9375 7.875 24.9375ZM8.75 16.0312H21V23.1562H8.75V16.0312Z" fill="black"/>
<path d="M29.75 15.1406H43.75V16.9219H29.75V15.1406Z" fill="black"/>
<path d="M26.25 18.7031H42V20.4844H26.25V18.7031Z" fill="black"/>
<path d="M26.25 22.2656H38.5V24.0469H26.25V22.2656Z" fill="black"/>
<path d="M10.5 28.5H33.25V30.2812H10.5V28.5Z" fill="black"/>
<path d="M7 32.0625H29.75V33.8438H7V32.0625Z" fill="black"/>
<path d="M7 35.625H26.25V37.4062H7V35.625Z" fill="black"/>
<path d="M7 39.1875H26.25V40.9688H7V39.1875Z" fill="black"/>
<path d="M7 42.75H26.25V44.5312H7V42.75Z" fill="black"/>
<path d="M7 28.5H8.75V30.2812H7V28.5Z" fill="black"/>
<path d="M49.875 7.125H49V6.23438C49 5.05333 48.5391 3.92066 47.7186 3.08554C46.8981 2.25042 45.7853 1.78125 44.625 1.78125H6.125C4.96468 1.78125 3.85188 2.25042 3.03141 3.08554C2.21094 3.92066 1.75 5.05333 1.75 6.23438V45.4219C1.75 46.6029 2.21094 47.7356 3.03141 48.5707C3.85188 49.4058 4.96468 49.875 6.125 49.875H7V50.7656C7 51.9467 7.46094 53.0793 8.28141 53.9145C9.10188 54.7496 10.2147 55.2188 11.375 55.2188H49.875C51.0353 55.2188 52.1481 54.7496 52.9686 53.9145C53.7891 53.0793 54.25 51.9467 54.25 50.7656V11.5781C54.25 10.3971 53.7891 9.26441 52.9686 8.42929C52.1481 7.59417 51.0353 7.125 49.875 7.125ZM48.3088 20.9653L52.0275 24.7505L49.5513 27.2709L45.8325 23.4858L48.3088 20.9653ZM32.4888 38.8758L33.18 37.05L36.225 40.1494L34.4312 40.853L32.4888 38.8758ZM32.6463 41.5477L31.2725 42.0909L31.8062 40.6927L32.6463 41.5477ZM35.315 36.7116L34.0812 35.4558L44.5988 24.7505L45.8325 26.0063L35.315 36.7116ZM47.075 27.2709L48.3088 28.5267L37.7912 39.232L36.5575 37.9762L47.075 27.2709ZM3.5 6.23438C3.50208 5.5264 3.77931 4.84803 4.27114 4.34741C4.76297 3.84679 5.42945 3.56461 6.125 3.5625H44.625C45.3206 3.56461 45.987 3.84679 46.4789 4.34741C46.9707 4.84803 47.2479 5.5264 47.25 6.23438V8.90625H3.5V6.23438ZM6.125 48.0938C5.42945 48.0916 4.76297 47.8095 4.27114 47.3088C3.77931 46.8082 3.50208 46.1298 3.5 45.4219V10.6875H47.25V19.5314L32.2263 34.8234C32.1386 34.912 32.07 35.0181 32.025 35.1352L28.9362 43.32C28.8727 43.4805 28.8571 43.6565 28.8913 43.826C28.9256 43.9955 29.0082 44.151 29.1287 44.273C29.2943 44.4391 29.5176 44.5319 29.75 44.5312C29.858 44.5322 29.9652 44.5109 30.065 44.4689L38.1063 41.325C38.2212 41.2792 38.3255 41.2094 38.4125 41.1202L47.25 32.1248V45.4219C47.2479 46.1298 46.9707 46.8082 46.4789 47.3088C45.987 47.8095 45.3206 48.0916 44.625 48.0938H6.125ZM52.5 50.7656C52.4979 51.4736 52.2207 52.152 51.7289 52.6526C51.237 53.1532 50.5706 53.4354 49.875 53.4375H11.375C10.6794 53.4354 10.013 53.1532 9.52114 52.6526C9.02931 52.152 8.75208 51.4736 8.75 50.7656V49.875H44.625C45.7853 49.875 46.8981 49.4058 47.7186 48.5707C48.5391 47.7356 49 46.6029 49 45.4219V30.3436L52.5 26.7811V50.7656ZM52.5 22.7109L49 19.1484V16.0312H52.5V22.7109ZM52.5 14.25H49V8.90625H49.875C50.5706 8.90836 51.237 9.19054 51.7289 9.69116C52.2207 10.1918 52.4979 10.8701 52.5 11.5781V14.25Z" fill="black"/>
<path d="M26.25 15.1406H28V16.9219H26.25V15.1406Z" fill="black"/>
</svg>
