<svg width="62" height="62" viewBox="0 0 62 62" fill="none" xmlns="http://www.w3.org/2000/svg">
<g clip-path="url(#clip0_157_666)">
<path d="M26.1686 29.5567H56.6363C59.06 29.5567 61.0317 27.5849 61.0317 25.1612V5.39302C61.0317 2.96933 59.06 0.997559 56.6363 0.997559H26.1686C23.7449 0.997559 21.7733 2.96933 21.7733 5.39302V15.229H16.774C18.2977 13.906 19.264 11.9576 19.264 9.78666C19.264 5.8091 16.028 2.57323 12.0504 2.57323C8.07283 2.57323 4.84036 5.80922 4.84036 9.78666C4.84036 11.9653 5.81286 13.9197 7.34506 15.2429C3.79277 15.4581 0.968262 18.415 0.968262 22.0204V32.174C0.968262 34.0637 2.47685 35.6065 4.35283 35.6639V45.7189C4.35283 46.2545 4.78695 46.6887 5.32255 46.6887H8.99714V47.1744C8.99714 48.1085 9.757 48.8683 10.6911 48.8683H13.9568C13.2269 49.8302 12.7923 51.0276 12.7904 52.3248C10.6535 52.6026 8.99714 54.4333 8.99714 56.6447V59.1607C8.99714 60.1762 9.82324 61.0023 10.8387 61.0023H59.19C60.2055 61.0023 61.0316 60.1762 61.0316 59.1607V56.6447C61.0316 54.4333 59.3753 52.6026 57.2383 52.3248C57.2364 51.0276 56.8018 49.8301 56.072 48.8683H59.3376C60.2717 48.8683 61.0316 48.1085 61.0316 47.1744V42.9969C61.0316 42.0629 60.2717 41.303 59.3376 41.303H56.237C55.8396 38.2531 53.228 35.8898 50.0731 35.8898C46.9183 35.8898 44.3035 38.2531 43.9058 41.303H41.1817C40.784 38.2531 38.1709 35.8898 35.0144 35.8898C31.8578 35.8898 29.248 38.2531 28.8506 41.303H26.1231C25.7256 38.2531 23.114 35.8898 19.9592 35.8898C19.8884 35.8898 19.8183 35.8928 19.7481 35.8951V32.492C20.2327 32.4382 20.6097 32.0277 20.6097 31.5287V22.2144H21.7733V25.1612C21.7733 27.5849 23.7449 29.5567 26.1686 29.5567ZM23.7127 5.39302C23.7127 4.03871 24.8145 2.937 26.1686 2.937H56.6363C57.9906 2.937 59.0923 4.03883 59.0923 5.39302V25.1612C59.0923 26.5155 57.9905 27.6172 56.6363 27.6172H26.1686C24.8144 27.6172 23.7127 26.5154 23.7127 25.1612V22.2144H27.7546C29.6804 22.2144 31.2473 20.6477 31.2473 18.7217C31.2473 16.7957 29.6806 15.229 27.7546 15.229H23.7127V5.39302ZM6.77979 9.78666C6.77979 6.87848 9.14415 4.51255 12.0504 4.51255C14.9566 4.51255 17.3246 6.87848 17.3246 9.78666C17.3246 12.6949 14.9587 15.0574 12.0504 15.0574C9.14209 15.0574 6.77979 12.693 6.77979 9.78666ZM6.29239 44.7493V35.1465C7.20168 34.5842 7.83537 33.6172 7.9389 32.4984H11.0808V41.303H10.6912C9.75712 41.303 8.99726 42.0629 8.99726 42.9969V44.7493H6.29239ZM10.9367 43.2424H13.8426C14.115 44.7189 14.9092 46.0145 16.0277 46.929H10.9367V43.2424ZM26.0724 43.2424H28.9013C29.1737 44.7189 29.9673 46.0145 31.0852 46.929H23.8885C25.0065 46.0145 25.8001 44.7189 26.0724 43.2424ZM41.1311 43.2424H43.9565C44.229 44.7189 45.0231 46.0145 46.1417 46.929H38.9458C40.0643 46.0145 40.8585 44.7189 41.1309 43.2424H41.1311ZM18.5347 48.5286H21.3803C23.4629 48.5286 25.1592 50.2104 25.1841 52.2872H14.7308C14.7559 50.2104 16.452 48.5286 18.5346 48.5286H18.5347ZM27.1235 52.2872C27.1134 51.0044 26.6808 49.8209 25.9581 48.8685H29.0156C28.2929 49.8209 27.8605 51.0046 27.8502 52.2872H27.1235ZM33.5935 48.5286H36.4392C38.5198 48.5286 40.2145 50.2104 40.2396 52.2872H29.7897C29.8147 50.2104 31.5109 48.5286 33.5935 48.5286ZM42.1789 52.2872C42.1687 51.0044 41.7365 49.8209 41.0142 48.8685H44.0736C43.3513 49.8209 42.9193 51.0046 42.909 52.2872H42.1789ZM48.6488 48.5286H51.4944C53.577 48.5286 55.2732 50.2104 55.2982 52.2872H44.8484C44.8735 50.2104 46.5681 48.5286 48.6488 48.5286ZM59.0924 56.6449V59.0631H10.9366V56.6449C10.9366 55.3114 12.0215 54.2265 13.3549 54.2265H56.6739C58.0074 54.2265 59.0923 55.3114 59.0923 56.6449H59.0924ZM59.0924 46.929H54.0026C55.1205 46.0145 55.9142 44.7189 56.1865 43.2424H59.0924V46.929ZM50.0734 37.8292C52.4326 37.8292 54.3521 39.7501 54.3521 42.1113C54.3521 44.4725 52.4326 46.3934 50.0734 46.3934C47.7141 46.3934 45.7912 44.4725 45.7912 42.1113C45.7912 39.7501 47.7121 37.8292 50.0734 37.8292ZM35.0146 37.8292C37.3758 37.8292 39.2967 39.7501 39.2967 42.1113C39.2967 44.4725 37.3758 46.3934 35.0146 46.3934C32.6534 46.3934 30.736 44.4725 30.736 42.1113C30.736 39.7501 32.6555 37.8292 35.0146 37.8292ZM24.2381 42.1113C24.2381 44.4725 22.3187 46.3934 19.9594 46.3934C17.6001 46.3934 15.6773 44.4725 15.6773 42.1113C15.6773 39.7501 17.5982 37.8292 19.9594 37.8292C22.3206 37.8292 24.2381 39.7501 24.2381 42.1113ZM13.7921 41.303H13.0204V32.4984H17.8089V36.2733C15.6781 37.0606 14.0946 38.9832 13.7921 41.303ZM19.6402 20.2751C19.1046 20.2751 18.6705 20.7092 18.6705 21.2448V30.5591H7.95368V22.7139C7.95368 22.1783 7.51955 21.7442 6.98396 21.7442C6.44836 21.7442 6.01424 22.1783 6.01424 22.7139V31.3915C6.01424 31.4146 6.01605 31.4374 6.01775 31.4601C6.01618 31.4829 6.01424 31.5056 6.01424 31.5288V32.1741C6.01424 33.0306 5.31746 33.7274 4.46097 33.7274C3.60447 33.7274 2.9077 33.0306 2.9077 32.1741V22.0205C2.9077 19.3451 5.08436 17.1685 7.75968 17.1685H27.7546C28.6111 17.1685 29.3078 17.8653 29.3078 18.7218C29.3078 19.5783 28.6111 20.2751 27.7546 20.2751H19.6399H19.6402ZM43.5979 16.9403C43.5979 17.4759 43.1637 17.91 42.6281 17.91H33.2572C32.7216 17.91 32.2875 17.4759 32.2875 16.9403C32.2875 16.4047 32.7216 15.9706 33.2572 15.9706H42.6281C43.1637 15.9706 43.5979 16.4047 43.5979 16.9403ZM54.5169 16.9403C54.5169 17.4759 54.0828 17.91 53.5472 17.91H47.4235C46.8879 17.91 46.4537 17.4759 46.4537 16.9403C46.4537 16.4047 46.8879 15.9706 47.4235 15.9706H53.5472C54.0828 15.9706 54.5169 16.4047 54.5169 16.9403ZM54.5169 12.1209C54.5169 12.6565 54.0828 13.0906 53.5472 13.0906H38.2688C37.7332 13.0906 37.299 12.6565 37.299 12.1209C37.299 11.5853 37.7332 11.1511 38.2688 11.1511H53.5472C54.0828 11.1511 54.5169 11.5853 54.5169 12.1209ZM28.2883 7.30146C28.2883 6.76586 28.7225 6.33174 29.2581 6.33174H53.5469C54.0825 6.33174 54.5166 6.76586 54.5166 7.30146C54.5166 7.83706 54.0825 8.27118 53.5469 8.27118H29.2581C28.7225 8.27118 28.2883 7.83706 28.2883 7.30146ZM28.2883 12.1207C28.2883 11.5851 28.7225 11.151 29.2581 11.151H34.9253C35.4608 11.151 35.895 11.5851 35.895 12.1207C35.895 12.6563 35.4608 13.0905 34.9253 13.0905H29.2581C28.7225 13.0905 28.2883 12.6563 28.2883 12.1207Z" fill="black"/>
</g>
<defs>
<clipPath id="clip0_157_666">
<rect width="62" height="62" fill="white"/>
</clipPath>
</defs>
</svg>
