<svg width="60" height="60" viewBox="0 0 60 60" fill="none" xmlns="http://www.w3.org/2000/svg">
<path d="M12.2847 40.0928C12.7252 40.5896 13.3299 40.9284 14.0172 41.0268C14.1364 41.3237 14.3597 41.6678 14.7863 41.9698C15.0912 43.068 16.0361 44.6959 17.9546 44.6959H18.0241C19.9603 44.728 20.998 43.0823 21.3207 41.9734C21.8663 41.5864 22.0873 41.1282 22.1747 40.7913C22.337 40.1673 22.1498 39.6056 22.0124 39.3115L22.0107 38.8782C22.016 38.732 22.0142 38.5965 22.0089 38.47C22.0766 36.3465 20.3597 35.5209 20.3009 35.4925C19.1128 34.9089 18.0978 34.9088 17.2878 35.1571V28.5088H22.4547V31.267C22.4547 31.6699 22.7827 31.9981 23.1857 31.9981H54.8042C55.2071 31.9981 55.5352 31.67 55.5352 31.267V8.82867C55.5352 8.42578 55.2072 8.09766 54.8042 8.09766H23.1857C22.7828 8.09766 22.4547 8.42566 22.4547 8.82867V22.6518H20.3615V20.6638C20.3615 17.0872 17.45 14.1757 13.8734 14.1757H9.3394C5.76284 14.1757 2.85132 17.0872 2.85132 20.6638V31.1742C2.85132 32.7984 4.17249 34.1196 5.79671 34.1196C6.33999 34.1196 6.84272 33.9616 7.28007 33.7042V38.1989C7.28007 39.7804 8.56737 41.0677 10.1471 41.0677C11 41.0677 11.7587 40.6857 12.2847 40.0928ZM19.6608 36.8065C19.7571 36.8547 20.5933 37.3039 20.5487 38.4432C20.547 38.4628 20.547 38.4843 20.5487 38.5038C20.5523 38.6072 20.5541 38.7196 20.5505 38.8604L20.5523 39.4916C20.554 39.6289 20.5915 39.7627 20.6646 39.8786C20.6664 39.8821 20.8269 40.1709 20.761 40.4259C20.7182 40.5881 20.5737 40.738 20.3312 40.8717C20.144 40.9751 20.0103 41.1587 19.9657 41.3692C19.9514 41.4458 19.5664 43.2359 18.0616 43.2359C18.049 43.2359 18.0366 43.2359 18.0241 43.2341C18.0115 43.2359 17.9991 43.2359 17.9866 43.2359C16.5174 43.2359 16.1609 41.4547 16.1466 41.3781C16.1056 41.1641 15.9701 40.977 15.7793 40.8717C15.5404 40.7398 15.396 40.5918 15.3532 40.4331C15.2926 40.212 15.4049 39.9517 15.4477 39.8786C15.5208 39.7627 15.5582 39.6289 15.56 39.4916V38.8372C15.5404 38.1579 15.6687 37.7889 15.8791 37.6177C16.1732 37.6819 16.4764 37.5571 16.6385 37.3038C16.6525 37.2818 16.7888 37.0881 17.0404 36.8922C17.0541 36.8797 17.0692 36.8705 17.082 36.857C17.5524 36.512 18.4019 36.1887 19.6608 36.8065ZM23.9167 9.55969H54.0733V30.5359H23.9167V28.5087H24.0398C25.6533 28.5087 26.9673 27.1947 26.9673 25.5793C26.9673 25.2437 26.8988 24.9264 26.7942 24.6258L31.2749 20.4802C31.5709 20.2056 31.5887 19.7438 31.3159 19.4479C31.0396 19.1501 30.5778 19.1323 30.2836 19.4068L25.971 23.397C25.4542 22.9391 24.7825 22.6518 24.0398 22.6518H23.9167V9.55969ZM8.7421 38.1989V21.9244C8.7421 21.5215 8.41409 21.1934 8.01108 21.1934C7.60819 21.1934 7.28007 21.5214 7.28007 21.9244V31.1742C7.28007 31.9925 6.61503 32.6576 5.79671 32.6576C4.97839 32.6576 4.31335 31.9925 4.31335 31.1742V20.6638C4.31335 17.8914 6.56698 15.6377 9.3394 15.6377H13.8734C16.6458 15.6377 18.8994 17.8914 18.8994 20.6638V23.3828C18.8994 23.7857 19.2275 24.1138 19.6305 24.1138H24.0396C24.8473 24.1138 25.5052 24.7717 25.5052 25.5793C25.5052 26.3888 24.8473 27.0466 24.0396 27.0466H17.2876V21.9243C17.2876 21.5214 16.9596 21.1932 16.5566 21.1932C16.1537 21.1932 15.8256 21.5213 15.8256 21.9243V36.0251C15.7728 36.0771 15.7132 36.1288 15.6669 36.1806C15.4067 36.2198 15.1213 36.3268 14.8682 36.5407C14.3262 36.9935 14.0677 37.7798 14.0998 38.8567V39.3114C14.073 39.369 14.0444 39.4445 14.0167 39.5213C13.446 39.3398 13.0158 38.83 13.0158 38.1989V30.1739C13.0158 29.771 12.6878 29.4429 12.2848 29.4429C11.8818 29.4429 11.5538 29.7709 11.5538 30.1739V38.1989C11.5538 38.9745 10.9226 39.6056 10.1471 39.6056C9.37151 39.6056 8.7421 38.9745 8.7421 38.1989Z" fill="black"/>
<path d="M42.2291 18.7368C41.9706 18.6636 41.68 18.7457 41.4963 18.9525L38.9807 21.7464L35.6572 20.871C35.3684 20.7943 35.0475 20.9102 34.8709 21.1616L32.8651 24.0607L28.9605 24.6045C28.5612 24.6615 28.2831 25.0288 28.3383 25.4299C28.39 25.7937 28.702 26.0593 29.0604 26.0593C29.0943 26.0593 29.1281 26.0558 29.1637 26.0522L33.3858 25.4638C33.5872 25.4353 33.7691 25.3229 33.885 25.1554L35.7803 22.4132L39.0395 23.2725C39.2962 23.3385 39.5851 23.26 39.7669 23.055L42.2808 20.2629L44.9748 20.9939C45.2511 21.0723 45.5507 20.9725 45.7325 20.7497L49.4357 16.1871V18.1377C49.4357 18.5406 49.7637 18.8687 50.1667 18.8687C50.5696 18.8687 50.8977 18.5407 50.8977 18.1377V14.1279C50.8977 14.1161 50.8902 14.1061 50.8897 14.0943C50.886 14.0108 50.8646 13.9313 50.8327 13.8533C50.8247 13.8342 50.8242 13.8133 50.8148 13.795C50.7698 13.7076 50.7082 13.6272 50.6268 13.561C50.6224 13.5574 50.6169 13.557 50.6126 13.5535C50.6095 13.5511 50.6085 13.5472 50.6053 13.5449C50.5875 13.5315 50.5646 13.5301 50.5459 13.5185C50.4766 13.4754 50.406 13.44 50.3296 13.4224C50.2951 13.4143 50.2609 13.4161 50.2256 13.4132C50.154 13.4074 50.085 13.4092 50.0149 13.4244C49.9977 13.4282 49.9806 13.4221 49.9635 13.4272L46.0036 14.5719C45.6166 14.6824 45.3939 15.0872 45.5061 15.4759C45.6166 15.861 46.016 16.091 46.4101 15.9734L48.1323 15.476L44.8982 19.4608L42.2291 18.7368Z" fill="black"/>
<path d="M29.9 13.9742H42.195C42.5979 13.9742 42.9261 13.6462 42.9261 13.2432C42.9261 12.8403 42.598 12.5122 42.195 12.5122H29.9C29.4971 12.5122 29.1689 12.8402 29.1689 13.2432C29.1689 13.6461 29.4971 13.9742 29.9 13.9742Z" fill="black"/>
<path d="M29.9 17.4225H37.6611C38.0639 17.4225 38.3921 17.0945 38.3921 16.6915C38.3921 16.2886 38.0641 15.9604 37.6611 15.9604H29.9C29.4971 15.9604 29.1689 16.2885 29.1689 16.6915C29.1689 17.0945 29.4971 17.4225 29.9 17.4225Z" fill="black"/>
<path d="M37.2958 38.4699C37.3635 36.3465 35.6466 35.5209 35.5878 35.4924C33.3556 34.3959 31.7099 35.332 30.9539 36.1807C30.6937 36.2199 30.4083 36.3269 30.1552 36.5408C29.6132 36.9936 29.3547 37.7799 29.3868 38.8568V39.3115C29.2494 39.6056 29.0623 40.169 29.2245 40.7931C29.31 41.1282 29.5294 41.5847 30.0731 41.9697C30.3781 43.068 31.3229 44.6959 33.2414 44.6959H33.3109C35.2882 44.728 36.2849 43.0823 36.6075 41.9734C37.1531 41.5864 37.3742 41.1282 37.4616 40.7913C37.6239 40.1673 37.4366 39.6056 37.2994 39.3115L37.2976 38.8782C37.3029 38.732 37.3011 38.5965 37.2958 38.4699ZM36.0477 40.4258C36.0049 40.588 35.8604 40.7379 35.618 40.8716C35.4307 40.9749 35.297 41.1586 35.2525 41.369C35.2382 41.4457 34.8531 43.2357 33.3483 43.2357C33.3358 43.2357 33.3233 43.2357 33.3108 43.234C33.2983 43.2357 33.2858 43.2357 33.2734 43.2357C31.8042 43.2357 31.4478 41.4546 31.4335 41.3779C31.3924 41.164 31.257 40.9768 31.0662 40.8716C30.8272 40.7396 30.6829 40.5916 30.6401 40.4329C30.5795 40.2118 30.6918 39.9515 30.7345 39.8784C30.8077 39.7625 30.8451 39.6288 30.8468 39.4915V38.8371C30.8272 38.1577 30.9556 37.7887 31.1659 37.6175C31.4619 37.6817 31.7615 37.5569 31.9254 37.3037C31.9664 37.2412 32.931 35.8167 34.9474 36.8062C35.0438 36.8544 35.8799 37.3037 35.8354 38.443C35.8336 38.4625 35.8336 38.484 35.8354 38.5036C35.8389 38.6069 35.8408 38.7193 35.8371 38.8602L35.8389 39.4913C35.8406 39.6287 35.8781 39.7624 35.9513 39.8783C35.9533 39.882 36.1137 40.1708 36.0477 40.4258Z" fill="black"/>
<path d="M52.5826 38.4699C52.6504 36.3465 50.9334 35.5209 50.8746 35.4924C48.6424 34.3959 46.9968 35.332 46.2408 36.1807C45.9805 36.2199 45.6952 36.3269 45.442 36.5408C44.9 36.9936 44.6415 37.7799 44.6736 38.8568V39.3115C44.5363 39.6056 44.3491 40.169 44.5113 40.7931C44.5969 41.1282 44.8163 41.5847 45.36 41.9697C45.6649 43.068 46.6098 44.6959 48.5283 44.6959H48.5978C50.5393 44.728 51.5718 43.0823 51.8944 41.9734C52.44 41.5864 52.661 41.1282 52.7484 40.7913C52.9108 40.1673 52.7235 39.6056 52.5863 39.3115L52.5845 38.8782C52.5898 38.732 52.588 38.5965 52.5826 38.4699ZM51.3346 40.4258C51.2918 40.588 51.1473 40.7379 50.9049 40.8716C50.7176 40.9749 50.5839 41.1586 50.5393 41.369C50.525 41.4457 50.14 43.2357 48.6352 43.2357C48.6226 43.2357 48.6102 43.2357 48.5978 43.234C48.5852 43.2357 48.5728 43.2357 48.5603 43.2357C47.0911 43.2357 46.7346 41.4546 46.7203 41.3779C46.6793 41.164 46.5438 40.9768 46.3531 40.8716C46.1141 40.7396 45.9697 40.5916 45.927 40.4329C45.8664 40.2118 45.9786 39.9515 46.0214 39.8784C46.0945 39.7625 46.1319 39.6288 46.1337 39.4915V38.8371C46.1141 38.1577 46.2424 37.7887 46.4528 37.6175C46.7452 37.6817 47.0501 37.5569 47.2123 37.3037C47.2515 37.2412 48.2196 35.8167 50.2343 36.8062C50.3306 36.8544 51.1668 37.3037 51.1222 38.443C51.1205 38.4625 51.1205 38.484 51.1222 38.5036C51.1258 38.6069 51.1276 38.7193 51.124 38.8602L51.1258 39.4913C51.1275 39.6287 51.165 39.7624 51.238 39.8783C51.2401 39.882 51.4006 40.1708 51.3346 40.4258Z" fill="black"/>
<path d="M56.4179 52.8383H55.5353V48.9605C55.5353 47.6019 54.7972 46.3431 53.608 45.6763C52.6951 45.1646 51.7376 44.792 50.7606 44.5709C50.5414 44.5174 50.3167 44.5709 50.142 44.7117C49.969 44.8508 49.8674 45.0594 49.8674 45.2823C49.8674 46.0472 49.5234 46.7568 48.9189 47.2293L48.6302 47.4553L48.3394 47.2274C47.7369 46.7567 47.3927 46.0471 47.3927 45.2822C47.3927 45.0593 47.2911 44.8507 47.1181 44.7116C46.9434 44.5725 46.717 44.5191 46.4995 44.5708C45.5188 44.7937 44.5597 45.1644 43.6522 45.6762C42.463 46.343 41.723 47.6017 41.723 48.9604V52.8382H40.2486V48.9604C40.2486 47.6018 39.5104 46.343 38.3212 45.6762C37.4083 45.1644 36.4509 44.7919 35.4739 44.5708C35.2564 44.5173 35.03 44.5708 34.8553 44.7116C34.6823 44.8507 34.5807 45.0593 34.5807 45.2822C34.5807 46.0471 34.2366 46.7567 33.6322 47.2292L33.3434 47.4552L33.0527 47.2273C32.4501 46.7565 32.1059 46.047 32.1059 45.2821C32.1059 45.0592 32.0043 44.8506 31.8313 44.7115C31.6566 44.5724 31.4302 44.519 31.2127 44.5706C30.2321 44.7935 29.2729 45.1643 28.3654 45.6761C27.1762 46.3429 26.4363 47.6016 26.4363 48.9603V52.8381H24.9618V48.9603C24.9618 47.6017 24.2237 46.3429 23.0344 45.6761C22.1215 45.1643 21.1641 44.7918 20.1871 44.5706C19.9696 44.5172 19.7432 44.5706 19.5685 44.7115C19.3955 44.8506 19.2939 45.0592 19.2939 45.2821C19.2939 46.047 18.9499 46.7565 18.3454 47.229L18.0567 47.4551L17.7659 47.2272C17.1633 46.7564 16.8192 46.0469 16.8192 45.282C16.8192 45.0591 16.7176 44.8505 16.5446 44.7114C16.3699 44.5723 16.1417 44.5188 15.926 44.5705C14.9453 44.7934 13.9862 45.1642 13.0787 45.676C11.8894 46.3428 11.1495 47.6015 11.1495 48.9601V52.838H9.65338C9.25049 52.838 8.92236 53.166 8.92236 53.569V56.5982C8.92236 57.0011 9.25037 57.3292 9.65338 57.3292H56.4179C56.8208 57.3292 57.1489 57.0012 57.1489 56.5982V53.569C57.1489 53.1665 56.8209 52.8383 56.4179 52.8383ZM43.1849 48.9605C43.1849 48.1296 43.6378 47.3595 44.367 46.9493C44.9072 46.6444 45.4688 46.3984 46.0412 46.2112C46.2462 47.0633 46.7312 47.8247 47.439 48.3774L48.1789 48.9569C48.1947 48.9694 48.2143 48.9721 48.2308 48.983C48.273 49.011 48.3161 49.031 48.3626 49.0494C48.4056 49.0665 48.4469 49.0822 48.4917 49.0908C48.5378 49.0998 48.5825 49.101 48.6296 49.101C48.6767 49.101 48.7215 49.0998 48.7676 49.0908C48.8123 49.0822 48.8535 49.0668 48.8965 49.0496C48.9431 49.0312 48.9863 49.0111 49.0288 48.983C49.0455 48.9721 49.0651 48.9693 49.081 48.9569L49.8192 48.3792C50.5287 47.8247 51.0138 47.0635 51.2187 46.2112C51.7893 46.3984 52.3509 46.6444 52.8947 46.9493C53.6221 47.3576 54.0733 48.1296 54.0733 48.9605V52.8383H43.1849V48.9605ZM27.8981 48.9605C27.8981 48.1296 28.3509 47.3595 29.0801 46.9493C29.6204 46.6444 30.1819 46.3984 30.7543 46.2112C30.9594 47.0633 31.4443 47.8247 32.1521 48.3774L32.892 48.9569C32.9077 48.9693 32.9273 48.9719 32.9437 48.9829C32.9865 49.0112 33.0303 49.0316 33.0773 49.05C33.1197 49.0668 33.1604 49.0824 33.2045 49.0908C33.251 49.0998 33.2958 49.101 33.3431 49.101C33.3903 49.101 33.4351 49.0998 33.4816 49.0908C33.5259 49.0824 33.5664 49.0668 33.609 49.05C33.6561 49.0315 33.6999 49.0111 33.7427 48.9828C33.7591 48.972 33.7784 48.9693 33.7941 48.9569L34.5323 48.3792C35.2419 47.8247 35.7269 47.0635 35.9319 46.2112C36.5024 46.3984 37.064 46.6444 37.6078 46.9493C38.3351 47.3576 38.7863 48.1296 38.7863 48.9605V52.8383H27.8979L27.8981 48.9605ZM12.6112 48.9605C12.6112 48.1296 13.064 47.3595 13.7933 46.9493C14.3335 46.6444 14.8951 46.3984 15.4674 46.2112C15.6725 47.0633 16.1574 47.8247 16.8652 48.3774L17.6051 48.9569C17.621 48.9694 17.6405 48.9721 17.6571 48.983C17.6992 49.011 17.7424 49.031 17.7889 49.0494C17.8319 49.0665 17.8731 49.0822 17.9179 49.0908C17.9641 49.0998 18.0087 49.101 18.0558 49.101C18.1029 49.101 18.1477 49.0998 18.1939 49.0908C18.2385 49.0822 18.2798 49.0668 18.3228 49.0496C18.3693 49.0312 18.4126 49.0111 18.4551 48.983C18.4717 48.9721 18.4913 48.9693 18.5072 48.9569L19.2454 48.3792C19.955 47.8247 20.44 47.0635 20.645 46.2112C21.2156 46.3984 21.7771 46.6444 22.3209 46.9493C23.0483 47.3576 23.4994 48.1296 23.4994 48.9605V52.8383H12.6111L12.6112 48.9605ZM55.6869 55.8675H10.3844V54.3004H11.8803H24.2307H27.1672H39.5176H42.454H54.8044H55.687L55.6869 55.8675Z" fill="black"/>
<path d="M11.0849 12.5652C13.8128 12.5652 16.0325 10.3455 16.0325 7.61758C16.0325 4.88969 13.8128 2.66992 11.0849 2.66992C8.35697 2.66992 6.13721 4.88969 6.13721 7.61758C6.13721 10.3455 8.35697 12.5652 11.0849 12.5652ZM11.0849 4.13207C13.0069 4.13207 14.5705 5.6957 14.5705 7.6177C14.5705 9.53969 13.0069 11.1033 11.0849 11.1033C9.16287 11.1033 7.59924 9.53969 7.59924 7.6177C7.59924 5.6957 9.16287 4.13207 11.0849 4.13207Z" fill="black"/>
</svg>
