<svg width="48" height="48" viewBox="0 0 48 48" fill="none" xmlns="http://www.w3.org/2000/svg">
<g clip-path="url(#clip0_157_939)">
<path d="M24 48C37.2548 48 48 37.2548 48 24C48 10.7452 37.2548 0 24 0C10.7452 0 0 10.7452 0 24C0 37.2548 10.7452 48 24 48Z" fill="#8B2FED"/>
<g clip-path="url(#clip1_157_939)">
<path d="M35.3811 10H27.8097C26.3657 10 25.1909 11.1748 25.1909 12.6188V20.1903C25.1909 21.6343 26.3657 22.8091 27.8097 22.8091H35.3812C36.8252 22.8091 38 21.6343 37.9999 20.1902V12.6188C37.9999 11.1748 36.8251 10 35.3811 10ZM36.5576 20.1903C36.5576 20.839 36.0298 21.3668 35.3811 21.3668H27.8097C27.161 21.3668 26.6332 20.839 26.6332 20.1903V12.6188C26.6332 11.9701 27.161 11.4423 27.8097 11.4423H35.3811C36.0298 11.4423 36.5576 11.9701 36.5576 12.6188V20.1903Z" fill="white"/>
<path d="M20.1904 10H12.6188C11.1748 10 10 11.1748 10 12.6188V20.1903C10 21.6343 11.1748 22.8091 12.6188 22.8091H20.1904C21.6343 22.8091 22.8091 21.6343 22.8092 20.1902V12.6188C22.8092 11.1748 21.6343 10 20.1904 10ZM21.3668 20.1903C21.3668 20.839 20.839 21.3668 20.1903 21.3668H12.6188C11.9701 21.3668 11.4423 20.839 11.4423 20.1903V12.6188C11.4423 11.9701 11.9701 11.4423 12.6188 11.4423H20.1904C20.8391 11.4423 21.3669 11.9701 21.3669 12.6188V20.1903H21.3668Z" fill="white"/>
<path d="M35.3811 25.1908H27.8097C26.3657 25.1908 25.1909 26.3656 25.1909 27.8096V35.381C25.1909 36.8251 26.3657 37.9999 27.8097 37.9999H35.3812C36.8252 37.9999 38 36.8251 37.9999 35.381V27.8096C37.9999 26.3656 36.8251 25.1908 35.3811 25.1908ZM36.5576 35.3811C36.5576 36.0298 36.0298 36.5576 35.3811 36.5576H27.8097C27.161 36.5576 26.6332 36.0298 26.6332 35.3811V27.8096C26.6332 27.1609 27.161 26.6331 27.8097 26.6331H35.3811C36.0298 26.6331 36.5576 27.1609 36.5576 27.8096V35.3811Z" fill="white"/>
<path d="M17.4246 31.5954L19.2396 29.7804C19.5213 29.4988 19.5213 29.0421 19.2396 28.7604C18.9579 28.4788 18.5014 28.4788 18.2197 28.7604L16.4046 30.5754L14.5896 28.7604C14.3079 28.4788 13.8514 28.4788 13.5696 28.7604C13.288 29.0421 13.288 29.4987 13.5696 29.7804L15.3847 31.5954L13.5696 33.4104C13.288 33.6921 13.288 34.1487 13.5696 34.4304C13.7105 34.5713 13.895 34.6417 14.0796 34.6417C14.2642 34.6417 14.4487 34.5713 14.5896 34.4304L16.4046 32.6154L18.2196 34.4304C18.3605 34.5713 18.545 34.6417 18.7296 34.6417C18.9141 34.6417 19.0986 34.5713 19.2395 34.4304C19.5212 34.1488 19.5212 33.6921 19.2395 33.4104L17.4246 31.5954Z" fill="white"/>
<path d="M20.1904 25.1908H12.6188C11.1748 25.1908 10 26.3656 10 27.8096V35.381C10 36.8251 11.1748 37.9999 12.6188 37.9999H20.1904C21.6343 37.9999 22.8091 36.8251 22.8092 35.3811V27.8096C22.8092 26.3656 21.6343 25.1908 20.1904 25.1908ZM21.3668 35.3811C21.3668 36.0298 20.839 36.5576 20.1903 36.5576H12.6188C11.9701 36.5576 11.4423 36.0298 11.4423 35.3811V27.8096C11.4423 27.1609 11.9701 26.6331 12.6188 26.6331H20.1904C20.8391 26.6331 21.3669 27.1609 21.3669 27.8096V35.3811H21.3668Z" fill="white"/>
<path d="M34.8835 15.6834H32.3168V13.1165C32.3168 12.7183 31.9939 12.3954 31.5956 12.3954C31.1974 12.3954 30.8745 12.7183 30.8745 13.1165V15.6833H28.3076C27.9094 15.6833 27.5864 16.0062 27.5864 16.4045C27.5864 16.8028 27.9094 17.1256 28.3076 17.1256H30.8745V19.6924C30.8745 20.0907 31.1974 20.4136 31.5956 20.4136C31.9939 20.4136 32.3168 20.0907 32.3168 19.6924V17.1257H34.8835C35.2818 17.1257 35.6047 16.8029 35.6047 16.4046C35.6048 16.0062 35.2819 15.6834 34.8835 15.6834Z" fill="white"/>
<path d="M34.8836 30.8743H28.3076C27.9094 30.8743 27.5864 31.1971 27.5864 31.5954C27.5864 31.9937 27.9094 32.3166 28.3076 32.3166H34.8836C35.2819 32.3166 35.6048 31.9937 35.6048 31.5954C35.6048 31.1971 35.2818 30.8743 34.8836 30.8743Z" fill="white"/>
<path d="M19.6927 15.6833H13.1167C12.7184 15.6833 12.3955 16.0062 12.3955 16.4045C12.3955 16.8028 12.7184 17.1257 13.1167 17.1257H19.6927C20.091 17.1257 20.4138 16.8028 20.4138 16.4045C20.4138 16.0062 20.0909 15.6833 19.6927 15.6833Z" fill="white"/>
<path d="M35.3811 10H27.8097C26.3657 10 25.1909 11.1748 25.1909 12.6188V20.1903C25.1909 21.6343 26.3657 22.8091 27.8097 22.8091H35.3812C36.8252 22.8091 38 21.6343 37.9999 20.1902V12.6188C37.9999 11.1748 36.8251 10 35.3811 10ZM36.5576 20.1903C36.5576 20.839 36.0298 21.3668 35.3811 21.3668H27.8097C27.161 21.3668 26.6332 20.839 26.6332 20.1903V12.6188C26.6332 11.9701 27.161 11.4423 27.8097 11.4423H35.3811C36.0298 11.4423 36.5576 11.9701 36.5576 12.6188V20.1903Z" fill="white"/>
<path d="M20.1904 10H12.6188C11.1748 10 10 11.1748 10 12.6188V20.1903C10 21.6343 11.1748 22.8091 12.6188 22.8091H20.1904C21.6343 22.8091 22.8091 21.6343 22.8092 20.1902V12.6188C22.8092 11.1748 21.6343 10 20.1904 10ZM21.3668 20.1903C21.3668 20.839 20.839 21.3668 20.1903 21.3668H12.6188C11.9701 21.3668 11.4423 20.839 11.4423 20.1903V12.6188C11.4423 11.9701 11.9701 11.4423 12.6188 11.4423H20.1904C20.8391 11.4423 21.3669 11.9701 21.3669 12.6188V20.1903H21.3668Z" fill="white"/>
<path d="M35.3811 25.1908H27.8097C26.3657 25.1908 25.1909 26.3656 25.1909 27.8096V35.381C25.1909 36.8251 26.3657 37.9999 27.8097 37.9999H35.3812C36.8252 37.9999 38 36.8251 37.9999 35.381V27.8096C37.9999 26.3656 36.8251 25.1908 35.3811 25.1908ZM36.5576 35.3811C36.5576 36.0298 36.0298 36.5576 35.3811 36.5576H27.8097C27.161 36.5576 26.6332 36.0298 26.6332 35.3811V27.8096C26.6332 27.1609 27.161 26.6331 27.8097 26.6331H35.3811C36.0298 26.6331 36.5576 27.1609 36.5576 27.8096V35.3811Z" fill="white"/>
<path d="M35.2529 28.6685C35.6512 28.6685 35.9741 28.3456 35.9741 27.9474C35.9741 27.5491 35.6512 27.2262 35.2529 27.2262C34.8546 27.2262 34.5317 27.5491 34.5317 27.9474C34.5317 28.3456 34.8546 28.6685 35.2529 28.6685Z" fill="white"/>
<path d="M16.4277 14.5002C16.826 14.5002 17.1489 14.1773 17.1489 13.779C17.1489 13.3807 16.826 13.0579 16.4277 13.0579C16.0294 13.0579 15.7065 13.3807 15.7065 13.779C15.7065 14.1773 16.0294 14.5002 16.4277 14.5002Z" fill="white"/>
<path d="M16.4277 19.7612C16.826 19.7612 17.1489 19.4383 17.1489 19.04C17.1489 18.6417 16.826 18.3188 16.4277 18.3188C16.0294 18.3188 15.7065 18.6417 15.7065 19.04C15.7065 19.4383 16.0294 19.7612 16.4277 19.7612Z" fill="white"/>
</g>
</g>
<defs>
<clipPath id="clip0_157_939">
<rect width="48" height="48" fill="white"/>
</clipPath>
<clipPath id="clip1_157_939">
<rect width="28" height="28" fill="white" transform="translate(10 10)"/>
</clipPath>
</defs>
</svg>
