<svg width="168" height="156" viewBox="0 0 168 156" fill="none" xmlns="http://www.w3.org/2000/svg">
<rect width="167.807" height="155.468" rx="5.42906" fill="#FFF7E1"/>
<path d="M35.0649 17.3944V28.9761H32.7419V21.443L29.6391 28.9761H27.8803L24.7608 21.443V28.9761H22.4379V17.3944H25.0761L28.7597 26.006L32.4433 17.3944H35.0649ZM36.7643 24.3467C36.7643 23.4175 36.9468 22.5934 37.3118 21.8744C37.6879 21.1554 38.1912 20.6023 38.8218 20.2151C39.4633 19.828 40.1768 19.6344 40.9622 19.6344C41.648 19.6344 42.2454 19.7726 42.7542 20.0492C43.2741 20.3257 43.689 20.6742 43.9987 21.0945V19.7837H46.3383V28.9761H43.9987V27.6321C43.7 28.0635 43.2852 28.423 42.7542 28.7106C42.2343 28.9871 41.6315 29.1254 40.9456 29.1254C40.1713 29.1254 39.4633 28.9263 38.8218 28.5281C38.1912 28.1298 37.6879 27.5712 37.3118 26.8522C36.9468 26.1221 36.7643 25.287 36.7643 24.3467ZM43.9987 24.3799C43.9987 23.8157 43.8881 23.3345 43.6668 22.9363C43.4456 22.527 43.1469 22.2173 42.7708 22.0071C42.3947 21.7859 41.991 21.6753 41.5596 21.6753C41.1281 21.6753 40.7299 21.7804 40.3649 21.9905C39.9998 22.2007 39.7012 22.5104 39.4689 22.9197C39.2476 23.318 39.137 23.7936 39.137 24.3467C39.137 24.8998 39.2476 25.3865 39.4689 25.8069C39.7012 26.2162 39.9998 26.5314 40.3649 26.7526C40.741 26.9739 41.1392 27.0845 41.5596 27.0845C41.991 27.0845 42.3947 26.9794 42.7708 26.7692C43.1469 26.548 43.4456 26.2383 43.6668 25.84C43.8881 25.4308 43.9987 24.944 43.9987 24.3799ZM51.3117 21.6919V26.1387C51.3117 26.4484 51.3836 26.6752 51.5274 26.819C51.6822 26.9518 51.9367 27.0181 52.2906 27.0181H53.3692V28.9761H51.909C49.9511 28.9761 48.9721 28.0248 48.9721 26.1221V21.6919H47.877V19.7837H48.9721V17.5105H51.3117V19.7837H53.3692V21.6919H51.3117ZM60.2169 19.651C60.9138 19.651 61.5333 19.8058 62.0753 20.1156C62.6173 20.4142 63.0377 20.8622 63.3363 21.4596C63.6461 22.0458 63.8009 22.7538 63.8009 23.5834V28.9761H61.478V23.8987C61.478 23.1686 61.2954 22.61 60.9304 22.2228C60.5654 21.8246 60.0676 21.6255 59.4371 21.6255C58.7955 21.6255 58.2866 21.8246 57.9105 22.2228C57.5455 22.61 57.363 23.1686 57.363 23.8987V28.9761H55.04V16.6975H57.363V20.9286C57.6616 20.5304 58.0599 20.2206 58.5576 19.9994C59.0554 19.7671 59.6085 19.651 60.2169 19.651ZM69.5276 29.1254C68.7754 29.1254 68.1007 28.9927 67.5033 28.7272C66.906 28.4506 66.4303 28.0801 66.0763 27.6155C65.7334 27.1509 65.5454 26.6365 65.5122 26.0723H67.8518C67.896 26.4263 68.0675 26.7195 68.3661 26.9518C68.6759 27.1841 69.0575 27.3002 69.511 27.3002C69.9535 27.3002 70.2964 27.2117 70.5398 27.0347C70.7942 26.8577 70.9214 26.631 70.9214 26.3544C70.9214 26.0558 70.7666 25.8345 70.4568 25.6907C70.1582 25.5358 69.677 25.3699 69.0133 25.1929C68.3274 25.027 67.7633 24.8555 67.3208 24.6786C66.8894 24.5016 66.5133 24.2306 66.1925 23.8655C65.8828 23.5005 65.7279 23.0082 65.7279 22.3888C65.7279 21.8799 65.8717 21.4153 66.1593 20.995C66.458 20.5746 66.8783 20.2428 67.4204 19.9994C67.9734 19.7561 68.6206 19.6344 69.3617 19.6344C70.4568 19.6344 71.3307 19.9109 71.9834 20.464C72.636 21.006 72.9955 21.7416 73.0619 22.6708H70.8385C70.8053 22.3058 70.6504 22.0182 70.3739 21.808C70.1084 21.5868 69.7489 21.4762 69.2953 21.4762C68.875 21.4762 68.5487 21.5536 68.3164 21.7085C68.0951 21.8633 67.9845 22.079 67.9845 22.3556C67.9845 22.6653 68.1394 22.9031 68.4491 23.0691C68.7588 23.2239 69.24 23.3843 69.8927 23.5503C70.5564 23.7162 71.1039 23.8876 71.5353 24.0646C71.9668 24.2416 72.3373 24.5182 72.6471 24.8943C72.9679 25.2593 73.1338 25.746 73.1448 26.3544C73.1448 26.8854 72.9955 27.361 72.6968 27.7814C72.4092 28.2017 71.9889 28.5336 71.4358 28.777C70.8938 29.0093 70.2577 29.1254 69.5276 29.1254Z" fill="black"/>
<path d="M24.4055 50.7679C23.9251 50.7679 23.4933 50.6844 23.1104 50.5173C22.7343 50.3432 22.4384 50.1064 22.2226 49.807C22.0067 49.5006 21.8953 49.149 21.8883 48.7521H22.9015C22.9363 49.0933 23.0755 49.3823 23.3193 49.619C23.5699 49.8488 23.932 49.9637 24.4055 49.9637C24.8581 49.9637 25.2132 49.8523 25.4709 49.6295C25.7355 49.3997 25.8678 49.1072 25.8678 48.7521C25.8678 48.4736 25.7912 48.2473 25.638 48.0732C25.4848 47.8991 25.2933 47.7668 25.0635 47.6763C24.8338 47.5858 24.5239 47.4883 24.134 47.3838C23.6535 47.2585 23.267 47.1332 22.9746 47.0078C22.6891 46.8825 22.4419 46.6875 22.233 46.4229C22.0311 46.1513 21.9301 45.7893 21.9301 45.3366C21.9301 44.9397 22.0311 44.5881 22.233 44.2817C22.4349 43.9753 22.7169 43.7386 23.079 43.5715C23.4481 43.4044 23.8694 43.3208 24.3428 43.3208C25.0252 43.3208 25.5823 43.4914 26.014 43.8326C26.4527 44.1738 26.6999 44.6264 26.7556 45.1904H25.7111C25.6763 44.9119 25.5301 44.6682 25.2724 44.4593C25.0148 44.2434 24.6736 44.1355 24.2488 44.1355C23.8519 44.1355 23.5282 44.2399 23.2775 44.4488C23.0268 44.6508 22.9015 44.9363 22.9015 45.3053C22.9015 45.5699 22.9746 45.7858 23.1208 45.9529C23.274 46.12 23.4585 46.2488 23.6744 46.3393C23.8972 46.4229 24.2071 46.5204 24.604 46.6318C25.0844 46.7641 25.4709 46.8964 25.7633 47.0287C26.0558 47.154 26.3065 47.3525 26.5154 47.6241C26.7243 47.8887 26.8287 48.2507 26.8287 48.7103C26.8287 49.0654 26.7347 49.3997 26.5467 49.713C26.3587 50.0264 26.0802 50.2805 25.7111 50.4755C25.3421 50.6705 24.9069 50.7679 24.4055 50.7679ZM30.7237 50.7888C30.1876 50.7888 29.7001 50.667 29.2614 50.4233C28.8297 50.1795 28.4885 49.8349 28.2379 49.3892C27.9941 48.9366 27.8723 48.4144 27.8723 47.8225C27.8723 47.2376 27.9976 46.7223 28.2483 46.2767C28.5059 45.8241 28.8541 45.4794 29.2928 45.2426C29.7315 44.9989 30.2224 44.8771 30.7655 44.8771C31.3086 44.8771 31.7995 44.9989 32.2382 45.2426C32.6769 45.4794 33.0216 45.8206 33.2722 46.2662C33.5299 46.7119 33.6587 47.2306 33.6587 47.8225C33.6587 48.4144 33.5264 48.9366 33.2618 49.3892C33.0042 49.8349 32.6525 50.1795 32.2069 50.4233C31.7612 50.667 31.2668 50.7888 30.7237 50.7888ZM30.7237 49.9532C31.0649 49.9532 31.3852 49.8732 31.6846 49.713C31.9841 49.5529 32.2243 49.3126 32.4053 48.9923C32.5933 48.672 32.6873 48.2821 32.6873 47.8225C32.6873 47.3629 32.5968 46.973 32.4158 46.6527C32.2347 46.3324 31.998 46.0956 31.7055 45.9424C31.4131 45.7823 31.0962 45.7022 30.7551 45.7022C30.4069 45.7022 30.0866 45.7823 29.7941 45.9424C29.5086 46.0956 29.2789 46.3324 29.1048 46.6527C28.9307 46.973 28.8437 47.3629 28.8437 47.8225C28.8437 48.289 28.9272 48.6825 29.0943 49.0028C29.2684 49.3231 29.4982 49.5633 29.7837 49.7235C30.0692 49.8766 30.3825 49.9532 30.7237 49.9532ZM35.8589 42.9657V50.6948H34.9084V42.9657H35.8589ZM39.6095 49.8175L41.3852 44.9711H42.3983L40.1527 50.6948H39.0455L36.7999 44.9711H37.8235L39.6095 49.8175ZM48.556 47.6136C48.556 47.7947 48.5455 47.9861 48.5247 48.1881H43.9498C43.9847 48.7521 44.1761 49.1943 44.5243 49.5146C44.8794 49.8279 45.3077 49.9846 45.809 49.9846C46.2198 49.9846 46.561 49.8906 46.8326 49.7026C47.1111 49.5076 47.3061 49.25 47.4175 48.9297H48.4411C48.2879 49.4797 47.9815 49.9289 47.522 50.277C47.0624 50.6182 46.4914 50.7888 45.809 50.7888C45.2659 50.7888 44.7785 50.667 44.3467 50.4233C43.922 50.1795 43.5878 49.8349 43.344 49.3892C43.1003 48.9366 42.9785 48.4144 42.9785 47.8225C42.9785 47.2306 43.0968 46.7119 43.3336 46.2662C43.5703 45.8206 43.9011 45.4794 44.3259 45.2426C44.7576 44.9989 45.252 44.8771 45.809 44.8771C46.3521 44.8771 46.8326 44.9955 47.2504 45.2322C47.6682 45.4689 47.9885 45.7962 48.2113 46.214C48.4411 46.6248 48.556 47.0914 48.556 47.6136ZM47.5742 47.4152C47.5742 47.0531 47.4941 46.7432 47.334 46.4856C47.1738 46.221 46.9545 46.0225 46.6759 45.8902C46.4044 45.751 46.1015 45.6813 45.7672 45.6813C45.2868 45.6813 44.8759 45.8345 44.5347 46.1409C44.2005 46.4473 44.009 46.872 43.9603 47.4152H47.5742ZM60.2199 44.9711L58.4338 50.6948H57.452L56.0733 46.1513L54.6946 50.6948H53.7128L51.9163 44.9711H52.8876L54.2037 49.7757L55.6242 44.9711H56.5955L57.9847 49.7861L59.2799 44.9711H60.2199ZM61.6541 44.0415C61.473 44.0415 61.3199 43.9788 61.1945 43.8535C61.0692 43.7281 61.0065 43.575 61.0065 43.3939C61.0065 43.2129 61.0692 43.0597 61.1945 42.9343C61.3199 42.809 61.473 42.7463 61.6541 42.7463C61.8282 42.7463 61.9744 42.809 62.0928 42.9343C62.2181 43.0597 62.2808 43.2129 62.2808 43.3939C62.2808 43.575 62.2181 43.7281 62.0928 43.8535C61.9744 43.9788 61.8282 44.0415 61.6541 44.0415ZM62.1137 44.9711V50.6948H61.1632V44.9711H62.1137ZM64.8929 45.7544V49.1281C64.8929 49.4066 64.9521 49.6051 65.0705 49.7235C65.1889 49.8349 65.3943 49.8906 65.6868 49.8906H66.3866V50.6948H65.5301C65.0009 50.6948 64.604 50.573 64.3394 50.3293C64.0748 50.0855 63.9425 49.6852 63.9425 49.1281V45.7544H63.2009V44.9711H63.9425V43.5297H64.8929V44.9711H66.3866V45.7544H64.8929ZM70.3792 44.8666C70.8109 44.8666 71.2008 44.9606 71.549 45.1486C71.8971 45.3297 72.1687 45.6047 72.3637 45.9738C72.5656 46.3428 72.6666 46.792 72.6666 47.3212V50.6948H71.7265V47.4569C71.7265 46.886 71.5838 46.4508 71.2983 46.1513C71.0128 45.845 70.6229 45.6918 70.1285 45.6918C69.6271 45.6918 69.2267 45.8484 68.9273 46.1618C68.6349 46.4751 68.4886 46.9312 68.4886 47.5301V50.6948H67.5382V42.9657H68.4886V45.7858C68.6767 45.4933 68.9343 45.267 69.2616 45.1069C69.5958 44.9467 69.9683 44.8666 70.3792 44.8666ZM77.9542 42.9657V50.6948H77.0038V42.9657H77.9542ZM82.0705 50.7888C81.5343 50.7888 81.0469 50.667 80.6082 50.4233C80.1765 50.1795 79.8353 49.8349 79.5846 49.3892C79.3409 48.9366 79.219 48.4144 79.219 47.8225C79.219 47.2376 79.3444 46.7223 79.5951 46.2767C79.8527 45.8241 80.2008 45.4794 80.6395 45.2426C81.0782 44.9989 81.5691 44.8771 82.1122 44.8771C82.6554 44.8771 83.1463 44.9989 83.585 45.2426C84.0236 45.4794 84.3683 45.8206 84.619 46.2662C84.8766 46.7119 85.0055 47.2306 85.0055 47.8225C85.0055 48.4144 84.8732 48.9366 84.6086 49.3892C84.3509 49.8349 83.9993 50.1795 83.5536 50.4233C83.108 50.667 82.6136 50.7888 82.0705 50.7888ZM82.0705 49.9532C82.4117 49.9532 82.732 49.8732 83.0314 49.713C83.3308 49.5529 83.571 49.3126 83.7521 48.9923C83.9401 48.672 84.0341 48.2821 84.0341 47.8225C84.0341 47.3629 83.9436 46.973 83.7625 46.6527C83.5815 46.3324 83.3447 46.0956 83.0523 45.9424C82.7598 45.7823 82.443 45.7022 82.1018 45.7022C81.7536 45.7022 81.4333 45.7823 81.1409 45.9424C80.8554 46.0956 80.6256 46.3324 80.4515 46.6527C80.2774 46.973 80.1904 47.3629 80.1904 47.8225C80.1904 48.289 80.274 48.6825 80.4411 49.0028C80.6152 49.3231 80.8449 49.5633 81.1304 49.7235C81.4159 49.8766 81.7293 49.9532 82.0705 49.9532ZM88.6157 44.8771C89.1101 44.8771 89.5418 44.985 89.9108 45.2009C90.2868 45.4167 90.5654 45.6883 90.7464 46.0156V44.9711H91.7073V50.8202C91.7073 51.3424 91.5959 51.8055 91.3731 52.2093C91.1503 52.6201 90.83 52.9405 90.4122 53.1702C90.0014 53.4 89.5209 53.5149 88.9708 53.5149C88.2188 53.5149 87.5921 53.3374 87.0907 52.9822C86.5894 52.6271 86.2935 52.1432 86.2029 51.5304H87.143C87.2474 51.8786 87.4633 52.1571 87.7905 52.366C88.1178 52.5818 88.5112 52.6898 88.9708 52.6898C89.493 52.6898 89.9178 52.5261 90.2451 52.1989C90.5793 51.8716 90.7464 51.412 90.7464 50.8202V49.619C90.5584 49.9532 90.2799 50.2318 89.9108 50.4546C89.5418 50.6774 89.1101 50.7888 88.6157 50.7888C88.1074 50.7888 87.6443 50.6635 87.2265 50.4128C86.8157 50.1621 86.4919 49.8105 86.2552 49.3579C86.0184 48.9053 85.9 48.39 85.9 47.8121C85.9 47.2272 86.0184 46.7154 86.2552 46.2767C86.4919 45.831 86.8157 45.4864 87.2265 45.2426C87.6443 44.9989 88.1074 44.8771 88.6157 44.8771ZM90.7464 47.8225C90.7464 47.3908 90.6594 47.0148 90.4853 46.6945C90.3112 46.3742 90.0745 46.1305 89.775 45.9633C89.4826 45.7893 89.1588 45.7022 88.8037 45.7022C88.4486 45.7022 88.1248 45.7858 87.8323 45.9529C87.5399 46.12 87.3066 46.3637 87.1325 46.684C86.9584 47.0043 86.8714 47.3803 86.8714 47.8121C86.8714 48.2507 86.9584 48.6337 87.1325 48.961C87.3066 49.2813 87.5399 49.5285 87.8323 49.7026C88.1248 49.8697 88.4486 49.9532 88.8037 49.9532C89.1588 49.9532 89.4826 49.8697 89.775 49.7026C90.0745 49.5285 90.3112 49.2813 90.4853 48.961C90.6594 48.6337 90.7464 48.2542 90.7464 47.8225ZM93.8045 44.0415C93.6234 44.0415 93.4702 43.9788 93.3449 43.8535C93.2195 43.7281 93.1569 43.575 93.1569 43.3939C93.1569 43.2129 93.2195 43.0597 93.3449 42.9343C93.4702 42.809 93.6234 42.7463 93.8045 42.7463C93.9785 42.7463 94.1248 42.809 94.2431 42.9343C94.3685 43.0597 94.4311 43.2129 94.4311 43.3939C94.4311 43.575 94.3685 43.7281 94.2431 43.8535C94.1248 43.9788 93.9785 44.0415 93.8045 44.0415ZM94.264 44.9711V50.6948H93.3135V44.9711H94.264ZM95.5288 47.8225C95.5288 47.2306 95.6472 46.7154 95.8839 46.2767C96.1207 45.831 96.448 45.4864 96.8658 45.2426C97.2905 44.9989 97.7745 44.8771 98.3176 44.8771C99.0209 44.8771 99.5988 45.0477 100.051 45.3889C100.511 45.7301 100.814 46.2036 100.96 46.8094H99.9365C99.839 46.4612 99.6476 46.1862 99.3621 45.9842C99.0835 45.7823 98.7354 45.6813 98.3176 45.6813C97.7745 45.6813 97.3358 45.8693 97.0015 46.2453C96.6673 46.6144 96.5002 47.1401 96.5002 47.8225C96.5002 48.5119 96.6673 49.0445 97.0015 49.4206C97.3358 49.7966 97.7745 49.9846 98.3176 49.9846C98.7354 49.9846 99.0835 49.8871 99.3621 49.6921C99.6406 49.4972 99.8321 49.2186 99.9365 48.8565H100.96C100.807 49.4414 100.501 49.9115 100.041 50.2666C99.5814 50.6147 99.0069 50.7888 98.3176 50.7888C97.7745 50.7888 97.2905 50.667 96.8658 50.4233C96.448 50.1795 96.1207 49.8349 95.8839 49.3892C95.6472 48.9436 95.5288 48.4213 95.5288 47.8225Z" fill="black"/>
<g clip-path="url(#clip0_287_4)">
<ellipse cx="84.2671" cy="165.09" rx="97.2671" ry="89.4335" fill="#FFEEBF"/>
<path d="M52.7879 79.8534C51.457 80.308 50.7111 78.3507 52.0384 77.8961C53.3692 77.4415 54.1151 79.3988 52.7879 79.8534ZM60.3381 73.6935L49.9104 77.8926L71.1936 122.515L80.1296 118.999L60.3381 73.6935Z" fill="#32B777"/>
<path d="M73.3544 114.529L72.6377 114.776L56.1735 77.0806C56.0967 76.914 56.1808 76.7196 56.3599 76.6537L56.4258 76.6294C56.4294 76.6294 56.4331 76.6259 56.4404 76.6259C56.6122 76.5669 56.806 76.6468 56.8755 76.8099L73.3544 114.533L73.358 114.529H73.3544Z" fill="#107456"/>
<path d="M61.3839 76.0852L61.3032 75.9008L61.3839 76.0852Z" fill="#58BDAB"/>
<path d="M58.5246 77.5284L58.3235 77.0703L61.3034 75.9008L61.3838 76.0847L61.5008 76.3554L58.5246 77.5284Z" fill="#107456"/>
<path d="M61.9069 77.2861L61.8042 77.0494L61.9069 77.2861Z" fill="#58BDAB"/>
<path d="M60.0637 78.0106L59.8662 77.5559L61.709 76.8341L61.804 77.0493L61.9064 77.2853L60.0637 78.0106Z" fill="#107456"/>
<path d="M62.1835 77.9196L62.1443 77.8232L62.1835 77.9196Z" fill="#58BDAB"/>
<path d="M59.3654 79.4543L59.168 78.9997L62.1442 77.8232L62.1844 77.9204L62.3416 78.2779L59.3654 79.4543Z" fill="#107456"/>
<path d="M60.9084 79.9368L60.7073 79.4787L62.55 78.7568L62.7292 79.1698L62.7475 79.2115L60.9084 79.9368Z" fill="#107456"/>
<path d="M63.1862 80.2074L62.9851 79.7528L63.1862 80.2074Z" fill="#58BDAB"/>
<path d="M60.2065 81.3769L60.009 80.9223L62.9852 79.7528L63.1863 80.2074L60.2065 81.3769Z" fill="#107456"/>
<path d="M61.7494 81.8594L61.552 81.4047L63.3911 80.6794L63.5886 81.1341L61.7494 81.8594Z" fill="#107456"/>
<path d="M61.0473 83.303L60.8462 82.8449L63.8224 81.6754L64.0272 82.13L61.0473 83.303Z" fill="#107456"/>
<path d="M62.5905 83.7853L62.3931 83.3307L64.2322 82.6019L64.4333 83.06L62.5905 83.7853Z" fill="#107456"/>
<path d="M64.8637 84.0549L64.8352 83.9901L64.8637 84.0549Z" fill="#58BDAB"/>
<path d="M61.8847 85.229L61.6873 84.7744L64.6635 83.5979L64.8353 83.9901L64.8646 84.056L61.8847 85.229Z" fill="#107456"/>
<path d="M65.1573 84.7299L65.0693 84.5315L65.1573 84.7299Z" fill="#58BDAB"/>
<path d="M63.4311 85.7114L63.23 85.2533L65.0691 84.5315L65.1568 84.7293L65.2738 84.9861L63.4311 85.7114Z" fill="#107456"/>
<path d="M62.7255 87.1517L62.5281 86.6971L65.508 85.5276L65.7054 85.9822L62.7255 87.1517Z" fill="#107456"/>
<path d="M66.111 86.9122L65.9099 86.4541L66.111 86.9122Z" fill="#58BDAB"/>
<path d="M64.2685 87.634L64.071 87.1794L65.9102 86.4541L66.1113 86.9122L64.2685 87.634Z" fill="#107456"/>
<path d="M63.5666 89.0777L63.3691 88.6196L66.349 87.4501L66.5465 87.9047L63.5666 89.0777Z" fill="#107456"/>
<path d="M66.9521 88.8347L66.7546 88.3801L66.9521 88.8347Z" fill="#58BDAB"/>
<path d="M65.1095 89.5635L64.9121 89.1054L66.7549 88.3801L66.9523 88.8347L65.1095 89.5635Z" fill="#107456"/>
<path d="M67.2816 89.5883L67.1899 89.3726L67.2816 89.5883Z" fill="#58BDAB"/>
<path d="M64.4111 91.0036L64.21 90.549L67.1898 89.3726L67.2812 89.5877L67.3873 89.8306L64.4111 91.0036Z" fill="#107456"/>
<path d="M67.7936 90.7616L67.6653 90.4692L67.7936 90.7616Z" fill="#58BDAB"/>
<path d="M65.9504 91.4862L65.7529 91.0281L67.5957 90.3063L67.6652 90.4694L67.7931 90.7609L65.9504 91.4862Z" fill="#107456"/>
<path d="M68.0774 91.42L68.0308 91.3022L68.0774 91.42Z" fill="#58BDAB"/>
<path d="M65.2521 92.9298L65.051 92.4718L68.0309 91.3022L68.0784 91.4202L68.2283 91.7569L65.2521 92.9298Z" fill="#107456"/>
<path d="M68.6331 92.6861L68.5903 92.5897L68.6331 92.6861Z" fill="#58BDAB"/>
<path d="M66.7912 93.4088L66.5938 92.9542L68.4365 92.2289L68.5901 92.5898L68.634 92.687L66.7912 93.4088Z" fill="#107456"/>
<path d="M69.069 93.6795L68.8679 93.2249L69.069 93.6795Z" fill="#58BDAB"/>
<path d="M66.0932 94.8525L65.8884 94.3944L68.8683 93.2249L69.0694 93.6795L66.0932 94.8525Z" fill="#107456"/>
<path d="M67.6359 95.3383L67.4348 94.8802L69.2776 94.1549L69.475 94.6095L67.6359 95.3383Z" fill="#107456"/>
<path d="M69.9069 95.6063L69.7712 95.2861L69.9069 95.6063Z" fill="#58BDAB"/>
<path d="M66.9306 96.7748L66.7332 96.3237L69.7094 95.1472L69.7715 95.286L69.9068 95.6053L66.9306 96.7748Z" fill="#107456"/>
<path d="M70.258 96.3942L70.115 96.0809L70.258 96.3942Z" fill="#58BDAB"/>
<path d="M68.477 97.2609L68.2722 96.8062L70.115 96.0809L70.2576 96.3933L70.3161 96.5356L68.477 97.2609Z" fill="#107456"/>
<path d="M70.7508 97.5314L70.696 97.4102L70.7508 97.5314Z" fill="#58BDAB"/>
<path d="M67.7714 98.7045L67.574 98.2464L70.5502 97.0769L70.6964 97.4101L70.7513 97.5315L67.7714 98.7045Z" fill="#107456"/>
<path d="M71.1533 98.4616L70.9558 98.0035L71.1533 98.4616Z" fill="#58BDAB"/>
<path d="M69.3144 99.1835L69.1133 98.7288L70.956 98.0035L71.1535 98.4616L69.3144 99.1835Z" fill="#107456"/>
<path d="M68.612 100.627L68.4146 100.172L71.3908 98.9995L71.5919 99.4576L68.612 100.627Z" fill="#107456"/>
<path d="M71.855 100.061L71.7966 99.9296L71.855 100.061Z" fill="#58BDAB"/>
<path d="M70.1552 101.113L69.9578 100.655L71.7969 99.9296L71.8554 100.061L71.998 100.384L70.1552 101.113Z" fill="#107456"/>
<path d="M72.3747 101.256L72.2354 100.922L72.3747 101.256Z" fill="#58BDAB"/>
<path d="M69.4533 102.55L69.2559 102.095L72.2357 100.922L72.3747 101.255L72.4332 101.38L69.4533 102.55Z" fill="#107456"/>
<path d="M72.839 102.314L72.6379 101.856L72.839 102.314Z" fill="#58BDAB"/>
<path d="M70.996 103.036L70.7986 102.581L72.6377 101.856L72.8388 102.314L70.996 103.036Z" fill="#107456"/>
<path d="M73.2739 103.306L73.0764 102.852L73.2739 103.303V103.306Z" fill="#58BDAB"/>
<path d="M70.2939 104.479L70.0964 104.021L73.0763 102.852L73.2737 103.306L70.2939 104.479Z" fill="#107456"/>
<path d="M73.6801 104.237L73.5261 103.889L73.6801 104.237Z" fill="#58BDAB"/>
<path d="M71.8371 104.958L71.6396 104.504L73.4824 103.778L73.5263 103.889L73.6799 104.236L71.8371 104.958Z" fill="#107456"/>
<path d="M74.1149 105.232L73.9138 104.774L74.1149 105.232Z" fill="#58BDAB"/>
<path d="M71.1386 106.402L70.9338 105.947L73.9137 104.774L74.1148 105.232L71.1386 106.402Z" fill="#107456"/>
<path d="M74.5211 106.159L74.4551 106.01L74.5211 106.159Z" fill="#58BDAB"/>
<path d="M72.6777 106.884L72.4802 106.43L74.323 105.704L74.4546 106.01L74.5204 106.159L72.6777 106.884Z" fill="#107456"/>
<path d="M74.9521 107.155L74.7546 106.7L74.9521 107.155Z" fill="#58BDAB"/>
<path d="M71.976 108.324L71.7749 107.87L74.7548 106.7L74.9522 107.155L71.976 108.324Z" fill="#107456"/>
<path d="M75.3544 108.068L75.1606 107.63L75.3544 108.068Z" fill="#58BDAB"/>
<path d="M73.519 108.81L73.3179 108.356L75.1606 107.63L75.3544 108.068L75.3617 108.082L73.519 108.81Z" fill="#107456"/>
<path d="M75.7932 109.077L75.625 108.699L75.7932 109.077Z" fill="#58BDAB"/>
<path d="M72.8168 110.254L72.6157 109.796L75.5956 108.623L75.6248 108.699L75.793 109.077L72.8168 110.254Z" fill="#107456"/>
<path d="M76.1521 109.897L76.0017 109.556L76.1521 109.897Z" fill="#58BDAB"/>
<path d="M74.3561 110.733L74.1587 110.278L76.0015 109.556L76.1514 109.896L76.1989 110.011L74.3561 110.733Z" fill="#107456"/>
<path d="M76.6486 111.038L76.4512 110.584L76.6523 111.038H76.6486Z" fill="#58BDAB"/>
<path d="M73.6689 112.211L73.4714 111.753L76.4513 110.584L76.6487 111.038L73.6689 112.211Z" fill="#107456"/>
<path d="M77.058 111.968L76.8606 111.51L77.058 111.968Z" fill="#58BDAB"/>
<path d="M75.2153 112.697L75.0142 112.239L76.8606 111.51L77.058 111.968L75.2153 112.697Z" fill="#107456"/>
<path d="M75.4277 113.815L74.5136 114.13L74.3308 113.714L77.3107 112.541L77.4496 112.874L77.5081 112.996L75.4277 113.815Z" fill="#107456"/>
<path d="M66.3818 110.601C66.3307 110.618 66.2685 110.608 66.2319 110.552C63.8005 106.162 61.8115 101.491 59.6543 96.9727C57.4203 92.2947 55.1022 87.634 53.0839 82.8622C53.0474 82.7754 53.0986 82.706 53.168 82.6817C53.2375 82.6574 53.3362 82.6783 53.3801 82.7616C55.764 87.2835 57.87 91.9407 60.0418 96.5563C62.199 101.148 64.6122 105.722 66.4769 110.427C66.5062 110.504 66.4513 110.573 66.3782 110.597L66.3818 110.601Z" fill="#08A38A"/>
<path d="M76.6197 85.1839C76.7476 85.0798 76.8975 84.9618 77.0548 84.8334C78.1334 83.9693 78.8902 83.296 79.3728 82.7859C79.8957 82.2272 80.2686 81.6892 80.51 81.1583C80.7549 80.6065 80.8792 80.0339 80.8792 79.4578C80.8792 78.3022 80.4332 77.32 79.5703 76.5357C78.7147 75.7619 77.574 75.3732 76.1773 75.3732C74.8061 75.3732 73.6764 75.7341 72.8244 76.442C71.9616 77.1604 71.4533 78.1911 71.3327 79.496L71.2413 80.4399H74.9231L74.9305 79.7389C74.9305 79.1108 75.1681 78.8852 75.2449 78.8158C75.3765 78.6908 75.6142 78.5243 76.148 78.5243C76.6453 78.5243 76.8719 78.6804 77.0036 78.8019C77.201 78.9824 77.2851 79.1698 77.2851 79.437C77.2851 79.7285 77.1279 80.0755 76.8171 80.4781C76.5465 80.8251 75.9177 81.481 74.4332 82.6401C73.5557 83.3203 72.9012 83.9103 72.4186 84.4482C71.9067 85.0173 71.5301 85.6142 71.2925 86.2146C71.1206 86.6415 71.0402 87.0892 71.0585 87.5472L71.0877 88.5259H80.8939V85.2013H76.616V85.1909L76.6197 85.1839Z" fill="#32B777"/>
<path d="M89.7858 86.7178H86.3123V83.6812H83.135V80.3948H86.3123V77.379H89.7858V80.3948H92.9668V83.6812H89.7858V86.7178Z" fill="#FF9800"/>
<path d="M100.52 85.1839C100.648 85.0798 100.795 84.9618 100.956 84.8334C102.038 83.9693 102.791 83.296 103.274 82.7859C103.804 82.2272 104.173 81.6892 104.411 81.1583C104.656 80.6065 104.78 80.0339 104.78 79.4578C104.78 78.3022 104.334 77.32 103.467 76.5357C102.612 75.7619 101.471 75.3732 100.074 75.3732C98.7033 75.3732 97.5772 75.7341 96.7253 76.442C95.8587 77.1604 95.3541 78.1911 95.2262 79.496L95.1348 80.4711H98.824L98.8276 79.7389C98.8313 79.1108 99.0653 78.8852 99.1457 78.8158C99.2737 78.6908 99.515 78.5243 100.049 78.5243C100.542 78.5243 100.765 78.6804 100.901 78.8019C101.098 78.9824 101.182 79.1698 101.182 79.437C101.182 79.7285 101.029 80.0755 100.718 80.4781C100.447 80.8251 99.8148 81.481 98.3304 82.6401C97.4565 83.3203 96.802 83.9103 96.3157 84.4482C95.8075 85.0173 95.4309 85.6142 95.1933 86.2146C95.0178 86.6415 94.941 87.0892 94.9556 87.5472L94.9849 88.5259H104.791V85.2013H100.517V85.1909L100.52 85.1839Z" fill="#32B777"/>
<path d="M118.192 118.267H116.151V116.053H113.819V114.116H116.151V111.902H118.192V114.116H120.521V116.053H118.192V118.267Z" fill="#32B777"/>
<path d="M120.378 125.256H113.965V123.32H120.378V125.256ZM120.378 122.355H113.965V120.419H120.378V122.355Z" fill="#32B777"/>
<path d="M62.7001 111.011C61.2412 111.011 60.1626 109.963 60.1626 108.661C60.1626 107.36 61.2412 106.312 62.7001 106.312C64.1407 106.312 65.2193 107.36 65.2193 108.661C65.2193 109.963 64.1407 111.011 62.7001 111.011ZM62.6818 107.898C62.2284 107.898 61.9103 108.227 61.9103 108.658C61.9103 109.085 62.2284 109.418 62.6818 109.418C63.1535 109.418 63.4716 109.057 63.4716 108.658C63.4716 108.227 63.1535 107.898 62.6818 107.898ZM57.1316 109.862L56.1699 109.324L62.7622 102.408L63.7238 102.935L57.1316 109.865V109.862ZM57.4972 105.673C56.0383 105.673 54.9597 104.625 54.9597 103.324C54.9597 102.022 56.0383 100.974 57.4972 100.974C58.9378 100.974 60.0164 101.988 60.0164 103.324C60.0164 104.625 58.9378 105.673 57.4972 105.673ZM57.4789 102.564C57.0255 102.564 56.7074 102.893 56.7074 103.324C56.7074 103.754 57.0255 104.084 57.4789 104.084C57.9506 104.084 58.2687 103.723 58.2687 103.324C58.2687 102.893 57.9506 102.564 57.4789 102.564Z" fill="#8B440C"/>
<path d="M67.0584 92.2426V143.288C67.1059 144.51 68.1626 145.478 69.4496 145.478H108.056C109.351 145.478 110.415 144.496 110.448 143.267L110.612 92.2217C110.649 90.9412 109.563 89.8896 108.214 89.8896H69.4459C68.0894 89.8896 67.0035 90.9585 67.0547 92.2495V92.246L67.0584 92.2426Z" fill="#FF9800"/>
<path d="M106.66 102.036L106.905 93.4329H70.7366L71.0693 102.036H106.66Z" fill="white"/>
<path d="M71.8259 115.973H80.612V107.842H71.8259V115.973Z" fill="#8B440C"/>
<path d="M72.1549 112.753L71.325 115.543L71.8259 115.973L73.9758 115.529L72.1549 112.753Z" fill="#8B440C"/>
<path d="M77.3872 108.449L80.1258 107.408L80.6121 107.842L80.2355 109.393L77.3872 108.449Z" fill="#8B440C"/>
<path d="M71.325 115.543H80.1256V107.408H71.325V115.543Z" fill="white"/>
<path d="M84.6853 115.973H93.475V107.842H84.6853V115.973Z" fill="#8B440C"/>
<path d="M85.0143 112.753L84.1917 115.543L84.6853 115.973L86.8351 115.529L85.0143 112.753Z" fill="#8B440C"/>
<path d="M90.25 108.449L92.9849 107.408L93.4748 107.842L93.0946 109.393L90.25 108.449Z" fill="#8B440C"/>
<path d="M84.1917 115.543H92.985V107.408H84.1917V115.543Z" fill="white"/>
<path d="M97.5442 115.973H106.334V107.842H97.5442V115.973Z" fill="#8B440C"/>
<path d="M97.8771 112.753L97.0508 115.543L97.5444 115.973L99.6943 115.529L97.8771 112.753Z" fill="#8B440C"/>
<path d="M103.109 108.449L105.844 107.408L106.334 107.842L105.958 109.393L103.109 108.449Z" fill="#8B440C"/>
<path d="M97.0508 115.543H105.844V107.408H97.0508V115.543Z" fill="white"/>
<path d="M71.8259 128.182H80.612V120.044H71.8259V128.182Z" fill="#8B440C"/>
<path d="M72.1549 124.961L71.325 127.748L71.8259 128.182L73.9758 127.738L72.1549 124.961Z" fill="#8B440C"/>
<path d="M77.3872 120.658L80.1258 119.613L80.6121 120.044L80.2355 121.595L77.3872 120.658Z" fill="#8B440C"/>
<path d="M71.325 127.748H80.1256V119.613H71.325V127.748Z" fill="white"/>
<path d="M84.6853 128.182H93.475V120.044H84.6853V128.182Z" fill="#8B440C"/>
<path d="M85.0143 124.961L84.1917 127.748L84.6853 128.182L86.8351 127.738L85.0143 124.961Z" fill="#8B440C"/>
<path d="M90.25 120.658L92.9849 119.613L93.4748 120.044L93.0946 121.595L90.25 120.658Z" fill="#8B440C"/>
<path d="M84.1917 127.748H92.985V119.613H84.1917V127.748Z" fill="white"/>
<path d="M71.8259 140.384H80.612V132.246H71.8259V140.384Z" fill="#8B440C"/>
<path d="M72.1549 137.163L71.325 139.954L71.8259 140.384L73.9758 139.94L72.1549 137.163Z" fill="#8B440C"/>
<path d="M77.3872 132.86L80.1258 131.815L80.6121 132.246L80.2355 133.797L77.3872 132.86Z" fill="#8B440C"/>
<path d="M71.325 139.953H80.1256V131.815H71.325V139.953Z" fill="white"/>
<path d="M84.6853 140.384H93.475V132.246H84.6853V140.384Z" fill="#8B440C"/>
<path d="M85.0143 137.163L84.1917 139.954L84.6853 140.384L86.8351 139.94L85.0143 137.163Z" fill="#8B440C"/>
<path d="M90.25 132.86L92.9849 131.815L93.4748 132.246L93.0946 133.797L90.25 132.86Z" fill="#8B440C"/>
<path d="M84.1917 139.953H92.985V131.815H84.1917V139.953Z" fill="white"/>
<path d="M105.844 119.561L104.718 132.245H97.5444V138.284L97.0508 139.953L97.5444 140.384H106.334V119.992L105.844 119.561Z" fill="#5D2E2E"/>
<path d="M97.0508 139.953H105.844V119.561H97.0508V139.953Z" fill="#8B440C"/>
<path d="M74.0415 91.4236C72.718 91.4236 71.4054 91.3993 70.0891 91.3403C69.3176 91.3056 69.3176 90.2402 70.0891 90.2055C71.4017 90.1465 72.718 90.1222 74.0415 90.1222C78.8788 90.1222 83.7307 90.4415 88.5534 90.5074C89.3029 90.5213 90.0451 90.5248 90.7947 90.5248C92.3413 90.5248 93.9025 90.5074 95.4528 90.4866C97.003 90.4692 98.5606 90.4484 100.111 90.4484C102.414 90.4484 104.718 90.4901 107.018 90.6323C107.208 90.6462 107.208 90.8996 107.018 90.9134C104.718 91.0557 102.414 91.0974 100.104 91.0974C98.5533 91.0974 96.9957 91.08 95.4455 91.0592C93.8988 91.0418 92.3449 91.021 90.7947 91.021C90.0451 91.021 89.3029 91.0245 88.5534 91.0384C83.7307 91.1043 78.8788 91.4236 74.0415 91.4236Z" fill="#FF9800"/>
<path d="M108.316 144.961C108.02 144.961 107.775 144.569 108.042 144.354C108.276 144.17 108.448 143.84 108.601 143.594C108.769 143.327 108.824 142.99 109.011 142.75C109.113 142.615 109.292 142.542 109.464 142.542C109.658 142.542 109.833 142.639 109.877 142.862C109.961 143.292 109.753 143.743 109.508 144.104C109.384 144.281 109.234 144.458 109.062 144.593C108.886 144.736 108.678 144.798 108.488 144.916C108.429 144.954 108.367 144.971 108.309 144.971L108.312 144.968L108.316 144.961Z" fill="#50ADB3"/>
<path d="M108.828 97.9167C108.777 97.9167 108.722 97.882 108.714 97.8126C108.707 97.764 108.7 97.7085 108.692 97.6564C108.685 97.5731 108.755 97.5315 108.828 97.5315C108.897 97.5315 108.978 97.5731 108.959 97.6564C108.952 97.705 108.945 97.7605 108.937 97.8126C108.93 97.8855 108.875 97.9167 108.828 97.9167Z" fill="#50ADB3"/>
<path d="M47.6396 151.919H65.0874V135.362H47.6396V151.919Z" fill="#FF9800"/>
<path d="M55.0473 145.652L55.0619 145.707L55.1753 145.728L55.3325 145.735L55.7639 145.728H56.6817L57.263 145.735H57.4422L58.7731 145.714L58.9559 145.707L59.3288 145.673H59.5226L59.6725 145.707L59.7383 145.801L59.7603 145.954L59.7749 146.117L59.7822 146.287V146.728L59.8041 146.998L59.7968 147.168L59.7822 147.321L59.7603 147.429L59.7164 147.495L59.6469 147.526L59.2849 147.581L59.1277 147.592L58.8754 147.581L58.7036 147.571L57.8773 147.526H57.2411L56.2393 147.581H54.5939L53.7639 147.571L53.1314 147.547L52.9925 147.536L52.9157 147.495L52.8864 147.429L52.8791 147.311L52.9011 146.665V146.492L52.8645 145.836L52.8791 145.659L52.9157 145.339L52.9815 145.017L53.0144 144.84L53.0729 144.659L53.1314 144.486L53.1607 144.402L53.2411 144.225L53.3325 144.087L53.5263 143.892L53.6506 143.788L53.859 143.636L53.9906 143.549L54.2173 143.41L54.3672 143.33L54.6049 143.226L54.7731 143.17L55.0619 143.084L55.2557 143.042L55.4422 143.007L55.6287 142.987L56.2063 142.955L56.3087 142.945L56.5135 142.934L56.795 142.921L57.0034 142.879L57.0912 142.837L57.263 142.74L57.3435 142.667L57.4422 142.525L57.5153 142.299V142.06L57.4897 141.977L57.4349 141.8L57.3873 141.727L57.2703 141.595L57.1277 141.532L56.8754 141.467L56.7182 141.446L56.55 141.435H56.3782L56.2173 141.446L56.0601 141.477L55.8224 141.553L55.6725 141.63L55.6031 141.671L55.4934 141.793L55.4349 141.855L55.3544 142.018L55.2996 142.168L55.1972 142.23L55.0254 142.279H54.923L54.7292 142.286L54.2539 142.265H53.7749L53.5848 142.258L53.2886 142.223L53.1387 142.202L53.0619 142.157L53.0254 142.105V141.921L53.0473 141.758L53.0729 141.661L53.1058 141.491L53.1314 141.414L53.1826 141.251L53.2996 141.047L53.391 140.897L53.4934 140.755L53.614 140.616L53.753 140.495L53.8883 140.391L54.104 140.248L54.2612 140.165L54.6049 139.988L54.7987 139.915L54.9815 139.86L55.2338 139.804L55.4129 139.776L55.5811 139.742L55.742 139.721L55.9906 139.711L56.1698 139.7H56.55L56.8096 139.69H56.9888L57.1606 139.7L57.3288 139.731L57.5701 139.783L57.7383 139.839L58.104 139.947L58.2722 140.002L58.444 140.064L58.6817 140.172L58.8389 140.262L58.9888 140.377L59.135 140.519L59.263 140.658L59.3727 140.8L59.5226 140.995L59.603 141.144L59.6835 141.307L59.7383 141.467L59.7968 141.616L59.8334 141.779L59.8626 142.039V142.202L59.8553 142.442L59.8334 142.587L59.7749 142.837L59.7274 143L59.6615 143.181L59.5811 143.344L59.4568 143.549L59.3508 143.691L59.2045 143.871L59.0802 143.993L58.8974 144.149L58.7511 144.239L58.5135 144.354L58.3416 144.423L58.1478 144.475L57.9687 144.531L57.7749 144.559L57.5921 144.593L57.3288 144.614L57.1497 144.635L56.9559 144.67L56.7731 144.701L56.5025 144.722L56.3087 144.736H56.2173L56.0126 144.746H55.9248L55.731 144.777L55.636 144.812L55.4714 144.888L55.3983 144.94L55.2777 145.058L55.1826 145.187L55.1168 145.339L55.0948 145.423L55.0619 145.565L55.0473 145.652Z" fill="white"/>
<path d="M47.6396 135.362L54.2502 132.058H71.7017L65.0874 135.362H47.6396Z" fill="#CC5D08"/>
<path d="M65.0874 135.362V151.919L71.7016 148.616V132.058L65.0874 135.362Z" fill="#8B440C"/>
<path d="M44.4441 134.842H61.8882V118.281H44.4441V134.842Z" fill="#32B777"/>
<path d="M61.8884 118.281V134.842L68.5026 131.538V114.977L61.8884 118.281Z" fill="#087F5F"/>
<path d="M56.7474 128.109V128.279L56.7401 128.466L56.7035 128.636L56.645 128.869L56.5902 129.032L56.5536 129.095L56.422 129.32L56.294 129.473L56.2392 129.535L56.1185 129.664L56.0015 129.775L55.8808 129.868L55.6066 130.063L55.4604 130.136L55.2373 130.226L55.0765 130.275L54.8388 130.351L54.6816 130.392L54.4293 130.458L54.2501 130.5L54.06 130.535L53.8662 130.556L53.6213 130.569H53.4384L52.7949 130.542L52.4074 130.521L52.2172 130.5L52.0454 130.472L51.8662 130.438L51.6066 130.372L51.4385 130.32L51.2666 130.254L51.0984 130.181L50.8608 130.052L50.7145 129.966L50.4001 129.719L50.2173 129.549L50.1039 129.417L50.0015 129.258L49.9138 129.108L49.8224 128.883L49.7675 128.734L49.6761 128.519L49.6396 128.369L49.5847 128.123L49.6103 128.005L49.7127 127.929L49.8918 127.897L50.2758 127.876L50.6597 127.897H50.8388L51.358 127.856H51.6322L51.7858 127.887L51.8809 127.96L51.9467 128.102L51.9723 128.196L52.06 128.355L52.1258 128.421L52.2611 128.539L52.3342 128.581L52.4988 128.657L52.5792 128.699L52.773 128.754L52.9631 128.8L53.1569 128.82H53.3361L53.6213 128.786L53.8004 128.734L53.9028 128.699L54.06 128.602L54.1258 128.55L54.2392 128.432L54.2977 128.369L54.3525 128.23L54.3781 128.144V127.984L54.3525 127.897L54.2977 127.738L54.2501 127.672L54.1404 127.543L53.9357 127.415L53.8662 127.38L53.72 127.318L53.5408 127.287L53.347 127.266L53.1569 127.252H52.8754L52.5134 127.273L52.2611 127.287H52.0161L51.8809 127.245L51.8004 127.155L51.7639 127.026L51.7419 126.867L51.7346 126.717L51.7419 126.565V126.409L51.7346 126.169L51.7419 125.978L51.7785 125.839L51.8224 125.763L51.8918 125.728L52.2757 125.697L52.4549 125.707L52.8059 125.742L52.9778 125.749L53.0545 125.763L53.2227 125.749L53.4713 125.721L53.6651 125.676L53.7565 125.645L53.9357 125.572L54.0161 125.517L54.1404 125.399L54.1953 125.333L54.2611 125.173L54.2757 125.065L54.2611 124.961L54.1843 124.798L54.1258 124.715L53.9467 124.541L53.8004 124.476L53.6286 124.444L53.4713 124.42L53.2081 124.413L53.0436 124.42L52.762 124.444L52.5902 124.476L52.4988 124.51L52.3416 124.573L52.2611 124.625L52.1258 124.736L52.082 124.798L52.0015 124.934L51.9467 125.065L51.8443 125.131L51.6871 125.163H51.4019L50.9302 125.142L50.762 125.131L50.422 125.152L50.2538 125.142L50.0015 125.131L49.8699 125.097L49.8114 125.065L49.7785 125.003V124.885L49.8114 124.646L49.8443 124.489L49.9577 124.187L50.0381 123.972L50.1185 123.823L50.2173 123.66L50.3416 123.521L50.4915 123.393L50.6377 123.275L50.8059 123.178L50.9778 123.07L51.1423 122.973L51.3141 122.89L51.497 122.817L51.6871 122.747L51.8809 122.706L52.0746 122.674L52.2611 122.654L52.645 122.588L52.8498 122.567L53.0436 122.556L53.2227 122.567L53.4823 122.577L54.0161 122.643L54.2757 122.695L54.4439 122.726L54.6231 122.782L54.7949 122.837L55.0509 122.921L55.2117 122.987L55.369 123.063L55.5262 123.157L55.698 123.275L55.8443 123.393L55.9905 123.535L56.1039 123.653L56.1478 123.715L56.2501 123.851L56.3306 124.024L56.4 124.187L56.4512 124.337L56.5243 124.562L56.5536 124.722L56.5682 124.906V125.086L56.5536 125.163L56.5243 125.326L56.5024 125.388L56.4439 125.524L56.2867 125.805L56.1478 126.009L56.0454 126.127L55.8589 126.297L55.7785 126.388L55.7419 126.471L55.7858 126.558L56.0454 126.728L56.1843 126.835L56.294 126.943L56.4073 127.061L56.5097 127.189L56.634 127.422L56.6889 127.595L56.7254 127.779L56.7401 127.949L56.7474 128.109Z" fill="white"/>
<path fill-rule="evenodd" clip-rule="evenodd" d="M68.5024 114.977L61.8882 118.281L44.2539 118.461L54.2831 115.293L68.5024 114.977Z" fill="#107456"/>
<path d="M92.2322 142.757L93.9799 146.943L99.234 150.767L97.8373 146.582L92.2322 142.757Z" fill="#C44040"/>
<path d="M109.519 146.582H121.848L116.243 142.757H106.053L109.519 146.471V146.582Z" fill="#139FA7"/>
<path d="M109.519 146.471L106.053 142.757H92.2322L97.8373 146.582H109.519V146.471Z" fill="#EF4B45"/>
<path d="M97.8369 146.582L99.2336 150.767H109.519V146.582H97.8369Z" fill="#F0555A"/>
<path d="M121.848 146.582H109.519V150.767H123.647L121.848 146.582Z" fill="#1C8D90"/>
<path d="M99.234 150.767L93.9799 146.943L92.2322 142.757L97.8373 146.582L99.234 150.767Z" fill="#99490C"/>
<path d="M121.848 146.582H109.519V146.471L106.053 142.757H116.243L121.848 146.582Z" fill="#32B777"/>
<path d="M109.519 146.582H97.8373L92.2322 142.757H106.053L109.519 146.471V146.582Z" fill="#5D2E2E"/>
<path d="M109.519 150.767H99.2336L97.8369 146.582H109.519V150.767Z" fill="#8B440C"/>
<path d="M123.647 150.767H109.519V146.582H121.848L123.647 150.767Z" fill="#087F5F"/>
</g>
<defs>
<clipPath id="clip0_287_4">
<rect width="168" height="108" fill="white" transform="translate(0 47)"/>
</clipPath>
</defs>
</svg>
