<svg width="169" height="157" viewBox="0 0 169 157" fill="none" xmlns="http://www.w3.org/2000/svg">
<rect width="168.525" height="156.134" rx="5.45228" fill="#F4FBFF"/>
<mask id="mask0_287_12" style="mask-type:alpha" maskUnits="userSpaceOnUse" x="0" y="0" width="169" height="157">
<rect width="168.525" height="156.134" rx="5.45228" fill="#F8E6D6"/>
</mask>
<g mask="url(#mask0_287_12)">
<ellipse cx="84.5712" cy="171.765" rx="97.6832" ry="89.8161" fill="#D5EFFF"/>
<g clip-path="url(#clip0_287_12)">
<path fill-rule="evenodd" clip-rule="evenodd" d="M68.0236 98.2444C64.1588 98.2444 61.0266 95.1621 61.0266 91.3588C61.0266 87.5555 64.1588 84.4731 68.0236 84.4731C71.8885 84.4731 75.0207 87.5555 75.0207 91.3588C75.0207 95.1621 71.8885 98.2444 68.0236 98.2444ZM72.48 106.483C72.48 102.898 69.5259 99.9906 65.8828 99.9906C62.2398 99.9906 59.2857 102.898 59.2857 106.483V121.742C58.5463 121.937 58.0052 122.602 58.0052 123.393V132.262C58.0052 133.205 58.7816 133.972 59.7428 133.972H62.3608V146.1C62.3608 148.097 64.0042 149.715 66.0341 149.715C68.0639 149.715 69.7074 148.097 69.7074 146.1V133.972H75.3063C76.2642 133.972 77.0439 133.208 77.0439 132.262V123.393C77.0439 122.45 76.2675 121.683 75.3063 121.683H72.4833V115.822L73.0278 116.437L80.5357 119.295C81.9405 119.831 83.5234 119.202 84.1619 117.86C84.7904 116.537 84.2224 114.962 82.8882 114.321L76.9968 111.496L72.4833 106.797V106.483H72.48Z" stroke="#EA5757" stroke-width="1.62188" stroke-miterlimit="2.61313"/>
<path fill-rule="evenodd" clip-rule="evenodd" d="M103.339 91.3622C103.339 95.1655 100.207 98.2478 96.342 98.2478C92.4771 98.2478 89.3449 95.1655 89.3449 91.3622C89.3449 87.5589 92.4771 84.4766 96.342 84.4766C100.207 84.4766 103.339 87.5589 103.339 91.3622ZM91.8857 106.483C91.8857 102.898 94.8397 99.9907 98.4828 99.9907C102.126 99.9907 105.08 102.898 105.08 106.483V121.537H105.224C106.182 121.537 106.962 122.301 106.962 123.247V131.347C106.962 132.289 106.186 133.056 105.224 133.056H102.008V146.097C102.008 148.094 100.365 149.712 98.3349 149.712C96.3084 149.712 94.6616 148.094 94.6616 146.097V133.056H91.4588C90.501 133.056 89.7213 132.292 89.7213 131.347V123.247C89.7213 122.305 90.4977 121.537 91.4588 121.537H91.8823V115.819L91.3379 116.434L83.7695 119.318C82.4016 119.837 80.8557 119.229 80.2373 117.919C79.5921 116.563 80.1735 114.946 81.5413 114.291L87.3722 111.497L91.8857 106.797V106.483Z" stroke="#1A52F3" stroke-width="1.62188" stroke-miterlimit="2.61313"/>
</g>
</g>
<path d="M30.9461 21.867C30.9461 22.4891 30.7961 23.0724 30.4962 23.6167C30.2073 24.1611 29.7463 24.5999 29.1131 24.9331C28.491 25.2664 27.7022 25.4331 26.7468 25.4331H24.7972V29.8989H22.4642V18.2677H26.7468C27.6467 18.2677 28.4132 18.4232 29.0464 18.7342C29.6796 19.0453 30.1518 19.473 30.4628 20.0173C30.785 20.5617 30.9461 21.1783 30.9461 21.867ZM26.6468 23.5501C27.2912 23.5501 27.7689 23.4056 28.0799 23.1168C28.391 22.8168 28.5465 22.4003 28.5465 21.867C28.5465 20.7339 27.9133 20.1673 26.6468 20.1673H24.7972V23.5501H26.6468ZM41.1842 25.0831C41.1842 25.4164 41.162 25.7163 41.1176 25.983H34.3688C34.4243 26.6495 34.6576 27.1716 35.0687 27.5493C35.4797 27.9271 35.9852 28.1159 36.585 28.1159C37.4516 28.1159 38.0681 27.7438 38.4347 26.9994H40.9509C40.6843 27.8882 40.1733 28.6214 39.4179 29.1991C38.6625 29.7656 37.7348 30.0489 36.635 30.0489C35.7463 30.0489 34.9465 29.8545 34.2355 29.4657C33.5356 29.0657 32.9857 28.5047 32.5858 27.7826C32.1969 27.0605 32.0025 26.2274 32.0025 25.2831C32.0025 24.3277 32.1969 23.489 32.5858 22.7669C32.9746 22.0448 33.5189 21.4893 34.2188 21.1005C34.9187 20.7117 35.7241 20.5173 36.635 20.5173C37.5127 20.5173 38.2959 20.7061 38.9846 21.0838C39.6845 21.4615 40.2233 22.0003 40.601 22.7002C40.9898 23.389 41.1842 24.1833 41.1842 25.0831ZM38.768 24.4166C38.7569 23.8167 38.5403 23.339 38.1181 22.9835C37.696 22.6169 37.1794 22.4336 36.5684 22.4336C35.9907 22.4336 35.5019 22.6113 35.102 22.9668C34.7132 23.3112 34.4743 23.7945 34.3854 24.4166H38.768ZM45.22 22.1003C45.5199 21.6115 45.9087 21.2282 46.3864 20.9505C46.8752 20.6728 47.4307 20.5339 48.0528 20.5339V22.9835H47.4362C46.703 22.9835 46.1476 23.1557 45.7699 23.5001C45.4033 23.8444 45.22 24.4443 45.22 25.2997V29.8989H42.8871V20.6672H45.22V22.1003ZM53.1568 30.0489C52.4014 30.0489 51.7238 29.9156 51.1239 29.649C50.524 29.3712 50.0463 28.9991 49.6908 28.5325C49.3464 28.0659 49.1576 27.5493 49.1242 26.9828H51.4738C51.5182 27.3383 51.6904 27.6327 51.9904 27.866C52.3014 28.0992 52.6847 28.2159 53.1402 28.2159C53.5845 28.2159 53.9289 28.127 54.1733 27.9493C54.4288 27.7715 54.5566 27.5438 54.5566 27.2661C54.5566 26.9661 54.4011 26.7439 54.09 26.5995C53.7901 26.444 53.3068 26.2773 52.6403 26.0996C51.9515 25.933 51.3849 25.7608 50.9406 25.583C50.5073 25.4053 50.1296 25.1331 49.8074 24.7665C49.4964 24.3999 49.3409 23.9055 49.3409 23.2834C49.3409 22.7724 49.4853 22.3058 49.7741 21.8837C50.0741 21.4615 50.4962 21.1283 51.0406 20.8839C51.596 20.6395 52.2459 20.5173 52.9902 20.5173C54.09 20.5173 54.9676 20.795 55.6231 21.3504C56.2785 21.8948 56.6396 22.6335 56.7062 23.5667H54.4733C54.44 23.2001 54.2844 22.9113 54.0067 22.7002C53.7401 22.478 53.379 22.3669 52.9236 22.3669C52.5014 22.3669 52.1737 22.4447 51.9404 22.6002C51.7182 22.7557 51.6071 22.9724 51.6071 23.2501C51.6071 23.5612 51.7626 23.8 52.0737 23.9666C52.3848 24.1222 52.868 24.2833 53.5234 24.4499C54.19 24.6165 54.7399 24.7887 55.1732 24.9665C55.6064 25.1442 55.9786 25.4219 56.2896 25.7997C56.6118 26.1663 56.7784 26.6551 56.7895 27.2661C56.7895 27.7993 56.6396 28.277 56.3396 28.6991C56.0508 29.1213 55.6286 29.4546 55.0732 29.699C54.5288 29.9323 53.89 30.0489 53.1568 30.0489ZM62.8038 30.0489C61.9151 30.0489 61.1152 29.8545 60.4043 29.4657C59.6933 29.0657 59.1323 28.5047 58.7212 27.7826C58.3213 27.0605 58.1213 26.2274 58.1213 25.2831C58.1213 24.3388 58.3268 23.5056 58.7379 22.7835C59.16 22.0614 59.7322 21.506 60.4542 21.1172C61.1763 20.7172 61.9818 20.5173 62.8705 20.5173C63.7592 20.5173 64.5646 20.7172 65.2867 21.1172C66.0088 21.506 66.5754 22.0614 66.9864 22.7835C67.4086 23.5056 67.6196 24.3388 67.6196 25.2831C67.6196 26.2274 67.403 27.0605 66.9698 27.7826C66.5476 28.5047 65.9699 29.0657 65.2367 29.4657C64.5146 29.8545 63.7037 30.0489 62.8038 30.0489ZM62.8038 28.0159C63.226 28.0159 63.6204 27.9159 63.987 27.716C64.3647 27.5049 64.6646 27.1939 64.8868 26.7828C65.109 26.3718 65.2201 25.8719 65.2201 25.2831C65.2201 24.4055 64.9868 23.7334 64.5202 23.2668C64.0647 22.7891 63.5037 22.5502 62.8372 22.5502C62.1706 22.5502 61.6096 22.7891 61.1541 23.2668C60.7098 23.7334 60.4876 24.4055 60.4876 25.2831C60.4876 26.1607 60.7042 26.8384 61.1375 27.3161C61.5818 27.7826 62.1373 28.0159 62.8038 28.0159ZM74.4467 20.5339C75.5465 20.5339 76.4352 20.8839 77.1129 21.5837C77.7905 22.2725 78.1294 23.239 78.1294 24.4832V29.8989H75.7964V24.7998C75.7964 24.0666 75.6131 23.5056 75.2465 23.1168C74.8799 22.7169 74.38 22.5169 73.7468 22.5169C73.1025 22.5169 72.5915 22.7169 72.2137 23.1168C71.8471 23.5056 71.6638 24.0666 71.6638 24.7998V29.8989H69.3309V20.6672H71.6638V21.817C71.9749 21.4171 72.3693 21.106 72.847 20.8839C73.3358 20.6506 73.869 20.5339 74.4467 20.5339ZM79.748 25.2498C79.748 24.3166 79.9313 23.489 80.2979 22.7669C80.6756 22.0448 81.181 21.4893 81.8143 21.1005C82.4586 20.7117 83.1751 20.5173 83.9639 20.5173C84.6526 20.5173 85.2525 20.6561 85.7636 20.9339C86.2857 21.2116 86.7023 21.5615 87.0133 21.9837V20.6672H89.3629V29.8989H87.0133V28.5492C86.7134 28.9824 86.2968 29.3435 85.7636 29.6323C85.2414 29.91 84.636 30.0489 83.9472 30.0489C83.1696 30.0489 82.4586 29.8489 81.8143 29.449C81.181 29.0491 80.6756 28.4881 80.2979 27.766C79.9313 27.0328 79.748 26.194 79.748 25.2498ZM87.0133 25.2831C87.0133 24.7165 86.9022 24.2333 86.6801 23.8333C86.4579 23.4223 86.1579 23.1112 85.7802 22.9002C85.4025 22.678 84.997 22.5669 84.5638 22.5669C84.1305 22.5669 83.7306 22.6724 83.364 22.8835C82.9974 23.0946 82.6974 23.4056 82.4641 23.8167C82.242 24.2166 82.1309 24.6943 82.1309 25.2498C82.1309 25.8052 82.242 26.294 82.4641 26.7162C82.6974 27.1272 82.9974 27.4438 83.364 27.666C83.7417 27.8882 84.1416 27.9993 84.5638 27.9993C84.997 27.9993 85.4025 27.8937 85.7802 27.6827C86.1579 27.4605 86.4579 27.1494 86.6801 26.7495C86.9022 26.3384 87.0133 25.8496 87.0133 25.2831ZM93.9743 17.5678V29.8989H91.6414V17.5678H93.9743ZM97.4624 19.5674C97.0514 19.5674 96.707 19.4397 96.4292 19.1842C96.1626 18.9175 96.0293 18.5898 96.0293 18.201C96.0293 17.8122 96.1626 17.49 96.4292 17.2345C96.707 16.9679 97.0514 16.8346 97.4624 16.8346C97.8734 16.8346 98.2123 16.9679 98.4789 17.2345C98.7566 17.49 98.8955 17.8122 98.8955 18.201C98.8955 18.5898 98.7566 18.9175 98.4789 19.1842C98.2123 19.4397 97.8734 19.5674 97.4624 19.5674ZM98.6122 20.6672V29.8989H96.2793V20.6672H98.6122ZM103.633 22.5836V27.0494C103.633 27.3605 103.706 27.5882 103.85 27.7326C104.005 27.866 104.261 27.9326 104.616 27.9326H105.7V29.8989H104.233C102.267 29.8989 101.284 28.9435 101.284 27.0328V22.5836H100.184V20.6672H101.284V18.3843H103.633V20.6672H105.7V22.5836H103.633ZM116.209 20.6672L110.494 34.2648H108.011L110.01 29.6656L106.311 20.6672H108.927L111.31 27.1161L113.726 20.6672H116.209ZM26.5302 39.2677C27.7522 39.2677 28.8242 39.5065 29.7463 39.9842C30.6795 40.4619 31.396 41.1451 31.8959 42.0338C32.4069 42.9115 32.6624 43.9335 32.6624 45.1C32.6624 46.2664 32.4069 47.2885 31.8959 48.1661C31.396 49.0326 30.6795 49.7047 29.7463 50.1824C28.8242 50.6601 27.7522 50.8989 26.5302 50.8989H22.4642V39.2677H26.5302ZM26.4469 48.9159C27.6689 48.9159 28.6132 48.5827 29.2797 47.9161C29.9463 47.2496 30.2795 46.3109 30.2795 45.1C30.2795 43.8891 29.9463 42.9448 29.2797 42.2671C28.6132 41.5784 27.6689 41.234 26.4469 41.234H24.7972V48.9159H26.4469ZM42.9906 46.0831C42.9906 46.4164 42.9683 46.7163 42.9239 46.983H36.1751C36.2306 47.6495 36.4639 48.1716 36.875 48.5493C37.286 48.9271 37.7915 49.1159 38.3914 49.1159C39.2579 49.1159 39.8744 48.7438 40.241 47.9994H42.7573C42.4906 48.8882 41.9796 49.6214 41.2242 50.1991C40.4688 50.7656 39.5412 51.0489 38.4414 51.0489C37.5526 51.0489 36.7528 50.8545 36.0418 50.4657C35.3419 50.0657 34.792 49.5047 34.3921 48.7826C34.0033 48.0605 33.8088 47.2274 33.8088 46.2831C33.8088 45.3277 34.0033 44.489 34.3921 43.7669C34.7809 43.0448 35.3252 42.4893 36.0251 42.1005C36.725 41.7117 37.5304 41.5173 38.4414 41.5173C39.319 41.5173 40.1022 41.7061 40.7909 42.0838C41.4908 42.4615 42.0296 43.0003 42.4073 43.7002C42.7961 44.389 42.9906 45.1833 42.9906 46.0831ZM40.5743 45.4166C40.5632 44.8167 40.3466 44.339 39.9244 43.9835C39.5023 43.6169 38.9857 43.4336 38.3747 43.4336C37.797 43.4336 37.3082 43.6113 36.9083 43.9668C36.5195 44.3112 36.2806 44.7945 36.1918 45.4166H40.5743ZM48.5427 48.7493L50.8756 41.6672H53.3585L49.9424 50.8989H47.1096L43.7102 41.6672H46.2098L48.5427 48.7493ZM63.2506 46.0831C63.2506 46.4164 63.2284 46.7163 63.184 46.983H56.4352C56.4907 47.6495 56.724 48.1716 57.135 48.5493C57.5461 48.9271 58.0515 49.1159 58.6514 49.1159C59.518 49.1159 60.1345 48.7438 60.5011 47.9994H63.0173C62.7507 48.8882 62.2397 49.6214 61.4843 50.1991C60.7289 50.7656 59.8012 51.0489 58.7014 51.0489C57.8127 51.0489 57.0128 50.8545 56.3019 50.4657C55.602 50.0657 55.0521 49.5047 54.6522 48.7826C54.2633 48.0605 54.0689 47.2274 54.0689 46.2831C54.0689 45.3277 54.2633 44.489 54.6522 43.7669C55.041 43.0448 55.5853 42.4893 56.2852 42.1005C56.9851 41.7117 57.7905 41.5173 58.7014 41.5173C59.5791 41.5173 60.3622 41.7061 61.051 42.0838C61.7509 42.4615 62.2897 43.0003 62.6674 43.7002C63.0562 44.389 63.2506 45.1833 63.2506 46.0831ZM60.8344 45.4166C60.8233 44.8167 60.6067 44.339 60.1845 43.9835C59.7624 43.6169 59.2458 43.4336 58.6348 43.4336C58.0571 43.4336 57.5683 43.6113 57.1684 43.9668C56.7796 44.3112 56.5407 44.7945 56.4518 45.4166H60.8344ZM67.2864 38.5678V50.8989H64.9534V38.5678H67.2864ZM73.6906 51.0489C72.8018 51.0489 72.002 50.8545 71.291 50.4657C70.58 50.0657 70.019 49.5047 69.608 48.7826C69.208 48.0605 69.0081 47.2274 69.0081 46.2831C69.0081 45.3388 69.2136 44.5056 69.6246 43.7835C70.0468 43.0614 70.6189 42.506 71.341 42.1172C72.0631 41.7172 72.8685 41.5173 73.7572 41.5173C74.646 41.5173 75.4514 41.7172 76.1735 42.1172C76.8956 42.506 77.4621 43.0614 77.8732 43.7835C78.2953 44.5056 78.5064 45.3388 78.5064 46.2831C78.5064 47.2274 78.2898 48.0605 77.8565 48.7826C77.4343 49.5047 76.8567 50.0657 76.1235 50.4657C75.4014 50.8545 74.5904 51.0489 73.6906 51.0489ZM73.6906 49.0159C74.1127 49.0159 74.5071 48.9159 74.8737 48.716C75.2514 48.5049 75.5514 48.1939 75.7735 47.7828C75.9957 47.3718 76.1068 46.8719 76.1068 46.2831C76.1068 45.4055 75.8735 44.7334 75.4069 44.2668C74.9515 43.7891 74.3904 43.5502 73.7239 43.5502C73.0573 43.5502 72.4963 43.7891 72.0409 44.2668C71.5965 44.7334 71.3743 45.4055 71.3743 46.2831C71.3743 47.1607 71.5909 47.8384 72.0242 48.3161C72.4686 48.7826 73.024 49.0159 73.6906 49.0159ZM82.5506 43.0003C82.8505 42.5782 83.2616 42.2282 83.7837 41.9505C84.3169 41.6617 84.9224 41.5173 85.6 41.5173C86.3888 41.5173 87.0998 41.7117 87.733 42.1005C88.3773 42.4893 88.8828 43.0448 89.2494 43.7669C89.6271 44.4778 89.816 45.3055 89.816 46.2498C89.816 47.194 89.6271 48.0328 89.2494 48.766C88.8828 49.4881 88.3773 50.0491 87.733 50.449C87.0998 50.8489 86.3888 51.0489 85.6 51.0489C84.9224 51.0489 84.3225 50.91 83.8004 50.6323C83.2893 50.3546 82.8727 50.0046 82.5506 49.5825V55.2981H80.2177V41.6672H82.5506V43.0003ZM87.433 46.2498C87.433 45.6943 87.3164 45.2166 87.0831 44.8167C86.8609 44.4056 86.561 44.0946 86.1833 43.8835C85.8167 43.6724 85.4167 43.5669 84.9835 43.5669C84.5613 43.5669 84.1614 43.678 83.7837 43.9002C83.4171 44.1112 83.1171 44.4223 82.8839 44.8333C82.6617 45.2444 82.5506 45.7276 82.5506 46.2831C82.5506 46.8385 82.6617 47.3218 82.8839 47.7328C83.1171 48.1439 83.4171 48.4605 83.7837 48.6827C84.1614 48.8937 84.5613 48.9993 84.9835 48.9993C85.4167 48.9993 85.8167 48.8882 86.1833 48.666C86.561 48.4438 86.8609 48.1272 87.0831 47.7162C87.3164 47.3051 87.433 46.8163 87.433 46.2498ZM102.976 41.5339C104.109 41.5339 105.02 41.8839 105.709 42.5837C106.409 43.2725 106.759 44.239 106.759 45.4832V50.8989H104.426V45.7998C104.426 45.0777 104.242 44.5278 103.876 44.1501C103.509 43.7613 103.009 43.5669 102.376 43.5669C101.743 43.5669 101.237 43.7613 100.86 44.1501C100.493 44.5278 100.31 45.0777 100.31 45.7998V50.8989H97.9767V45.7998C97.9767 45.0777 97.7934 44.5278 97.4268 44.1501C97.0602 43.7613 96.5603 43.5669 95.9271 43.5669C95.2828 43.5669 94.7718 43.7613 94.3941 44.1501C94.0275 44.5278 93.8441 45.0777 93.8441 45.7998V50.8989H91.5112V41.6672H93.8441V42.7837C94.1441 42.3949 94.5274 42.0894 94.9939 41.8672C95.4716 41.645 95.9938 41.5339 96.5603 41.5339C97.2824 41.5339 97.9268 41.6894 98.4933 42.0005C99.0599 42.3005 99.4987 42.7337 99.8098 43.3003C100.11 42.767 100.543 42.3393 101.11 42.0172C101.687 41.695 102.309 41.5339 102.976 41.5339ZM117.554 46.0831C117.554 46.4164 117.532 46.7163 117.487 46.983H110.739C110.794 47.6495 111.028 48.1716 111.439 48.5493C111.85 48.9271 112.355 49.1159 112.955 49.1159C113.821 49.1159 114.438 48.7438 114.805 47.9994H117.321C117.054 48.8882 116.543 49.6214 115.788 50.1991C115.032 50.7656 114.105 51.0489 113.005 51.0489C112.116 51.0489 111.316 50.8545 110.605 50.4657C109.905 50.0657 109.356 49.5047 108.956 48.7826C108.567 48.0605 108.372 47.2274 108.372 46.2831C108.372 45.3277 108.567 44.489 108.956 43.7669C109.344 43.0448 109.889 42.4893 110.589 42.1005C111.289 41.7117 112.094 41.5173 113.005 41.5173C113.883 41.5173 114.666 41.7061 115.355 42.0838C116.054 42.4615 116.593 43.0003 116.971 43.7002C117.36 44.389 117.554 45.1833 117.554 46.0831ZM115.138 45.4166C115.127 44.8167 114.91 44.339 114.488 43.9835C114.066 43.6169 113.549 43.4336 112.938 43.4336C112.361 43.4336 111.872 43.6113 111.472 43.9668C111.083 44.3112 110.844 44.7945 110.755 45.4166H115.138ZM124.373 41.5339C125.473 41.5339 126.361 41.8839 127.039 42.5837C127.717 43.2725 128.055 44.239 128.055 45.4832V50.8989H125.722V45.7998C125.722 45.0666 125.539 44.5056 125.173 44.1168C124.806 43.7169 124.306 43.5169 123.673 43.5169C123.029 43.5169 122.517 43.7169 122.14 44.1168C121.773 44.5056 121.59 45.0666 121.59 45.7998V50.8989H119.257V41.6672H121.59V42.817C121.901 42.4171 122.295 42.106 122.773 41.8839C123.262 41.6506 123.795 41.5339 124.373 41.5339ZM132.99 43.5836V48.0494C132.99 48.3605 133.062 48.5882 133.207 48.7326C133.362 48.866 133.618 48.9326 133.973 48.9326H135.056V50.8989H133.59C131.624 50.8989 130.64 49.9435 130.64 48.0328V43.5836H129.541V41.6672H130.64V39.3843H132.99V41.6672H135.056V43.5836H132.99Z" fill="black"/>
<path d="M26.1316 65.724C26.3973 65.766 26.6386 65.8744 26.8554 66.0492C27.0792 66.224 27.254 66.4408 27.3798 66.6995C27.5127 66.9583 27.5791 67.2345 27.5791 67.5282C27.5791 67.8988 27.4847 68.2345 27.2959 68.5352C27.1071 68.8289 26.8309 69.0632 26.4673 69.238C26.1106 69.4058 25.6875 69.4897 25.198 69.4897H22.4708V62.1786H25.0931C25.5896 62.1786 26.0127 62.2625 26.3624 62.4303C26.712 62.5912 26.9743 62.8114 27.1491 63.0912C27.3239 63.3709 27.4113 63.6856 27.4113 64.0352C27.4113 64.4688 27.2924 64.8289 27.0547 65.1156C26.8239 65.3954 26.5162 65.5982 26.1316 65.724ZM23.4253 65.3359H25.0302C25.4778 65.3359 25.8239 65.231 26.0687 65.0212C26.3134 64.8114 26.4358 64.5212 26.4358 64.1506C26.4358 63.78 26.3134 63.4898 26.0687 63.28C25.8239 63.0702 25.4708 62.9653 25.0092 62.9653H23.4253V65.3359ZM25.1141 68.703C25.5896 68.703 25.9603 68.5911 26.226 68.3674C26.4917 68.1436 26.6246 67.8324 26.6246 67.4338C26.6246 67.0282 26.4847 66.71 26.205 66.4793C25.9253 66.2415 25.5512 66.1226 25.0827 66.1226H23.4253V68.703H25.1141ZM34.1485 66.3954C34.1485 66.5772 34.138 66.7695 34.117 66.9723H29.5227C29.5576 67.5387 29.7499 67.9828 30.0996 68.3044C30.4562 68.6191 30.8863 68.7765 31.3898 68.7765C31.8024 68.7765 32.145 68.6821 32.4177 68.4932C32.6975 68.2974 32.8933 68.0387 33.0052 67.717H34.0331C33.8793 68.2695 33.5716 68.7205 33.1101 69.0702C32.6485 69.4128 32.0751 69.5842 31.3898 69.5842C30.8443 69.5842 30.3548 69.4618 29.9213 69.217C29.4947 68.9723 29.159 68.6261 28.9143 68.1786C28.6695 67.724 28.5471 67.1995 28.5471 66.6051C28.5471 66.0107 28.666 65.4898 28.9038 65.0422C29.1415 64.5947 29.4737 64.252 29.9003 64.0142C30.3338 63.7695 30.8303 63.6471 31.3898 63.6471C31.9352 63.6471 32.4177 63.766 32.8373 64.0038C33.2569 64.2415 33.5786 64.5702 33.8024 64.9898C34.0331 65.4023 34.1485 65.8709 34.1485 66.3954ZM33.1625 66.1961C33.1625 65.8324 33.0821 65.5212 32.9212 65.2625C32.7604 64.9968 32.5401 64.7975 32.2604 64.6646C31.9877 64.5247 31.6835 64.4548 31.3478 64.4548C30.8653 64.4548 30.4527 64.6086 30.1101 64.9163C29.7744 65.224 29.5821 65.6506 29.5331 66.1961H33.1625ZM43.3238 62.1786L40.9427 66.731V69.4897H39.9882V66.731L37.5966 62.1786H38.656L40.4602 65.8814L42.2644 62.1786H43.3238ZM46.8377 69.5842C46.2992 69.5842 45.8097 69.4618 45.3691 69.217C44.9356 68.9723 44.5929 68.6261 44.3412 68.1786C44.0964 67.724 43.974 67.1995 43.974 66.6051C43.974 66.0177 44.0999 65.5002 44.3517 65.0527C44.6104 64.5982 44.96 64.252 45.4006 64.0142C45.8412 63.7695 46.3342 63.6471 46.8796 63.6471C47.4251 63.6471 47.9181 63.7695 48.3586 64.0142C48.7992 64.252 49.1453 64.5947 49.3971 65.0422C49.6558 65.4898 49.7852 66.0107 49.7852 66.6051C49.7852 67.1995 49.6523 67.724 49.3866 68.1786C49.1279 68.6261 48.7747 68.9723 48.3272 69.217C47.8796 69.4618 47.3831 69.5842 46.8377 69.5842ZM46.8377 68.745C47.1803 68.745 47.502 68.6646 47.8027 68.5037C48.1034 68.3429 48.3446 68.1016 48.5265 67.78C48.7153 67.4583 48.8097 67.0667 48.8097 66.6051C48.8097 66.1436 48.7188 65.752 48.537 65.4303C48.3551 65.1086 48.1174 64.8709 47.8237 64.717C47.53 64.5562 47.2118 64.4758 46.8691 64.4758C46.5195 64.4758 46.1978 64.5562 45.9041 64.717C45.6174 64.8709 45.3866 65.1086 45.2118 65.4303C45.037 65.752 44.9496 66.1436 44.9496 66.6051C44.9496 67.0737 45.0335 67.4688 45.2013 67.7905C45.3761 68.1121 45.6069 68.3534 45.8936 68.5142C46.1803 68.6681 46.495 68.745 46.8377 68.745ZM56.1381 63.7415V69.4897H55.1836V68.6401C55.0018 68.9338 54.7465 69.1646 54.4179 69.3324C54.0962 69.4932 53.7395 69.5737 53.3479 69.5737C52.9004 69.5737 52.4983 69.4828 52.1416 69.3009C51.785 69.1121 51.5018 68.8324 51.292 68.4618C51.0892 68.0911 50.9878 67.6401 50.9878 67.1086V63.7415H51.9319V66.9828C51.9319 67.5492 52.0752 67.9863 52.3619 68.2939C52.6486 68.5946 53.0402 68.745 53.5367 68.745C54.0472 68.745 54.4493 68.5877 54.743 68.273C55.0367 67.9583 55.1836 67.5002 55.1836 66.8988V63.7415H56.1381ZM58.7044 64.6751C58.8722 64.3464 59.11 64.0912 59.4177 63.9093C59.7323 63.7275 60.1135 63.6366 60.561 63.6366V64.6226H60.3093C59.2393 64.6226 58.7044 65.203 58.7044 66.3639V69.4897H57.7498V63.7415H58.7044V64.6751ZM68.1202 65.724C68.386 65.766 68.6272 65.8744 68.844 66.0492C69.0678 66.224 69.2426 66.4408 69.3685 66.6995C69.5013 66.9583 69.5678 67.2345 69.5678 67.5282C69.5678 67.8988 69.4734 68.2345 69.2846 68.5352C69.0957 68.8289 68.8195 69.0632 68.4559 69.238C68.0992 69.4058 67.6762 69.4897 67.1867 69.4897H64.4594V62.1786H67.0818C67.5783 62.1786 68.0013 62.2625 68.351 62.4303C68.7006 62.5912 68.9629 62.8114 69.1377 63.0912C69.3125 63.3709 69.3999 63.6856 69.3999 64.0352C69.3999 64.4688 69.2811 64.8289 69.0433 65.1156C68.8125 65.3954 68.5048 65.5982 68.1202 65.724ZM65.4139 65.3359H67.0188C67.4664 65.3359 67.8125 65.231 68.0573 65.0212C68.302 64.8114 68.4244 64.5212 68.4244 64.1506C68.4244 63.78 68.302 63.4898 68.0573 63.28C67.8125 63.0702 67.4594 62.9653 66.9979 62.9653H65.4139V65.3359ZM67.1027 68.703C67.5783 68.703 67.9489 68.5911 68.2146 68.3674C68.4804 68.1436 68.6132 67.8324 68.6132 67.4338C68.6132 67.0282 68.4734 66.71 68.1937 66.4793C67.9139 66.2415 67.5398 66.1226 67.0713 66.1226H65.4139V68.703H67.1027ZM76.1371 66.3954C76.1371 66.5772 76.1266 66.7695 76.1057 66.9723H71.5113C71.5462 67.5387 71.7385 67.9828 72.0882 68.3044C72.4448 68.6191 72.8749 68.7765 73.3784 68.7765C73.791 68.7765 74.1336 68.6821 74.4064 68.4932C74.6861 68.2974 74.8819 68.0387 74.9938 67.717H76.0217C75.8679 68.2695 75.5602 68.7205 75.0987 69.0702C74.6371 69.4128 74.0637 69.5842 73.3784 69.5842C72.8329 69.5842 72.3434 69.4618 71.9099 69.217C71.4833 68.9723 71.1476 68.6261 70.9029 68.1786C70.6581 67.724 70.5358 67.1995 70.5358 66.6051C70.5358 66.0107 70.6546 65.4898 70.8924 65.0422C71.1302 64.5947 71.4623 64.252 71.8889 64.0142C72.3225 63.7695 72.819 63.6471 73.3784 63.6471C73.9239 63.6471 74.4064 63.766 74.8259 64.0038C75.2455 64.2415 75.5672 64.5702 75.791 64.9898C76.0217 65.4023 76.1371 65.8709 76.1371 66.3954ZM75.1511 66.1961C75.1511 65.8324 75.0707 65.5212 74.9099 65.2625C74.749 64.9968 74.5287 64.7975 74.249 64.6646C73.9763 64.5247 73.6721 64.4548 73.3364 64.4548C72.8539 64.4548 72.4413 64.6086 72.0987 64.9163C71.763 65.224 71.5707 65.6506 71.5218 66.1961H75.1511ZM79.4321 69.5842C78.9915 69.5842 78.5964 69.5107 78.2467 69.3639C77.8971 69.21 77.6209 69.0002 77.4181 68.7345C77.2153 68.4618 77.1034 68.1506 77.0824 67.8009H78.0684C78.0964 68.0877 78.2293 68.3219 78.467 68.5037C78.7118 68.6856 79.03 68.7765 79.4216 68.7765C79.7852 68.7765 80.0719 68.696 80.2817 68.5352C80.4915 68.3744 80.5964 68.1716 80.5964 67.9268C80.5964 67.6751 80.4845 67.4898 80.2607 67.3709C80.0369 67.245 79.6908 67.1226 79.2223 67.0037C78.7957 66.8919 78.446 66.78 78.1733 66.6681C77.9076 66.5492 77.6768 66.3779 77.481 66.1541C77.2922 65.9233 77.1978 65.6226 77.1978 65.252C77.1978 64.9583 77.2852 64.6891 77.46 64.4443C77.6349 64.1996 77.8831 64.0072 78.2048 63.8674C78.5265 63.7205 78.8936 63.6471 79.3062 63.6471C79.9425 63.6471 80.4565 63.8079 80.8481 64.1296C81.2397 64.4513 81.4495 64.8919 81.4775 65.4513H80.523C80.502 65.1506 80.3796 64.9093 80.1558 64.7275C79.939 64.5457 79.6453 64.4548 79.2747 64.4548C78.9321 64.4548 78.6593 64.5282 78.4565 64.6751C78.2537 64.8219 78.1523 65.0142 78.1523 65.252C78.1523 65.4408 78.2118 65.5982 78.3307 65.724C78.4565 65.8429 78.6104 65.9408 78.7922 66.0177C78.981 66.0877 79.2397 66.1681 79.5684 66.259C79.981 66.3709 80.3167 66.4828 80.5754 66.5947C80.8341 66.6995 81.0544 66.8604 81.2362 67.0772C81.4251 67.2939 81.523 67.5772 81.53 67.9268C81.53 68.2415 81.4425 68.5247 81.2677 68.7765C81.0929 69.0282 80.8446 69.2275 80.523 69.3744C80.2083 69.5142 79.8446 69.5842 79.4321 69.5842ZM84.0418 64.5282V67.9163C84.0418 68.196 84.1012 68.3953 84.2201 68.5142C84.339 68.6261 84.5453 68.6821 84.839 68.6821H85.5418V69.4897H84.6816C84.1502 69.4897 83.7516 69.3674 83.4858 69.1226C83.2201 68.8779 83.0872 68.4758 83.0872 67.9163V64.5282H82.3425V63.7415H83.0872V62.294H84.0418V63.7415H85.5418V64.5282H84.0418ZM87.9361 62.1786L87.8207 67.4233H87.0235L86.9081 62.1786H87.9361ZM87.464 69.5527C87.2822 69.5527 87.1284 69.4897 87.0025 69.3639C86.8766 69.238 86.8137 69.0842 86.8137 68.9023C86.8137 68.7205 86.8766 68.5667 87.0025 68.4408C87.1284 68.3149 87.2822 68.252 87.464 68.252C87.6389 68.252 87.7857 68.3149 87.9046 68.4408C88.0305 68.5667 88.0934 68.7205 88.0934 68.9023C88.0934 69.0842 88.0305 69.238 87.9046 69.3639C87.7857 69.4897 87.6389 69.5527 87.464 69.5527Z" fill="black"/>
<defs>
<clipPath id="clip0_287_12">
<rect width="89.984" height="89.166" fill="white" transform="translate(37.4932 61.1572)"/>
</clipPath>
</defs>
</svg>
