<svg width="49" height="49" viewBox="0 0 49 49" fill="none" xmlns="http://www.w3.org/2000/svg">
<g clip-path="url(#clip0_157_1040)">
<path d="M24.5 49C38.031 49 49 38.031 49 24.5C49 10.969 38.031 0 24.5 0C10.969 0 0 10.969 0 24.5C0 38.031 10.969 49 24.5 49Z" fill="#6B50EF"/>
<path d="M17.3721 29.0054V21.6254H17.7712C18.1608 21.6254 18.5195 21.4131 18.707 21.0715C18.8945 20.73 18.8809 20.3135 18.6718 19.9851L15.2864 14.6627C15.0895 14.3529 14.7527 14.1677 14.3856 14.1677C14.0186 14.1677 13.6817 14.3529 13.4848 14.6627L10.0994 19.9847C9.89029 20.3135 9.87688 20.7299 10.0644 21.0715C10.252 21.413 10.6105 21.6254 11.0002 21.6254H11.3991V29.0054C11.3991 29.8196 12.0616 30.4823 12.8761 30.4823H15.8953C16.7096 30.4823 17.3721 29.8197 17.3721 29.0054ZM12.3375 29.0054V21.1561C12.3375 20.897 12.1275 20.6868 11.8682 20.6868H11.0002C10.9371 20.6868 10.9039 20.6505 10.8871 20.6199C10.8703 20.5894 10.8575 20.5418 10.8912 20.4886L14.2766 15.1662C14.3081 15.1167 14.3531 15.1063 14.3856 15.1063C14.4179 15.1063 14.463 15.1167 14.4945 15.1662L17.8801 20.4888C17.9139 20.542 17.901 20.5894 17.8842 20.6199C17.8674 20.6505 17.8343 20.6868 17.7712 20.6868H16.9029C16.6437 20.6868 16.4336 20.897 16.4336 21.1561V29.0054C16.4336 29.3024 16.1921 29.5437 15.8953 29.5437H12.876C12.579 29.5437 12.3375 29.3024 12.3375 29.0054Z" fill="white"/>
<path d="M35.515 14.6623C35.318 14.3528 34.9813 14.1677 34.614 14.1677C34.2471 14.1677 33.9104 14.3529 33.7134 14.6627L30.328 19.9847C30.1187 20.3135 30.1055 20.7299 30.2928 21.0715C30.4804 21.413 30.8391 21.6254 31.2286 21.6254H31.6277V29.0054C31.6277 29.8196 32.2903 30.4823 33.1045 30.4823H36.124C36.9381 30.4823 37.6009 29.8196 37.6009 29.0054V21.6253H37.9999C38.3894 21.6253 38.7481 21.413 38.9357 21.0714C39.123 20.7299 39.1095 20.3135 38.9006 19.985L35.515 14.6623ZM38.1128 20.6199C38.096 20.6504 38.0627 20.6868 37.9998 20.6868H37.1315C36.8724 20.6868 36.6622 20.897 36.6622 21.1561V29.0054C36.6622 29.3023 36.4208 29.5437 36.1239 29.5437H33.1045C32.8075 29.5437 32.5662 29.3023 32.5662 29.0054V21.1561C32.5662 20.897 32.356 20.6868 32.0969 20.6868H31.2286C31.1657 20.6868 31.1324 20.6504 31.1156 20.6199C31.0988 20.5893 31.0859 20.5419 31.1198 20.4885L34.5052 15.1664C34.5367 15.1169 34.5819 15.1062 34.614 15.1062C34.6463 15.1062 34.6916 15.1169 34.723 15.1661L38.1084 20.4888C38.1425 20.542 38.1296 20.5893 38.1128 20.6199Z" fill="white"/>
<path d="M30.7575 32.9581L28.1945 32.0935L27.5056 31.3902V30.1556C28.0553 29.6226 28.4742 28.9506 28.697 28.1844C29.4886 28.2037 30.1452 27.5499 30.1452 26.7558C30.1452 26.3136 29.94 25.922 29.623 25.6606C29.5411 24.1474 29.5332 23.4177 29.3933 22.8363C29.1505 21.8258 28.4487 20.9187 27.4875 20.3426V18.953C27.4875 18.6939 27.2773 18.4837 27.0182 18.4837C26.7591 18.4837 26.5489 18.6939 26.5489 18.953V19.9156C25.6905 19.6295 24.7242 19.5596 23.7139 19.7211C23.1325 19.815 22.781 19.9423 22.4507 20.111V15.3772C22.4507 15.1181 22.2407 14.908 21.9815 14.908H21.1149C21.0521 14.908 21.0188 14.8716 21.0018 14.8407C20.9878 14.8154 20.9696 14.764 21.0038 14.7096L24.3932 9.38601C24.4246 9.33651 24.4685 9.32613 24.4998 9.32613C24.5313 9.32581 24.5753 9.33651 24.6079 9.38788L27.9947 14.7078C28.0305 14.764 28.0118 14.8154 27.9977 14.8407C27.9809 14.8716 27.9476 14.908 27.885 14.908H27.0182C26.7591 14.908 26.5489 15.1181 26.5489 15.3772V16.5443C26.5489 16.8034 26.7591 17.0136 27.0182 17.0136C27.2773 17.0136 27.4875 16.8034 27.4875 16.5443V15.8465H27.885C28.2736 15.8465 28.6317 15.6348 28.8196 15.2945C29.0081 14.953 28.9962 14.5365 28.7878 14.2056L25.4005 8.8854C25.2037 8.57377 24.8671 8.3877 24.4998 8.3877H24.4997C24.1325 8.3877 23.796 8.57377 23.6004 8.88386L20.211 14.2075C20.0035 14.5365 19.9918 14.953 20.1801 15.2942C20.368 15.6349 20.7262 15.8466 21.1148 15.8466H21.5122V20.8C21.2981 20.9858 21.0183 20.9755 20.6796 21.1711C20.1919 21.4543 19.9045 21.9899 19.8013 22.8083C19.6801 23.7689 19.48 24.4941 19.7179 25.4485C19.2115 25.6684 18.8545 26.1695 18.8545 26.7559C18.8545 27.4549 19.359 28.0381 20.0229 28.1606C20.2784 29.0562 20.8033 29.8264 21.4943 30.3957V31.5315L20.7476 32.278L19.0457 32.6474C16.7501 33.1461 15.4609 35.1473 15.4609 36.437V39.538C15.4609 40.13 15.9426 40.6115 16.5347 40.6115H32.4648C33.0569 40.6115 33.5384 40.1301 33.5384 39.538C33.5365 36.5109 33.5418 36.2093 33.5323 36.1498C33.285 34.633 32.1908 33.4411 30.7575 32.9581ZM20.7326 22.9256C20.7958 22.4246 20.9365 22.1074 21.1505 21.9831C21.4602 21.8036 21.696 21.9175 22.2566 21.3907C22.6809 21.0642 22.91 20.8008 23.863 20.6477C26.3406 20.2505 28.1053 21.4951 28.481 23.0558C28.596 23.535 28.6033 24.1467 28.6756 25.5253C28.598 25.5082 28.5342 25.4789 28.4844 25.4379C28.3316 25.3123 28.2418 25.0223 28.2241 24.5995C28.2131 24.3493 28.0884 24.1239 27.8816 23.9812C27.6741 23.8383 27.4199 23.8021 27.1826 23.8806C25.3361 24.4947 23.8275 24.261 22.4347 23.1471C22.2321 22.9848 21.9556 22.9436 21.7134 23.0401C21.4701 23.1367 21.2961 23.3576 21.2593 23.6182C21.2031 24.0174 21.081 24.393 20.8965 24.7345C20.8963 24.7345 20.8963 24.7345 20.8963 24.7345C20.7888 24.9337 20.75 24.9954 20.5955 25.0944C20.4588 24.4163 20.6144 23.8606 20.7326 22.9256ZM20.8566 27.6168C20.8084 27.3727 20.5778 27.2087 20.3315 27.2431C20.0528 27.281 19.7932 27.0421 19.7932 26.7559C19.7932 26.4858 20.013 26.2658 20.2814 26.2652C20.4694 26.2787 20.582 26.1862 20.8012 26.0614C21.2416 25.8118 21.4426 25.6978 21.7222 25.1806H21.722C21.906 24.8405 22.0415 24.4758 22.1267 24.0914C23.6514 25.1888 25.3489 25.4314 27.2987 24.8289C27.3537 25.4445 27.5471 25.8817 27.8874 26.1622C28.1459 26.3748 28.4737 26.4817 28.8657 26.4817C28.9423 26.4817 29.0254 26.4709 29.1069 26.4628C29.1686 26.5448 29.2067 26.6456 29.2067 26.7558C29.2067 27.0259 28.9867 27.2458 28.7166 27.2458C28.6506 27.2458 28.5871 27.233 28.5278 27.2076C28.3967 27.152 28.2471 27.1588 28.1209 27.2262C27.9953 27.294 27.9074 27.4154 27.8816 27.5559C27.5743 29.2576 26.0947 30.4925 24.3624 30.4925C22.6602 30.4926 21.1858 29.2831 20.8566 27.6168ZM22.4329 31.3885V30.9925C23.8006 31.6422 25.3271 31.5489 26.567 30.8551V31.4775L24.4985 32.866L22.4329 31.3885ZM23.722 33.4647L22.7298 34.2871L21.5993 32.7537L22.0397 32.3134C22.0609 32.3102 22.085 32.3113 22.1071 32.3093L23.722 33.4647ZM26.8538 32.4153C27.0521 32.4153 27.0622 32.4105 27.2155 32.4354L27.3259 32.5481L26.083 34.2691L25.2283 33.5069L26.8538 32.4153ZM32.6 39.538C32.6 39.6126 32.5395 39.673 32.465 39.673H30.5283V36.7386C30.5283 36.4795 30.3181 36.2693 30.059 36.2693C29.7999 36.2693 29.5897 36.4795 29.5897 36.7386V39.673H19.4956V36.7386C19.4956 36.4795 19.2855 36.2693 19.0263 36.2693C18.7671 36.2693 18.557 36.4795 18.557 36.7386V39.673H16.5348C16.4602 39.673 16.3996 39.6125 16.3996 39.538V36.437C16.3996 35.4937 17.4649 33.9511 19.245 33.5646L20.7844 33.2304L22.2691 35.244C22.4285 35.4599 22.7375 35.4993 22.9465 35.3268L24.4556 34.0758L25.8468 35.3159C26.0545 35.5008 26.3772 35.4657 26.5395 35.2401L28.1157 33.0575L30.4574 33.8476C31.5524 34.2165 32.3993 35.1141 32.6 36.2648V39.538Z" fill="white"/>
</g>
<defs>
<clipPath id="clip0_157_1040">
<rect width="49" height="49" fill="white"/>
</clipPath>
</defs>
</svg>
