<svg width="49" height="49" viewBox="0 0 49 49" fill="none" xmlns="http://www.w3.org/2000/svg">
<g clip-path="url(#clip0_157_1023)">
<path d="M24.5 49C38.031 49 49 38.031 49 24.5C49 10.969 38.031 0 24.5 0C10.969 0 0 10.969 0 24.5C0 38.031 10.969 49 24.5 49Z" fill="#EFC550"/>
<g clip-path="url(#clip1_157_1023)">
<path d="M20.7913 32.2542C20.7899 32.2513 20.7899 32.2484 20.7885 32.2456L18.6299 25.7699C18.5363 25.4934 18.2886 25.3004 17.9963 25.2803C17.7155 25.2601 17.4318 25.4156 17.3022 25.6763L14.4222 31.4363C14.2451 31.792 14.3891 32.224 14.7448 32.4025C15.1019 32.5782 15.5339 32.4371 15.711 32.08L16.1085 31.2851L19.5169 32.99L20.1433 34.8678C20.2456 35.1702 20.5264 35.3603 20.8273 35.3603C20.9037 35.3603 20.9785 35.3488 21.0534 35.3214C21.4293 35.1961 21.6338 34.7886 21.5085 34.4113L20.7913 32.2542ZM16.7536 29.9948L17.8134 27.8737L18.8733 31.0547L16.7536 29.9948ZM22.5899 23.9137L13.9499 19.5937C13.5942 19.418 13.1622 19.5606 12.9822 19.9163C12.8065 20.272 12.9491 20.704 13.3048 20.8825L21.9448 25.2025C22.0499 25.2544 22.1594 25.2788 22.2674 25.2788C22.5309 25.2788 22.7843 25.1334 22.9111 24.88C23.0882 24.5243 22.9442 24.0923 22.5899 23.9137ZM25.1474 28.1588C24.7499 28.1588 24.4274 28.4814 24.4274 28.8788V38.9588C24.4274 39.3563 24.7499 39.6788 25.1474 39.6788C25.5448 39.6788 25.8674 39.3563 25.8674 38.9588V28.8788C25.8674 28.4814 25.5448 28.1588 25.1474 28.1588ZM30.605 16.6878C30.5647 15.8123 30.0707 15.0549 29.2787 14.6589C28.0375 14.0382 26.5384 14.1102 25.3648 14.8446L25.0999 15.0088C24.9703 14.3853 24.5671 13.8597 23.9795 13.5659C23.3589 13.2534 22.6216 13.2693 22.0139 13.6062L17.6032 16.0067C17.3641 16.1363 17.2173 16.3926 17.2273 16.6648C17.2374 16.9369 17.4001 17.1817 17.6493 17.2941L25.5693 20.8941C25.6643 20.9373 25.7666 20.9588 25.8674 20.9588C26.0013 20.9588 26.1338 20.9229 26.2504 20.848L29.4847 18.8277C30.2291 18.364 30.6467 17.5633 30.605 16.6878ZM19.5601 16.5813L22.7066 14.8691C22.8981 14.7611 23.1343 14.7539 23.3344 14.8547C23.6527 15.0131 23.7016 15.3054 23.7074 15.4249C23.7117 15.5445 23.693 15.8397 23.3819 16.0341L21.3083 17.3761L19.5601 16.5813ZM28.7215 17.6065L25.8141 19.4224L22.8866 18.0918L26.1295 16.0657C26.8826 15.5949 27.8416 15.5488 28.6451 15.9505C28.9576 16.1061 29.152 16.407 29.1693 16.7555C29.1823 17.104 29.0181 17.4222 28.7215 17.6065ZM38.5811 14.944C38.5523 14.9195 38.5178 14.8979 38.4832 14.8777L26.92 8.42653C26.8725 8.40061 26.8221 8.38045 26.7703 8.36605C25.7349 7.88365 24.5671 7.88077 23.5288 8.36317C23.4741 8.37901 23.4223 8.39917 23.3733 8.42797L11.8101 14.8792C11.7755 14.8979 11.7453 14.9195 11.715 14.944C10.6696 15.5445 10.0273 16.5985 10.0273 17.7203V32.8403C10.0273 33.962 10.6696 35.0147 11.7121 35.6152C11.7409 35.6396 11.7755 35.6612 11.8101 35.6814L23.3733 42.1326C23.4208 42.1585 23.4712 42.1787 23.5231 42.1931C24.0415 42.4364 24.5872 42.5588 25.1474 42.5588C25.7047 42.5588 26.2475 42.4379 26.7645 42.196C26.8192 42.1801 26.8711 42.16 26.92 42.1312L38.4832 35.68C38.5178 35.6612 38.5495 35.6396 38.5797 35.6152C39.6237 35.0147 40.2659 33.9606 40.2659 32.8388V17.7189C40.2674 16.5971 39.6237 15.5445 38.5811 14.944ZM38.8274 32.8388C38.8274 33.4768 38.44 34.0628 37.7949 34.407C37.756 34.4272 37.7172 34.4516 37.684 34.479L26.3267 40.8164C26.2965 40.8265 26.2663 40.8395 26.236 40.8539C25.5376 41.2052 24.7586 41.2052 24.0616 40.8539C24.0328 40.8409 24.0026 40.828 23.9723 40.8179L12.6136 34.479C12.5805 34.4516 12.5416 34.4272 12.5013 34.4056C11.8547 34.0628 11.4673 33.4768 11.4673 32.8388V17.7189C11.4673 17.0809 11.8547 16.4949 12.4998 16.1521C12.5387 16.132 12.5776 16.1075 12.6107 16.0801L23.968 9.7427C23.9983 9.73262 24.0285 9.71966 24.0587 9.70526C24.7571 9.35389 25.5362 9.35389 26.2331 9.70526C26.2619 9.71822 26.2922 9.73118 26.3224 9.74126L37.6811 16.0787C37.7143 16.1061 37.7531 16.1305 37.7935 16.1521C38.4415 16.4949 38.8274 17.0809 38.8274 17.7189V32.8388ZM36.3463 19.5952L27.7063 23.9152C27.3506 24.0937 27.2066 24.5257 27.3837 24.8814C27.5104 25.1334 27.7639 25.2788 28.0274 25.2788C28.1354 25.2788 28.2448 25.2544 28.3499 25.204L36.9899 20.884C37.3456 20.7054 37.4896 20.2734 37.3125 19.9177C37.1339 19.5606 36.7048 19.418 36.3463 19.5952ZM35.2288 30.424C34.8314 30.424 34.5088 30.7465 34.5088 31.144C34.5088 31.694 34.2035 32.188 33.7125 32.4328C33.2603 32.6574 32.7376 32.6344 32.3114 32.3694C31.8765 32.1016 31.6274 31.6537 31.6274 31.144V29.2187C31.6274 28.3964 32.0839 27.6563 32.8211 27.2876C33.1912 27.1033 33.6016 27.1235 33.9544 27.3395C34.3058 27.5555 34.5074 27.9169 34.5074 28.3302C34.5074 28.7276 34.8299 29.0502 35.2274 29.0502C35.6248 29.0502 35.9474 28.7276 35.9474 28.3302C35.9474 27.4201 35.4866 26.5921 34.7119 26.114C33.9415 25.636 32.9925 25.5928 32.1775 25.9988C30.9491 26.6123 30.1874 27.8464 30.1874 29.2187V31.144C30.1874 32.1491 30.6971 33.0649 31.5525 33.5934C32.0176 33.8814 32.5418 34.0268 33.0659 34.0268C33.5051 34.0268 33.9458 33.9246 34.3576 33.7201C35.3383 33.2291 35.9488 32.2427 35.9488 31.144C35.9488 30.7465 35.6263 30.424 35.2288 30.424Z" fill="white"/>
</g>
</g>
<defs>
<clipPath id="clip0_157_1023">
<rect width="49" height="49" fill="white"/>
</clipPath>
<clipPath id="clip1_157_1023">
<rect width="36" height="34.56" fill="white" transform="translate(7 8)"/>
</clipPath>
</defs>
</svg>
