<svg width="169" height="156" viewBox="0 0 169 156" fill="none" xmlns="http://www.w3.org/2000/svg">
<path d="M11.5171 79.4621C11.5192 79.437 11.5639 79.412 11.6507 79.393C11.8244 79.3551 12.1006 79.3559 12.2679 79.3947L14.5508 79.9241C14.7181 79.9629 14.7129 80.025 14.5392 80.0629C14.3655 80.1008 14.0893 80.1001 13.922 80.0613L11.6392 79.5319C11.5555 79.5125 11.515 79.4872 11.5171 79.4621Z" fill="#4273FF"/>
<path d="M11.4735 79.9855C11.4756 79.9603 11.5203 79.9353 11.6071 79.9164L13.9772 79.3991C14.1509 79.3612 14.4271 79.3619 14.5943 79.4007C14.7616 79.4395 14.7565 79.5017 14.5828 79.5396L12.2127 80.0568C12.039 80.0947 11.7629 80.094 11.5956 80.0552C11.5119 80.0358 11.4714 80.0106 11.4735 79.9855Z" fill="#4273FF"/>
<rect width="168.059" height="155.701" rx="5.43719" fill="#FFF7FA"/>
<mask id="mask0_287_14" style="mask-type:alpha" maskUnits="userSpaceOnUse" x="0" y="0" width="169" height="156">
<rect x="0.00012207" width="168.059" height="155.701" rx="5.43719" fill="#F8E6D6"/>
</mask>
<g mask="url(#mask0_287_14)">
<ellipse cx="84.337" cy="171.29" rx="97.4128" ry="89.5675" fill="#FFE7F0"/>
<g clip-path="url(#clip0_287_14)">
<path fill-rule="evenodd" clip-rule="evenodd" d="M102.768 121.057C102.768 111.597 94.9433 103.945 85.2872 103.945C75.6142 103.945 67.7897 111.597 67.7897 121.057H85.2872H102.768Z" fill="#1B53F4"/>
<path d="M85.2743 102.756C90.3767 102.756 94.5168 98.7116 94.5168 93.7176C94.5168 88.7278 90.3809 84.679 85.2743 84.679C80.1719 84.679 76.0317 88.7237 76.0317 93.7176C76.0317 98.7075 80.1677 102.756 85.2743 102.756Z" fill="#1B53F4"/>
<path fill-rule="evenodd" clip-rule="evenodd" d="M82.8899 113.826C84.4852 113.826 85.7766 112.563 85.7766 111.002C85.7766 109.442 84.4852 108.179 82.8899 108.179C81.2946 108.179 80.0032 109.442 80.0032 111.002C80.0032 111.601 80.1931 112.154 80.5181 112.608L77.9479 118.65L79.1802 119.265L82.6493 113.813C82.7295 113.817 82.8097 113.821 82.8899 113.821V113.826Z" fill="#EE835C"/>
<path d="M111.85 116.933H58.6987V122.926H111.85V116.933Z" fill="#EE835C"/>
<path d="M64.8185 121.057H105.739L100.13 150.921H69.79L64.8185 121.057Z" fill="#EE835C"/>
<path fill-rule="evenodd" clip-rule="evenodd" d="M116.231 74.6003C116.231 72.6233 114.597 71.0178 112.576 71.0178H98.9948C96.9775 71.0178 95.34 72.6233 95.34 74.6003V81.7445C95.34 82.7268 95.2513 89.3056 95.2513 89.3056C95.2513 89.3056 97.8806 86.4124 98.999 85.327H112.58C114.602 85.327 116.235 83.7215 116.235 81.7445V74.6003H116.231Z" fill="#EE835C"/>
<path fill-rule="evenodd" clip-rule="evenodd" d="M99.2522 76.9157H108.263C108.638 76.9157 108.934 76.6268 108.934 76.2595C108.934 75.8922 108.638 75.6033 108.263 75.6033H99.2522C98.8893 75.6033 98.5812 75.8922 98.5812 76.2595C98.5812 76.6268 98.8893 76.9157 99.2522 76.9157Z" fill="white"/>
<path fill-rule="evenodd" clip-rule="evenodd" d="M99.2524 81.5257H112.082C112.454 81.5257 112.766 81.2244 112.766 80.8571C112.766 80.4939 112.458 80.1926 112.082 80.1926H99.2524C98.881 80.1926 98.5856 80.4939 98.5856 80.8571C98.5856 81.2203 98.8768 81.5257 99.2524 81.5257Z" fill="white"/>
</g>
</g>
<path d="M30.5972 20.9857C30.5972 21.6061 30.4476 22.1877 30.1485 22.7305C29.8604 23.2734 29.4007 23.711 28.7692 24.0433C28.1488 24.3757 27.3623 24.5418 26.4095 24.5418H24.4653V28.9954H22.1388V17.3963H26.4095C27.3069 17.3963 28.0713 17.5514 28.7027 17.8616C29.3342 18.1718 29.805 18.5983 30.1152 19.1411C30.4365 19.684 30.5972 20.2988 30.5972 20.9857ZM26.3098 22.6641C26.9524 22.6641 27.4287 22.52 27.7389 22.232C28.0491 21.9329 28.2042 21.5174 28.2042 20.9857C28.2042 19.8557 27.5728 19.2907 26.3098 19.2907H24.4653V22.6641H26.3098ZM40.9399 19.7892V28.9954H38.5968V27.8321C38.2977 28.231 37.9044 28.5467 37.417 28.7793C36.9406 29.0009 36.4199 29.1117 35.8549 29.1117C35.1348 29.1117 34.4978 28.9621 33.9439 28.663C33.39 28.3528 32.9524 27.9041 32.6311 27.317C32.3209 26.7188 32.1658 26.0097 32.1658 25.1899V19.7892H34.4923V24.8576C34.4923 25.5888 34.6751 26.1538 35.0407 26.5526C35.4063 26.9403 35.9048 27.1342 36.5363 27.1342C37.1788 27.1342 37.6829 26.9403 38.0485 26.5526C38.414 26.1538 38.5968 25.5888 38.5968 24.8576V19.7892H40.9399ZM45.5618 21.1352C45.8609 20.6921 46.2708 20.3321 46.7915 20.0551C47.3233 19.7781 47.927 19.6397 48.6028 19.6397C49.3894 19.6397 50.0984 19.8335 50.7299 20.2213C51.3724 20.609 51.8765 21.1629 52.2421 21.883C52.6187 22.5921 52.8071 23.4174 52.8071 24.3591C52.8071 25.3007 52.6187 26.1371 52.2421 26.8683C51.8765 27.5884 51.3724 28.1479 50.7299 28.5467C50.0984 28.9455 49.3894 29.1449 48.6028 29.1449C47.916 29.1449 47.3122 29.012 46.7915 28.7461C46.2819 28.4691 45.872 28.1146 45.5618 27.6826V28.9954H43.2353V16.6983H45.5618V21.1352ZM50.4308 24.3591C50.4308 23.8051 50.3144 23.3288 50.0818 22.9299C49.8602 22.52 49.5611 22.2098 49.1844 21.9994C48.8189 21.7889 48.42 21.6836 47.988 21.6836C47.567 21.6836 47.1682 21.7944 46.7915 22.016C46.4259 22.2265 46.1268 22.5367 45.8942 22.9466C45.6726 23.3565 45.5618 23.8384 45.5618 24.3923C45.5618 24.9462 45.6726 25.4281 45.8942 25.838C46.1268 26.2479 46.4259 26.5637 46.7915 26.7852C47.1682 26.9957 47.567 27.101 47.988 27.101C48.42 27.101 48.8189 26.9902 49.1844 26.7686C49.5611 26.547 49.8602 26.2313 50.0818 25.8214C50.3144 25.4115 50.4308 24.9241 50.4308 24.3591ZM56.8241 16.6983V28.9954H54.4977V16.6983H56.8241ZM60.3025 18.6925C59.8926 18.6925 59.5492 18.5651 59.2722 18.3103C59.0063 18.0444 58.8734 17.7176 58.8734 17.3298C58.8734 16.9421 59.0063 16.6208 59.2722 16.366C59.5492 16.1001 59.8926 15.9672 60.3025 15.9672C60.7124 15.9672 61.0503 16.1001 61.3162 16.366C61.5931 16.6208 61.7316 16.9421 61.7316 17.3298C61.7316 17.7176 61.5931 18.0444 61.3162 18.3103C61.0503 18.5651 60.7124 18.6925 60.3025 18.6925ZM61.4491 19.7892V28.9954H59.1227V19.7892H61.4491ZM63.1494 24.3923C63.1494 23.4395 63.3433 22.6087 63.7311 21.8997C64.1188 21.1796 64.6561 20.6256 65.343 20.2379C66.0298 19.8391 66.8164 19.6397 67.7027 19.6397C68.8437 19.6397 69.7854 19.9277 70.5277 20.5038C71.281 21.0688 71.7851 21.8664 72.0399 22.8967H69.5306C69.3977 22.4979 69.1706 22.1877 68.8493 21.9661C68.5391 21.7335 68.1513 21.6172 67.686 21.6172C67.0213 21.6172 66.4951 21.8609 66.1074 22.3483C65.7196 22.8247 65.5258 23.506 65.5258 24.3923C65.5258 25.2675 65.7196 25.9488 66.1074 26.4363C66.4951 26.9126 67.0213 27.1508 67.686 27.1508C68.6277 27.1508 69.2426 26.7298 69.5306 25.8879H72.0399C71.7851 26.8849 71.281 27.677 70.5277 28.2642C69.7743 28.8513 68.8327 29.1449 67.7027 29.1449C66.8164 29.1449 66.0298 28.951 65.343 28.5633C64.6561 28.1645 64.1188 27.6106 63.7311 26.9015C63.3433 26.1814 63.1494 25.345 63.1494 24.3923ZM26.1436 50.1117C25.3349 50.1117 24.6037 49.9732 23.9501 49.6962C23.3076 49.4193 22.798 49.0205 22.4213 48.4998C22.0446 47.9791 21.8508 47.3642 21.8397 46.6552H24.3323C24.3656 47.1316 24.5317 47.5083 24.8309 47.7852C25.141 48.0622 25.562 48.2007 26.0938 48.2007C26.6366 48.2007 27.0631 48.0733 27.3733 47.8185C27.6835 47.5526 27.8386 47.2091 27.8386 46.7882C27.8386 46.4447 27.7334 46.1622 27.5229 45.9407C27.3124 45.7191 27.0465 45.5474 26.7253 45.4255C26.4151 45.2926 25.983 45.1486 25.4291 44.9935C24.6758 44.7719 24.0609 44.5559 23.5845 44.3454C23.1192 44.1238 22.7149 43.797 22.3714 43.3649C22.0391 42.9218 21.8729 42.3347 21.8729 41.6035C21.8729 40.9166 22.0446 40.3184 22.3881 39.8088C22.7315 39.2992 23.2134 38.9114 23.8338 38.6455C24.4542 38.3686 25.1632 38.2301 25.9608 38.2301C27.1573 38.2301 28.1267 38.5237 28.8689 39.1108C29.6223 39.6869 30.0377 40.4956 30.1152 41.537H27.5561C27.534 41.1382 27.3623 40.8114 27.041 40.5566C26.7308 40.2907 26.3154 40.1578 25.7947 40.1578C25.3405 40.1578 24.9749 40.2741 24.6979 40.5067C24.432 40.7394 24.2991 41.0773 24.2991 41.5204C24.2991 41.8306 24.3988 42.0909 24.5982 42.3014C24.8087 42.5008 25.0635 42.667 25.3626 42.7999C25.6728 42.9218 26.1049 43.0658 26.6588 43.232C27.4121 43.4536 28.027 43.6751 28.5033 43.8967C28.9797 44.1183 29.3896 44.4506 29.733 44.8938C30.0765 45.3369 30.2482 45.9185 30.2482 46.6386C30.2482 47.259 30.0875 47.8351 29.7663 48.3668C29.445 48.8986 28.9742 49.3251 28.3538 49.6464C27.7334 49.9566 26.9967 50.1117 26.1436 50.1117ZM34.5916 42.1186C34.8907 41.6976 35.3006 41.3487 35.8213 41.0717C36.3531 40.7837 36.9568 40.6397 37.6326 40.6397C38.4192 40.6397 39.1282 40.8335 39.7597 41.2213C40.4022 41.609 40.9063 42.1629 41.2719 42.883C41.6485 43.5921 41.8369 44.4174 41.8369 45.3591C41.8369 46.3007 41.6485 47.1371 41.2719 47.8683C40.9063 48.5884 40.4022 49.1479 39.7597 49.5467C39.1282 49.9455 38.4192 50.1449 37.6326 50.1449C36.9568 50.1449 36.3586 50.0064 35.8379 49.7295C35.3283 49.4525 34.9129 49.1036 34.5916 48.6826V54.3824H32.2651V40.7892H34.5916V42.1186ZM39.4606 45.3591C39.4606 44.8051 39.3442 44.3288 39.1116 43.9299C38.89 43.52 38.5909 43.2098 38.2142 42.9994C37.8487 42.7889 37.4498 42.6836 37.0178 42.6836C36.5968 42.6836 36.198 42.7944 35.8213 43.016C35.4557 43.2265 35.1566 43.5367 34.924 43.9466C34.7024 44.3565 34.5916 44.8384 34.5916 45.3923C34.5916 45.9462 34.7024 46.4281 34.924 46.838C35.1566 47.2479 35.4557 47.5637 35.8213 47.7852C36.198 47.9957 36.5968 48.101 37.0178 48.101C37.4498 48.101 37.8487 47.9902 38.2142 47.7686C38.5909 47.547 38.89 47.2313 39.1116 46.8214C39.3442 46.4115 39.4606 45.9241 39.4606 45.3591ZM52.0855 45.1929C52.0855 45.5252 52.0634 45.8243 52.019 46.0902H45.2889C45.3443 46.7549 45.577 47.2756 45.9869 47.6523C46.3968 48.0289 46.9008 48.2173 47.4991 48.2173C48.3632 48.2173 48.978 47.8462 49.3436 47.1039H51.8529C51.587 47.9902 51.0774 48.7213 50.324 49.2974C49.5707 49.8624 48.6457 50.1449 47.5489 50.1449C46.6626 50.1449 45.865 49.951 45.156 49.5633C44.458 49.1645 43.9097 48.605 43.5108 47.8849C43.1231 47.1648 42.9292 46.334 42.9292 45.3923C42.9292 44.4395 43.1231 43.6031 43.5108 42.883C43.8986 42.1629 44.4414 41.609 45.1394 41.2213C45.8373 40.8335 46.6405 40.6397 47.5489 40.6397C48.4241 40.6397 49.2051 40.828 49.892 41.2047C50.5899 41.5813 51.1272 42.1186 51.5039 42.8166C51.8916 43.5034 52.0855 44.2955 52.0855 45.1929ZM49.676 44.5282C49.6649 43.9299 49.4489 43.4536 49.0279 43.0991C48.6069 42.7335 48.0917 42.5507 47.4824 42.5507C46.9064 42.5507 46.4189 42.7279 46.0201 43.0824C45.6323 43.4259 45.3942 43.9078 45.3055 44.5282H49.676ZM53.1854 45.3591C53.1854 44.4285 53.3682 43.6031 53.7338 42.883C54.1104 42.1629 54.6145 41.609 55.246 41.2213C55.8885 40.8335 56.6031 40.6397 57.3896 40.6397C58.0765 40.6397 58.6747 40.7781 59.1843 41.0551C59.705 41.3321 60.1205 41.681 60.4307 42.102V40.7892H62.7737V49.9954H60.4307V48.6493C60.1315 49.0814 59.7161 49.4414 59.1843 49.7295C58.6636 50.0064 58.0599 50.1449 57.373 50.1449C56.5975 50.1449 55.8885 49.9455 55.246 49.5467C54.6145 49.1479 54.1104 48.5884 53.7338 47.8683C53.3682 47.1371 53.1854 46.3007 53.1854 45.3591ZM60.4307 45.3923C60.4307 44.8273 60.3199 44.3454 60.0983 43.9466C59.8767 43.5367 59.5776 43.2265 59.201 43.016C58.8243 42.7944 58.4199 42.6836 57.9879 42.6836C57.5558 42.6836 57.157 42.7889 56.7914 42.9994C56.4258 43.2098 56.1267 43.52 55.8941 43.9299C55.6725 44.3288 55.5617 44.8051 55.5617 45.3591C55.5617 45.913 55.6725 46.4004 55.8941 46.8214C56.1267 47.2313 56.4258 47.547 56.7914 47.7686C57.1681 47.9902 57.5669 48.101 57.9879 48.101C58.4199 48.101 58.8243 47.9957 59.201 47.7852C59.5776 47.5637 59.8767 47.2535 60.0983 46.8546C60.3199 46.4447 60.4307 45.9573 60.4307 45.3923ZM70.4965 49.9954L67.3724 46.0736V49.9954H65.0459V37.6983H67.3724V44.6944L70.4633 40.7892H73.4877L69.433 45.4089L73.5209 49.9954H70.4965ZM75.9302 39.6925C75.5203 39.6925 75.1769 39.5651 74.8999 39.3103C74.634 39.0444 74.5011 38.7176 74.5011 38.3298C74.5011 37.9421 74.634 37.6208 74.8999 37.366C75.1769 37.1001 75.5203 36.9672 75.9302 36.9672C76.3401 36.9672 76.678 37.1001 76.9439 37.366C77.2208 37.6208 77.3593 37.9421 77.3593 38.3298C77.3593 38.7176 77.2208 39.0444 76.9439 39.3103C76.678 39.5651 76.3401 39.6925 75.9302 39.6925ZM77.0768 40.7892V49.9954H74.7503V40.7892H77.0768ZM84.4769 40.6563C85.5737 40.6563 86.46 41.0052 87.1358 41.7032C87.8115 42.39 88.1494 43.3539 88.1494 44.5946V49.9954H85.823V44.9104C85.823 44.1792 85.6402 43.6197 85.2746 43.232C84.909 42.8332 84.4105 42.6338 83.779 42.6338C83.1365 42.6338 82.6269 42.8332 82.2502 43.232C81.8846 43.6197 81.7018 44.1792 81.7018 44.9104V49.9954H79.3754V40.7892H81.7018V41.9358C82.012 41.537 82.4053 41.2268 82.8817 41.0052C83.3691 40.7726 83.9009 40.6563 84.4769 40.6563ZM93.9678 40.6397C94.6547 40.6397 95.2584 40.7781 95.7791 41.0551C96.2998 41.321 96.7097 41.67 97.0088 42.102V40.7892H99.3519V50.0618C99.3519 50.9149 99.1802 51.6737 98.8367 52.3384C98.4933 53.0142 97.9782 53.546 97.2913 53.9337C96.6045 54.3326 95.7736 54.532 94.7987 54.532C93.4914 54.532 92.4168 54.2273 91.5749 53.618C90.744 53.0087 90.2732 52.1778 90.1624 51.1254H92.4722C92.5941 51.5463 92.8544 51.8787 93.2532 52.1224C93.6631 52.3772 94.1561 52.5046 94.7322 52.5046C95.408 52.5046 95.9564 52.2997 96.3773 51.8898C96.7983 51.4909 97.0088 50.8816 97.0088 50.0618V48.6327C96.7097 49.0648 96.2943 49.4248 95.7625 49.7129C95.2418 50.0009 94.6436 50.1449 93.9678 50.1449C93.1923 50.1449 92.4833 49.9455 91.8407 49.5467C91.1982 49.1479 90.6886 48.5884 90.3119 47.8683C89.9463 47.1371 89.7635 46.3007 89.7635 45.3591C89.7635 44.4285 89.9463 43.6031 90.3119 42.883C90.6886 42.1629 91.1927 41.609 91.8241 41.2213C92.4667 40.8335 93.1812 40.6397 93.9678 40.6397ZM97.0088 45.3923C97.0088 44.8273 96.898 44.3454 96.6765 43.9466C96.4549 43.5367 96.1558 43.2265 95.7791 43.016C95.4024 42.7944 94.9981 42.6836 94.566 42.6836C94.134 42.6836 93.7351 42.7889 93.3696 42.9994C93.004 43.2098 92.7049 43.52 92.4722 43.9299C92.2506 44.3288 92.1399 44.8051 92.1399 45.3591C92.1399 45.913 92.2506 46.4004 92.4722 46.8214C92.7049 47.2313 93.004 47.547 93.3696 47.7686C93.7462 47.9902 94.145 48.101 94.566 48.101C94.9981 48.101 95.4024 47.9957 95.7791 47.7852C96.1558 47.5637 96.4549 47.2535 96.6765 46.8546C96.898 46.4447 97.0088 45.9573 97.0088 45.3923Z" fill="black"/>
<path d="M24.1094 69.9363C23.6282 69.9363 23.1959 69.8526 22.8123 69.6852C22.4357 69.5109 22.1393 69.2738 21.9232 68.9739C21.707 68.6671 21.5954 68.3149 21.5884 67.9174H22.6031C22.638 68.2591 22.7774 68.5485 23.0215 68.7856C23.2726 69.0157 23.6352 69.1308 24.1094 69.1308C24.5627 69.1308 24.9183 69.0192 25.1764 68.7961C25.4414 68.5659 25.5739 68.273 25.5739 67.9174C25.5739 67.6384 25.4972 67.4118 25.3437 67.2375C25.1903 67.0631 24.9985 66.9306 24.7684 66.84C24.5383 66.7493 24.228 66.6517 23.8374 66.5471C23.3562 66.4216 22.9692 66.296 22.6763 66.1705C22.3904 66.045 22.1428 65.8497 21.9336 65.5847C21.7314 65.3127 21.6303 64.9501 21.6303 64.4968C21.6303 64.0993 21.7314 63.7472 21.9336 63.4403C22.1359 63.1335 22.4183 62.8964 22.7809 62.729C23.1505 62.5616 23.5724 62.478 24.0466 62.478C24.7301 62.478 25.2879 62.6488 25.7203 62.9905C26.1596 63.3322 26.4072 63.7855 26.463 64.3504H25.417C25.3821 64.0714 25.2356 63.8274 24.9776 63.6182C24.7196 63.402 24.3779 63.2939 23.9525 63.2939C23.555 63.2939 23.2307 63.3985 22.9797 63.6077C22.7286 63.8099 22.6031 64.0958 22.6031 64.4654C22.6031 64.7304 22.6763 64.9466 22.8228 65.114C22.9762 65.2814 23.161 65.4104 23.3772 65.501C23.6003 65.5847 23.9107 65.6823 24.3081 65.7939C24.7893 65.9264 25.1764 66.0589 25.4693 66.1914C25.7621 66.3169 26.0132 66.5157 26.2224 66.7877C26.4316 67.0527 26.5362 67.4153 26.5362 67.8756C26.5362 68.2312 26.4421 68.5659 26.2538 68.8798C26.0655 69.1936 25.7866 69.4481 25.417 69.6434C25.0474 69.8386 24.6115 69.9363 24.1094 69.9363ZM28.8889 65.1872C29.0772 64.8595 29.3562 64.5875 29.7258 64.3713C30.1023 64.1481 30.5382 64.0366 31.0333 64.0366C31.5424 64.0366 32.0026 64.1586 32.4141 64.4027C32.8325 64.6468 33.1603 64.992 33.3974 65.4383C33.6345 65.8776 33.753 66.3902 33.753 66.976C33.753 67.5548 33.6345 68.0708 33.3974 68.5241C33.1603 68.9774 32.8325 69.3296 32.4141 69.5806C32.0026 69.8317 31.5424 69.9572 31.0333 69.9572C30.5452 69.9572 30.1128 69.8491 29.7362 69.6329C29.3666 69.4098 29.0842 69.1343 28.8889 68.8065V72.5828H27.937V64.1307H28.8889V65.1872ZM32.7802 66.976C32.7802 66.5436 32.693 66.167 32.5187 65.8462C32.3444 65.5254 32.1073 65.2814 31.8074 65.114C31.5145 64.9466 31.1902 64.8629 30.8346 64.8629C30.4859 64.8629 30.1616 64.9501 29.8617 65.1245C29.5689 65.2918 29.3317 65.5394 29.1504 65.8671C28.9761 66.1879 28.8889 66.561 28.8889 66.9864C28.8889 67.4188 28.9761 67.7988 29.1504 68.1266C29.3317 68.4474 29.5689 68.695 29.8617 68.8693C30.1616 69.0367 30.4859 69.1203 30.8346 69.1203C31.1902 69.1203 31.5145 69.0367 31.8074 68.8693C32.1073 68.695 32.3444 68.4474 32.5187 68.1266C32.693 67.7988 32.7802 67.4153 32.7802 66.976ZM40.2362 66.7772C40.2362 66.9585 40.2258 67.1503 40.2048 67.3525H35.6232C35.658 67.9174 35.8498 68.3602 36.1985 68.681C36.5541 68.9948 36.983 69.1517 37.4851 69.1517C37.8966 69.1517 38.2383 69.0576 38.5102 68.8693C38.7892 68.674 38.9844 68.416 39.096 68.0952H40.1211C39.9677 68.6461 39.6609 69.0959 39.2006 69.4446C38.7404 69.7863 38.1685 69.9572 37.4851 69.9572C36.9412 69.9572 36.453 69.8351 36.0207 69.5911C35.5953 69.347 35.2605 69.0018 35.0165 68.5555C34.7724 68.1022 34.6503 67.5792 34.6503 66.9864C34.6503 66.3937 34.7689 65.8741 35.006 65.4278C35.2431 64.9815 35.5743 64.6398 35.9997 64.4027C36.4321 64.1586 36.9272 64.0366 37.4851 64.0366C38.0291 64.0366 38.5102 64.1551 38.9287 64.3922C39.3471 64.6293 39.6679 64.9571 39.891 65.3755C40.1211 65.787 40.2362 66.2542 40.2362 66.7772ZM39.2529 66.5785C39.2529 66.2158 39.1727 65.9055 39.0123 65.6475C38.8519 65.3825 38.6323 65.1837 38.3533 65.0512C38.0814 64.9118 37.778 64.842 37.4433 64.842C36.9621 64.842 36.5507 64.9954 36.2089 65.3023C35.8742 65.6091 35.6824 66.0345 35.6336 66.5785H39.2529ZM41.137 66.976C41.137 66.3902 41.2556 65.8776 41.4927 65.4383C41.7298 64.992 42.0541 64.6468 42.4655 64.4027C42.8839 64.1586 43.3477 64.0366 43.8568 64.0366C44.3589 64.0366 44.7947 64.1447 45.1643 64.3608C45.5339 64.577 45.8094 64.849 45.9907 65.1768V64.1307H46.953V69.863H45.9907V68.7961C45.8024 69.1308 45.52 69.4098 45.1434 69.6329C44.7738 69.8491 44.3414 69.9572 43.8463 69.9572C43.3372 69.9572 42.877 69.8317 42.4655 69.5806C42.0541 69.3296 41.7298 68.9774 41.4927 68.5241C41.2556 68.0708 41.137 67.5548 41.137 66.976ZM45.9907 66.9864C45.9907 66.5541 45.9035 66.1775 45.7292 65.8567C45.5548 65.5359 45.3177 65.2918 45.0179 65.1245C44.725 64.9501 44.4007 64.8629 44.045 64.8629C43.6894 64.8629 43.3651 64.9466 43.0722 65.114C42.7793 65.2814 42.5457 65.5254 42.3714 65.8462C42.197 66.167 42.1099 66.5436 42.1099 66.976C42.1099 67.4153 42.197 67.7988 42.3714 68.1266C42.5457 68.4474 42.7793 68.695 43.0722 68.8693C43.3651 69.0367 43.6894 69.1203 44.045 69.1203C44.4007 69.1203 44.725 69.0367 45.0179 68.8693C45.3177 68.695 45.5548 68.4474 45.7292 68.1266C45.9035 67.7988 45.9907 67.4188 45.9907 66.9864ZM51.7626 69.863L49.5136 67.3316V69.863H48.5617V62.1223H49.5136V66.6726L51.7207 64.1307H53.0492L50.3504 66.9864L53.0597 69.863H51.7626ZM57.6649 62.5721V67.1852C57.6649 67.8337 57.8218 68.3149 58.1356 68.6287C58.4564 68.9425 58.8992 69.0994 59.4641 69.0994C60.0219 69.0994 60.4578 68.9425 60.7716 68.6287C61.0924 68.3149 61.2528 67.8337 61.2528 67.1852V62.5721H62.2047V67.1747C62.2047 67.7814 62.0827 68.294 61.8386 68.7124C61.5945 69.1238 61.2633 69.4307 60.8448 69.6329C60.4334 69.8351 59.9696 69.9363 59.4536 69.9363C58.9375 69.9363 58.4703 69.8351 58.0519 69.6329C57.6405 69.4307 57.3127 69.1238 57.0686 68.7124C56.8315 68.294 56.713 67.7814 56.713 67.1747V62.5721H57.6649ZM64.7445 65.1872C64.9328 64.8595 65.2118 64.5875 65.5814 64.3713C65.9579 64.1481 66.3938 64.0366 66.8889 64.0366C67.398 64.0366 67.8583 64.1586 68.2697 64.4027C68.6881 64.6468 69.0159 64.992 69.253 65.4383C69.4901 65.8776 69.6086 66.3902 69.6086 66.976C69.6086 67.5548 69.4901 68.0708 69.253 68.5241C69.0159 68.9774 68.6881 69.3296 68.2697 69.5806C67.8583 69.8317 67.398 69.9572 66.8889 69.9572C66.4008 69.9572 65.9684 69.8491 65.5918 69.6329C65.2222 69.4098 64.9398 69.1343 64.7445 68.8065V72.5828H63.7926V64.1307H64.7445V65.1872ZM68.6358 66.976C68.6358 66.5436 68.5487 66.167 68.3743 65.8462C68.2 65.5254 67.9629 65.2814 67.663 65.114C67.3701 64.9466 67.0458 64.8629 66.6902 64.8629C66.3415 64.8629 66.0172 64.9501 65.7174 65.1245C65.4245 65.2918 65.1874 65.5394 65.006 65.8671C64.8317 66.1879 64.7445 66.561 64.7445 66.9864C64.7445 67.4188 64.8317 67.7988 65.006 68.1266C65.1874 68.4474 65.4245 68.695 65.7174 68.8693C66.0172 69.0367 66.3415 69.1203 66.6902 69.1203C67.0458 69.1203 67.3701 69.0367 67.663 68.8693C67.9629 68.695 68.2 68.4474 68.3743 68.1266C68.5487 67.7988 68.6358 67.4153 68.6358 66.976ZM72.0959 62.5721L71.9809 67.8023H71.1859L71.0708 62.5721H72.0959ZM71.6252 69.9258C71.4439 69.9258 71.2905 69.863 71.165 69.7375C71.0394 69.612 70.9767 69.4586 70.9767 69.2773C70.9767 69.0959 71.0394 68.9425 71.165 68.817C71.2905 68.6915 71.4439 68.6287 71.6252 68.6287C71.7996 68.6287 71.946 68.6915 72.0646 68.817C72.1901 68.9425 72.2528 69.0959 72.2528 69.2773C72.2528 69.4586 72.1901 69.612 72.0646 69.7375C71.946 69.863 71.7996 69.9258 71.6252 69.9258Z" fill="black"/>
<defs>
<clipPath id="clip0_287_14">
<rect width="113" height="110.507" fill="white" transform="translate(30.9629 40.4143)"/>
</clipPath>
</defs>
</svg>
