<svg width="49" height="49" viewBox="0 0 49 49" fill="none" xmlns="http://www.w3.org/2000/svg">
<g clip-path="url(#clip0_157_109)">
<path d="M24.5 49C38.031 49 49 38.031 49 24.5C49 10.969 38.031 0 24.5 0C10.969 0 0 10.969 0 24.5C0 38.031 10.969 49 24.5 49Z" fill="#EF5350"/>
<path d="M33.3445 33.9078H10.9979C10.7012 33.9078 10.4619 33.6686 10.4619 33.3719V31.5535C10.4619 31.2568 10.7012 31.0176 10.9979 31.0176H33.3541C33.6508 31.0176 33.89 31.2568 33.89 31.5535V33.3719V33.4102C33.8613 33.6973 33.6221 33.9078 33.3445 33.9078ZM11.0936 33.2666H33.2488V31.6492H11.0936V33.2666Z" fill="#FFFFFE"/>
<path d="M31.6303 36.0706H12.7289C12.3557 36.0706 12.0781 35.7835 12.0781 35.4198V33.6015C12.0781 33.4292 12.2217 33.2856 12.3939 33.2856C12.5662 33.2856 12.7098 33.4292 12.7098 33.6015V35.4198C12.7098 35.439 12.7193 35.439 12.7289 35.439H31.6303C31.6494 35.439 31.6494 35.4294 31.6494 35.4198V33.6015C31.6494 33.4292 31.793 33.2856 31.9652 33.2856C32.1375 33.2856 32.2811 33.4292 32.2811 33.6015V35.4198C32.2811 35.7739 32.0035 36.0706 31.6303 36.0706Z" fill="#FFFFFE"/>
<path d="M12.3666 31.6589C12.1943 31.6589 12.0508 31.5153 12.0508 31.3431V26.022C12.0508 25.754 12.1465 25.5147 12.3379 25.3138L12.3475 25.3042L13.8213 23.8304C13.9457 23.706 14.1467 23.706 14.2711 23.8304C14.3955 23.9548 14.3955 24.1558 14.2711 24.2802L12.7973 25.754C12.7207 25.8306 12.692 25.9167 12.692 26.0124V31.3335C12.692 31.5249 12.5484 31.6589 12.3666 31.6589Z" fill="#FFFFFE"/>
<path d="M14.6911 24.6342C14.3753 24.6342 14.0595 24.5194 13.8202 24.2801C13.3513 23.8112 13.3513 23.036 13.8106 22.5575L14.3753 21.9928C14.8442 21.5239 15.6194 21.5239 16.0979 21.9928C16.5669 22.4809 16.5669 23.2561 16.0979 23.725L15.5333 24.2897C15.3227 24.5098 15.0069 24.6342 14.6911 24.6342ZM15.2557 22.2704C15.1026 22.2704 14.9591 22.3182 14.8442 22.4426L14.2796 23.0073C14.0499 23.237 14.0499 23.6006 14.2796 23.8303C14.5093 24.06 14.8825 24.06 15.1026 23.8303L15.6673 23.2657C15.8874 23.0456 15.8874 22.6627 15.6673 22.4331C15.5524 22.3278 15.3993 22.2704 15.2557 22.2704Z" fill="#FFFFFE"/>
<path d="M31.9563 31.6685C31.784 31.6685 31.6405 31.5249 31.6405 31.3526V26.0315C31.6405 25.9263 31.6022 25.8401 31.5352 25.7731L30.0518 24.2802C29.9274 24.1558 29.9274 23.9548 30.0518 23.8304C30.1762 23.706 30.3772 23.706 30.5016 23.8304L31.9754 25.3042C32.1668 25.4956 32.2625 25.7444 32.2625 26.0124V31.3335C32.2721 31.5345 32.1286 31.6685 31.9563 31.6685Z" fill="#FFFFFE"/>
<path d="M29.6492 24.6342C29.3334 24.6342 29.0176 24.5194 28.7879 24.2801L28.2232 23.7155C27.9936 23.4858 27.8691 23.1891 27.8691 22.8637C27.8691 22.5383 27.9936 22.2225 28.2232 21.9928C28.7113 21.5239 29.477 21.5239 29.9459 21.9928L30.5105 22.5575C30.9795 23.0456 30.9795 23.8112 30.5105 24.2801C30.2713 24.5098 29.965 24.6342 29.6492 24.6342ZM29.0846 22.2704C28.9314 22.2704 28.7879 22.3278 28.6635 22.4426C28.5582 22.5479 28.4912 22.701 28.4912 22.8542C28.4912 23.0073 28.5486 23.1508 28.6635 23.2561L29.2281 23.8208C29.4578 24.0504 29.8215 24.0504 30.0607 23.8208C30.2904 23.5911 30.2809 23.2274 30.0512 22.9977L29.4865 22.4331C29.3908 22.3278 29.2377 22.2704 29.0846 22.2704Z" fill="#FFFFFE"/>
<path d="M28.4747 31.6587C28.3024 31.6587 28.1589 31.5151 28.1589 31.3429V27.754C28.1589 26.0601 26.7808 24.6915 25.0868 24.6915H19.2298C17.5358 24.6915 16.1673 26.0601 16.1673 27.754V31.3429C16.1673 31.5151 16.0237 31.6587 15.8515 31.6587C15.6792 31.6587 15.5356 31.5151 15.5356 31.3429V27.754C15.5356 25.7155 17.1913 24.0503 19.2394 24.0503H25.0964C27.1444 24.0503 28.8001 25.706 28.8001 27.754V31.3429C28.8001 31.5247 28.647 31.6587 28.4747 31.6587Z" fill="#FFFFFE"/>
<path d="M19.2274 31.6588C19.0552 31.6588 18.9116 31.5152 18.9116 31.343V29.2279C18.9116 29.0557 19.0552 28.9121 19.2274 28.9121C19.3997 28.9121 19.5433 29.0557 19.5433 29.2279V31.343C19.5528 31.5248 19.4093 31.6588 19.2274 31.6588Z" fill="#FFFFFE"/>
<path d="M25.1041 31.6588C24.9319 31.6588 24.7883 31.5152 24.7883 31.343V29.2279C24.7883 29.0557 24.9319 28.9121 25.1041 28.9121C25.2764 28.9121 25.42 29.0557 25.42 29.2279V31.343C25.4295 31.5248 25.286 31.6588 25.1041 31.6588Z" fill="#FFFFFE"/>
<path d="M22.1658 24.7012C20.1082 24.7012 18.4333 23.0264 18.4333 20.9688C18.4333 18.9111 20.1082 17.2363 22.1658 17.2363C24.2234 17.2363 25.8982 18.9111 25.8982 20.9688C25.8982 23.0264 24.2234 24.7012 22.1658 24.7012ZM22.1658 17.868C20.4623 17.868 19.065 19.2557 19.065 20.9688C19.065 22.6818 20.4527 24.0695 22.1658 24.0695C23.8789 24.0695 25.2666 22.6818 25.2666 20.9688C25.2666 19.2557 23.8693 17.868 22.1658 17.868Z" fill="#FFFFFE"/>
<path d="M28.3382 20.5093C28.2903 20.5093 28.2616 20.4997 28.2138 20.4806C28.0989 20.4327 28.0224 20.3083 28.0224 20.1839V18.5857H27.2089C26.8739 18.5857 26.606 18.3177 26.606 17.9827V13.523C26.606 13.3603 26.6729 13.2072 26.7878 13.0923C26.9026 12.987 27.0462 12.92 27.2089 12.9296H37.9372C38.2722 12.9296 38.5401 13.1976 38.5401 13.5325V18.0019C38.5401 18.3273 38.2722 18.6048 37.9372 18.6048H30.3767L28.5583 20.4232C28.5104 20.471 28.4339 20.5093 28.3382 20.5093ZM27.2472 17.9636H28.2233C28.4626 17.9636 28.6636 18.155 28.6636 18.4038V19.4279L29.9938 18.0976C30.0704 18.021 30.1853 17.9732 30.3001 17.9732H37.9085V13.5804H27.2472V17.9636Z" fill="#FFFFFE"/>
<path d="M29.4202 16.9779C28.7503 16.9779 28.2144 16.4324 28.2144 15.7721C28.2144 15.1021 28.7503 14.5566 29.4202 14.5566C30.0901 14.5566 30.6261 15.1021 30.6261 15.7625C30.6261 16.4229 30.0901 16.9779 29.4202 16.9779ZM29.4202 15.1883C29.1044 15.1883 28.846 15.4467 28.846 15.7625C28.846 16.0783 29.1044 16.3367 29.4202 16.3367C29.736 16.3367 29.9944 16.0783 29.9944 15.7625C29.9944 15.4467 29.736 15.1883 29.4202 15.1883Z" fill="#FFFFFE"/>
<path d="M32.5784 16.9779C31.9085 16.9779 31.3726 16.4324 31.3726 15.7721C31.3726 15.1021 31.9181 14.5566 32.5784 14.5566C33.2483 14.5566 33.7843 15.1021 33.7843 15.7625C33.7938 16.4229 33.2483 16.9779 32.5784 16.9779ZM32.5784 15.1883C32.2626 15.1883 32.0042 15.4467 32.0042 15.7625C32.0042 16.0783 32.2626 16.3367 32.5784 16.3367C32.8942 16.3367 33.1526 16.0783 33.1526 15.7625C33.1622 15.4467 32.8942 15.1883 32.5784 15.1883Z" fill="#FFFFFE"/>
<path d="M35.7366 16.9779C35.0667 16.9779 34.5308 16.4324 34.5308 15.7721C34.5308 15.1021 35.0763 14.5566 35.7366 14.5566C36.4065 14.5566 36.9425 15.1021 36.9425 15.7625C36.9425 16.4229 36.4161 16.9779 35.7366 16.9779ZM35.7366 15.1883C35.4208 15.1883 35.1624 15.4467 35.1624 15.7625C35.1624 16.0783 35.4208 16.3367 35.7366 16.3367C36.0524 16.3367 36.3108 16.0783 36.3108 15.7625C36.3108 15.4467 36.062 15.1883 35.7366 15.1883Z" fill="#FFFFFE"/>
</g>
<defs>
<clipPath id="clip0_157_109">
<rect width="49" height="49" fill="white"/>
</clipPath>
</defs>
</svg>
