<svg width="169" height="157" viewBox="0 0 169 157" fill="none" xmlns="http://www.w3.org/2000/svg">
<rect width="168.866" height="156.449" rx="5.46331" fill="#F4FBFF"/>
<mask id="mask0_287_7" style="mask-type:alpha" maskUnits="userSpaceOnUse" x="0" y="0" width="169" height="157">
<rect width="168.866" height="156.449" rx="5.46331" fill="#F8E6D6"/>
</mask>
<g mask="url(#mask0_287_7)">
<ellipse cx="84.7421" cy="172.113" rx="97.8808" ry="89.9978" fill="#D5EFFF"/>
</g>
<path d="M26.7924 30.5451C25.9392 30.5451 25.1678 30.399 24.4782 30.1068C23.8003 29.8146 23.2626 29.3938 22.8652 28.8445C22.4678 28.2951 22.2633 27.6464 22.2516 26.8984H24.8814C24.9165 27.401 25.0918 27.7984 25.4074 28.0906C25.7346 28.3828 26.1788 28.5289 26.7398 28.5289C27.3126 28.5289 27.7626 28.3945 28.0898 28.1256C28.4171 27.8451 28.5807 27.4828 28.5807 27.0386C28.5807 26.6763 28.4697 26.3782 28.2476 26.1445C28.0255 25.9107 27.745 25.7296 27.4061 25.601C27.0788 25.4607 26.623 25.3088 26.0385 25.1451C25.2437 24.9114 24.5951 24.6835 24.0925 24.4614C23.6016 24.2276 23.1749 23.8828 22.8126 23.427C22.462 22.9595 22.2866 22.34 22.2866 21.5686C22.2866 20.8439 22.4678 20.2127 22.8301 19.6751C23.1925 19.1374 23.7009 18.7283 24.3554 18.4478C25.01 18.1556 25.758 18.0095 26.5996 18.0095C27.8619 18.0095 28.8846 18.3192 29.6677 18.9387C30.4625 19.5465 30.9008 20.3997 30.9826 21.4984H28.2827C28.2593 21.0777 28.0781 20.7329 27.7392 20.464C27.4119 20.1835 26.9736 20.0432 26.4243 20.0432C25.945 20.0432 25.5593 20.166 25.2671 20.4114C24.9866 20.6569 24.8463 21.0134 24.8463 21.4809C24.8463 21.8082 24.9515 22.0828 25.1619 22.3049C25.384 22.5153 25.6528 22.6906 25.9684 22.8309C26.2957 22.9595 26.7515 23.1114 27.3359 23.2867C28.1307 23.5205 28.7794 23.7542 29.282 23.988C29.7846 24.2218 30.2171 24.5724 30.5794 25.04C30.9417 25.5075 31.1229 26.1211 31.1229 26.8808C31.1229 27.5354 30.9534 28.1432 30.6145 28.7042C30.2755 29.2652 29.7788 29.7152 29.1242 30.0542C28.4697 30.3815 27.6924 30.5451 26.7924 30.5451ZM35.7054 22.1121C36.021 21.6679 36.4535 21.2997 37.0028 21.0075C37.5638 20.7036 38.2008 20.5517 38.9138 20.5517C39.7437 20.5517 40.4917 20.7562 41.1579 21.1653C41.8359 21.5744 42.3677 22.1588 42.7534 22.9185C43.1508 23.6666 43.3495 24.5374 43.3495 25.5309C43.3495 26.5244 43.1508 27.4068 42.7534 28.1782C42.3677 28.938 41.8359 29.5282 41.1579 29.949C40.4917 30.3698 39.7437 30.5802 38.9138 30.5802C38.2008 30.5802 37.5697 30.4341 37.0203 30.1418C36.4827 29.8496 36.0444 29.4815 35.7054 29.0373V35.0509H33.2509V20.7095H35.7054V22.1121ZM40.8424 25.5309C40.8424 24.9464 40.7196 24.4439 40.4742 24.0231C40.2404 23.5906 39.9248 23.2633 39.5274 23.0413C39.1417 22.8192 38.721 22.7082 38.2651 22.7082C37.821 22.7082 37.4002 22.825 37.0028 23.0588C36.6171 23.2809 36.3015 23.6081 36.0561 24.0406C35.8223 24.4731 35.7054 24.9815 35.7054 25.5659C35.7054 26.1503 35.8223 26.6588 36.0561 27.0912C36.3015 27.5237 36.6171 27.8568 37.0028 28.0906C37.4002 28.3126 37.821 28.4237 38.2651 28.4237C38.721 28.4237 39.1417 28.3068 39.5274 28.073C39.9248 27.8393 40.2404 27.5062 40.4742 27.0737C40.7196 26.6412 40.8424 26.127 40.8424 25.5309ZM44.502 25.5309C44.502 24.549 44.6948 23.6783 45.0805 22.9185C45.4779 22.1588 46.0097 21.5744 46.676 21.1653C47.3539 20.7562 48.1078 20.5517 48.9376 20.5517C49.6623 20.5517 50.2935 20.6978 50.8311 20.99C51.3805 21.2822 51.8188 21.6504 52.146 22.0945V20.7095H54.6181V30.4224H52.146V29.0022C51.8305 29.4581 51.3921 29.838 50.8311 30.1418C50.2818 30.4341 49.6448 30.5802 48.9201 30.5802C48.1019 30.5802 47.3539 30.3698 46.676 29.949C46.0097 29.5282 45.4779 28.938 45.0805 28.1782C44.6948 27.4068 44.502 26.5244 44.502 25.5309ZM52.146 25.5659C52.146 24.9698 52.0292 24.4614 51.7954 24.0406C51.5616 23.6081 51.246 23.2809 50.8486 23.0588C50.4512 22.825 50.0246 22.7082 49.5688 22.7082C49.113 22.7082 48.6922 22.8192 48.3065 23.0413C47.9208 23.2633 47.6052 23.5906 47.3597 24.0231C47.126 24.4439 47.0091 24.9464 47.0091 25.5309C47.0091 26.1153 47.126 26.6295 47.3597 27.0737C47.6052 27.5062 47.9208 27.8393 48.3065 28.073C48.7039 28.3068 49.1246 28.4237 49.5688 28.4237C50.0246 28.4237 50.4512 28.3126 50.8486 28.0906C51.246 27.8568 51.5616 27.5295 51.7954 27.1088C52.0292 26.6763 52.146 26.162 52.146 25.5659ZM62.3978 20.5692C63.5549 20.5692 64.49 20.9374 65.2029 21.6738C65.9159 22.3984 66.2724 23.4153 66.2724 24.7244V30.4224H63.8179V25.0575C63.8179 24.2861 63.625 23.6958 63.2393 23.2867C62.8536 22.8659 62.3276 22.6556 61.6614 22.6556C60.9835 22.6556 60.4458 22.8659 60.0484 23.2867C59.6627 23.6958 59.4699 24.2861 59.4699 25.0575V30.4224H57.0154V20.7095H59.4699V21.9192C59.7971 21.4984 60.2121 21.1712 60.7147 20.9374C61.2289 20.6919 61.79 20.5692 62.3978 20.5692ZM69.8513 19.5523C69.4189 19.5523 69.0565 19.4179 68.7643 19.1491C68.4838 18.8686 68.3435 18.5238 68.3435 18.1147C68.3435 17.7056 68.4838 17.3667 68.7643 17.0978C69.0565 16.8173 69.4189 16.677 69.8513 16.677C70.2838 16.677 70.6403 16.8173 70.9208 17.0978C71.213 17.3667 71.3591 17.7056 71.3591 18.1147C71.3591 18.5238 71.213 18.8686 70.9208 19.1491C70.6403 19.4179 70.2838 19.5523 69.8513 19.5523ZM71.061 20.7095V30.4224H68.6065V20.7095H71.061ZM77.203 30.5802C76.4082 30.5802 75.6952 30.4399 75.064 30.1594C74.4329 29.8672 73.9303 29.4756 73.5562 28.9847C73.1939 28.4938 72.9952 27.9503 72.9601 27.3542H75.4322C75.479 27.7282 75.6601 28.038 75.9757 28.2834C76.303 28.5289 76.7062 28.6516 77.1854 28.6516C77.653 28.6516 78.0153 28.5581 78.2724 28.3711C78.5413 28.1841 78.6757 27.9445 78.6757 27.6523C78.6757 27.3367 78.512 27.1029 78.1848 26.951C77.8692 26.7873 77.3608 26.612 76.6595 26.425C75.9348 26.2497 75.3387 26.0685 74.8712 25.8815C74.4153 25.6945 74.0179 25.4081 73.679 25.0224C73.3517 24.6367 73.1881 24.1166 73.1881 23.462C73.1881 22.9244 73.34 22.4335 73.6439 21.9893C73.9595 21.5452 74.4036 21.1945 74.9764 20.9374C75.5608 20.6803 76.2445 20.5517 77.0276 20.5517C78.1848 20.5517 79.1081 20.8439 79.7977 21.4283C80.4873 22.001 80.8672 22.7783 80.9373 23.7601H78.588C78.5529 23.3744 78.3893 23.0705 78.0971 22.8484C77.8166 22.6147 77.4367 22.4978 76.9575 22.4978C76.5134 22.4978 76.1686 22.5796 75.9231 22.7432C75.6893 22.9069 75.5725 23.1348 75.5725 23.427C75.5725 23.7542 75.7361 24.0055 76.0634 24.1809C76.3906 24.3445 76.8991 24.514 77.5887 24.6893C78.29 24.8646 78.8685 25.0458 79.3244 25.2328C79.7802 25.4198 80.1718 25.712 80.499 26.1094C80.838 26.4951 81.0133 27.0094 81.025 27.6523C81.025 28.2133 80.8672 28.7159 80.5516 29.16C80.2477 29.6042 79.8036 29.9548 79.2192 30.212C78.6465 30.4574 77.9744 30.5802 77.203 30.5802ZM88.5099 20.5692C89.2463 20.5692 89.9008 20.7329 90.4735 21.0601C91.0463 21.3757 91.4904 21.8491 91.806 22.4802C92.1333 23.0997 92.2969 23.8478 92.2969 24.7244V30.4224H89.8424V25.0575C89.8424 24.2861 89.6495 23.6958 89.2638 23.2867C88.8781 22.8659 88.3521 22.6556 87.6859 22.6556C87.008 22.6556 86.4703 22.8659 86.0729 23.2867C85.6872 23.6958 85.4944 24.2861 85.4944 25.0575V30.4224H83.0398V17.4485H85.4944V21.9192C85.8099 21.4984 86.2307 21.1712 86.7567 20.9374C87.2827 20.6919 87.8671 20.5692 88.5099 20.5692Z" fill="black"/>
<g clip-path="url(#clip0_287_7)">
<path fill-rule="evenodd" clip-rule="evenodd" d="M65.3792 77.0834C66.5909 77.2035 67.668 77.9094 68.2685 78.9647V74.1541H68.9053V82.0032H69.7859V82.9784H69.0035L69.7859 90.107H60.2119L60.9943 82.9784H60.2119V82.0032H61.0707V74.1541H61.7075V79.0084C62.3225 77.8876 63.4687 77.1562 64.746 77.0688V68.8595H65.3828V77.0797L65.3792 77.0834ZM106.739 77.0616C107.951 77.1816 109.028 77.8876 109.628 78.9429V74.1322H110.269V81.9777H111.146V82.9529H110.367L111.146 90.0816H101.572L102.35 82.9529H101.572V81.9777H102.431V74.1322H103.067V78.9865C103.682 77.8657 104.829 77.1343 106.102 77.047V68.834H106.735V77.0579L106.739 77.0616Z" fill="#821010"/>
<path fill-rule="evenodd" clip-rule="evenodd" d="M88.0568 98.9099H90.4185V99.7395C91.532 100.151 92.5946 100.704 93.5661 101.384C95.5493 102.56 97.2524 104.154 98.5587 106.053H98.9917V100.427H98.1402V98.888H99.0791V95.4566H98.3622V93.688L98.8498 90.7333H99.7523L100.094 93.0985H101.033L101.67 90.3766H111.306L112.208 93.4697H113.762L114.06 90.9043H114.777L115.381 93.9792V95.3583H114.781V98.7061H115.683V100.522H114.781V114.444H116.251V115.471H114.857V128.596H108.704V121.322H105.189L105.091 128.596H96.8157V120.889H92.8238V128.596H88.2315V120.765H83.8212V128.592H79.167V120.889H75.1205V128.596H66.4927V121.322H63.0939V128.596H56.0927V115.471H54.6444V114.444H56.1727V100.522H55.2339V98.7061H56.1727V95.351H55.5469V93.9719L56.1764 90.897H56.9187L57.2317 93.4588H59.3495L60.2956 90.3657H69.8368L70.5064 93.0876H71.4707L71.8237 90.7223H72.7625L73.272 93.6771V95.4529H72.526V98.8844H73.5049V100.424H72.6133V106.126H73.2829V106.049H73.5194C75.4881 103.182 78.29 100.973 81.5432 99.7359V98.9062H83.9667V97.8582C83.9667 97.8546 83.9667 97.851 83.9667 97.8473C83.9667 96.9813 84.5853 96.2426 85.4368 96.0861V91.1699H86.3829V96.0679C86.8123 96.097 87.2163 96.2826 87.5183 96.5883C87.8531 96.9267 88.0423 97.3852 88.0423 97.8619L88.0496 98.9099H88.0568Z" fill="#DF4F4F"/>
<path d="M114.864 128.974H56.0632V149.749H114.864V128.974Z" fill="#DF4F4F"/>
<path d="M115.484 145.931H54.9685V150.029H115.48L115.484 145.931Z" fill="#821010"/>
<path d="M92.3761 142.46L92.3616 137.682C92.5326 136.645 93.4314 135.881 94.4831 135.881C95.5311 135.881 96.4262 136.634 96.6009 137.668L96.6155 142.46H92.3761Z" fill="white"/>
<path d="M83.8937 142.46L83.8792 137.682C84.0502 136.645 84.949 135.881 86.0006 135.881C87.0486 135.881 87.9438 136.634 88.1185 137.668L88.133 142.46H83.8937Z" fill="white"/>
<path d="M75.0951 142.46L75.0806 137.682C75.1752 136.66 76.0303 135.877 77.0565 135.877C77.1038 135.877 77.1511 135.881 77.1984 135.881C77.2494 135.877 77.3003 135.874 77.3476 135.874C78.3665 135.874 79.2216 136.649 79.3199 137.664L79.3344 142.457H75.0951V142.46Z" fill="white"/>
<path d="M62.7598 142.46L62.7416 137.682C62.8362 136.66 63.6913 135.877 64.7175 135.877C64.7648 135.877 64.8121 135.881 64.8594 135.881C64.9104 135.877 64.9613 135.874 65.0086 135.874C66.0275 135.874 66.8827 136.649 66.9809 137.664L66.9955 142.457H62.7561L62.7598 142.46Z" fill="white"/>
<path d="M105.029 142.46L105.007 137.682C105.178 136.645 106.077 135.881 107.129 135.881C108.173 135.881 109.068 136.634 109.247 137.668L109.261 142.46H105.026H105.029Z" fill="white"/>
<path d="M116.251 133.068H54.6484V134.498H116.251V133.068Z" fill="#CCE1FF"/>
<path d="M116.251 114.244H54.6484V115.674H116.251V114.244Z" fill="#CCE1FF"/>
<path d="M66.3431 107.607H63.1335V111.355H66.3431V107.607Z" fill="white"/>
<path d="M108.523 107.607H105.007V111.355H108.523V107.607Z" fill="white"/>
<path d="M83.6574 107.607H82.1509V111.355H83.6574V107.607Z" fill="white"/>
<path d="M86.4818 107.607H84.9753V111.355H86.4818V107.607Z" fill="white"/>
<path d="M89.6221 107.607H88.1156V111.355H89.6221V107.607Z" fill="white"/>
</g>
<path d="M23.2836 44.476C23.4588 44.476 23.606 44.5391 23.7251 44.6652C23.8512 44.7913 23.9143 44.9455 23.9143 45.1277C23.9143 45.3099 23.8512 45.464 23.7251 45.5902C23.606 45.7163 23.4588 45.7793 23.2836 45.7793C23.1014 45.7793 22.9473 45.7163 22.8212 45.5902C22.695 45.464 22.632 45.3099 22.632 45.1277C22.632 44.9455 22.695 44.7913 22.8212 44.6652C22.9473 44.5391 23.1014 44.476 23.2836 44.476ZM22.8422 46.6097H23.641L23.7566 51.865H22.7266L22.8422 46.6097ZM31.2912 43.0781V50.4041H30.3347V47.0827H26.6035V50.4041H25.647V43.0781H26.6035V46.2944H30.3347V43.0781H31.2912ZM35.4365 50.4986C34.8969 50.4986 34.4064 50.376 33.965 50.1308C33.5305 49.8855 33.1872 49.5387 32.9349 49.0902C32.6897 48.6348 32.567 48.1092 32.567 47.5136C32.567 46.925 32.6932 46.4065 32.9454 45.958C33.2047 45.5026 33.555 45.1557 33.9965 44.9175C34.4379 44.6722 34.9319 44.5496 35.4785 44.5496C36.0251 44.5496 36.5191 44.6722 36.9605 44.9175C37.402 45.1557 37.7488 45.4991 38.0011 45.9475C38.2603 46.396 38.39 46.918 38.39 47.5136C38.39 48.1092 38.2568 48.6348 37.9906 49.0902C37.7313 49.5387 37.3774 49.8855 36.929 50.1308C36.4805 50.376 35.983 50.4986 35.4365 50.4986ZM35.4365 49.6578C35.7798 49.6578 36.1021 49.5772 36.4034 49.416C36.7047 49.2549 36.9465 49.0131 37.1287 48.6908C37.3179 48.3685 37.4125 47.9761 37.4125 47.5136C37.4125 47.0511 37.3214 46.6587 37.1392 46.3364C36.957 46.0141 36.7188 45.7758 36.4245 45.6217C36.1302 45.4605 35.8113 45.3799 35.468 45.3799C35.1176 45.3799 34.7953 45.4605 34.501 45.6217C34.2137 45.7758 33.9825 46.0141 33.8073 46.3364C33.6321 46.6587 33.5445 47.0511 33.5445 47.5136C33.5445 47.9831 33.6286 48.379 33.7968 48.7013C33.972 49.0236 34.2032 49.2654 34.4905 49.4266C34.7778 49.5807 35.0931 49.6578 35.4365 49.6578ZM40.604 42.6261V50.4041H39.6476V42.6261H40.604ZM41.8768 47.5031C41.8768 46.9145 41.9959 46.3995 42.2342 45.958C42.4724 45.5096 42.7982 45.1627 43.2117 44.9175C43.6321 44.6722 44.0981 44.5496 44.6096 44.5496C45.1141 44.5496 45.552 44.6582 45.9234 44.8754C46.2948 45.0926 46.5716 45.3659 46.7538 45.6953V44.6442H47.7207V50.4041H46.7538V49.332C46.5646 49.6683 46.2808 49.9486 45.9024 50.1728C45.531 50.39 45.0966 50.4986 44.5991 50.4986C44.0876 50.4986 43.6251 50.3725 43.2117 50.1203C42.7982 49.868 42.4724 49.5141 42.2342 49.0587C41.9959 48.6032 41.8768 48.0847 41.8768 47.5031ZM46.7538 47.5136C46.7538 47.0792 46.6662 46.7008 46.491 46.3785C46.3158 46.0561 46.0776 45.8109 45.7763 45.6427C45.482 45.4675 45.1561 45.3799 44.7988 45.3799C44.4414 45.3799 44.1156 45.464 43.8213 45.6322C43.527 45.8004 43.2922 46.0456 43.1171 46.3679C42.9419 46.6903 42.8543 47.0687 42.8543 47.5031C42.8543 47.9446 42.9419 48.3299 43.1171 48.6593C43.2922 48.9816 43.527 49.2304 43.8213 49.4055C44.1156 49.5737 44.4414 49.6578 44.7988 49.6578C45.1561 49.6578 45.482 49.5737 45.7763 49.4055C46.0776 49.2304 46.3158 48.9816 46.491 48.6593C46.6662 48.3299 46.7538 47.9481 46.7538 47.5136ZM54.5147 44.5496C55.0122 44.5496 55.4466 44.6582 55.818 44.8754C56.1964 45.0926 56.4767 45.3659 56.6589 45.6953V44.6442H57.6258V50.5302C57.6258 51.0557 57.5137 51.5217 57.2895 51.9281C57.0653 52.3415 56.7429 52.6639 56.3225 52.8951C55.9091 53.1263 55.4256 53.2419 54.872 53.2419C54.1153 53.2419 53.4846 53.0633 52.9801 52.7059C52.4756 52.3485 52.1778 51.8615 52.0867 51.2449H53.0327C53.1378 51.5953 53.355 51.8755 53.6843 52.0858C54.0137 52.303 54.4096 52.4116 54.872 52.4116C55.3976 52.4116 55.825 52.2469 56.1543 51.9176C56.4907 51.5883 56.6589 51.1258 56.6589 50.5302V49.3215C56.4697 49.6578 56.1894 49.9381 55.818 50.1623C55.4466 50.3865 55.0122 50.4986 54.5147 50.4986C54.0032 50.4986 53.5372 50.3725 53.1168 50.1203C52.7033 49.868 52.3775 49.5141 52.1393 49.0587C51.901 48.6032 51.7819 48.0847 51.7819 47.5031C51.7819 46.9145 51.901 46.3995 52.1393 45.958C52.3775 45.5096 52.7033 45.1627 53.1168 44.9175C53.5372 44.6722 54.0032 44.5496 54.5147 44.5496ZM56.6589 47.5136C56.6589 47.0792 56.5713 46.7008 56.3961 46.3785C56.2209 46.0561 55.9827 45.8109 55.6814 45.6427C55.3871 45.4675 55.0612 45.3799 54.7039 45.3799C54.3465 45.3799 54.0207 45.464 53.7264 45.6322C53.4321 45.8004 53.1973 46.0456 53.0222 46.3679C52.847 46.6903 52.7594 47.0687 52.7594 47.5031C52.7594 47.9446 52.847 48.3299 53.0222 48.6593C53.1973 48.9816 53.4321 49.2304 53.7264 49.4055C54.0207 49.5737 54.3465 49.6578 54.7039 49.6578C55.0612 49.6578 55.3871 49.5737 55.6814 49.4055C55.9827 49.2304 56.2209 48.9816 56.3961 48.6593C56.5713 48.3299 56.6589 47.9481 56.6589 47.5136ZM64.4975 47.3034C64.4975 47.4856 64.487 47.6783 64.466 47.8815H59.8623C59.8974 48.4491 60.0901 48.894 60.4404 49.2163C60.7978 49.5317 61.2287 49.6893 61.7332 49.6893C62.1466 49.6893 62.49 49.5947 62.7633 49.4055C63.0436 49.2093 63.2398 48.9501 63.3519 48.6277H64.3819C64.2278 49.1813 63.9195 49.6333 63.457 49.9836C62.9945 50.327 62.4199 50.4986 61.7332 50.4986C61.1867 50.4986 60.6962 50.376 60.2617 50.1308C59.8343 49.8855 59.498 49.5387 59.2527 49.0902C59.0075 48.6348 58.8848 48.1092 58.8848 47.5136C58.8848 46.918 59.0039 46.396 59.2422 45.9475C59.4804 45.4991 59.8133 45.1557 60.2407 44.9175C60.6752 44.6722 61.1727 44.5496 61.7332 44.5496C62.2798 44.5496 62.7633 44.6687 63.1837 44.907C63.6041 45.1452 63.9265 45.4745 64.1507 45.895C64.3819 46.3084 64.4975 46.7779 64.4975 47.3034ZM63.5095 47.1037C63.5095 46.7393 63.429 46.4275 63.2678 46.1682C63.1066 45.902 62.8859 45.7023 62.6056 45.5691C62.3323 45.429 62.0275 45.3589 61.6912 45.3589C61.2077 45.3589 60.7943 45.5131 60.4509 45.8214C60.1146 46.1297 59.9219 46.5571 59.8728 47.1037H63.5095ZM68.5664 44.5391C69.2671 44.5391 69.8347 44.7528 70.2691 45.1802C70.7036 45.6007 70.9208 46.2103 70.9208 47.0091V50.4041H69.9748V47.1457C69.9748 46.5712 69.8312 46.1332 69.5439 45.8319C69.2566 45.5236 68.8642 45.3694 68.3667 45.3694C67.8622 45.3694 67.4593 45.5271 67.158 45.8424C66.8637 46.1577 66.7165 46.6167 66.7165 47.2193V50.4041H65.7601V44.6442H66.7165V45.464C66.9057 45.1697 67.1615 44.942 67.4838 44.7808C67.8131 44.6197 68.174 44.5391 68.5664 44.5391ZM72.9772 43.7087C72.795 43.7087 72.6409 43.6457 72.5147 43.5195C72.3886 43.3934 72.3255 43.2393 72.3255 43.0571C72.3255 42.8749 72.3886 42.7207 72.5147 42.5946C72.6409 42.4685 72.795 42.4054 72.9772 42.4054C73.1524 42.4054 73.2995 42.4685 73.4187 42.5946C73.5448 42.7207 73.6078 42.8749 73.6078 43.0571C73.6078 43.2393 73.5448 43.3934 73.4187 43.5195C73.2995 43.6457 73.1524 43.7087 72.9772 43.7087ZM73.4397 44.6442V50.4041H72.4832V44.6442H73.4397ZM77.5819 50.4986C77.0423 50.4986 76.5518 50.376 76.1104 50.1308C75.6759 49.8855 75.3326 49.5387 75.0803 49.0902C74.8351 48.6348 74.7125 48.1092 74.7125 47.5136C74.7125 46.925 74.8386 46.4065 75.0908 45.958C75.3501 45.5026 75.7005 45.1557 76.1419 44.9175C76.5834 44.6722 77.0774 44.5496 77.6239 44.5496C78.1705 44.5496 78.6645 44.6722 79.1059 44.9175C79.5474 45.1557 79.8942 45.4991 80.1465 45.9475C80.4057 46.396 80.5354 46.918 80.5354 47.5136C80.5354 48.1092 80.4022 48.6348 80.136 49.0902C79.8767 49.5387 79.5228 49.8855 79.0744 50.1308C78.6259 50.376 78.1284 50.4986 77.5819 50.4986ZM77.5819 49.6578C77.9252 49.6578 78.2476 49.5772 78.5489 49.416C78.8502 49.2549 79.0919 49.0131 79.2741 48.6908C79.4633 48.3685 79.5579 47.9761 79.5579 47.5136C79.5579 47.0511 79.4668 46.6587 79.2846 46.3364C79.1024 46.0141 78.8642 45.7758 78.5699 45.6217C78.2756 45.4605 77.9568 45.3799 77.6134 45.3799C77.263 45.3799 76.9407 45.4605 76.6464 45.6217C76.3591 45.7758 76.1279 46.0141 75.9527 46.3364C75.7775 46.6587 75.6899 47.0511 75.6899 47.5136C75.6899 47.9831 75.774 48.379 75.9422 48.7013C76.1174 49.0236 76.3486 49.2654 76.6359 49.4266C76.9232 49.5807 77.2385 49.6578 77.5819 49.6578ZM83.0332 43.0781L82.9176 48.3334H82.1188L82.0032 43.0781H83.0332ZM82.5602 50.4671C82.3781 50.4671 82.2239 50.4041 82.0978 50.2779C81.9716 50.1518 81.9086 49.9976 81.9086 49.8155C81.9086 49.6333 81.9716 49.4791 82.0978 49.353C82.2239 49.2269 82.3781 49.1638 82.5602 49.1638C82.7354 49.1638 82.8826 49.2269 83.0017 49.353C83.1278 49.4791 83.1909 49.6333 83.1909 49.8155C83.1909 49.9976 83.1278 50.1518 83.0017 50.2779C82.8826 50.4041 82.7354 50.4671 82.5602 50.4671Z" fill="black"/>
<defs>
<clipPath id="clip0_287_7">
<rect width="97.4317" height="97.4317" fill="white" transform="translate(36.7344 52.5969)"/>
</clipPath>
</defs>
</svg>
